<?xml version="1.0" encoding="UTF-8" standalone="no"?>
<svg
   version="1.2"
   viewBox="0 0 1000 285"
   width="1000"
   height="285"
   id="svg2"
   sodipodi:docname="pcbway-logo-color-mirrored.svg"
   inkscape:version="1.4.1 (1:1.4.1+202503302257+93de688d07)"
   xmlns:inkscape="http://www.inkscape.org/namespaces/inkscape"
   xmlns:sodipodi="http://sodipodi.sourceforge.net/DTD/sodipodi-0.dtd"
   xmlns="http://www.w3.org/2000/svg"
   xmlns:svg="http://www.w3.org/2000/svg">
  <defs
     id="defs2" />
  <sodipodi:namedview
     id="namedview2"
     pagecolor="#ffffff"
     bordercolor="#666666"
     borderopacity="1.0"
     inkscape:showpageshadow="2"
     inkscape:pageopacity="0.0"
     inkscape:pagecheckerboard="0"
     inkscape:deskcolor="#d1d1d1"
     inkscape:zoom="0.4635085"
     inkscape:cx="375.39765"
     inkscape:cy="242.714"
     inkscape:window-width="1536"
     inkscape:window-height="888"
     inkscape:window-x="0"
     inkscape:window-y="0"
     inkscape:window-maximized="1"
     inkscape:current-layer="svg2" />
  <style
     id="style1">.a{fill:#e46622}.b{fill:#19882f}</style>
  <path
     fill-rule="evenodd"
     class="a"
     d="M 474.3,197.4 C 287.2,191.9 158.4,203.7 0,223.5 l 6.6,4.5 c 132.3,-9.4 216.7,-24 364.6,-19.8 237.5,6.2 436.5,37.9 625.7,75.1 l -5.6,-26.5 Q 927.5,244.7 863.2,235 q -64.6,-9.8 -129.1,-17.1 -64.6,-7.6 -129.6,-12.5 -64.9,-5.2 -130.2,-8 z"
     id="path1" />
  <path
     fill-rule="evenodd"
     class="b"
     d="m 674.3,40.7 21.9,20.8 q 22.9,-23.6 50.7,-23.6 5.6,0 11.1,1 5.2,1.1 10.4,3.2 5.2,2 9.7,5.2 4.9,2.7 8.7,6.9 3.8,3.8 7,8.4 3.1,4.5 5.2,9.7 2.1,4.9 3.1,10.4 1,5.2 1,10.8 0,3.8 -0.3,7.6 -0.3,3.9 -1.4,7.3 -0.7,3.9 -2.1,7.3 -1.4,3.5 -3.1,7 -1.7,3.1 -4.2,5.9 -2,3.1 -4.8,5.6 -2.5,2.4 -5.2,4.5 -3.2,2.1 -6.3,3.8 -3.5,1.7 -6.9,3.1 -3.5,1.4 -7.3,2.5 -3.5,0.7 -7.3,1.4 -3.8,0.3 -7.6,0.3 -3.2,0 -6.3,-0.3 -3.1,-0.4 -6.6,-1.1 -3.1,-0.3 -6.2,-1.4 -3.2,-1 -5.9,-2.4 -3.5,-1.8 -7,-3.5 -3.1,-2.1 -6.2,-4.5 -3.2,-2.1 -6.3,-4.9 -2.8,-2.4 -5.5,-5.2 l -21.2,21.9 q 3.8,3.8 7.6,7.3 4.2,3.5 8.7,6.6 4.2,3.1 8.7,5.9 4.8,2.5 9.3,4.9 4.6,1.7 9.1,3.1 4.8,1.4 9.4,2.1 4.8,1 9.3,1.4 4.9,0.3 9.7,0.3 38.2,0 62.9,-24.3 24.6,-24 24.6,-62.2 0,-5.6 -0.6,-11.5 -0.7,-5.5 -2.1,-11.1 -1.4,-5.6 -3.5,-10.8 -2.4,-5.2 -5.2,-10.1 -2.8,-4.8 -6.3,-9.3 -3.4,-4.2 -7.6,-8.4 -3.8,-3.8 -8.7,-6.9 -4.5,-3.5 -9.4,-5.9 -5.2,-2.8 -10.4,-5.2 -5.5,-2.1 -11.1,-3.5 Q 764.3,9.4 758.4,8.7 752.5,8 746.6,8 q -4.9,0 -10.1,0.3 -4.9,0.7 -10.1,1.8 -4.8,1 -9.7,2.4 -4.9,1.8 -9.4,3.8 -4.8,2.1 -9.4,4.9 -4.1,2.4 -8.3,5.6 -4.2,3.1 -8,6.6 -3.8,3.4 -7.3,7.3 z M 977.5,183.9 V 6.3 h -57.3 q -33,0 -42.7,2.7 -3.9,1.1 -7.3,2.5 -3.9,1.7 -7,3.8 -3.5,2.4 -6.2,5.2 -2.8,2.8 -5.2,5.9 -2.5,3.5 -4.6,7.7 -2,4.1 -3.4,8.7 -1.4,4.5 -2.1,9 -0.4,4.5 -0.4,9 0,3.5 0.4,7.3 0.3,3.5 1,7 0.7,3.4 1.8,6.6 1.4,3.5 2.7,6.6 1.4,2.8 3.2,5.2 1.7,2.1 3.4,4.5 2.1,2.1 4.2,4.2 2.1,1.7 4.5,3.5 2.1,1.7 4.2,2.7 2.4,1.4 4.5,2.5 2.4,1 4.9,1.7 2.4,1.1 4.8,1.4 4.5,1 9.4,1.4 4.5,0.7 9.4,1 4.5,0.4 9,0.4 c 3.2,0 29.6,0 32.6,0 v 66.7 z m -702,-180 45.8,180 h 49.6 l 28.9,-111.2 27.7,111.2 h 50 L 523,3.9 H 476.2 L 451.2,124.5 420.9,3.9 H 376.2 L 347.3,124.8 321.3,3.9 Z M 16.8,48 85.2,234 h 45.5 L 110.2,180.8 159.9,48 H 115.4 L 87,133.5 60.2,48 Z m 183.7,121.7 q 4.2,3.4 7.6,6.6 1.1,0.7 2.5,1.4 1,1 2,1.7 1.1,0.7 2.5,1.4 1,0.7 2.4,1 3.1,1.8 6.3,2.8 3.1,1.4 6.2,2.1 3.5,0.7 7,1 3.1,0 6.6,0 4.1,0 8.3,-0.7 4.2,-0.7 8,-2.4 3.8,-1.4 7.3,-3.8 3.4,-2.4 6.6,-5.2 2.7,-3.2 5.2,-6.6 2.1,-3.5 3.8,-7.3 1.4,-4.2 2.1,-8.4 0.7,-4.1 0.7,-8.3 0,-3.1 -0.4,-6.3 -0.3,-3.1 -1,-6.2 -0.7,-3.2 -2.1,-6.3 -1,-2.8 -2.8,-5.5 -1.4,-2.5 -3.5,-4.6 -1.7,-2 -4.1,-4.1 -2.1,-1.8 -4.5,-3.5 -2.5,-1.4 -5.2,-2.4 -3.2,-1.8 -6.6,-2.8 -3.2,-1.4 -6.6,-2.5 -3.5,-0.7 -7.3,-1.3 -3.5,-0.7 -7,-1.4 -15.9,-2.1 -34.4,-3.5 v -0.7 q -0.3,-2.4 0.4,-4.5 0.3,-2.5 1.4,-4.5 1.4,-2.1 2.8,-3.9 1.7,-1.4 3.8,-2.7 2.8,-1.1 5.9,-2.1 3.1,-0.7 6.2,-1.4 3.2,-0.4 6.3,-0.7 3.1,0 6.6,0 2.1,0 4.1,0.3 2.5,0 4.6,0.4 2,0.3 4.5,1 2.1,0.4 4.1,1.1 2.5,0.7 5.3,1.4 2.4,0.6 4.8,1.7 2.4,0.7 4.9,1.7 2.4,1.1 4.8,2.1 h 3.5 v -33 q -6.2,-1.7 -20.5,-4.2 -3.5,-0.7 -6.9,-1 -3.5,-0.4 -7,-0.7 -3.8,-0.4 -7.3,-0.7 -3.4,0 -6.9,0 -35.1,0 -51.4,11.8 -16,11.5 -16,35.5 v 92.4 h 42 v -14.6 z m 0,-20.8 v -28.5 q 10.8,1 17.4,2 1.7,0 3.5,0.4 1.4,0.3 3.1,0.7 1.7,0.3 3.1,1 1.8,0.4 3.5,1.1 1,0.3 2.4,0.7 1.1,0.7 2.1,1.4 1.4,0.7 2.1,1.7 1,1 2.1,1.7 0.7,1.4 1.4,2.5 0.3,1.4 1,2.7 0.4,1.4 0.4,2.8 0.3,1.4 0.3,2.5 -0.3,9.7 -5.2,13.2 -1.7,1 -3.8,1.7 -1.8,0.7 -3.5,1.4 -2.1,0.3 -4.2,0.3 -1.7,0.4 -3.8,0 -1.4,0 -2.8,0 -1.7,-0.3 -3.1,-0.7 -1.4,-0.3 -2.8,-0.6 -1.3,-0.4 -2.7,-1.1 -1.4,-0.7 -2.8,-1.4 -1.4,-0.7 -2.8,-1.7 -1,-0.7 -2.4,-1.8 -1.4,-1 -2.5,-2 z m 325,-19.9 c 0,8.7 -1.3,17.4 2.1,24 q 1.4,2.5 2.8,4.9 1.4,2.1 3.1,4.2 1.8,2.1 3.9,4.1 1.7,1.8 4.1,3.5 2.5,2.1 4.9,3.8 2.8,1.8 5.5,3.2 2.8,1.4 5.9,2.4 2.8,1.4 5.9,2.1 3.9,1 7.7,1.7 3.8,0.7 7.6,1.1 3.8,0.3 7.7,0.7 4.1,0 7.9,0 h 72.3 V 4.3 c -2.6,0 -68.9,0 -71.2,0 q -3.8,0.3 -7.7,0.3 -3.8,0.4 -7.6,0.7 -3.8,0.4 -7.3,0.7 -2.8,0.4 -5.2,1.1 -2.4,0.3 -4.9,1.3 -2.4,0.7 -4.5,1.8 -2.4,1 -4.8,2.1 -2.1,1 -4.2,2.8 -2.1,1.3 -3.8,3.1 -2.1,1.7 -3.5,3.8 -1.7,2.1 -2.8,4.2 -1.4,2.4 -2,4.8 -1.1,2.5 -1.8,4.9 -0.7,2.4 -0.7,5.2 -0.3,2.5 -0.3,5.2 0,3.2 0.3,6.3 0.4,3.1 1.4,5.9 0.7,3.1 2.1,5.9 1,2.8 2.8,5.6 1.7,2.4 3.4,4.5 2.1,2.4 4.6,4.2 2,2 4.8,3.4 2.5,1.8 5.2,2.8 V 86 q -3.8,0.6 -7.3,2 -3.8,1.1 -6.9,2.8 -3.5,2.1 -6.6,4.2 -3.1,2.4 -5.9,5.2 c -6.6,7.3 -6.9,16.7 -7,28.8 z m 54.9,-73.3 q 0,-1.4 0.4,-2.4 0,-1.1 0.3,-2.5 0.4,-1 0.7,-2 0.3,-1.1 1,-2.1 0.4,-1.1 1.1,-2.1 0.7,-1.1 1.7,-2.1 1.1,-0.7 2.1,-1.4 1,-0.7 2.1,-1 1,-0.7 2.4,-1.1 1.4,-0.3 2.8,-0.7 1.4,-0.3 2.4,-0.3 1.4,0 2.8,-0.4 c 4.2,0 10.4,0 18.4,0 h 3.1 v 38.3 h -5.9 c -7.6,0 -13.2,0 -16.3,-0.4 q -1,0 -2.4,-0.3 -1.1,0 -2.5,-0.4 -1,-0.3 -2.4,-0.7 -1,-0.3 -2.1,-1 -1.4,-0.4 -2.4,-1.1 -1,-0.6 -2.1,-1.7 -1,-1 -1.7,-2.1 -0.7,-1 -1.4,-2.1 -0.4,-1.3 -0.7,-2.4 -0.7,-1.4 -0.7,-2.8 -0.3,-1 -0.3,-2.4 -0.4,-1.4 -0.4,-2.8 z M 569.3,129 q -0.3,-1.7 0,-3.4 0,-1.8 0.7,-3.5 0.3,-1.7 1,-3.1 0.7,-1.8 1.8,-3.2 0.7,-1 2.1,-2.4 1,-1 2.4,-1.7 1,-1.1 2.4,-1.8 1.8,-0.7 3.1,-1 1.4,-0.7 2.8,-1.1 1.4,-0.3 2.8,-0.3 1.4,-0.3 2.8,-0.3 1.4,-0.4 3.1,-0.4 c 4.5,0 11.1,0 19.1,0 h 8.3 V 152 h -2.4 q -17.7,0 -24.3,-0.4 -1.7,0 -3.5,-0.3 -1.7,0 -3.5,-0.7 -1.7,-0.3 -3.4,-0.7 -1.8,-0.7 -3.5,-1.4 -1.4,-0.7 -2.8,-1.4 -1.4,-0.7 -2.4,-1.7 -1,-1.1 -2.1,-2.1 -1,-1.4 -1.7,-2.8 -0.7,-1 -1.4,-2.8 -0.4,-1.4 -0.7,-2.7 -0.4,-1.4 -0.7,-2.8 0,-1.8 0,-3.2 z M 942.2,37.3 v 50.4 h -19.4 q -21.6,0 -28.5,-2.8 -1.7,-0.7 -3.5,-1.4 -1.4,-1 -2.8,-2.1 -1.3,-1 -2.7,-2.4 -1.1,-1.4 -2.1,-2.8 -1.1,-1.7 -2.1,-3.1 -0.7,-1.7 -1,-3.5 -0.7,-1.7 -0.7,-3.8 -0.4,-1.7 -0.4,-3.5 0,-2.1 0.4,-4.5 0.3,-2.1 1,-4.2 0.7,-2.1 1.7,-3.8 1.1,-1.7 2.5,-3.5 1.4,-1.7 3.1,-2.8 1.7,-1.3 3.5,-2.4 1.7,-1 3.8,-1.7 2.1,-0.7 4.2,-1.1 3.1,-0.3 6.2,-0.7 3.5,0 6.6,-0.3 3.1,0 6.3,0 3.4,0 6.6,0 z"
     id="path2" />
</svg>
