M48
; DRILL file {KiCad 8.0.7-8.0.7-0~ubuntu24.04.1} date 2024-12-29T20:55:18-0700
; FORMAT={-:-/ absolute / metric / decimal}
; #@! TF.CreationDate,2024-12-29T20:55:18-07:00
; #@! TF.GenerationSoftware,Kicad,Pcbnew,8.0.7-8.0.7-0~ubuntu24.04.1
; #@! TF.FileFunction,Plated,1,6,PTH
FMAT,2
METRIC
; #@! TA.AperFunction,Plated,PTH,ViaDrill
T1C0.300
; #@! TA.AperFunction,Plated,PTH,ComponentDrill
T2C0.650
; #@! TA.AperFunction,Plated,PTH,ComponentDrill
T3C0.700
%
G90
G05
T1
X148.48Y-91.262
X148.48Y-97.0
X148.48Y-102.332
X148.55Y-101.276
X149.136Y-104.132
X149.38Y-87.718
X149.87Y-86.753
X149.9Y-105.497
X150.0Y-90.35
X150.2Y-82.6
X150.2Y-83.785
X150.216Y-104.762
X150.3Y-84.8
X150.328Y-104.01
X150.468Y-94.715
X150.5Y-109.7
X150.5Y-110.9
X150.537Y-93.719
X150.545Y-86.2
X150.6Y-95.5
X150.643Y-103.319
X151.142Y-99.041
X151.295Y-99.79
X151.794Y-90.212
X151.876Y-99.24
X151.932Y-106.17
X151.985Y-87.27
X152.0Y-111.1
X152.01Y-101.713
X152.033Y-96.699
X152.116Y-92.034
X152.344Y-92.759
X152.344Y-93.519
X152.354Y-99.83
X152.366Y-106.794
X152.42Y-97.353
X152.614Y-86.722
X152.896Y-89.125
X152.897Y-96.035
X152.954Y-92.188
X153.005Y-102.31
X153.037Y-104.2
X153.181Y-98.122
X153.266Y-91.105
X153.28Y-95.375
X153.3Y-100.7
X153.69Y-101.979
X153.711Y-98.666
X153.736Y-106.883
X153.84Y-101.235
X153.857Y-94.86
X153.983Y-89.161
X154.034Y-92.092
X154.07Y-86.8
X154.2Y-104.2
X154.292Y-99.156
X154.3Y-83.0
X154.36Y-94.289
X154.372Y-102.314
X154.439Y-106.434
X154.636Y-91.104
X154.731Y-89.295
X154.8Y-82.38
X154.804Y-87.119
X154.83Y-99.77
X154.9Y-92.224
X154.932Y-93.768
X154.96Y-104.227
X154.982Y-101.86
X155.247Y-97.642
X155.263Y-82.982
X155.387Y-101.002
X155.497Y-93.26
X155.758Y-92.177
X155.9Y-89.13
X155.979Y-106.83
X155.998Y-104.109
X156.073Y-96.073
X156.088Y-99.912
X156.102Y-93.72
X156.244Y-91.108
X156.452Y-102.311
X156.557Y-106.336
X156.6Y-82.5
X156.652Y-94.26
X156.756Y-104.166
X156.845Y-86.879
X156.864Y-99.16
X156.958Y-92.273
X157.12Y-89.255
X157.219Y-94.827
X157.3Y-82.8
X157.54Y-91.107
X157.54Y-102.132
X157.774Y-95.426
X157.8Y-111.1
X157.857Y-106.82
X157.92Y-89.255
X157.925Y-86.731
X157.96Y-104.115
X158.048Y-97.898
X158.1Y-82.5
X158.204Y-100.415
X158.251Y-106.17
X158.3Y-92.44
X158.646Y-97.428
X158.96Y-91.766
X159.0Y-111.1
X159.03Y-87.27
X159.04Y-102.571
X159.187Y-96.887
X159.4Y-93.109
X159.4Y-100.415
X159.5Y-83.5
X159.525Y-98.975
X159.8Y-86.73
X159.9Y-82.5
X159.94Y-92.5
X160.0Y-84.9
X160.058Y-98.433
X160.107Y-90.602
X160.2Y-110.1
X160.2Y-111.1
X160.246Y-105.716
X160.3Y-95.4
X160.3Y-83.5
X160.344Y-88.187
X160.36Y-89.885
X160.5Y-89.0
X160.5Y-104.8
X160.506Y-103.98
X160.7Y-102.4
X160.954Y-107.35
X161.108Y-103.517
X161.64Y-89.1
X161.64Y-104.06
X161.683Y-91.219
X161.923Y-92.156
X161.923Y-97.04
X161.923Y-101.5
X162.32Y-107.3
T2
X149.2Y-83.0
X149.2Y-84.27
X149.2Y-85.54
X149.2Y-93.025
X149.2Y-94.295
X149.2Y-95.565
X149.2Y-98.025
X149.2Y-99.295
X149.2Y-100.565
X149.2Y-108.05
X149.2Y-109.32
X149.2Y-110.59
X153.48Y-108.9
X154.75Y-108.9
X156.02Y-108.9
X157.29Y-108.9
X161.6Y-82.985
X161.6Y-84.255
X161.6Y-85.525
X161.6Y-93.06
X161.6Y-94.33
X161.6Y-95.6
X161.6Y-98.0
X161.6Y-99.27
X161.6Y-100.54
X161.6Y-108.06
X161.6Y-109.33
X161.6Y-110.6
T3
X153.49Y-84.7
X154.76Y-84.7
X156.03Y-84.7
X157.3Y-84.7
M30
