G04 #@! TF.GenerationSoftware,KiCad,Pcbnew,8.0.7-8.0.7-0~ubuntu24.04.1*
G04 #@! TF.CreationDate,2024-12-29T20:55:18-07:00*
G04 #@! TF.ProjectId,ESP32-S3 Hub,45535033-322d-4533-9320-4875622e6b69,V1*
G04 #@! TF.SameCoordinates,Original*
G04 #@! TF.FileFunction,Copper,L3,Inr*
G04 #@! TF.FilePolarity,Positive*
%FSLAX46Y46*%
G04 Gerber Fmt 4.6, Leading zero omitted, Abs format (unit mm)*
G04 Created by KiCad (PCBNEW 8.0.7-8.0.7-0~ubuntu24.04.1) date 2024-12-29 20:55:18*
%MOMM*%
%LPD*%
G01*
G04 APERTURE LIST*
G04 #@! TA.AperFunction,ComponentPad*
%ADD10R,1.000000X1.000000*%
G04 #@! TD*
G04 #@! TA.AperFunction,ComponentPad*
%ADD11O,1.000000X1.000000*%
G04 #@! TD*
G04 #@! TA.AperFunction,ViaPad*
%ADD12C,0.600000*%
G04 #@! TD*
G04 #@! TA.AperFunction,Conductor*
%ADD13C,0.400000*%
G04 #@! TD*
G04 #@! TA.AperFunction,Conductor*
%ADD14C,0.160000*%
G04 #@! TD*
G04 APERTURE END LIST*
D10*
G04 #@! TO.N,VDD*
G04 #@! TO.C,J22*
X157290000Y-108900000D03*
D11*
G04 #@! TO.N,RS485+*
X156020000Y-108900000D03*
G04 #@! TO.N,RS485-*
X154750000Y-108900000D03*
G04 #@! TO.N,GND*
X153480000Y-108900000D03*
G04 #@! TD*
D10*
G04 #@! TO.N,4A*
G04 #@! TO.C,J10*
X149200000Y-93025000D03*
D11*
G04 #@! TO.N,4B*
X149200000Y-94295000D03*
G04 #@! TO.N,4C*
X149200000Y-95565000D03*
G04 #@! TD*
D10*
G04 #@! TO.N,2CSA-A*
G04 #@! TO.C,J6*
X149200000Y-98025000D03*
D11*
G04 #@! TO.N,2CSA-B*
X149200000Y-99295000D03*
G04 #@! TO.N,unconnected-(J6-Pin_3-Pad3)*
X149200000Y-100565000D03*
G04 #@! TD*
D10*
G04 #@! TO.N,1CSA-A*
G04 #@! TO.C,J2*
X161600000Y-110600000D03*
D11*
G04 #@! TO.N,1CSA-B*
X161600000Y-109330000D03*
G04 #@! TO.N,unconnected-(J2-Pin_3-Pad3)*
X161600000Y-108060000D03*
G04 #@! TD*
D10*
G04 #@! TO.N,1A*
G04 #@! TO.C,J1*
X161600000Y-100540000D03*
D11*
G04 #@! TO.N,1B*
X161600000Y-99270000D03*
G04 #@! TO.N,1C*
X161600000Y-98000000D03*
G04 #@! TD*
D10*
G04 #@! TO.N,3A*
G04 #@! TO.C,J7*
X161600000Y-85525000D03*
D11*
G04 #@! TO.N,3B*
X161600000Y-84255000D03*
G04 #@! TO.N,3C*
X161600000Y-82985000D03*
G04 #@! TD*
D10*
G04 #@! TO.N,4CSA-A*
G04 #@! TO.C,J12*
X149200000Y-83000000D03*
D11*
G04 #@! TO.N,4CSA-B*
X149200000Y-84270000D03*
G04 #@! TO.N,unconnected-(J12-Pin_3-Pad3)*
X149200000Y-85540000D03*
G04 #@! TD*
D10*
G04 #@! TO.N,VDD*
G04 #@! TO.C,J21*
X157300000Y-84700000D03*
D11*
G04 #@! TO.N,RS485+*
X156030000Y-84700000D03*
G04 #@! TO.N,RS485-*
X154760000Y-84700000D03*
G04 #@! TO.N,GND*
X153490000Y-84700000D03*
G04 #@! TD*
D10*
G04 #@! TO.N,2A*
G04 #@! TO.C,J4*
X149200000Y-108050000D03*
D11*
G04 #@! TO.N,2B*
X149200000Y-109320000D03*
G04 #@! TO.N,2C*
X149200000Y-110590000D03*
G04 #@! TD*
D10*
G04 #@! TO.N,3CSA-A*
G04 #@! TO.C,J9*
X161600000Y-95600000D03*
D11*
G04 #@! TO.N,3CSA-B*
X161600000Y-94330000D03*
G04 #@! TO.N,unconnected-(J9-Pin_3-Pad3)*
X161600000Y-93060000D03*
G04 #@! TD*
D12*
G04 #@! TO.N,VDD*
X149900000Y-105496998D03*
X160299998Y-95399999D03*
X160344276Y-88186986D03*
X161108450Y-103516808D03*
X152009999Y-101712599D03*
X154034410Y-92092401D03*
X150544998Y-86200000D03*
X150600000Y-95500000D03*
X158203727Y-100415442D03*
G04 #@! TO.N,GND*
X148480000Y-97000000D03*
X160200000Y-110100000D03*
X160300000Y-83500000D03*
X161640000Y-89100000D03*
X159040000Y-102571126D03*
X161922884Y-97040000D03*
X156073223Y-96073223D03*
X155246598Y-97642310D03*
X159000000Y-111100000D03*
X148480000Y-102331717D03*
X151793613Y-90212371D03*
X160200000Y-111100000D03*
X154800000Y-82380000D03*
X158100000Y-82500000D03*
X161922884Y-92155925D03*
X154982015Y-101859847D03*
X150500000Y-110900000D03*
X157800000Y-111100000D03*
X156600000Y-82500000D03*
X149136282Y-104132393D03*
X162320000Y-107300000D03*
X150000000Y-90350000D03*
X152000000Y-111100000D03*
X159800000Y-86730000D03*
X160000000Y-84900000D03*
X151294670Y-99790000D03*
X150500000Y-109700000D03*
X161640000Y-104060001D03*
X159900000Y-82500000D03*
X149379999Y-87718132D03*
G04 #@! TO.N,NRST*
X151141953Y-99041485D03*
X148549578Y-101276085D03*
G04 #@! TO.N,Net-(D1-A)*
X159500000Y-83500000D03*
G04 #@! TO.N,1CSA-B*
X155387269Y-101002147D03*
G04 #@! TO.N,1CSA-A*
X153689712Y-101979452D03*
G04 #@! TO.N,MISO1*
X150536964Y-93719477D03*
X156557167Y-106336230D03*
X154200000Y-104200000D03*
X157119997Y-89254998D03*
X154070000Y-86800000D03*
X150328227Y-104010458D03*
X160359999Y-89884892D03*
X160500000Y-104800000D03*
G04 #@! TO.N,CS1*
X160954233Y-107349656D03*
X161922884Y-101500002D03*
G04 #@! TO.N,MOSI1*
X148480000Y-91262446D03*
X160246471Y-105716468D03*
X160107496Y-90601738D03*
X150468035Y-94714566D03*
X154372324Y-102313585D03*
X150643337Y-103318859D03*
X156244493Y-91108358D03*
X155979163Y-106829699D03*
X154803658Y-87118982D03*
G04 #@! TO.N,SCK1*
X160505908Y-103980000D03*
X155900000Y-89130000D03*
X157774437Y-95425778D03*
X150216282Y-104762171D03*
X152116372Y-92033553D03*
X160500000Y-89000000D03*
X154959538Y-104226564D03*
G04 #@! TO.N,2C*
X159400000Y-100415443D03*
G04 #@! TO.N,2B*
X156863746Y-99160000D03*
G04 #@! TO.N,2A*
X156088197Y-99911803D03*
G04 #@! TO.N,2CSA-B*
X153840274Y-101234516D03*
G04 #@! TO.N,2CSA-A*
X153300000Y-100700000D03*
G04 #@! TO.N,3B*
X159525479Y-98975121D03*
G04 #@! TO.N,CS3*
X152419849Y-97353221D03*
X161682834Y-91218760D03*
G04 #@! TO.N,3CSA-B*
X154292448Y-99156098D03*
G04 #@! TO.N,3CSA-A*
X154829829Y-99770174D03*
G04 #@! TO.N,4A*
X159400000Y-93108533D03*
G04 #@! TO.N,4C*
X159940000Y-92500000D03*
G04 #@! TO.N,4B*
X158960432Y-91765946D03*
G04 #@! TO.N,CS4*
X149869701Y-86752904D03*
X152033203Y-96698923D03*
G04 #@! TO.N,4CSA-B*
X152354046Y-99830446D03*
G04 #@! TO.N,4CSA-A*
X151875582Y-99239962D03*
G04 #@! TO.N,CS8*
X157218989Y-94826615D03*
X157925500Y-86731121D03*
X153265598Y-91105180D03*
G04 #@! TO.N,Free1*
X156756039Y-104166085D03*
X153735770Y-106882760D03*
X158300000Y-92440000D03*
G04 #@! TO.N,SCL1*
X153005358Y-102309998D03*
X152614449Y-86721799D03*
X157540000Y-91106549D03*
X154900000Y-92223542D03*
X157856927Y-106819918D03*
G04 #@! TO.N,CS7*
X152895924Y-89125249D03*
X159029929Y-87270000D03*
X156652392Y-94260000D03*
G04 #@! TO.N,SDA1*
X158250897Y-106170002D03*
X153036657Y-104200000D03*
X151984998Y-87270000D03*
X155757649Y-92176593D03*
X157920000Y-89254998D03*
G04 #@! TO.N,CS5*
X152896560Y-96034926D03*
X157540000Y-102131895D03*
X151932355Y-106170000D03*
G04 #@! TO.N,CS6*
X152365531Y-106794470D03*
X156102321Y-93720000D03*
X157960000Y-104115002D03*
G04 #@! TO.N,Net-(U1-GPIO3)*
X153711171Y-98666485D03*
G04 #@! TO.N,Net-(U1-MTCK)*
X155497422Y-93259890D03*
G04 #@! TO.N,Net-(U1-MTDO)*
X154931835Y-93767545D03*
G04 #@! TO.N,Net-(U1-MTDI)*
X154359934Y-94288522D03*
G04 #@! TO.N,LED*
X153280421Y-95374671D03*
X157300000Y-82800000D03*
G04 #@! TO.N,RS485-*
X155998194Y-104108892D03*
X154731368Y-89295045D03*
X154300000Y-83000000D03*
G04 #@! TO.N,RS485+*
X154635916Y-91103542D03*
X155263382Y-82982396D03*
X156451832Y-102311196D03*
X154438870Y-106433922D03*
G04 #@! TO.N,BOOT*
X160700000Y-102400000D03*
X153181159Y-98121796D03*
G04 #@! TO.N,ShiftCLK*
X158645660Y-97427606D03*
G04 #@! TO.N,ShiftData*
X160058061Y-98432941D03*
G04 #@! TO.N,UART0-RTS{slash}CS0*
X150200000Y-83785235D03*
X152954410Y-92187537D03*
G04 #@! TO.N,Net-(U1-GPIO46)*
X152343963Y-93518681D03*
G04 #@! TO.N,ShiftRegCLK*
X158048399Y-97897588D03*
G04 #@! TO.N,ShiftEn*
X159186859Y-96887054D03*
G04 #@! TO.N,UART0_TX*
X150200000Y-82600000D03*
X153856792Y-94860000D03*
G04 #@! TO.N,UART0_RX*
X150300000Y-84800000D03*
X152343963Y-92758678D03*
G04 #@! TO.N,Free2*
X156958254Y-92272623D03*
X153983239Y-89161229D03*
X156845500Y-86878802D03*
G04 #@! TD*
D13*
G04 #@! TO.N,VDD*
X150210000Y-91010000D02*
X149410000Y-91010000D01*
X160588468Y-88021582D02*
X160588468Y-86254669D01*
X158865479Y-98635573D02*
X158865479Y-99753690D01*
X151456372Y-92256372D02*
X150210000Y-91010000D01*
X151600000Y-95353908D02*
X151600000Y-92450562D01*
X150280286Y-101060286D02*
X151500000Y-102280000D01*
X159800000Y-102100000D02*
X158203727Y-100503727D01*
X159407496Y-90891688D02*
X159407496Y-88992504D01*
X152009999Y-101712599D02*
X152009999Y-101770001D01*
X160600000Y-96901052D02*
X158865479Y-98635573D01*
X150690336Y-96261250D02*
X150692658Y-96261250D01*
X150544998Y-86200000D02*
X150600000Y-86200000D01*
X159400000Y-106990000D02*
X159400000Y-104900000D01*
X157290000Y-108900000D02*
X157490000Y-108900000D01*
X149900000Y-105496998D02*
X151129353Y-105496998D01*
X150692658Y-96261250D02*
X150876954Y-96076954D01*
X158203727Y-100503727D02*
X158203727Y-100415442D01*
X154034410Y-92092401D02*
X154034410Y-92965590D01*
X160791642Y-103200000D02*
X159800000Y-103200000D01*
X151129353Y-105496998D02*
X151232355Y-105600000D01*
X151500000Y-105332355D02*
X151232355Y-105600000D01*
X160405025Y-88205025D02*
X160588468Y-88021582D01*
X160194975Y-88205025D02*
X160405025Y-88205025D01*
X155700000Y-83840000D02*
X152904998Y-83840000D01*
X160600000Y-95700000D02*
X160600000Y-92084192D01*
X160362315Y-88205025D02*
X160405025Y-88205025D01*
X151456372Y-92306934D02*
X151456372Y-92256372D01*
X154034410Y-92965590D02*
X151646092Y-95353908D01*
X158865479Y-99753690D02*
X158203727Y-100415442D01*
X150280286Y-96671300D02*
X150690336Y-96261250D01*
X150600000Y-95500000D02*
X150600000Y-95800000D01*
X151646092Y-95353908D02*
X151600000Y-95353908D01*
X151232355Y-105600000D02*
X151000000Y-105832355D01*
X161108450Y-103516808D02*
X160791642Y-103200000D01*
X159407496Y-88992504D02*
X160194975Y-88205025D01*
X159800000Y-103200000D02*
X159800000Y-102100000D01*
X160299998Y-95399999D02*
X160299999Y-95399999D01*
X152904998Y-83840000D02*
X150544998Y-86200000D01*
X149100000Y-89600000D02*
X150544998Y-88155002D01*
X150600000Y-95800000D02*
X150876954Y-96076954D01*
X150544998Y-88155002D02*
X150544998Y-86200000D01*
X160600000Y-92084192D02*
X159407496Y-90891688D01*
X150876954Y-96076954D02*
X151600000Y-95353908D01*
X150280286Y-96671300D02*
X150280286Y-101060286D01*
X151500000Y-102280000D02*
X151500000Y-105332355D01*
X160344276Y-88186986D02*
X160362315Y-88205025D01*
X149100000Y-90700000D02*
X149100000Y-89600000D01*
X152009999Y-101770001D02*
X151500000Y-102280000D01*
X151600000Y-92450562D02*
X151456372Y-92306934D01*
X149410000Y-91010000D02*
X149100000Y-90700000D01*
X159400000Y-104900000D02*
X159800000Y-104500000D01*
X160600000Y-95700000D02*
X160600000Y-96901052D01*
X160299999Y-95399999D02*
X160600000Y-95700000D01*
X160178418Y-85844619D02*
X158444619Y-85844619D01*
X160588468Y-86254669D02*
X160178418Y-85844619D01*
X159800000Y-104500000D02*
X159800000Y-103200000D01*
D14*
G04 #@! TO.N,MISO1*
X154070000Y-86800000D02*
X153570000Y-86300000D01*
X152485249Y-88585249D02*
X156450248Y-88585249D01*
X152218201Y-86181799D02*
X151444998Y-86955002D01*
X152838125Y-86181799D02*
X152218201Y-86181799D01*
X151444998Y-87544998D02*
X152485249Y-88585249D01*
X153570000Y-86300000D02*
X152956326Y-86300000D01*
X156450248Y-88585249D02*
X157119997Y-89254998D01*
X151444998Y-86955002D02*
X151444998Y-87544998D01*
X152956326Y-86300000D02*
X152838125Y-86181799D01*
G04 #@! TO.N,MOSI1*
X152136937Y-85810515D02*
X151124998Y-86822454D01*
X153938676Y-85905000D02*
X153013874Y-85905000D01*
X149996964Y-94243495D02*
X150468035Y-94714566D01*
X149996964Y-93152766D02*
X149996964Y-94243495D01*
X150000000Y-92400000D02*
X148862446Y-91262446D01*
X151124998Y-87724998D02*
X152200000Y-88800000D01*
X154803658Y-86769982D02*
X153938676Y-85905000D01*
X155263542Y-90563542D02*
X155808358Y-91108358D01*
X155808358Y-91108358D02*
X156244493Y-91108358D01*
X151124998Y-86822454D02*
X151124998Y-87724998D01*
X150000000Y-93149730D02*
X150000000Y-92400000D01*
X150000000Y-93149730D02*
X149996964Y-93152766D01*
X152919389Y-85810515D02*
X152136937Y-85810515D01*
X152200000Y-88800000D02*
X152200000Y-89193001D01*
X148862446Y-91262446D02*
X148480000Y-91262446D01*
X153013874Y-85905000D02*
X152919389Y-85810515D01*
X152200000Y-89193001D02*
X153570541Y-90563542D01*
X154372324Y-102313585D02*
X154380274Y-102305635D01*
X153570541Y-90563542D02*
X155263542Y-90563542D01*
X154803658Y-87118982D02*
X154803658Y-86769982D01*
G04 #@! TO.N,Free1*
X158300000Y-93063676D02*
X159600000Y-94363676D01*
X159726859Y-97110730D02*
X158420000Y-98417589D01*
X158420000Y-98417589D02*
X158420000Y-99380000D01*
X158420000Y-99380000D02*
X157663727Y-100136273D01*
X159726859Y-96663378D02*
X159726859Y-97110730D01*
X159600000Y-94363676D02*
X159600000Y-96536519D01*
X158300000Y-92440000D02*
X158300000Y-93063676D01*
X158100000Y-102822124D02*
X156756039Y-104166085D01*
X159600000Y-96536519D02*
X159726859Y-96663378D01*
X157663727Y-101163727D02*
X158100000Y-101600000D01*
X158100000Y-101600000D02*
X158100000Y-102822124D01*
X157663727Y-100136273D02*
X157663727Y-101163727D01*
G04 #@! TO.N,SCL1*
X155519468Y-101633624D02*
X155973401Y-101179691D01*
X158460000Y-90186549D02*
X158460000Y-89031322D01*
X158460000Y-89031322D02*
X157108678Y-87680000D01*
X155500000Y-100351202D02*
X155500000Y-99402042D01*
X155500000Y-99402042D02*
X152300000Y-96202042D01*
X152300000Y-95565050D02*
X154900000Y-92965050D01*
X153005358Y-102309998D02*
X152496657Y-102818699D01*
X152496657Y-102818699D02*
X152496657Y-104423676D01*
X154900000Y-92223542D02*
X154976458Y-92300000D01*
X157108678Y-87680000D02*
X153572650Y-87680000D01*
X153508339Y-105435358D02*
X156472367Y-105435358D01*
X152300000Y-96202042D02*
X152300000Y-95565050D01*
X153775360Y-103080000D02*
X154620000Y-103080000D01*
X155522015Y-102177985D02*
X155522015Y-101636171D01*
X152496657Y-104423676D02*
X153508339Y-105435358D01*
X155973401Y-100824603D02*
X155500000Y-100351202D01*
X156472367Y-105435358D02*
X157856927Y-106819918D01*
X155973401Y-101179691D02*
X155973401Y-100824603D01*
X155522015Y-101636171D02*
X155519468Y-101633624D01*
X153005358Y-102309998D02*
X153775360Y-103080000D01*
X153572650Y-87680000D02*
X152614449Y-86721799D01*
X154976458Y-92300000D02*
X155000000Y-92300000D01*
X157540000Y-91106549D02*
X158460000Y-90186549D01*
X154900000Y-92965050D02*
X154900000Y-92223542D01*
X154620000Y-103080000D02*
X155522015Y-102177985D01*
G04 #@! TO.N,SDA1*
X155900000Y-98959930D02*
X156628197Y-99688127D01*
X157000000Y-96000000D02*
X155900000Y-97100000D01*
X155842015Y-101763625D02*
X155842015Y-102310533D01*
X154752548Y-103400000D02*
X153836657Y-103400000D01*
X156628197Y-100977443D02*
X155842015Y-101763625D01*
X158100000Y-96000000D02*
X157000000Y-96000000D01*
X153036657Y-104200000D02*
X153952015Y-105115358D01*
X151984998Y-87270000D02*
X152714998Y-88000000D01*
X155757649Y-92557649D02*
X158314437Y-95114437D01*
X155900000Y-97100000D02*
X155900000Y-98959930D01*
X156628197Y-99688127D02*
X156628197Y-100977443D01*
X158314437Y-95785563D02*
X158100000Y-96000000D01*
X155842015Y-102310533D02*
X154752548Y-103400000D01*
X156665002Y-88000000D02*
X157920000Y-89254998D01*
X158314437Y-95114437D02*
X158314437Y-95785563D01*
X157196253Y-105115358D02*
X158250897Y-106170002D01*
X153836657Y-103400000D02*
X153036657Y-104200000D01*
X155757649Y-92176593D02*
X155757649Y-92557649D01*
X153952015Y-105115358D02*
X157196253Y-105115358D01*
X152714998Y-88000000D02*
X156665002Y-88000000D01*
G04 #@! TO.N,RS485-*
X157600000Y-93000000D02*
X159100000Y-94500000D01*
X155768358Y-90568358D02*
X156468169Y-90568358D01*
X159100000Y-96000000D02*
X157508399Y-97591601D01*
X157000000Y-103107086D02*
X155998194Y-104108892D01*
X154731368Y-89295045D02*
X154731368Y-89531368D01*
X156468169Y-90568358D02*
X156900000Y-91000189D01*
X156900000Y-91000189D02*
X156900000Y-91230225D01*
X157508399Y-98355851D02*
X157920000Y-98767452D01*
X159100000Y-94500000D02*
X159100000Y-96000000D01*
X157600000Y-91930225D02*
X157600000Y-93000000D01*
X154731368Y-89531368D02*
X155768358Y-90568358D01*
X156900000Y-91230225D02*
X157600000Y-91930225D01*
X157000000Y-101908219D02*
X157000000Y-103107086D01*
X157300000Y-99939970D02*
X157300000Y-101608219D01*
X157920000Y-99319970D02*
X157300000Y-99939970D01*
X157300000Y-101608219D02*
X157000000Y-101908219D01*
X157508399Y-97591601D02*
X157508399Y-98355851D01*
X157920000Y-98767452D02*
X157920000Y-99319970D01*
G04 #@! TO.N,RS485+*
X157344447Y-93691971D02*
X157167670Y-93515194D01*
X157600000Y-98900000D02*
X157338371Y-98638371D01*
X155972459Y-91600000D02*
X155132374Y-91600000D01*
X158192976Y-94540500D02*
X158016199Y-94363723D01*
X156418254Y-92496299D02*
X156418254Y-92045795D01*
X158355128Y-96292324D02*
X158583896Y-96063556D01*
X158583896Y-96063556D02*
X158780000Y-95867452D01*
X157640949Y-97006504D02*
X157640949Y-97006503D01*
X157188399Y-97912399D02*
X157188399Y-97848399D01*
X157188399Y-97478399D02*
X157188399Y-97459053D01*
X155132374Y-91600000D02*
X154635916Y-91103542D01*
X157338371Y-98638371D02*
X157188399Y-98488399D01*
X156600000Y-101855671D02*
X156948197Y-101507474D01*
X156672132Y-98040399D02*
X157060399Y-98040399D01*
X157437115Y-96440631D02*
X157482372Y-96395375D01*
X157595695Y-97051760D02*
X157640949Y-97006504D01*
X156913853Y-96822469D02*
X156959110Y-96777213D01*
X158048245Y-96599210D02*
X158093499Y-96553954D01*
X156600000Y-102163028D02*
X156600000Y-101855671D01*
X157188399Y-97848399D02*
X157188399Y-97478399D01*
X158093499Y-96553954D02*
X158355128Y-96292324D01*
X158780000Y-94632548D02*
X158687952Y-94540500D01*
X156948197Y-99839225D02*
X157600000Y-99187422D01*
X156990894Y-92843442D02*
X156960075Y-92812623D01*
X157640950Y-96825483D02*
X157437116Y-96621649D01*
X157600000Y-99187422D02*
X157600000Y-98900000D01*
X157060399Y-98360399D02*
X156672132Y-98360399D01*
X158016199Y-93868747D02*
X157839423Y-93691971D01*
X156418254Y-92045795D02*
X155972459Y-91600000D01*
X156544132Y-98232399D02*
X156544132Y-98168399D01*
X157188400Y-97278033D02*
X156913854Y-97003487D01*
X157140128Y-96777214D02*
X157414675Y-97051761D01*
X158780000Y-95867452D02*
X158780000Y-94632548D01*
X156948197Y-101507474D02*
X156948197Y-99839225D01*
X156960075Y-92812623D02*
X156734578Y-92812623D01*
X157167670Y-93020218D02*
X156990894Y-92843442D01*
X157663390Y-96395376D02*
X157867225Y-96599211D01*
X156451832Y-102311196D02*
X156405128Y-102311196D01*
X156451832Y-102311196D02*
X156600000Y-102163028D01*
X156734578Y-92812623D02*
X156418254Y-92496299D01*
X156544132Y-98168399D02*
G75*
G02*
X156672132Y-98040432I127968J-1D01*
G01*
X157188399Y-97459053D02*
G75*
G03*
X157188443Y-97277991I-90499J90553D01*
G01*
X157167670Y-93515194D02*
G75*
G02*
X157167720Y-93267756I123730J123694D01*
G01*
X156959110Y-96777213D02*
G75*
G02*
X157140109Y-96777232I90490J-90487D01*
G01*
X158687952Y-94540500D02*
G75*
G03*
X158440464Y-94540500I-123744J-123746D01*
G01*
X157482372Y-96395375D02*
G75*
G02*
X157663409Y-96395356I90528J-90525D01*
G01*
X157060399Y-98040399D02*
G75*
G03*
X157188399Y-97912399I1J127999D01*
G01*
X157591935Y-93691971D02*
G75*
G02*
X157344447Y-93691971I-123744J123746D01*
G01*
X157167670Y-93267706D02*
G75*
G03*
X157167632Y-93020256I-123770J123706D01*
G01*
X157839423Y-93691971D02*
G75*
G03*
X157591935Y-93691971I-123744J-123746D01*
G01*
X157640949Y-97006503D02*
G75*
G03*
X157640943Y-96825490I-90549J90503D01*
G01*
X157867225Y-96599211D02*
G75*
G03*
X158048210Y-96599176I90475J90511D01*
G01*
X157414675Y-97051761D02*
G75*
G03*
X157595711Y-97051776I90525J90461D01*
G01*
X158016199Y-94116235D02*
G75*
G03*
X158016190Y-93868756I-123699J123735D01*
G01*
X158016199Y-94363723D02*
G75*
G02*
X158016220Y-94116256I123701J123723D01*
G01*
X157188399Y-98488399D02*
G75*
G03*
X157060399Y-98360401I-127999J-1D01*
G01*
X158440464Y-94540500D02*
G75*
G02*
X158192976Y-94540500I-123744J123746D01*
G01*
X156913854Y-97003487D02*
G75*
G02*
X156913875Y-96822491I90546J90487D01*
G01*
X156672132Y-98360399D02*
G75*
G02*
X156544101Y-98232399I-32J127999D01*
G01*
X157437116Y-96621649D02*
G75*
G02*
X157437075Y-96440591I90484J90549D01*
G01*
G04 #@! TD*
G04 #@! TA.AperFunction,Conductor*
G04 #@! TO.N,VDD*
G36*
X149950373Y-82094852D02*
G01*
X149964725Y-82129500D01*
X149950373Y-82164148D01*
X149942216Y-82170722D01*
X149868871Y-82217857D01*
X149805258Y-82291270D01*
X149771721Y-82308057D01*
X149758668Y-82307241D01*
X149734183Y-82302371D01*
X149719748Y-82299500D01*
X148680252Y-82299500D01*
X148621769Y-82311133D01*
X148555447Y-82355447D01*
X148522828Y-82404266D01*
X148511133Y-82421769D01*
X148499500Y-82480252D01*
X148499500Y-83519748D01*
X148511133Y-83578231D01*
X148523827Y-83597229D01*
X148555447Y-83644552D01*
X148599762Y-83674162D01*
X148621769Y-83688867D01*
X148670155Y-83698491D01*
X148701336Y-83719325D01*
X148708653Y-83756108D01*
X148693088Y-83783226D01*
X148671816Y-83802071D01*
X148575182Y-83942068D01*
X148575181Y-83942070D01*
X148518084Y-84092626D01*
X148514860Y-84101128D01*
X148494355Y-84270000D01*
X148514860Y-84438872D01*
X148514861Y-84438874D01*
X148575181Y-84597929D01*
X148575182Y-84597931D01*
X148645636Y-84700000D01*
X148671817Y-84737929D01*
X148799148Y-84850734D01*
X148799156Y-84850738D01*
X148819875Y-84861613D01*
X148843885Y-84890423D01*
X148840490Y-84927772D01*
X148819875Y-84948387D01*
X148799156Y-84959261D01*
X148799151Y-84959264D01*
X148799148Y-84959266D01*
X148799147Y-84959267D01*
X148799146Y-84959268D01*
X148671816Y-85072071D01*
X148575182Y-85212068D01*
X148575181Y-85212070D01*
X148519160Y-85359790D01*
X148514860Y-85371128D01*
X148494355Y-85540000D01*
X148514860Y-85708872D01*
X148514861Y-85708874D01*
X148575181Y-85867929D01*
X148575182Y-85867931D01*
X148671816Y-86007928D01*
X148671817Y-86007929D01*
X148799148Y-86120734D01*
X148949775Y-86199790D01*
X149114944Y-86240500D01*
X149285056Y-86240500D01*
X149450225Y-86199790D01*
X149600852Y-86120734D01*
X149728183Y-86007929D01*
X149824818Y-85867930D01*
X149885140Y-85708872D01*
X149905645Y-85540000D01*
X149885140Y-85371128D01*
X149824818Y-85212070D01*
X149798109Y-85173376D01*
X149728183Y-85072071D01*
X149652760Y-85005252D01*
X149600852Y-84959266D01*
X149580122Y-84948386D01*
X149556114Y-84919579D01*
X149559507Y-84882229D01*
X149580122Y-84861613D01*
X149600852Y-84850734D01*
X149714231Y-84750289D01*
X149749680Y-84738056D01*
X149783399Y-84754474D01*
X149795633Y-84789925D01*
X149795224Y-84793936D01*
X149794353Y-84799998D01*
X149794353Y-84800002D01*
X149814833Y-84942454D01*
X149822512Y-84959268D01*
X149874623Y-85073373D01*
X149874624Y-85073374D01*
X149874625Y-85073376D01*
X149961273Y-85173373D01*
X149968872Y-85182143D01*
X150089947Y-85259953D01*
X150160735Y-85280738D01*
X150228034Y-85300499D01*
X150228037Y-85300499D01*
X150228039Y-85300500D01*
X150228040Y-85300500D01*
X150371960Y-85300500D01*
X150371961Y-85300500D01*
X150371963Y-85300499D01*
X150371965Y-85300499D01*
X150394795Y-85293795D01*
X150510053Y-85259953D01*
X150631128Y-85182143D01*
X150725377Y-85073373D01*
X150785165Y-84942457D01*
X150785165Y-84942455D01*
X150785166Y-84942454D01*
X150805647Y-84800002D01*
X150805647Y-84799997D01*
X150791270Y-84700000D01*
X152784355Y-84700000D01*
X152804860Y-84868872D01*
X152804861Y-84868874D01*
X152865181Y-85027929D01*
X152865182Y-85027931D01*
X152896551Y-85073376D01*
X152961817Y-85167929D01*
X153089148Y-85280734D01*
X153239775Y-85359790D01*
X153404944Y-85400500D01*
X153575056Y-85400500D01*
X153740225Y-85359790D01*
X153890852Y-85280734D01*
X154018183Y-85167929D01*
X154083451Y-85073373D01*
X154084674Y-85071601D01*
X154116168Y-85051239D01*
X154152835Y-85059110D01*
X154165326Y-85071601D01*
X154165650Y-85072071D01*
X154231817Y-85167929D01*
X154359148Y-85280734D01*
X154509775Y-85359790D01*
X154674944Y-85400500D01*
X154845056Y-85400500D01*
X155010225Y-85359790D01*
X155160852Y-85280734D01*
X155288183Y-85167929D01*
X155353451Y-85073373D01*
X155354674Y-85071601D01*
X155386168Y-85051239D01*
X155422835Y-85059110D01*
X155435326Y-85071601D01*
X155435650Y-85072071D01*
X155501817Y-85167929D01*
X155629148Y-85280734D01*
X155779775Y-85359790D01*
X155944944Y-85400500D01*
X156115056Y-85400500D01*
X156279718Y-85359915D01*
X156316794Y-85365558D01*
X156337354Y-85390366D01*
X156356646Y-85442088D01*
X156356647Y-85442090D01*
X156442811Y-85557188D01*
X156557908Y-85643351D01*
X156692626Y-85693598D01*
X156752166Y-85700000D01*
X157050000Y-85700000D01*
X157550000Y-85700000D01*
X157847834Y-85700000D01*
X157907372Y-85693598D01*
X157907373Y-85693598D01*
X158042091Y-85643351D01*
X158157188Y-85557188D01*
X158243351Y-85442091D01*
X158293598Y-85307373D01*
X158293598Y-85307372D01*
X158300000Y-85247834D01*
X158300000Y-84950000D01*
X157550000Y-84950000D01*
X157550000Y-85700000D01*
X157050000Y-85700000D01*
X157050000Y-84944975D01*
X157085095Y-84980070D01*
X157164905Y-85026148D01*
X157253922Y-85050000D01*
X157346078Y-85050000D01*
X157435095Y-85026148D01*
X157514905Y-84980070D01*
X157580070Y-84914905D01*
X157588677Y-84899997D01*
X159494353Y-84899997D01*
X159494353Y-84900002D01*
X159514833Y-85042454D01*
X159528359Y-85072071D01*
X159574623Y-85173373D01*
X159574624Y-85173374D01*
X159574625Y-85173376D01*
X159668871Y-85282142D01*
X159668872Y-85282143D01*
X159789947Y-85359953D01*
X159866785Y-85382514D01*
X159928034Y-85400499D01*
X159928037Y-85400499D01*
X159928039Y-85400500D01*
X159928040Y-85400500D01*
X160071960Y-85400500D01*
X160071961Y-85400500D01*
X160071963Y-85400499D01*
X160071965Y-85400499D01*
X160094795Y-85393795D01*
X160210053Y-85359953D01*
X160331128Y-85282143D01*
X160425377Y-85173373D01*
X160485165Y-85042457D01*
X160485165Y-85042455D01*
X160485166Y-85042454D01*
X160505647Y-84900002D01*
X160505647Y-84899997D01*
X160485166Y-84757545D01*
X160477963Y-84741773D01*
X160425377Y-84626627D01*
X160400510Y-84597929D01*
X160331128Y-84517857D01*
X160280149Y-84485095D01*
X160210053Y-84440047D01*
X160210050Y-84440046D01*
X160071965Y-84399500D01*
X160071961Y-84399500D01*
X159928039Y-84399500D01*
X159928034Y-84399500D01*
X159789949Y-84440046D01*
X159668871Y-84517857D01*
X159574625Y-84626623D01*
X159574624Y-84626625D01*
X159514833Y-84757545D01*
X159494353Y-84899997D01*
X157588677Y-84899997D01*
X157626148Y-84835095D01*
X157650000Y-84746078D01*
X157650000Y-84653922D01*
X157626148Y-84564905D01*
X157580070Y-84485095D01*
X157544975Y-84450000D01*
X157550000Y-84450000D01*
X158300000Y-84450000D01*
X158300000Y-84152165D01*
X158293598Y-84092627D01*
X158293598Y-84092626D01*
X158243351Y-83957908D01*
X158157188Y-83842811D01*
X158042091Y-83756648D01*
X157907373Y-83706401D01*
X157847834Y-83700000D01*
X157550000Y-83700000D01*
X157550000Y-84450000D01*
X157544975Y-84450000D01*
X157514905Y-84419930D01*
X157435095Y-84373852D01*
X157346078Y-84350000D01*
X157253922Y-84350000D01*
X157164905Y-84373852D01*
X157085095Y-84419930D01*
X157050000Y-84455025D01*
X157050000Y-83700000D01*
X156752166Y-83700000D01*
X156692627Y-83706401D01*
X156692626Y-83706401D01*
X156557908Y-83756648D01*
X156442811Y-83842811D01*
X156356645Y-83957912D01*
X156337355Y-84009632D01*
X156311800Y-84037080D01*
X156279719Y-84040084D01*
X156115056Y-83999500D01*
X155944944Y-83999500D01*
X155779775Y-84040209D01*
X155629156Y-84119261D01*
X155629151Y-84119264D01*
X155629148Y-84119266D01*
X155629146Y-84119268D01*
X155501816Y-84232071D01*
X155435326Y-84328398D01*
X155403832Y-84348760D01*
X155367165Y-84340889D01*
X155354674Y-84328398D01*
X155288183Y-84232071D01*
X155287584Y-84231540D01*
X155160852Y-84119266D01*
X155160844Y-84119262D01*
X155160843Y-84119261D01*
X155010224Y-84040209D01*
X154845056Y-83999500D01*
X154674944Y-83999500D01*
X154509775Y-84040209D01*
X154359156Y-84119261D01*
X154359151Y-84119264D01*
X154359148Y-84119266D01*
X154359146Y-84119268D01*
X154231816Y-84232071D01*
X154165326Y-84328398D01*
X154133832Y-84348760D01*
X154097165Y-84340889D01*
X154084674Y-84328398D01*
X154018183Y-84232071D01*
X154017584Y-84231540D01*
X153890852Y-84119266D01*
X153890844Y-84119262D01*
X153890843Y-84119261D01*
X153740224Y-84040209D01*
X153575056Y-83999500D01*
X153404944Y-83999500D01*
X153239775Y-84040209D01*
X153089156Y-84119261D01*
X153089151Y-84119264D01*
X153089148Y-84119266D01*
X153089146Y-84119268D01*
X152961816Y-84232071D01*
X152865182Y-84372068D01*
X152865181Y-84372070D01*
X152806568Y-84526625D01*
X152804860Y-84531128D01*
X152784355Y-84700000D01*
X150791270Y-84700000D01*
X150785166Y-84657545D01*
X150771044Y-84626623D01*
X150725377Y-84526627D01*
X150649337Y-84438872D01*
X150631128Y-84417857D01*
X150601658Y-84398918D01*
X150510053Y-84340047D01*
X150510050Y-84340046D01*
X150443048Y-84320372D01*
X150413847Y-84296840D01*
X150409838Y-84259552D01*
X150430360Y-84232137D01*
X150531128Y-84167378D01*
X150625377Y-84058608D01*
X150685165Y-83927692D01*
X150685165Y-83927690D01*
X150685166Y-83927689D01*
X150705647Y-83785237D01*
X150705647Y-83785232D01*
X150685166Y-83642780D01*
X150680751Y-83633114D01*
X150625377Y-83511862D01*
X150615099Y-83500001D01*
X150531128Y-83403092D01*
X150499498Y-83382765D01*
X150410053Y-83325282D01*
X150410050Y-83325281D01*
X150271965Y-83284735D01*
X150271961Y-83284735D01*
X150128039Y-83284735D01*
X150128034Y-83284735D01*
X149989946Y-83325281D01*
X149975990Y-83334251D01*
X149939083Y-83340909D01*
X149908278Y-83319519D01*
X149900500Y-83293029D01*
X149900500Y-83092205D01*
X149914852Y-83057557D01*
X149949500Y-83043205D01*
X149975990Y-83050983D01*
X149989947Y-83059953D01*
X150035652Y-83073373D01*
X150128034Y-83100499D01*
X150128037Y-83100499D01*
X150128039Y-83100500D01*
X150128040Y-83100500D01*
X150271960Y-83100500D01*
X150271961Y-83100500D01*
X150271963Y-83100499D01*
X150271965Y-83100499D01*
X150294795Y-83093795D01*
X150410053Y-83059953D01*
X150531128Y-82982143D01*
X150625377Y-82873373D01*
X150685165Y-82742457D01*
X150685165Y-82742455D01*
X150685166Y-82742454D01*
X150705647Y-82600002D01*
X150705647Y-82599997D01*
X150685166Y-82457545D01*
X150668827Y-82421769D01*
X150625377Y-82326627D01*
X150624149Y-82325210D01*
X150531128Y-82217857D01*
X150457784Y-82170722D01*
X150436395Y-82139916D01*
X150443053Y-82103009D01*
X150473859Y-82081620D01*
X150484275Y-82080500D01*
X154310309Y-82080500D01*
X154344957Y-82094852D01*
X154359309Y-82129500D01*
X154354881Y-82149856D01*
X154314833Y-82237545D01*
X154294353Y-82379997D01*
X154294353Y-82380001D01*
X154303486Y-82443527D01*
X154294211Y-82479865D01*
X154261958Y-82499001D01*
X154254985Y-82499500D01*
X154228034Y-82499500D01*
X154089949Y-82540046D01*
X153968871Y-82617857D01*
X153874625Y-82726623D01*
X153874624Y-82726625D01*
X153814833Y-82857545D01*
X153794353Y-82999997D01*
X153794353Y-83000001D01*
X153814833Y-83142454D01*
X153846935Y-83212746D01*
X153874623Y-83273373D01*
X153874624Y-83273374D01*
X153874625Y-83273376D01*
X153933143Y-83340909D01*
X153968872Y-83382143D01*
X154089947Y-83459953D01*
X154166785Y-83482514D01*
X154228034Y-83500499D01*
X154228037Y-83500499D01*
X154228039Y-83500500D01*
X154228040Y-83500500D01*
X154371960Y-83500500D01*
X154371961Y-83500500D01*
X154371963Y-83500499D01*
X154371965Y-83500499D01*
X154394795Y-83493795D01*
X154510053Y-83459953D01*
X154631128Y-83382143D01*
X154725377Y-83273373D01*
X154741139Y-83238858D01*
X154768585Y-83213304D01*
X154806064Y-83214642D01*
X154830282Y-83238858D01*
X154838005Y-83255770D01*
X154838007Y-83255772D01*
X154926192Y-83357543D01*
X154932254Y-83364539D01*
X155053329Y-83442349D01*
X155130167Y-83464910D01*
X155191416Y-83482895D01*
X155191419Y-83482895D01*
X155191421Y-83482896D01*
X155191422Y-83482896D01*
X155335342Y-83482896D01*
X155335343Y-83482896D01*
X155335345Y-83482895D01*
X155335347Y-83482895D01*
X155358177Y-83476191D01*
X155473435Y-83442349D01*
X155594510Y-83364539D01*
X155688759Y-83255769D01*
X155748547Y-83124853D01*
X155748547Y-83124851D01*
X155748548Y-83124850D01*
X155769029Y-82982398D01*
X155769029Y-82982393D01*
X155748548Y-82839941D01*
X155718147Y-82773374D01*
X155688759Y-82709023D01*
X155594510Y-82600253D01*
X155473435Y-82522443D01*
X155473432Y-82522442D01*
X155333531Y-82481363D01*
X155304330Y-82457831D01*
X155298835Y-82427376D01*
X155305647Y-82380000D01*
X155304237Y-82370193D01*
X155285166Y-82237545D01*
X155274634Y-82214483D01*
X155245118Y-82149855D01*
X155243780Y-82112377D01*
X155269335Y-82084928D01*
X155289691Y-82080500D01*
X156193947Y-82080500D01*
X156228595Y-82094852D01*
X156242947Y-82129500D01*
X156230979Y-82161588D01*
X156174625Y-82226623D01*
X156174624Y-82226625D01*
X156114833Y-82357545D01*
X156094353Y-82499997D01*
X156094353Y-82500002D01*
X156114833Y-82642454D01*
X156145233Y-82709019D01*
X156174623Y-82773373D01*
X156174624Y-82773374D01*
X156174625Y-82773376D01*
X156211670Y-82816128D01*
X156268872Y-82882143D01*
X156389947Y-82959953D01*
X156458276Y-82980016D01*
X156528034Y-83000499D01*
X156528037Y-83000499D01*
X156528039Y-83000500D01*
X156528040Y-83000500D01*
X156671960Y-83000500D01*
X156671961Y-83000500D01*
X156671963Y-83000499D01*
X156671965Y-83000499D01*
X156780576Y-82968608D01*
X156817864Y-82972617D01*
X156838952Y-82995266D01*
X156874623Y-83073373D01*
X156874624Y-83073374D01*
X156874625Y-83073376D01*
X156968871Y-83182142D01*
X156968872Y-83182143D01*
X157089947Y-83259953D01*
X157166785Y-83282514D01*
X157228034Y-83300499D01*
X157228037Y-83300499D01*
X157228039Y-83300500D01*
X157228040Y-83300500D01*
X157371960Y-83300500D01*
X157371961Y-83300500D01*
X157371963Y-83300499D01*
X157371965Y-83300499D01*
X157397405Y-83293029D01*
X157510053Y-83259953D01*
X157631128Y-83182143D01*
X157725377Y-83073373D01*
X157779271Y-82955361D01*
X157806719Y-82929806D01*
X157844198Y-82931145D01*
X157850333Y-82934494D01*
X157889947Y-82959953D01*
X157958276Y-82980016D01*
X158028034Y-83000499D01*
X158028037Y-83000499D01*
X158028039Y-83000500D01*
X158028040Y-83000500D01*
X158171960Y-83000500D01*
X158171961Y-83000500D01*
X158171963Y-83000499D01*
X158171965Y-83000499D01*
X158194795Y-82993795D01*
X158310053Y-82959953D01*
X158431128Y-82882143D01*
X158525377Y-82773373D01*
X158585165Y-82642457D01*
X158585165Y-82642455D01*
X158585166Y-82642454D01*
X158605647Y-82500002D01*
X158605647Y-82499997D01*
X158585166Y-82357545D01*
X158562565Y-82308057D01*
X158525377Y-82226627D01*
X158476935Y-82170722D01*
X158469021Y-82161588D01*
X158457178Y-82126004D01*
X158473965Y-82092468D01*
X158506053Y-82080500D01*
X159493947Y-82080500D01*
X159528595Y-82094852D01*
X159542947Y-82129500D01*
X159530979Y-82161588D01*
X159474625Y-82226623D01*
X159474624Y-82226625D01*
X159414833Y-82357545D01*
X159394353Y-82499997D01*
X159394353Y-82500002D01*
X159414833Y-82642454D01*
X159445233Y-82709019D01*
X159474623Y-82773373D01*
X159474624Y-82773374D01*
X159474625Y-82773376D01*
X159511670Y-82816128D01*
X159568872Y-82882143D01*
X159615803Y-82912304D01*
X159637192Y-82943109D01*
X159630534Y-82980016D01*
X159599728Y-83001405D01*
X159575511Y-83000541D01*
X159571968Y-82999501D01*
X159571961Y-82999500D01*
X159428039Y-82999500D01*
X159428034Y-82999500D01*
X159289949Y-83040046D01*
X159168871Y-83117857D01*
X159074625Y-83226623D01*
X159074624Y-83226625D01*
X159014833Y-83357545D01*
X158994353Y-83499997D01*
X158994353Y-83500001D01*
X159014833Y-83642454D01*
X159036030Y-83688867D01*
X159074623Y-83773373D01*
X159074624Y-83773374D01*
X159074625Y-83773376D01*
X159168871Y-83882142D01*
X159168872Y-83882143D01*
X159289947Y-83959953D01*
X159366785Y-83982514D01*
X159428034Y-84000499D01*
X159428037Y-84000499D01*
X159428039Y-84000500D01*
X159428040Y-84000500D01*
X159571960Y-84000500D01*
X159571961Y-84000500D01*
X159571963Y-84000499D01*
X159571965Y-84000499D01*
X159629783Y-83983522D01*
X159710053Y-83959953D01*
X159831128Y-83882143D01*
X159862968Y-83845397D01*
X159896504Y-83828610D01*
X159932088Y-83840453D01*
X159937032Y-83845397D01*
X159968872Y-83882143D01*
X160089947Y-83959953D01*
X160166785Y-83982514D01*
X160228034Y-84000499D01*
X160228037Y-84000499D01*
X160228039Y-84000500D01*
X160228040Y-84000500D01*
X160371956Y-84000500D01*
X160371961Y-84000500D01*
X160443430Y-83979514D01*
X160480716Y-83983522D01*
X160491881Y-83991881D01*
X160799998Y-84299999D01*
X160799999Y-84299999D01*
X160800000Y-84300000D01*
X160814511Y-84282586D01*
X160847716Y-84265156D01*
X160883521Y-84276312D01*
X160900796Y-84308048D01*
X160914860Y-84423872D01*
X160914860Y-84423874D01*
X160914861Y-84423875D01*
X160975181Y-84582929D01*
X160975182Y-84582931D01*
X161071817Y-84722930D01*
X161093087Y-84741773D01*
X161109505Y-84775491D01*
X161097271Y-84810943D01*
X161070154Y-84826508D01*
X161021770Y-84836132D01*
X160955447Y-84880447D01*
X160914016Y-84942454D01*
X160911133Y-84946769D01*
X160899500Y-85005252D01*
X160899500Y-86044748D01*
X160911133Y-86103231D01*
X160922831Y-86120738D01*
X160955447Y-86169552D01*
X160982012Y-86187301D01*
X161021769Y-86213867D01*
X161080252Y-86225500D01*
X161080255Y-86225500D01*
X162119745Y-86225500D01*
X162119748Y-86225500D01*
X162178231Y-86213867D01*
X162244552Y-86169552D01*
X162288867Y-86103231D01*
X162300500Y-86044748D01*
X162300500Y-85005252D01*
X162288867Y-84946769D01*
X162257618Y-84900002D01*
X162244552Y-84880447D01*
X162178228Y-84836131D01*
X162129846Y-84826508D01*
X162098663Y-84805673D01*
X162091347Y-84768891D01*
X162106912Y-84741773D01*
X162128183Y-84722929D01*
X162224818Y-84582930D01*
X162285140Y-84423872D01*
X162305645Y-84255000D01*
X162285140Y-84086128D01*
X162224818Y-83927070D01*
X162156855Y-83828610D01*
X162128183Y-83787071D01*
X162000853Y-83674267D01*
X162000852Y-83674266D01*
X161980122Y-83663386D01*
X161956114Y-83634579D01*
X161959507Y-83597229D01*
X161980122Y-83576613D01*
X162000852Y-83565734D01*
X162128183Y-83452929D01*
X162224818Y-83312930D01*
X162285140Y-83153872D01*
X162305645Y-82985000D01*
X162285140Y-82816128D01*
X162224818Y-82657070D01*
X162214731Y-82642457D01*
X162128183Y-82517071D01*
X162088478Y-82481896D01*
X162000852Y-82404266D01*
X162000844Y-82404262D01*
X162000843Y-82404261D01*
X161850224Y-82325209D01*
X161685056Y-82284500D01*
X161514944Y-82284500D01*
X161349775Y-82325209D01*
X161199156Y-82404261D01*
X161199151Y-82404264D01*
X161199148Y-82404266D01*
X161199146Y-82404268D01*
X161071816Y-82517071D01*
X160975182Y-82657068D01*
X160975181Y-82657070D01*
X160931074Y-82773374D01*
X160914860Y-82816128D01*
X160894355Y-82985000D01*
X160914860Y-83153872D01*
X160914861Y-83153874D01*
X160975181Y-83312929D01*
X160975182Y-83312931D01*
X161009710Y-83362953D01*
X161017581Y-83399620D01*
X160997219Y-83431114D01*
X160960552Y-83438985D01*
X160939984Y-83429988D01*
X160900000Y-83400000D01*
X160874155Y-83425845D01*
X160839506Y-83440196D01*
X160804858Y-83425844D01*
X160791006Y-83398168D01*
X160785166Y-83357545D01*
X160764791Y-83312931D01*
X160725377Y-83226627D01*
X160677513Y-83171389D01*
X160631128Y-83117857D01*
X160604118Y-83100499D01*
X160510053Y-83040047D01*
X160510050Y-83040046D01*
X160371965Y-82999500D01*
X160371961Y-82999500D01*
X160228039Y-82999500D01*
X160228038Y-82999500D01*
X160228032Y-82999501D01*
X160224486Y-83000542D01*
X160187198Y-82996528D01*
X160163670Y-82967324D01*
X160167684Y-82930036D01*
X160184195Y-82912304D01*
X160214535Y-82892806D01*
X160231127Y-82882144D01*
X160231129Y-82882142D01*
X160325377Y-82773373D01*
X160385165Y-82642457D01*
X160385165Y-82642455D01*
X160385166Y-82642454D01*
X160405647Y-82500002D01*
X160405647Y-82499997D01*
X160385166Y-82357545D01*
X160362565Y-82308057D01*
X160325377Y-82226627D01*
X160276935Y-82170722D01*
X160269021Y-82161588D01*
X160257178Y-82126004D01*
X160273965Y-82092468D01*
X160306053Y-82080500D01*
X162570500Y-82080500D01*
X162605148Y-82094852D01*
X162619500Y-82129500D01*
X162619500Y-106807794D01*
X162605148Y-106842442D01*
X162570500Y-106856794D01*
X162544010Y-106849016D01*
X162530053Y-106840046D01*
X162391965Y-106799500D01*
X162391961Y-106799500D01*
X162248039Y-106799500D01*
X162248034Y-106799500D01*
X162109949Y-106840046D01*
X162109947Y-106840046D01*
X162109947Y-106840047D01*
X162099900Y-106846504D01*
X161988871Y-106917857D01*
X161894625Y-107026623D01*
X161894624Y-107026625D01*
X161834833Y-107157545D01*
X161814353Y-107299997D01*
X161814353Y-107300001D01*
X161817628Y-107322782D01*
X161808353Y-107359120D01*
X161776100Y-107378256D01*
X161757401Y-107377331D01*
X161691681Y-107361133D01*
X161685056Y-107359500D01*
X161514944Y-107359500D01*
X161514941Y-107359500D01*
X161511999Y-107359857D01*
X161511864Y-107358746D01*
X161478581Y-107353679D01*
X161456356Y-107323471D01*
X161455432Y-107318720D01*
X161439399Y-107207201D01*
X161434984Y-107197535D01*
X161379610Y-107076283D01*
X161372299Y-107067846D01*
X161285361Y-106967513D01*
X161233870Y-106934422D01*
X161164286Y-106889703D01*
X161164283Y-106889702D01*
X161026198Y-106849156D01*
X161026194Y-106849156D01*
X160882272Y-106849156D01*
X160882267Y-106849156D01*
X160744182Y-106889702D01*
X160744180Y-106889702D01*
X160744180Y-106889703D01*
X160732866Y-106896974D01*
X160623104Y-106967513D01*
X160528858Y-107076279D01*
X160528857Y-107076281D01*
X160469066Y-107207201D01*
X160448586Y-107349653D01*
X160448586Y-107349658D01*
X160469066Y-107492110D01*
X160486487Y-107530255D01*
X160528856Y-107623029D01*
X160528857Y-107623030D01*
X160528858Y-107623032D01*
X160623104Y-107731798D01*
X160623105Y-107731799D01*
X160744180Y-107809609D01*
X160811549Y-107829390D01*
X160878699Y-107849107D01*
X160907900Y-107872639D01*
X160913536Y-107902026D01*
X160894355Y-108060000D01*
X160914860Y-108228872D01*
X160914861Y-108228874D01*
X160975181Y-108387929D01*
X160975182Y-108387931D01*
X161071816Y-108527928D01*
X161071817Y-108527929D01*
X161199148Y-108640734D01*
X161199156Y-108640738D01*
X161219875Y-108651613D01*
X161243885Y-108680423D01*
X161240490Y-108717772D01*
X161219875Y-108738387D01*
X161199156Y-108749261D01*
X161199151Y-108749264D01*
X161199148Y-108749266D01*
X161176506Y-108769325D01*
X161071816Y-108862071D01*
X160975182Y-109002068D01*
X160975181Y-109002070D01*
X160914861Y-109161125D01*
X160914860Y-109161128D01*
X160894355Y-109330000D01*
X160914860Y-109498872D01*
X160914861Y-109498874D01*
X160975181Y-109657929D01*
X160975182Y-109657931D01*
X161071817Y-109797930D01*
X161093087Y-109816773D01*
X161109505Y-109850491D01*
X161097271Y-109885943D01*
X161070154Y-109901508D01*
X161021770Y-109911132D01*
X160955447Y-109955447D01*
X160919486Y-110009268D01*
X160911133Y-110021769D01*
X160899500Y-110080252D01*
X160899500Y-111119748D01*
X160911133Y-111178231D01*
X160928882Y-111204795D01*
X160955447Y-111244552D01*
X160982012Y-111262301D01*
X161021769Y-111288867D01*
X161080252Y-111300500D01*
X161080255Y-111300500D01*
X162119745Y-111300500D01*
X162119748Y-111300500D01*
X162178231Y-111288867D01*
X162244552Y-111244552D01*
X162288867Y-111178231D01*
X162300500Y-111119748D01*
X162300500Y-110080252D01*
X162288867Y-110021769D01*
X162259469Y-109977772D01*
X162244552Y-109955447D01*
X162178228Y-109911131D01*
X162129846Y-109901508D01*
X162098663Y-109880673D01*
X162091347Y-109843891D01*
X162106912Y-109816773D01*
X162128183Y-109797929D01*
X162224818Y-109657930D01*
X162285140Y-109498872D01*
X162305645Y-109330000D01*
X162285140Y-109161128D01*
X162224818Y-109002070D01*
X162217915Y-108992070D01*
X162128183Y-108862071D01*
X162023494Y-108769325D01*
X162000852Y-108749266D01*
X161980122Y-108738386D01*
X161956114Y-108709579D01*
X161959507Y-108672229D01*
X161980122Y-108651613D01*
X162000852Y-108640734D01*
X162128183Y-108527929D01*
X162224818Y-108387930D01*
X162285140Y-108228872D01*
X162305645Y-108060000D01*
X162285140Y-107891128D01*
X162275942Y-107866874D01*
X162277075Y-107829390D01*
X162304382Y-107803684D01*
X162321758Y-107800500D01*
X162391960Y-107800500D01*
X162391961Y-107800500D01*
X162391963Y-107800499D01*
X162391965Y-107800499D01*
X162423596Y-107791211D01*
X162530053Y-107759953D01*
X162544009Y-107750983D01*
X162580915Y-107744325D01*
X162611721Y-107765713D01*
X162619500Y-107792205D01*
X162619500Y-111470500D01*
X162605148Y-111505148D01*
X162570500Y-111519500D01*
X160606053Y-111519500D01*
X160571405Y-111505148D01*
X160557053Y-111470500D01*
X160569021Y-111438412D01*
X160585876Y-111418958D01*
X160625377Y-111373373D01*
X160685165Y-111242457D01*
X160685165Y-111242455D01*
X160685166Y-111242454D01*
X160705647Y-111100002D01*
X160705647Y-111099997D01*
X160685166Y-110957545D01*
X160680751Y-110947879D01*
X160625377Y-110826627D01*
X160566667Y-110758872D01*
X160531128Y-110717857D01*
X160411878Y-110641220D01*
X160390491Y-110610416D01*
X160397149Y-110573509D01*
X160411877Y-110558780D01*
X160531128Y-110482143D01*
X160625377Y-110373373D01*
X160685165Y-110242457D01*
X160685165Y-110242455D01*
X160685166Y-110242454D01*
X160705647Y-110100002D01*
X160705647Y-110099997D01*
X160685166Y-109957545D01*
X160664189Y-109911613D01*
X160625377Y-109826627D01*
X160600510Y-109797929D01*
X160531128Y-109717857D01*
X160503337Y-109699997D01*
X160410053Y-109640047D01*
X160410050Y-109640046D01*
X160271965Y-109599500D01*
X160271961Y-109599500D01*
X160128039Y-109599500D01*
X160128034Y-109599500D01*
X159989949Y-109640046D01*
X159989947Y-109640046D01*
X159989947Y-109640047D01*
X159962119Y-109657931D01*
X159868871Y-109717857D01*
X159774625Y-109826623D01*
X159774624Y-109826625D01*
X159714833Y-109957545D01*
X159694353Y-110099997D01*
X159694353Y-110100002D01*
X159714833Y-110242454D01*
X159723791Y-110262068D01*
X159774623Y-110373373D01*
X159774624Y-110373374D01*
X159774625Y-110373376D01*
X159832395Y-110440046D01*
X159868872Y-110482143D01*
X159988119Y-110558778D01*
X160009508Y-110589584D01*
X160002850Y-110626491D01*
X159988119Y-110641222D01*
X159868871Y-110717857D01*
X159774625Y-110826623D01*
X159774624Y-110826625D01*
X159714833Y-110957545D01*
X159694353Y-111099997D01*
X159694353Y-111100002D01*
X159714833Y-111242454D01*
X159736030Y-111288867D01*
X159774623Y-111373373D01*
X159774624Y-111373374D01*
X159774625Y-111373376D01*
X159830979Y-111438412D01*
X159842822Y-111473996D01*
X159826035Y-111507532D01*
X159793947Y-111519500D01*
X159406053Y-111519500D01*
X159371405Y-111505148D01*
X159357053Y-111470500D01*
X159369021Y-111438412D01*
X159385876Y-111418958D01*
X159425377Y-111373373D01*
X159485165Y-111242457D01*
X159485165Y-111242455D01*
X159485166Y-111242454D01*
X159505647Y-111100002D01*
X159505647Y-111099997D01*
X159485166Y-110957545D01*
X159480751Y-110947879D01*
X159425377Y-110826627D01*
X159366667Y-110758872D01*
X159331128Y-110717857D01*
X159210053Y-110640047D01*
X159210050Y-110640046D01*
X159071965Y-110599500D01*
X159071961Y-110599500D01*
X158928039Y-110599500D01*
X158928034Y-110599500D01*
X158789949Y-110640046D01*
X158668871Y-110717857D01*
X158574625Y-110826623D01*
X158574624Y-110826625D01*
X158514833Y-110957545D01*
X158494353Y-111099997D01*
X158494353Y-111100002D01*
X158514833Y-111242454D01*
X158536030Y-111288867D01*
X158574623Y-111373373D01*
X158574624Y-111373374D01*
X158574625Y-111373376D01*
X158630979Y-111438412D01*
X158642822Y-111473996D01*
X158626035Y-111507532D01*
X158593947Y-111519500D01*
X158206053Y-111519500D01*
X158171405Y-111505148D01*
X158157053Y-111470500D01*
X158169021Y-111438412D01*
X158185876Y-111418958D01*
X158225377Y-111373373D01*
X158285165Y-111242457D01*
X158285165Y-111242455D01*
X158285166Y-111242454D01*
X158305647Y-111100002D01*
X158305647Y-111099997D01*
X158285166Y-110957545D01*
X158280751Y-110947879D01*
X158225377Y-110826627D01*
X158166667Y-110758872D01*
X158131128Y-110717857D01*
X158010053Y-110640047D01*
X158010050Y-110640046D01*
X157871965Y-110599500D01*
X157871961Y-110599500D01*
X157728039Y-110599500D01*
X157728034Y-110599500D01*
X157589949Y-110640046D01*
X157468871Y-110717857D01*
X157374625Y-110826623D01*
X157374624Y-110826625D01*
X157314833Y-110957545D01*
X157294353Y-111099997D01*
X157294353Y-111100002D01*
X157314833Y-111242454D01*
X157336030Y-111288867D01*
X157374623Y-111373373D01*
X157374624Y-111373374D01*
X157374625Y-111373376D01*
X157430979Y-111438412D01*
X157442822Y-111473996D01*
X157426035Y-111507532D01*
X157393947Y-111519500D01*
X152406053Y-111519500D01*
X152371405Y-111505148D01*
X152357053Y-111470500D01*
X152369021Y-111438412D01*
X152385876Y-111418958D01*
X152425377Y-111373373D01*
X152485165Y-111242457D01*
X152485165Y-111242455D01*
X152485166Y-111242454D01*
X152505647Y-111100002D01*
X152505647Y-111099997D01*
X152485166Y-110957545D01*
X152480751Y-110947879D01*
X152425377Y-110826627D01*
X152366667Y-110758872D01*
X152331128Y-110717857D01*
X152210053Y-110640047D01*
X152210050Y-110640046D01*
X152071965Y-110599500D01*
X152071961Y-110599500D01*
X151928039Y-110599500D01*
X151928034Y-110599500D01*
X151789949Y-110640046D01*
X151668871Y-110717857D01*
X151574625Y-110826623D01*
X151574624Y-110826625D01*
X151514833Y-110957545D01*
X151494353Y-111099997D01*
X151494353Y-111100002D01*
X151514833Y-111242454D01*
X151536030Y-111288867D01*
X151574623Y-111373373D01*
X151574624Y-111373374D01*
X151574625Y-111373376D01*
X151630979Y-111438412D01*
X151642822Y-111473996D01*
X151626035Y-111507532D01*
X151593947Y-111519500D01*
X148229500Y-111519500D01*
X148194852Y-111505148D01*
X148180500Y-111470500D01*
X148180500Y-109320000D01*
X148494355Y-109320000D01*
X148514860Y-109488872D01*
X148531755Y-109533423D01*
X148575181Y-109647929D01*
X148575182Y-109647931D01*
X148671816Y-109787928D01*
X148671817Y-109787929D01*
X148799148Y-109900734D01*
X148799156Y-109900738D01*
X148819875Y-109911613D01*
X148843885Y-109940423D01*
X148840490Y-109977772D01*
X148819875Y-109998387D01*
X148799156Y-110009261D01*
X148799151Y-110009264D01*
X148799148Y-110009266D01*
X148799147Y-110009267D01*
X148799146Y-110009268D01*
X148671816Y-110122071D01*
X148575182Y-110262068D01*
X148575181Y-110262070D01*
X148523062Y-110399500D01*
X148514860Y-110421128D01*
X148494355Y-110590000D01*
X148514860Y-110758872D01*
X148514861Y-110758874D01*
X148575181Y-110917929D01*
X148575182Y-110917931D01*
X148602526Y-110957545D01*
X148671817Y-111057929D01*
X148799148Y-111170734D01*
X148949775Y-111249790D01*
X149114944Y-111290500D01*
X149285056Y-111290500D01*
X149450225Y-111249790D01*
X149600852Y-111170734D01*
X149728183Y-111057929D01*
X149824818Y-110917930D01*
X149831619Y-110899997D01*
X149994353Y-110899997D01*
X149994353Y-110900002D01*
X150014833Y-111042454D01*
X150041113Y-111099997D01*
X150074623Y-111173373D01*
X150074624Y-111173374D01*
X150074625Y-111173376D01*
X150134484Y-111242457D01*
X150168872Y-111282143D01*
X150289947Y-111359953D01*
X150366785Y-111382514D01*
X150428034Y-111400499D01*
X150428037Y-111400499D01*
X150428039Y-111400500D01*
X150428040Y-111400500D01*
X150571960Y-111400500D01*
X150571961Y-111400500D01*
X150571963Y-111400499D01*
X150571965Y-111400499D01*
X150594795Y-111393795D01*
X150710053Y-111359953D01*
X150831128Y-111282143D01*
X150925377Y-111173373D01*
X150985165Y-111042457D01*
X150985165Y-111042455D01*
X150985166Y-111042454D01*
X151005647Y-110900002D01*
X151005647Y-110899997D01*
X150985166Y-110757545D01*
X150967041Y-110717857D01*
X150925377Y-110626627D01*
X150925259Y-110626491D01*
X150831128Y-110517857D01*
X150710053Y-110440047D01*
X150710050Y-110440046D01*
X150571965Y-110399500D01*
X150571961Y-110399500D01*
X150428039Y-110399500D01*
X150428034Y-110399500D01*
X150289949Y-110440046D01*
X150168871Y-110517857D01*
X150074625Y-110626623D01*
X150074624Y-110626625D01*
X150014833Y-110757545D01*
X149994353Y-110899997D01*
X149831619Y-110899997D01*
X149885140Y-110758872D01*
X149905645Y-110590000D01*
X149885140Y-110421128D01*
X149824818Y-110262070D01*
X149782318Y-110200499D01*
X149728183Y-110122071D01*
X149703270Y-110100000D01*
X149600852Y-110009266D01*
X149580122Y-109998386D01*
X149556114Y-109969579D01*
X149559507Y-109932229D01*
X149580122Y-109911613D01*
X149600852Y-109900734D01*
X149728183Y-109787929D01*
X149788878Y-109699997D01*
X149994353Y-109699997D01*
X149994353Y-109700002D01*
X150014833Y-109842454D01*
X150041451Y-109900738D01*
X150074623Y-109973373D01*
X150074624Y-109973374D01*
X150074625Y-109973376D01*
X150105724Y-110009266D01*
X150168872Y-110082143D01*
X150289947Y-110159953D01*
X150366785Y-110182514D01*
X150428034Y-110200499D01*
X150428037Y-110200499D01*
X150428039Y-110200500D01*
X150428040Y-110200500D01*
X150571960Y-110200500D01*
X150571961Y-110200500D01*
X150571963Y-110200499D01*
X150571965Y-110200499D01*
X150594795Y-110193795D01*
X150710053Y-110159953D01*
X150831128Y-110082143D01*
X150925377Y-109973373D01*
X150985165Y-109842457D01*
X150985165Y-109842455D01*
X150985166Y-109842454D01*
X151005647Y-109700002D01*
X151005647Y-109699997D01*
X150985166Y-109557545D01*
X150958371Y-109498874D01*
X150925377Y-109426627D01*
X150874515Y-109367929D01*
X150831128Y-109317857D01*
X150710053Y-109240047D01*
X150710050Y-109240046D01*
X150571965Y-109199500D01*
X150571961Y-109199500D01*
X150428039Y-109199500D01*
X150428034Y-109199500D01*
X150289949Y-109240046D01*
X150168871Y-109317857D01*
X150074625Y-109426623D01*
X150074624Y-109426625D01*
X150014833Y-109557545D01*
X149994353Y-109699997D01*
X149788878Y-109699997D01*
X149824818Y-109647930D01*
X149885140Y-109488872D01*
X149905645Y-109320000D01*
X149885140Y-109151128D01*
X149824818Y-108992070D01*
X149790801Y-108942787D01*
X149761267Y-108900000D01*
X152774355Y-108900000D01*
X152794860Y-109068872D01*
X152794861Y-109068874D01*
X152855181Y-109227929D01*
X152855182Y-109227931D01*
X152925636Y-109330000D01*
X152951817Y-109367929D01*
X153079148Y-109480734D01*
X153229775Y-109559790D01*
X153394944Y-109600500D01*
X153565056Y-109600500D01*
X153730225Y-109559790D01*
X153880852Y-109480734D01*
X154008183Y-109367929D01*
X154074674Y-109271601D01*
X154106168Y-109251239D01*
X154142835Y-109259110D01*
X154155326Y-109271601D01*
X154187254Y-109317857D01*
X154221817Y-109367929D01*
X154349148Y-109480734D01*
X154499775Y-109559790D01*
X154664944Y-109600500D01*
X154835056Y-109600500D01*
X155000225Y-109559790D01*
X155150852Y-109480734D01*
X155278183Y-109367929D01*
X155344674Y-109271601D01*
X155376168Y-109251239D01*
X155412835Y-109259110D01*
X155425326Y-109271601D01*
X155457254Y-109317857D01*
X155491817Y-109367929D01*
X155619148Y-109480734D01*
X155769775Y-109559790D01*
X155934944Y-109600500D01*
X156105056Y-109600500D01*
X156269718Y-109559915D01*
X156306794Y-109565558D01*
X156327354Y-109590366D01*
X156346646Y-109642088D01*
X156346647Y-109642090D01*
X156432811Y-109757188D01*
X156547908Y-109843351D01*
X156682626Y-109893598D01*
X156742166Y-109900000D01*
X157040000Y-109900000D01*
X157540000Y-109900000D01*
X157837834Y-109900000D01*
X157897372Y-109893598D01*
X157897373Y-109893598D01*
X158032091Y-109843351D01*
X158147188Y-109757188D01*
X158233351Y-109642091D01*
X158283598Y-109507373D01*
X158283598Y-109507372D01*
X158290000Y-109447834D01*
X158290000Y-109150000D01*
X157540000Y-109150000D01*
X157540000Y-109900000D01*
X157040000Y-109900000D01*
X157040000Y-109109618D01*
X157090446Y-109160064D01*
X157164555Y-109202851D01*
X157247213Y-109225000D01*
X157332787Y-109225000D01*
X157415445Y-109202851D01*
X157489554Y-109160064D01*
X157550064Y-109099554D01*
X157592851Y-109025445D01*
X157615000Y-108942787D01*
X157615000Y-108857213D01*
X157592851Y-108774555D01*
X157550064Y-108700446D01*
X157499618Y-108650000D01*
X157540000Y-108650000D01*
X158290000Y-108650000D01*
X158290000Y-108352165D01*
X158283598Y-108292627D01*
X158283598Y-108292626D01*
X158233351Y-108157908D01*
X158147188Y-108042811D01*
X158032091Y-107956648D01*
X157897373Y-107906401D01*
X157837834Y-107900000D01*
X157540000Y-107900000D01*
X157540000Y-108650000D01*
X157499618Y-108650000D01*
X157489554Y-108639936D01*
X157415445Y-108597149D01*
X157332787Y-108575000D01*
X157247213Y-108575000D01*
X157164555Y-108597149D01*
X157090446Y-108639936D01*
X157040000Y-108690382D01*
X157040000Y-107900000D01*
X156742166Y-107900000D01*
X156682627Y-107906401D01*
X156682626Y-107906401D01*
X156547908Y-107956648D01*
X156432811Y-108042811D01*
X156346645Y-108157912D01*
X156327355Y-108209632D01*
X156301800Y-108237080D01*
X156269719Y-108240084D01*
X156105056Y-108199500D01*
X155934944Y-108199500D01*
X155769775Y-108240209D01*
X155619156Y-108319261D01*
X155619151Y-108319264D01*
X155619148Y-108319266D01*
X155619146Y-108319268D01*
X155491816Y-108432071D01*
X155425326Y-108528398D01*
X155393832Y-108548760D01*
X155357165Y-108540889D01*
X155344674Y-108528398D01*
X155278183Y-108432071D01*
X155228359Y-108387931D01*
X155150852Y-108319266D01*
X155150844Y-108319262D01*
X155150843Y-108319261D01*
X155000224Y-108240209D01*
X154835056Y-108199500D01*
X154664944Y-108199500D01*
X154499775Y-108240209D01*
X154349156Y-108319261D01*
X154349151Y-108319264D01*
X154349148Y-108319266D01*
X154349146Y-108319268D01*
X154221816Y-108432071D01*
X154155326Y-108528398D01*
X154123832Y-108548760D01*
X154087165Y-108540889D01*
X154074674Y-108528398D01*
X154008183Y-108432071D01*
X153958359Y-108387931D01*
X153880852Y-108319266D01*
X153880844Y-108319262D01*
X153880843Y-108319261D01*
X153730224Y-108240209D01*
X153565056Y-108199500D01*
X153394944Y-108199500D01*
X153229775Y-108240209D01*
X153079156Y-108319261D01*
X153079151Y-108319264D01*
X153079148Y-108319266D01*
X153079146Y-108319268D01*
X152951816Y-108432071D01*
X152855182Y-108572068D01*
X152855181Y-108572070D01*
X152808731Y-108694552D01*
X152794860Y-108731128D01*
X152774355Y-108900000D01*
X149761267Y-108900000D01*
X149728182Y-108852069D01*
X149706912Y-108833226D01*
X149690494Y-108799508D01*
X149702728Y-108764056D01*
X149729842Y-108748492D01*
X149778231Y-108738867D01*
X149844552Y-108694552D01*
X149888867Y-108628231D01*
X149900500Y-108569748D01*
X149900500Y-107530252D01*
X149888867Y-107471769D01*
X149862301Y-107432012D01*
X149844552Y-107405447D01*
X149802473Y-107377331D01*
X149778231Y-107361133D01*
X149719748Y-107349500D01*
X148680252Y-107349500D01*
X148629979Y-107359500D01*
X148621769Y-107361133D01*
X148555447Y-107405447D01*
X148511133Y-107471769D01*
X148499500Y-107530252D01*
X148499500Y-108569748D01*
X148511133Y-108628231D01*
X148519490Y-108640738D01*
X148555447Y-108694552D01*
X148599762Y-108724162D01*
X148621769Y-108738867D01*
X148670155Y-108748491D01*
X148701336Y-108769325D01*
X148708653Y-108806108D01*
X148693088Y-108833226D01*
X148671816Y-108852071D01*
X148575182Y-108992068D01*
X148575181Y-108992070D01*
X148546055Y-109068872D01*
X148514860Y-109151128D01*
X148494355Y-109320000D01*
X148180500Y-109320000D01*
X148180500Y-106169997D01*
X151426708Y-106169997D01*
X151426708Y-106170002D01*
X151447188Y-106312454D01*
X151470608Y-106363734D01*
X151506978Y-106443373D01*
X151506979Y-106443374D01*
X151506980Y-106443376D01*
X151601226Y-106552142D01*
X151601227Y-106552143D01*
X151722302Y-106629953D01*
X151836268Y-106663416D01*
X151865469Y-106686948D01*
X151870964Y-106717403D01*
X151859884Y-106794470D01*
X151867747Y-106849156D01*
X151880364Y-106936924D01*
X151912466Y-107007216D01*
X151940154Y-107067843D01*
X151940155Y-107067844D01*
X151940156Y-107067846D01*
X152034402Y-107176612D01*
X152034403Y-107176613D01*
X152155478Y-107254423D01*
X152232316Y-107276984D01*
X152293565Y-107294969D01*
X152293568Y-107294969D01*
X152293570Y-107294970D01*
X152293571Y-107294970D01*
X152437491Y-107294970D01*
X152437492Y-107294970D01*
X152437494Y-107294969D01*
X152437496Y-107294969D01*
X152460326Y-107288265D01*
X152575584Y-107254423D01*
X152696659Y-107176613D01*
X152790908Y-107067843D01*
X152850696Y-106936927D01*
X152850696Y-106936925D01*
X152850697Y-106936924D01*
X152858485Y-106882757D01*
X153230123Y-106882757D01*
X153230123Y-106882762D01*
X153250603Y-107025214D01*
X153270072Y-107067843D01*
X153310393Y-107156133D01*
X153310394Y-107156134D01*
X153310395Y-107156136D01*
X153395561Y-107254423D01*
X153404642Y-107264903D01*
X153525717Y-107342713D01*
X153602555Y-107365274D01*
X153663804Y-107383259D01*
X153663807Y-107383259D01*
X153663809Y-107383260D01*
X153663810Y-107383260D01*
X153807730Y-107383260D01*
X153807731Y-107383260D01*
X153807733Y-107383259D01*
X153807735Y-107383259D01*
X153830565Y-107376555D01*
X153945823Y-107342713D01*
X154066898Y-107264903D01*
X154161147Y-107156133D01*
X154220935Y-107025217D01*
X154220935Y-107025215D01*
X154220936Y-107025214D01*
X154231325Y-106952948D01*
X154250461Y-106920694D01*
X154286798Y-106911419D01*
X154293623Y-106912903D01*
X154366909Y-106934422D01*
X154366914Y-106934422D01*
X154510830Y-106934422D01*
X154510831Y-106934422D01*
X154510833Y-106934421D01*
X154510835Y-106934421D01*
X154533665Y-106927717D01*
X154648923Y-106893875D01*
X154769998Y-106816065D01*
X154864247Y-106707295D01*
X154924035Y-106576379D01*
X154924035Y-106576377D01*
X154924036Y-106576376D01*
X154944517Y-106433924D01*
X154944517Y-106433919D01*
X154924036Y-106291467D01*
X154917667Y-106277521D01*
X154864247Y-106160549D01*
X154769998Y-106051779D01*
X154648923Y-105973969D01*
X154648920Y-105973968D01*
X154510835Y-105933422D01*
X154510831Y-105933422D01*
X154366909Y-105933422D01*
X154366904Y-105933422D01*
X154228819Y-105973968D01*
X154107741Y-106051779D01*
X154013495Y-106160545D01*
X154013494Y-106160547D01*
X153953705Y-106291464D01*
X153943313Y-106363734D01*
X153924176Y-106395987D01*
X153887838Y-106405261D01*
X153881007Y-106403775D01*
X153807735Y-106382260D01*
X153807731Y-106382260D01*
X153663809Y-106382260D01*
X153663804Y-106382260D01*
X153525719Y-106422806D01*
X153525717Y-106422806D01*
X153525717Y-106422807D01*
X153493711Y-106443376D01*
X153404641Y-106500617D01*
X153310395Y-106609383D01*
X153310394Y-106609385D01*
X153250603Y-106740305D01*
X153230123Y-106882757D01*
X152858485Y-106882757D01*
X152871178Y-106794472D01*
X152871178Y-106794467D01*
X152850697Y-106652015D01*
X152831328Y-106609604D01*
X152790908Y-106521097D01*
X152715368Y-106433919D01*
X152696659Y-106412327D01*
X152671233Y-106395987D01*
X152575584Y-106334517D01*
X152575581Y-106334516D01*
X152461619Y-106301053D01*
X152432418Y-106277521D01*
X152426923Y-106247062D01*
X152438002Y-106170029D01*
X152438002Y-106169968D01*
X152418140Y-106031859D01*
X152417520Y-106027543D01*
X152357732Y-105896627D01*
X152325063Y-105858925D01*
X152263483Y-105787857D01*
X152250339Y-105779410D01*
X152142408Y-105710047D01*
X152142405Y-105710046D01*
X152004320Y-105669500D01*
X152004316Y-105669500D01*
X151860394Y-105669500D01*
X151860389Y-105669500D01*
X151722304Y-105710046D01*
X151722302Y-105710046D01*
X151722302Y-105710047D01*
X151712311Y-105716468D01*
X151601226Y-105787857D01*
X151506980Y-105896623D01*
X151506979Y-105896625D01*
X151447188Y-106027545D01*
X151426708Y-106169997D01*
X148180500Y-106169997D01*
X148180500Y-104762168D01*
X149710635Y-104762168D01*
X149710635Y-104762173D01*
X149731115Y-104904625D01*
X149749976Y-104945923D01*
X149790905Y-105035544D01*
X149790906Y-105035545D01*
X149790907Y-105035547D01*
X149823686Y-105073376D01*
X149885154Y-105144314D01*
X150006229Y-105222124D01*
X150083067Y-105244685D01*
X150144316Y-105262670D01*
X150144319Y-105262670D01*
X150144321Y-105262671D01*
X150144322Y-105262671D01*
X150288242Y-105262671D01*
X150288243Y-105262671D01*
X150288245Y-105262670D01*
X150288247Y-105262670D01*
X150311077Y-105255966D01*
X150426335Y-105222124D01*
X150547410Y-105144314D01*
X150641659Y-105035544D01*
X150701447Y-104904628D01*
X150701447Y-104904626D01*
X150701448Y-104904625D01*
X150721929Y-104762173D01*
X150721929Y-104762168D01*
X150701448Y-104619716D01*
X150681006Y-104574955D01*
X150641659Y-104488798D01*
X150631478Y-104477049D01*
X150619636Y-104441466D01*
X150636423Y-104407930D01*
X150642015Y-104403744D01*
X150659355Y-104392601D01*
X150753604Y-104283831D01*
X150813392Y-104152915D01*
X150813392Y-104152913D01*
X150813393Y-104152912D01*
X150833874Y-104010460D01*
X150833874Y-104010456D01*
X150827545Y-103966436D01*
X150813392Y-103868001D01*
X150805696Y-103851151D01*
X150804358Y-103813673D01*
X150829913Y-103786224D01*
X150836451Y-103783785D01*
X150853390Y-103778812D01*
X150974465Y-103701002D01*
X151068714Y-103592232D01*
X151128502Y-103461316D01*
X151128502Y-103461314D01*
X151128503Y-103461313D01*
X151148984Y-103318861D01*
X151148984Y-103318856D01*
X151128503Y-103176404D01*
X151105776Y-103126640D01*
X151068714Y-103045486D01*
X151056230Y-103031079D01*
X150974465Y-102936716D01*
X150964626Y-102930393D01*
X150853390Y-102858906D01*
X150853387Y-102858905D01*
X150715302Y-102818359D01*
X150715298Y-102818359D01*
X150571376Y-102818359D01*
X150571371Y-102818359D01*
X150433286Y-102858905D01*
X150433284Y-102858905D01*
X150433284Y-102858906D01*
X150433054Y-102859054D01*
X150312208Y-102936716D01*
X150217962Y-103045482D01*
X150217961Y-103045484D01*
X150158170Y-103176404D01*
X150137690Y-103318856D01*
X150137690Y-103318861D01*
X150158170Y-103461313D01*
X150165866Y-103478163D01*
X150167205Y-103515642D01*
X150141650Y-103543091D01*
X150135101Y-103545534D01*
X150118175Y-103550504D01*
X149997098Y-103628315D01*
X149902852Y-103737081D01*
X149902851Y-103737083D01*
X149843060Y-103868003D01*
X149822580Y-104010455D01*
X149822580Y-104010460D01*
X149843060Y-104152912D01*
X149902850Y-104283831D01*
X149913028Y-104295577D01*
X149924871Y-104331161D01*
X149908084Y-104364697D01*
X149902490Y-104368885D01*
X149885154Y-104380027D01*
X149790907Y-104488794D01*
X149790906Y-104488796D01*
X149731115Y-104619716D01*
X149710635Y-104762168D01*
X148180500Y-104762168D01*
X148180500Y-104132390D01*
X148630635Y-104132390D01*
X148630635Y-104132395D01*
X148651115Y-104274847D01*
X148670610Y-104317533D01*
X148710905Y-104405766D01*
X148710906Y-104405767D01*
X148710907Y-104405769D01*
X148796130Y-104504122D01*
X148805154Y-104514536D01*
X148926229Y-104592346D01*
X149003067Y-104614907D01*
X149064316Y-104632892D01*
X149064319Y-104632892D01*
X149064321Y-104632893D01*
X149064322Y-104632893D01*
X149208242Y-104632893D01*
X149208243Y-104632893D01*
X149208245Y-104632892D01*
X149208247Y-104632892D01*
X149253120Y-104619716D01*
X149346335Y-104592346D01*
X149467410Y-104514536D01*
X149561659Y-104405766D01*
X149621447Y-104274850D01*
X149621447Y-104274848D01*
X149621448Y-104274847D01*
X149641929Y-104132395D01*
X149641929Y-104132390D01*
X149621448Y-103989938D01*
X149592534Y-103926627D01*
X149561659Y-103859020D01*
X149554841Y-103851152D01*
X149467410Y-103750250D01*
X149446925Y-103737085D01*
X149346335Y-103672440D01*
X149346332Y-103672439D01*
X149208247Y-103631893D01*
X149208243Y-103631893D01*
X149064321Y-103631893D01*
X149064316Y-103631893D01*
X148926231Y-103672439D01*
X148926229Y-103672439D01*
X148926229Y-103672440D01*
X148891355Y-103694852D01*
X148805153Y-103750250D01*
X148710907Y-103859016D01*
X148710906Y-103859018D01*
X148651115Y-103989938D01*
X148630635Y-104132390D01*
X148180500Y-104132390D01*
X148180500Y-102823922D01*
X148194852Y-102789274D01*
X148229500Y-102774922D01*
X148255990Y-102782700D01*
X148269947Y-102791670D01*
X148296614Y-102799500D01*
X148408034Y-102832216D01*
X148408037Y-102832216D01*
X148408039Y-102832217D01*
X148408040Y-102832217D01*
X148551960Y-102832217D01*
X148551961Y-102832217D01*
X148551963Y-102832216D01*
X148551965Y-102832216D01*
X148574795Y-102825512D01*
X148690053Y-102791670D01*
X148811128Y-102713860D01*
X148905377Y-102605090D01*
X148965165Y-102474174D01*
X148965165Y-102474172D01*
X148965166Y-102474171D01*
X148985647Y-102331719D01*
X148985647Y-102331714D01*
X148965166Y-102189262D01*
X148929503Y-102111173D01*
X148905377Y-102058344D01*
X148811128Y-101949574D01*
X148690053Y-101871764D01*
X148690052Y-101871763D01*
X148690051Y-101871763D01*
X148653839Y-101861130D01*
X148624638Y-101837597D01*
X148620630Y-101800309D01*
X148644163Y-101771108D01*
X148653837Y-101767101D01*
X148759631Y-101736038D01*
X148880706Y-101658228D01*
X148974955Y-101549458D01*
X149034743Y-101418542D01*
X149034743Y-101418540D01*
X149034744Y-101418539D01*
X149049796Y-101313842D01*
X149051039Y-101305194D01*
X149070175Y-101272943D01*
X149106513Y-101263668D01*
X149111245Y-101264588D01*
X149114944Y-101265500D01*
X149114948Y-101265500D01*
X149285056Y-101265500D01*
X149450225Y-101224790D01*
X149600852Y-101145734D01*
X149728183Y-101032929D01*
X149824818Y-100892930D01*
X149885140Y-100733872D01*
X149905645Y-100565000D01*
X149885140Y-100396128D01*
X149824818Y-100237070D01*
X149759242Y-100142068D01*
X149728183Y-100097071D01*
X149600853Y-99984267D01*
X149600852Y-99984266D01*
X149580122Y-99973386D01*
X149556114Y-99944579D01*
X149559507Y-99907229D01*
X149580122Y-99886613D01*
X149600852Y-99875734D01*
X149728183Y-99762929D01*
X149824818Y-99622930D01*
X149885140Y-99463872D01*
X149905645Y-99295000D01*
X149885140Y-99126128D01*
X149853038Y-99041482D01*
X150636306Y-99041482D01*
X150636306Y-99041487D01*
X150656786Y-99183939D01*
X150656991Y-99184387D01*
X150716576Y-99314858D01*
X150716577Y-99314859D01*
X150716578Y-99314861D01*
X150805019Y-99416928D01*
X150810825Y-99423628D01*
X150853279Y-99450911D01*
X150874668Y-99481717D01*
X150869084Y-99512679D01*
X150870749Y-99513440D01*
X150809503Y-99647545D01*
X150789023Y-99789997D01*
X150789023Y-99790002D01*
X150809503Y-99932454D01*
X150841605Y-100002746D01*
X150869293Y-100063373D01*
X150869294Y-100063374D01*
X150869295Y-100063376D01*
X150955801Y-100163209D01*
X150963542Y-100172143D01*
X151084617Y-100249953D01*
X151155184Y-100270673D01*
X151222704Y-100290499D01*
X151222707Y-100290499D01*
X151222709Y-100290500D01*
X151222710Y-100290500D01*
X151366630Y-100290500D01*
X151366631Y-100290500D01*
X151366633Y-100290499D01*
X151366635Y-100290499D01*
X151389465Y-100283795D01*
X151504723Y-100249953D01*
X151625798Y-100172143D01*
X151720047Y-100063373D01*
X151773812Y-99945644D01*
X151801260Y-99920089D01*
X151838739Y-99921428D01*
X151864295Y-99948876D01*
X151866885Y-99959026D01*
X151868880Y-99972901D01*
X151868881Y-99972903D01*
X151928669Y-100103819D01*
X151928670Y-100103820D01*
X151928671Y-100103822D01*
X151992894Y-100177939D01*
X152022918Y-100212589D01*
X152143993Y-100290399D01*
X152220831Y-100312960D01*
X152282080Y-100330945D01*
X152282083Y-100330945D01*
X152282085Y-100330946D01*
X152282086Y-100330946D01*
X152426006Y-100330946D01*
X152426007Y-100330946D01*
X152426009Y-100330945D01*
X152426011Y-100330945D01*
X152448841Y-100324241D01*
X152564099Y-100290399D01*
X152685174Y-100212589D01*
X152779423Y-100103819D01*
X152839211Y-99972903D01*
X152839211Y-99972901D01*
X152839212Y-99972900D01*
X152859693Y-99830448D01*
X152859693Y-99830443D01*
X152839212Y-99687991D01*
X152824875Y-99656598D01*
X152779423Y-99557073D01*
X152775227Y-99552231D01*
X152685174Y-99448303D01*
X152655872Y-99429472D01*
X152564099Y-99370493D01*
X152545780Y-99365114D01*
X152426011Y-99329946D01*
X152426007Y-99329946D01*
X152424840Y-99329946D01*
X152424220Y-99329689D01*
X152422541Y-99329448D01*
X152422602Y-99329019D01*
X152390192Y-99315594D01*
X152375840Y-99280946D01*
X152376339Y-99273972D01*
X152381229Y-99239963D01*
X152381229Y-99239960D01*
X152360748Y-99097507D01*
X152338425Y-99048627D01*
X152300959Y-98966589D01*
X152280705Y-98943215D01*
X152206710Y-98857819D01*
X152167571Y-98832666D01*
X152085635Y-98780009D01*
X152078306Y-98777857D01*
X151947547Y-98739462D01*
X151947543Y-98739462D01*
X151803621Y-98739462D01*
X151803616Y-98739462D01*
X151665528Y-98780008D01*
X151641382Y-98795526D01*
X151604475Y-98802184D01*
X151573670Y-98780794D01*
X151570320Y-98774660D01*
X151570251Y-98774508D01*
X151567330Y-98768112D01*
X151473081Y-98659342D01*
X151352006Y-98581532D01*
X151349302Y-98580738D01*
X151213918Y-98540985D01*
X151213914Y-98540985D01*
X151069992Y-98540985D01*
X151069987Y-98540985D01*
X150931902Y-98581531D01*
X150931900Y-98581531D01*
X150931900Y-98581532D01*
X150918311Y-98590265D01*
X150810824Y-98659342D01*
X150716578Y-98768108D01*
X150716577Y-98768110D01*
X150656786Y-98899030D01*
X150636306Y-99041482D01*
X149853038Y-99041482D01*
X149824818Y-98967070D01*
X149824484Y-98966585D01*
X149728182Y-98827069D01*
X149706912Y-98808226D01*
X149690494Y-98774508D01*
X149702728Y-98739056D01*
X149729842Y-98723492D01*
X149778231Y-98713867D01*
X149844552Y-98669552D01*
X149888867Y-98603231D01*
X149900500Y-98544748D01*
X149900500Y-97505252D01*
X149888867Y-97446769D01*
X149855671Y-97397088D01*
X149844552Y-97380447D01*
X149796420Y-97348287D01*
X149778231Y-97336133D01*
X149719748Y-97324500D01*
X149719745Y-97324500D01*
X148958274Y-97324500D01*
X148923626Y-97310148D01*
X148909274Y-97275500D01*
X148913702Y-97255144D01*
X148930209Y-97218999D01*
X148965165Y-97142457D01*
X148965165Y-97142455D01*
X148965166Y-97142454D01*
X148985647Y-97000002D01*
X148985647Y-96999997D01*
X148965166Y-96857545D01*
X148960751Y-96847879D01*
X148905377Y-96726627D01*
X148881373Y-96698925D01*
X148811128Y-96617857D01*
X148779498Y-96597530D01*
X148690053Y-96540047D01*
X148690050Y-96540046D01*
X148551965Y-96499500D01*
X148551961Y-96499500D01*
X148408039Y-96499500D01*
X148408034Y-96499500D01*
X148269946Y-96540046D01*
X148255990Y-96549016D01*
X148219083Y-96555674D01*
X148188278Y-96534284D01*
X148180500Y-96507794D01*
X148180500Y-91754651D01*
X148194852Y-91720003D01*
X148229500Y-91705651D01*
X148255990Y-91713429D01*
X148269947Y-91722399D01*
X148323175Y-91738028D01*
X148408034Y-91762945D01*
X148408037Y-91762945D01*
X148408039Y-91762946D01*
X148408040Y-91762946D01*
X148551960Y-91762946D01*
X148551961Y-91762946D01*
X148551963Y-91762945D01*
X148551965Y-91762945D01*
X148574795Y-91756241D01*
X148690053Y-91722399D01*
X148800298Y-91651548D01*
X148837205Y-91644891D01*
X148861437Y-91658123D01*
X149444165Y-92240852D01*
X149458517Y-92275500D01*
X149444165Y-92310148D01*
X149409517Y-92324500D01*
X148680252Y-92324500D01*
X148621769Y-92336133D01*
X148555447Y-92380447D01*
X148511133Y-92446769D01*
X148499500Y-92505252D01*
X148499500Y-93544748D01*
X148511133Y-93603231D01*
X148515010Y-93609033D01*
X148555447Y-93669552D01*
X148571717Y-93680423D01*
X148621769Y-93713867D01*
X148670155Y-93723491D01*
X148701336Y-93744325D01*
X148708653Y-93781108D01*
X148693088Y-93808226D01*
X148671816Y-93827071D01*
X148575182Y-93967068D01*
X148575181Y-93967070D01*
X148523956Y-94102143D01*
X148514860Y-94126128D01*
X148494355Y-94295000D01*
X148514860Y-94463872D01*
X148514861Y-94463874D01*
X148575181Y-94622929D01*
X148575182Y-94622931D01*
X148670140Y-94760500D01*
X148671817Y-94762929D01*
X148799148Y-94875734D01*
X148799156Y-94875738D01*
X148819875Y-94886613D01*
X148843885Y-94915423D01*
X148840490Y-94952772D01*
X148819875Y-94973387D01*
X148799156Y-94984261D01*
X148799151Y-94984264D01*
X148799148Y-94984266D01*
X148799147Y-94984267D01*
X148799146Y-94984268D01*
X148671816Y-95097071D01*
X148575182Y-95237068D01*
X148575181Y-95237070D01*
X148524665Y-95370274D01*
X148514860Y-95396128D01*
X148494355Y-95565000D01*
X148514860Y-95733872D01*
X148514861Y-95733874D01*
X148575181Y-95892929D01*
X148575182Y-95892931D01*
X148670192Y-96030575D01*
X148671817Y-96032929D01*
X148799148Y-96145734D01*
X148949775Y-96224790D01*
X149114944Y-96265500D01*
X149285056Y-96265500D01*
X149450225Y-96224790D01*
X149600852Y-96145734D01*
X149728183Y-96032929D01*
X149824818Y-95892930D01*
X149885140Y-95733872D01*
X149905645Y-95565000D01*
X149885140Y-95396128D01*
X149824818Y-95237070D01*
X149728183Y-95097071D01*
X149600852Y-94984266D01*
X149580122Y-94973386D01*
X149556114Y-94944579D01*
X149559507Y-94907229D01*
X149580122Y-94886613D01*
X149600852Y-94875734D01*
X149728183Y-94762929D01*
X149824818Y-94622930D01*
X149840534Y-94581487D01*
X149866239Y-94554180D01*
X149903725Y-94553047D01*
X149920998Y-94564215D01*
X149958740Y-94601957D01*
X149973092Y-94636605D01*
X149972593Y-94643578D01*
X149962388Y-94714563D01*
X149962388Y-94714568D01*
X149982868Y-94857020D01*
X150007581Y-94911132D01*
X150042658Y-94987939D01*
X150042659Y-94987940D01*
X150042660Y-94987942D01*
X150136906Y-95096708D01*
X150136907Y-95096709D01*
X150257982Y-95174519D01*
X150334820Y-95197080D01*
X150396069Y-95215065D01*
X150396072Y-95215065D01*
X150396074Y-95215066D01*
X150396075Y-95215066D01*
X150539995Y-95215066D01*
X150539996Y-95215066D01*
X150539998Y-95215065D01*
X150540000Y-95215065D01*
X150562830Y-95208361D01*
X150678088Y-95174519D01*
X150799163Y-95096709D01*
X150893412Y-94987939D01*
X150953200Y-94857023D01*
X150953200Y-94857021D01*
X150953201Y-94857020D01*
X150973682Y-94714568D01*
X150973682Y-94714563D01*
X150953201Y-94572111D01*
X150945012Y-94554180D01*
X150893412Y-94441193D01*
X150884559Y-94430976D01*
X150799162Y-94332421D01*
X150799160Y-94332419D01*
X150709668Y-94274907D01*
X150688279Y-94244102D01*
X150694938Y-94207195D01*
X150722352Y-94186672D01*
X150747017Y-94179430D01*
X150868092Y-94101620D01*
X150962341Y-93992850D01*
X151022129Y-93861934D01*
X151022129Y-93861932D01*
X151022130Y-93861931D01*
X151042611Y-93719479D01*
X151042611Y-93719474D01*
X151022130Y-93577022D01*
X151007389Y-93544744D01*
X150962341Y-93446104D01*
X150914815Y-93391256D01*
X150868092Y-93337334D01*
X150822047Y-93307743D01*
X150747017Y-93259524D01*
X150744422Y-93258762D01*
X150608929Y-93218977D01*
X150608925Y-93218977D01*
X150465003Y-93218977D01*
X150464998Y-93218977D01*
X150340269Y-93255601D01*
X150302981Y-93251592D01*
X150279449Y-93222391D01*
X150277464Y-93208586D01*
X150277464Y-93204439D01*
X150279134Y-93191754D01*
X150280500Y-93186657D01*
X150280500Y-92363073D01*
X150280500Y-92363072D01*
X150280106Y-92361603D01*
X150261384Y-92291731D01*
X150244837Y-92263071D01*
X150224456Y-92227769D01*
X150172231Y-92175544D01*
X150172230Y-92175543D01*
X150030237Y-92033550D01*
X151610725Y-92033550D01*
X151610725Y-92033555D01*
X151631205Y-92176007D01*
X151636471Y-92187537D01*
X151690995Y-92306926D01*
X151690996Y-92306927D01*
X151690997Y-92306929D01*
X151785244Y-92415697D01*
X151785246Y-92415698D01*
X151877187Y-92474785D01*
X151898576Y-92505590D01*
X151895268Y-92536361D01*
X151858797Y-92616220D01*
X151858797Y-92616222D01*
X151838316Y-92758675D01*
X151838316Y-92758680D01*
X151858796Y-92901132D01*
X151886522Y-92961841D01*
X151918586Y-93032051D01*
X151918587Y-93032052D01*
X151918588Y-93032054D01*
X151983174Y-93106591D01*
X151995017Y-93142175D01*
X151983174Y-93170766D01*
X151918589Y-93245303D01*
X151918586Y-93245307D01*
X151858796Y-93376226D01*
X151838316Y-93518678D01*
X151838316Y-93518683D01*
X151858796Y-93661135D01*
X151888191Y-93725500D01*
X151918586Y-93792054D01*
X151918587Y-93792055D01*
X151918588Y-93792057D01*
X151979590Y-93862457D01*
X152012835Y-93900824D01*
X152133910Y-93978634D01*
X152210539Y-94001134D01*
X152271997Y-94019180D01*
X152272000Y-94019180D01*
X152272002Y-94019181D01*
X152272003Y-94019181D01*
X152415923Y-94019181D01*
X152415924Y-94019181D01*
X152415926Y-94019180D01*
X152415928Y-94019180D01*
X152438758Y-94012476D01*
X152554016Y-93978634D01*
X152675091Y-93900824D01*
X152769340Y-93792054D01*
X152829128Y-93661138D01*
X152829128Y-93661136D01*
X152829129Y-93661135D01*
X152849610Y-93518683D01*
X152849610Y-93518678D01*
X152829129Y-93376226D01*
X152797853Y-93307743D01*
X152769340Y-93245308D01*
X152755098Y-93228872D01*
X152704750Y-93170767D01*
X152692907Y-93135184D01*
X152704751Y-93106590D01*
X152769340Y-93032051D01*
X152829128Y-92901135D01*
X152829128Y-92901133D01*
X152829129Y-92901132D01*
X152849610Y-92758679D01*
X152849610Y-92758677D01*
X152847501Y-92744012D01*
X152856775Y-92707673D01*
X152889027Y-92688536D01*
X152896002Y-92688037D01*
X153026370Y-92688037D01*
X153026371Y-92688037D01*
X153026373Y-92688036D01*
X153026375Y-92688036D01*
X153049205Y-92681332D01*
X153164463Y-92647490D01*
X153285538Y-92569680D01*
X153379787Y-92460910D01*
X153439575Y-92329994D01*
X153439575Y-92329992D01*
X153439576Y-92329991D01*
X153460057Y-92187539D01*
X153460057Y-92187534D01*
X153439576Y-92045082D01*
X153409875Y-91980047D01*
X153379787Y-91914164D01*
X153374795Y-91908403D01*
X153306524Y-91829614D01*
X153285538Y-91805394D01*
X153285537Y-91805393D01*
X153243466Y-91778356D01*
X153164463Y-91727584D01*
X153162389Y-91726975D01*
X153026375Y-91687037D01*
X153026371Y-91687037D01*
X152882449Y-91687037D01*
X152882444Y-91687037D01*
X152744358Y-91727583D01*
X152623783Y-91805071D01*
X152586876Y-91811729D01*
X152556070Y-91790340D01*
X152552720Y-91784204D01*
X152552383Y-91783466D01*
X152541749Y-91760180D01*
X152447500Y-91651410D01*
X152326425Y-91573600D01*
X152326422Y-91573599D01*
X152188337Y-91533053D01*
X152188333Y-91533053D01*
X152044411Y-91533053D01*
X152044406Y-91533053D01*
X151906321Y-91573599D01*
X151906319Y-91573599D01*
X151906319Y-91573600D01*
X151878905Y-91591218D01*
X151785243Y-91651410D01*
X151690997Y-91760176D01*
X151690996Y-91760178D01*
X151631205Y-91891098D01*
X151610725Y-92033550D01*
X150030237Y-92033550D01*
X149089696Y-91093010D01*
X149089695Y-91093008D01*
X149034679Y-91037992D01*
X149034677Y-91037990D01*
X149034674Y-91037988D01*
X149034670Y-91037985D01*
X148970717Y-91001063D01*
X148970711Y-91001060D01*
X148960334Y-90998280D01*
X148960333Y-90998280D01*
X148913659Y-90985773D01*
X148889310Y-90970531D01*
X148811128Y-90880303D01*
X148779498Y-90859976D01*
X148690053Y-90802493D01*
X148688793Y-90802123D01*
X148551965Y-90761946D01*
X148551961Y-90761946D01*
X148408039Y-90761946D01*
X148408034Y-90761946D01*
X148269946Y-90802492D01*
X148255990Y-90811462D01*
X148219083Y-90818120D01*
X148188278Y-90796730D01*
X148180500Y-90770240D01*
X148180500Y-90349997D01*
X149494353Y-90349997D01*
X149494353Y-90350002D01*
X149514833Y-90492454D01*
X149537203Y-90541436D01*
X149574623Y-90623373D01*
X149574624Y-90623374D01*
X149574625Y-90623376D01*
X149662168Y-90724406D01*
X149668872Y-90732143D01*
X149789947Y-90809953D01*
X149864362Y-90831803D01*
X149928034Y-90850499D01*
X149928037Y-90850499D01*
X149928039Y-90850500D01*
X149928040Y-90850500D01*
X150071960Y-90850500D01*
X150071961Y-90850500D01*
X150071963Y-90850499D01*
X150071965Y-90850499D01*
X150094795Y-90843795D01*
X150210053Y-90809953D01*
X150331128Y-90732143D01*
X150425377Y-90623373D01*
X150485165Y-90492457D01*
X150485165Y-90492455D01*
X150485166Y-90492454D01*
X150505647Y-90350002D01*
X150505647Y-90349997D01*
X150485859Y-90212368D01*
X151287966Y-90212368D01*
X151287966Y-90212373D01*
X151308446Y-90354822D01*
X151308446Y-90354825D01*
X151328255Y-90398199D01*
X151368236Y-90485744D01*
X151368237Y-90485745D01*
X151368238Y-90485747D01*
X151462484Y-90594513D01*
X151462485Y-90594514D01*
X151583560Y-90672324D01*
X151660398Y-90694885D01*
X151721647Y-90712870D01*
X151721650Y-90712870D01*
X151721652Y-90712871D01*
X151721653Y-90712871D01*
X151865573Y-90712871D01*
X151865574Y-90712871D01*
X151865576Y-90712870D01*
X151865578Y-90712870D01*
X151888408Y-90706166D01*
X152003666Y-90672324D01*
X152124741Y-90594514D01*
X152218990Y-90485744D01*
X152278778Y-90354828D01*
X152278778Y-90354826D01*
X152278779Y-90354825D01*
X152278780Y-90354822D01*
X152299260Y-90212373D01*
X152299260Y-90212368D01*
X152278779Y-90069916D01*
X152259339Y-90027349D01*
X152218990Y-89938998D01*
X152124741Y-89830228D01*
X152003666Y-89752418D01*
X152003663Y-89752417D01*
X151865578Y-89711871D01*
X151865574Y-89711871D01*
X151721652Y-89711871D01*
X151721647Y-89711871D01*
X151583562Y-89752417D01*
X151583560Y-89752417D01*
X151583560Y-89752418D01*
X151562600Y-89765888D01*
X151462484Y-89830228D01*
X151368238Y-89938994D01*
X151368237Y-89938996D01*
X151308446Y-90069916D01*
X151287966Y-90212368D01*
X150485859Y-90212368D01*
X150485166Y-90207545D01*
X150480751Y-90197879D01*
X150425377Y-90076627D01*
X150419948Y-90070362D01*
X150331128Y-89967857D01*
X150286216Y-89938994D01*
X150210053Y-89890047D01*
X150210050Y-89890046D01*
X150071965Y-89849500D01*
X150071961Y-89849500D01*
X149928039Y-89849500D01*
X149928034Y-89849500D01*
X149789949Y-89890046D01*
X149668871Y-89967857D01*
X149574625Y-90076623D01*
X149574624Y-90076625D01*
X149514833Y-90207545D01*
X149494353Y-90349997D01*
X148180500Y-90349997D01*
X148180500Y-87718129D01*
X148874352Y-87718129D01*
X148874352Y-87718134D01*
X148894832Y-87860586D01*
X148911565Y-87897225D01*
X148954622Y-87991505D01*
X148954623Y-87991506D01*
X148954624Y-87991508D01*
X149048870Y-88100274D01*
X149048871Y-88100275D01*
X149169946Y-88178085D01*
X149246784Y-88200646D01*
X149308033Y-88218631D01*
X149308036Y-88218631D01*
X149308038Y-88218632D01*
X149308039Y-88218632D01*
X149451959Y-88218632D01*
X149451960Y-88218632D01*
X149451962Y-88218631D01*
X149451964Y-88218631D01*
X149474794Y-88211927D01*
X149590052Y-88178085D01*
X149711127Y-88100275D01*
X149805376Y-87991505D01*
X149865164Y-87860589D01*
X149865164Y-87860587D01*
X149865165Y-87860586D01*
X149885646Y-87718134D01*
X149885646Y-87718129D01*
X149865165Y-87575677D01*
X149850412Y-87543373D01*
X149805376Y-87444759D01*
X149782721Y-87418614D01*
X149711126Y-87335988D01*
X149688356Y-87321354D01*
X149666968Y-87290548D01*
X149673627Y-87253641D01*
X149704433Y-87232253D01*
X149728651Y-87233117D01*
X149762946Y-87243187D01*
X149797735Y-87253403D01*
X149797738Y-87253403D01*
X149797740Y-87253404D01*
X149797741Y-87253404D01*
X149941661Y-87253404D01*
X149941662Y-87253404D01*
X149941664Y-87253403D01*
X149941666Y-87253403D01*
X149969514Y-87245226D01*
X150079754Y-87212857D01*
X150200829Y-87135047D01*
X150295078Y-87026277D01*
X150354866Y-86895361D01*
X150354866Y-86895359D01*
X150354867Y-86895358D01*
X150370658Y-86785526D01*
X150844498Y-86785526D01*
X150844498Y-87761926D01*
X150863614Y-87833267D01*
X150879386Y-87860586D01*
X150900539Y-87897225D01*
X150900544Y-87897231D01*
X150955557Y-87952244D01*
X150955563Y-87952249D01*
X151905148Y-88901834D01*
X151919500Y-88936482D01*
X151919500Y-89229931D01*
X151936321Y-89292706D01*
X151938615Y-89301268D01*
X151938617Y-89301272D01*
X151975539Y-89365225D01*
X151975546Y-89365234D01*
X152030559Y-89420247D01*
X152030565Y-89420252D01*
X153151748Y-90541436D01*
X153166100Y-90576084D01*
X153151748Y-90610732D01*
X153130905Y-90623099D01*
X153055547Y-90645226D01*
X153055545Y-90645226D01*
X153055545Y-90645227D01*
X153053415Y-90646596D01*
X152934469Y-90723037D01*
X152840223Y-90831803D01*
X152840222Y-90831805D01*
X152780431Y-90962725D01*
X152759951Y-91105177D01*
X152759951Y-91105182D01*
X152780431Y-91247634D01*
X152812533Y-91317926D01*
X152840221Y-91378553D01*
X152840222Y-91378554D01*
X152840223Y-91378556D01*
X152933050Y-91485684D01*
X152934470Y-91487323D01*
X153055545Y-91565133D01*
X153113596Y-91582178D01*
X153193632Y-91605679D01*
X153193635Y-91605679D01*
X153193637Y-91605680D01*
X153193638Y-91605680D01*
X153337558Y-91605680D01*
X153337559Y-91605680D01*
X153337561Y-91605679D01*
X153337563Y-91605679D01*
X153374317Y-91594887D01*
X153475651Y-91565133D01*
X153596726Y-91487323D01*
X153690975Y-91378553D01*
X153750763Y-91247637D01*
X153750763Y-91247635D01*
X153750764Y-91247634D01*
X153771245Y-91105182D01*
X153771245Y-91105177D01*
X153753527Y-90981946D01*
X153750763Y-90962723D01*
X153750016Y-90961087D01*
X153728237Y-90913397D01*
X153726898Y-90875918D01*
X153752454Y-90848470D01*
X153772809Y-90844042D01*
X154127957Y-90844042D01*
X154162605Y-90858394D01*
X154176957Y-90893042D01*
X154172529Y-90913397D01*
X154150750Y-90961084D01*
X154150750Y-90961086D01*
X154130269Y-91103539D01*
X154130269Y-91103544D01*
X154150749Y-91245996D01*
X154152124Y-91249006D01*
X154210539Y-91376915D01*
X154210540Y-91376916D01*
X154210541Y-91376918D01*
X154280345Y-91457476D01*
X154304788Y-91485685D01*
X154425863Y-91563495D01*
X154495653Y-91583987D01*
X154563950Y-91604041D01*
X154563953Y-91604041D01*
X154563955Y-91604042D01*
X154563956Y-91604042D01*
X154707874Y-91604042D01*
X154707877Y-91604042D01*
X154707879Y-91604041D01*
X154711343Y-91603543D01*
X154711682Y-91605900D01*
X154741369Y-91608730D01*
X154753056Y-91617369D01*
X154793366Y-91657679D01*
X154807718Y-91692327D01*
X154793366Y-91726975D01*
X154772523Y-91739342D01*
X154689949Y-91763588D01*
X154689947Y-91763588D01*
X154689947Y-91763589D01*
X154666969Y-91778356D01*
X154568871Y-91841399D01*
X154474625Y-91950165D01*
X154474624Y-91950167D01*
X154414833Y-92081087D01*
X154394353Y-92223539D01*
X154394353Y-92223544D01*
X154414833Y-92365996D01*
X154437532Y-92415698D01*
X154474623Y-92496915D01*
X154474624Y-92496916D01*
X154474625Y-92496918D01*
X154550250Y-92584194D01*
X154568872Y-92605685D01*
X154596991Y-92623756D01*
X154618380Y-92654561D01*
X154619500Y-92664977D01*
X154619500Y-92828567D01*
X154605148Y-92863215D01*
X152075546Y-95392816D01*
X152075541Y-95392822D01*
X152038616Y-95456781D01*
X152038614Y-95456785D01*
X152034311Y-95472846D01*
X152020557Y-95524179D01*
X152019500Y-95528122D01*
X152019500Y-96149423D01*
X152005148Y-96184071D01*
X151970500Y-96198423D01*
X151961237Y-96198423D01*
X151823152Y-96238969D01*
X151823150Y-96238969D01*
X151823150Y-96238970D01*
X151785925Y-96262892D01*
X151702074Y-96316780D01*
X151607828Y-96425546D01*
X151607827Y-96425548D01*
X151548036Y-96556468D01*
X151527556Y-96698920D01*
X151527556Y-96698925D01*
X151548036Y-96841377D01*
X151561151Y-96870093D01*
X151607826Y-96972296D01*
X151607827Y-96972297D01*
X151607828Y-96972299D01*
X151684651Y-97060958D01*
X151702075Y-97081066D01*
X151805696Y-97147659D01*
X151823152Y-97158877D01*
X151862526Y-97170437D01*
X151896584Y-97180437D01*
X151925786Y-97203968D01*
X151931281Y-97234425D01*
X151914202Y-97353218D01*
X151914202Y-97353223D01*
X151934682Y-97495675D01*
X151944398Y-97516949D01*
X151994472Y-97626594D01*
X151994473Y-97626595D01*
X151994474Y-97626597D01*
X152067522Y-97710899D01*
X152088721Y-97735364D01*
X152209796Y-97813174D01*
X152286634Y-97835735D01*
X152347883Y-97853720D01*
X152347886Y-97853720D01*
X152347888Y-97853721D01*
X152347889Y-97853721D01*
X152491809Y-97853721D01*
X152491810Y-97853721D01*
X152491812Y-97853720D01*
X152491814Y-97853720D01*
X152525336Y-97843877D01*
X152629902Y-97813174D01*
X152696194Y-97770571D01*
X152733101Y-97763912D01*
X152763906Y-97785301D01*
X152770565Y-97822208D01*
X152759719Y-97843877D01*
X152755787Y-97848415D01*
X152755783Y-97848421D01*
X152695992Y-97979341D01*
X152675512Y-98121793D01*
X152675512Y-98121798D01*
X152695992Y-98264250D01*
X152718522Y-98313582D01*
X152755782Y-98395169D01*
X152755783Y-98395170D01*
X152755784Y-98395172D01*
X152818828Y-98467929D01*
X152850031Y-98503939D01*
X152971106Y-98581749D01*
X153044268Y-98603231D01*
X153109193Y-98622295D01*
X153109196Y-98622295D01*
X153109198Y-98622296D01*
X153156712Y-98622296D01*
X153191360Y-98636648D01*
X153205213Y-98664323D01*
X153226004Y-98808939D01*
X153248454Y-98858096D01*
X153285794Y-98939858D01*
X153285795Y-98939859D01*
X153285796Y-98939861D01*
X153373855Y-99041487D01*
X153380043Y-99048628D01*
X153501118Y-99126438D01*
X153577956Y-99148999D01*
X153639205Y-99166984D01*
X153639208Y-99166984D01*
X153639210Y-99166985D01*
X153639211Y-99166985D01*
X153745908Y-99166985D01*
X153780556Y-99181337D01*
X153794408Y-99209011D01*
X153806772Y-99295000D01*
X153807283Y-99298554D01*
X153807283Y-99298556D01*
X153821619Y-99329946D01*
X153867071Y-99429471D01*
X153867072Y-99429472D01*
X153867073Y-99429474D01*
X153961319Y-99538240D01*
X153961320Y-99538241D01*
X154082395Y-99616051D01*
X154159233Y-99638612D01*
X154220482Y-99656597D01*
X154220485Y-99656597D01*
X154220487Y-99656598D01*
X154283963Y-99656598D01*
X154318611Y-99670950D01*
X154332963Y-99705598D01*
X154332464Y-99712572D01*
X154324182Y-99770172D01*
X154324182Y-99770175D01*
X154344662Y-99912628D01*
X154362996Y-99952772D01*
X154404452Y-100043547D01*
X154404453Y-100043548D01*
X154404454Y-100043550D01*
X154489820Y-100142068D01*
X154498701Y-100152317D01*
X154619776Y-100230127D01*
X154687298Y-100249953D01*
X154757863Y-100270673D01*
X154757866Y-100270673D01*
X154757868Y-100270674D01*
X154757869Y-100270674D01*
X154901789Y-100270674D01*
X154901790Y-100270674D01*
X154901792Y-100270673D01*
X154901794Y-100270673D01*
X154922309Y-100264649D01*
X155039882Y-100230127D01*
X155144009Y-100163209D01*
X155180916Y-100156550D01*
X155211721Y-100177939D01*
X155219500Y-100204430D01*
X155219500Y-100388132D01*
X155227175Y-100416773D01*
X155227175Y-100416774D01*
X155238614Y-100459466D01*
X155238618Y-100459476D01*
X155239400Y-100460830D01*
X155239502Y-100461610D01*
X155239845Y-100462437D01*
X155239623Y-100462528D01*
X155244292Y-100498012D01*
X155221459Y-100527763D01*
X155210769Y-100532341D01*
X155177217Y-100542193D01*
X155056140Y-100620004D01*
X154961894Y-100728770D01*
X154961893Y-100728772D01*
X154902102Y-100859692D01*
X154881622Y-101002144D01*
X154881622Y-101002149D01*
X154902102Y-101144601D01*
X154920348Y-101184552D01*
X154961892Y-101275520D01*
X154961893Y-101275521D01*
X154961894Y-101275523D01*
X154964264Y-101278258D01*
X154976108Y-101313842D01*
X154959322Y-101347378D01*
X154927233Y-101359347D01*
X154910049Y-101359347D01*
X154771964Y-101399893D01*
X154650886Y-101477704D01*
X154556640Y-101586470D01*
X154556639Y-101586472D01*
X154496850Y-101717388D01*
X154496850Y-101717390D01*
X154489257Y-101770203D01*
X154489134Y-101771058D01*
X154469998Y-101803311D01*
X154440633Y-101813085D01*
X154300356Y-101813085D01*
X154220823Y-101836438D01*
X154183535Y-101832429D01*
X154162447Y-101809778D01*
X154142956Y-101767100D01*
X154115089Y-101706079D01*
X154115088Y-101706078D01*
X154113933Y-101703548D01*
X154112594Y-101666069D01*
X154132015Y-101641971D01*
X154171401Y-101616660D01*
X154171402Y-101616659D01*
X154265651Y-101507889D01*
X154325439Y-101376973D01*
X154325439Y-101376971D01*
X154325440Y-101376970D01*
X154345921Y-101234518D01*
X154345921Y-101234513D01*
X154325440Y-101092061D01*
X154310681Y-101059744D01*
X154265651Y-100961143D01*
X154260373Y-100955052D01*
X154171402Y-100852373D01*
X154155968Y-100842454D01*
X154050327Y-100774563D01*
X154050324Y-100774562D01*
X153912239Y-100734016D01*
X153912235Y-100734016D01*
X153852996Y-100734016D01*
X153818348Y-100719664D01*
X153804495Y-100691989D01*
X153785166Y-100557545D01*
X153778155Y-100542193D01*
X153725377Y-100426627D01*
X153721968Y-100422693D01*
X153631128Y-100317857D01*
X153625551Y-100314273D01*
X153510053Y-100240047D01*
X153503446Y-100238107D01*
X153371965Y-100199500D01*
X153371961Y-100199500D01*
X153228039Y-100199500D01*
X153228034Y-100199500D01*
X153089949Y-100240046D01*
X152968871Y-100317857D01*
X152874625Y-100426623D01*
X152874624Y-100426625D01*
X152814833Y-100557545D01*
X152794353Y-100699997D01*
X152794353Y-100700002D01*
X152814833Y-100842454D01*
X152837886Y-100892931D01*
X152874623Y-100973373D01*
X152874624Y-100973374D01*
X152874625Y-100973376D01*
X152968871Y-101082142D01*
X152968872Y-101082143D01*
X153089947Y-101159953D01*
X153166785Y-101182514D01*
X153228034Y-101200499D01*
X153228037Y-101200499D01*
X153228039Y-101200500D01*
X153287278Y-101200500D01*
X153321926Y-101214852D01*
X153335779Y-101242527D01*
X153355107Y-101376970D01*
X153378307Y-101427769D01*
X153407519Y-101491734D01*
X153416052Y-101510417D01*
X153417391Y-101547896D01*
X153397972Y-101571994D01*
X153358584Y-101597308D01*
X153264337Y-101706075D01*
X153264336Y-101706077D01*
X153218214Y-101807067D01*
X153190765Y-101832622D01*
X153159838Y-101833726D01*
X153077325Y-101809498D01*
X153077319Y-101809498D01*
X152933397Y-101809498D01*
X152933392Y-101809498D01*
X152795307Y-101850044D01*
X152795305Y-101850044D01*
X152795305Y-101850045D01*
X152758080Y-101873967D01*
X152674229Y-101927855D01*
X152579983Y-102036621D01*
X152579982Y-102036623D01*
X152520191Y-102167543D01*
X152499711Y-102309995D01*
X152499711Y-102309999D01*
X152509916Y-102380983D01*
X152500641Y-102417321D01*
X152496063Y-102422604D01*
X152324428Y-102594241D01*
X152272203Y-102646465D01*
X152272198Y-102646471D01*
X152235273Y-102710430D01*
X152235272Y-102710432D01*
X152216157Y-102781769D01*
X152216157Y-104460606D01*
X152224311Y-104491035D01*
X152224311Y-104491036D01*
X152235272Y-104531943D01*
X152235273Y-104531947D01*
X152272196Y-104595900D01*
X152272203Y-104595909D01*
X152327216Y-104650922D01*
X152327221Y-104650926D01*
X153283882Y-105607588D01*
X153283883Y-105607589D01*
X153336108Y-105659814D01*
X153336111Y-105659815D01*
X153336114Y-105659818D01*
X153365409Y-105676731D01*
X153400070Y-105696742D01*
X153433176Y-105705612D01*
X153471408Y-105715858D01*
X153471410Y-105715858D01*
X153471411Y-105715858D01*
X156335885Y-105715858D01*
X156370533Y-105730210D01*
X156419733Y-105779410D01*
X156434085Y-105814058D01*
X156419733Y-105848706D01*
X156398890Y-105861073D01*
X156347117Y-105876275D01*
X156226038Y-105954087D01*
X156131792Y-106062853D01*
X156131791Y-106062855D01*
X156073907Y-106189602D01*
X156072002Y-106193773D01*
X156059961Y-106277521D01*
X156058573Y-106287173D01*
X156039436Y-106319426D01*
X156010072Y-106329199D01*
X155907197Y-106329199D01*
X155769112Y-106369745D01*
X155648034Y-106447556D01*
X155553788Y-106556322D01*
X155553787Y-106556324D01*
X155493996Y-106687244D01*
X155473516Y-106829696D01*
X155473516Y-106829701D01*
X155493996Y-106972153D01*
X155518873Y-107026625D01*
X155553786Y-107103072D01*
X155553787Y-107103073D01*
X155553788Y-107103075D01*
X155648034Y-107211841D01*
X155648035Y-107211842D01*
X155769110Y-107289652D01*
X155845948Y-107312213D01*
X155907197Y-107330198D01*
X155907200Y-107330198D01*
X155907202Y-107330199D01*
X155907203Y-107330199D01*
X156051123Y-107330199D01*
X156051124Y-107330199D01*
X156051126Y-107330198D01*
X156051128Y-107330198D01*
X156090218Y-107318720D01*
X156189216Y-107289652D01*
X156310291Y-107211842D01*
X156404540Y-107103072D01*
X156464328Y-106972156D01*
X156464328Y-106972154D01*
X156464329Y-106972153D01*
X156477757Y-106878757D01*
X156496893Y-106846504D01*
X156526258Y-106836730D01*
X156629127Y-106836730D01*
X156629128Y-106836730D01*
X156629130Y-106836729D01*
X156629132Y-106836729D01*
X156653084Y-106829696D01*
X156767220Y-106796183D01*
X156888295Y-106718373D01*
X156982544Y-106609603D01*
X157037054Y-106490243D01*
X157064503Y-106464689D01*
X157101982Y-106466028D01*
X157116274Y-106475952D01*
X157347632Y-106707310D01*
X157361984Y-106741958D01*
X157361485Y-106748931D01*
X157351280Y-106819916D01*
X157351280Y-106819920D01*
X157371760Y-106962372D01*
X157400460Y-107025214D01*
X157431550Y-107093291D01*
X157431551Y-107093292D01*
X157431552Y-107093294D01*
X157486002Y-107156133D01*
X157525799Y-107202061D01*
X157646874Y-107279871D01*
X157715418Y-107299997D01*
X157784961Y-107320417D01*
X157784964Y-107320417D01*
X157784966Y-107320418D01*
X157784967Y-107320418D01*
X157928887Y-107320418D01*
X157928888Y-107320418D01*
X157928890Y-107320417D01*
X157928892Y-107320417D01*
X157951722Y-107313713D01*
X158066980Y-107279871D01*
X158188055Y-107202061D01*
X158282304Y-107093291D01*
X158342092Y-106962375D01*
X158342092Y-106962373D01*
X158342093Y-106962372D01*
X158362574Y-106819920D01*
X158362574Y-106819916D01*
X158351365Y-106741958D01*
X158346395Y-106707391D01*
X158355669Y-106671054D01*
X158381092Y-106653403D01*
X158460947Y-106629956D01*
X158460947Y-106629955D01*
X158460950Y-106629955D01*
X158582025Y-106552145D01*
X158676274Y-106443375D01*
X158736062Y-106312459D01*
X158736062Y-106312457D01*
X158736063Y-106312456D01*
X158756544Y-106170004D01*
X158756544Y-106169999D01*
X158736063Y-106027547D01*
X158702514Y-105954087D01*
X158676274Y-105896629D01*
X158658637Y-105876275D01*
X158582025Y-105787859D01*
X158568878Y-105779410D01*
X158470934Y-105716465D01*
X159740824Y-105716465D01*
X159740824Y-105716470D01*
X159761304Y-105858922D01*
X159769230Y-105876277D01*
X159821094Y-105989841D01*
X159821095Y-105989842D01*
X159821096Y-105989844D01*
X159884360Y-106062855D01*
X159915343Y-106098611D01*
X160036418Y-106176421D01*
X160113256Y-106198982D01*
X160174505Y-106216967D01*
X160174508Y-106216967D01*
X160174510Y-106216968D01*
X160174511Y-106216968D01*
X160318431Y-106216968D01*
X160318432Y-106216968D01*
X160318434Y-106216967D01*
X160318436Y-106216967D01*
X160341266Y-106210263D01*
X160456524Y-106176421D01*
X160577599Y-106098611D01*
X160671848Y-105989841D01*
X160731636Y-105858925D01*
X160731636Y-105858923D01*
X160731637Y-105858922D01*
X160752118Y-105716470D01*
X160752118Y-105716465D01*
X160731637Y-105574013D01*
X160727222Y-105564347D01*
X160671848Y-105443095D01*
X160671845Y-105443091D01*
X160603021Y-105363663D01*
X160591178Y-105328079D01*
X160607965Y-105294543D01*
X160626248Y-105284560D01*
X160710053Y-105259953D01*
X160831128Y-105182143D01*
X160925377Y-105073373D01*
X160985165Y-104942457D01*
X160985165Y-104942455D01*
X160985166Y-104942454D01*
X161005647Y-104800002D01*
X161005647Y-104799997D01*
X160985166Y-104657545D01*
X160980751Y-104647879D01*
X160925377Y-104526627D01*
X160914900Y-104514536D01*
X160837748Y-104425497D01*
X160825905Y-104389913D01*
X160837748Y-104361321D01*
X160843657Y-104354502D01*
X160931285Y-104253373D01*
X160991073Y-104122457D01*
X160991073Y-104122455D01*
X160991074Y-104122454D01*
X161000054Y-104059998D01*
X161134353Y-104059998D01*
X161134353Y-104060003D01*
X161154833Y-104202455D01*
X161165844Y-104226564D01*
X161214623Y-104333374D01*
X161214624Y-104333375D01*
X161214625Y-104333377D01*
X161308871Y-104442143D01*
X161308872Y-104442144D01*
X161429947Y-104519954D01*
X161495797Y-104539289D01*
X161568034Y-104560500D01*
X161568037Y-104560500D01*
X161568039Y-104560501D01*
X161568040Y-104560501D01*
X161711960Y-104560501D01*
X161711961Y-104560501D01*
X161711963Y-104560500D01*
X161711965Y-104560500D01*
X161753759Y-104548228D01*
X161850053Y-104519954D01*
X161971128Y-104442144D01*
X162065377Y-104333374D01*
X162125165Y-104202458D01*
X162125165Y-104202456D01*
X162125166Y-104202455D01*
X162145647Y-104060003D01*
X162145647Y-104059998D01*
X162125166Y-103917546D01*
X162102539Y-103868001D01*
X162065377Y-103786628D01*
X162062909Y-103783780D01*
X161971128Y-103677858D01*
X161850053Y-103600048D01*
X161850050Y-103600047D01*
X161711965Y-103559501D01*
X161711961Y-103559501D01*
X161568039Y-103559501D01*
X161568034Y-103559501D01*
X161429949Y-103600047D01*
X161429947Y-103600047D01*
X161429947Y-103600048D01*
X161416914Y-103608424D01*
X161308871Y-103677858D01*
X161214625Y-103786624D01*
X161214624Y-103786626D01*
X161154833Y-103917546D01*
X161134353Y-104059998D01*
X161000054Y-104059998D01*
X161011555Y-103980002D01*
X161011555Y-103979997D01*
X160991074Y-103837545D01*
X160973796Y-103799713D01*
X160931285Y-103706627D01*
X160926410Y-103701001D01*
X160837036Y-103597857D01*
X160790890Y-103568201D01*
X160715961Y-103520047D01*
X160715958Y-103520046D01*
X160577873Y-103479500D01*
X160577869Y-103479500D01*
X160433947Y-103479500D01*
X160433942Y-103479500D01*
X160295857Y-103520046D01*
X160174779Y-103597857D01*
X160080533Y-103706623D01*
X160080532Y-103706625D01*
X160080531Y-103706626D01*
X160080531Y-103706627D01*
X160078209Y-103711712D01*
X160020741Y-103837545D01*
X160000261Y-103979997D01*
X160000261Y-103980002D01*
X160020741Y-104122454D01*
X160040667Y-104166085D01*
X160080531Y-104253373D01*
X160080532Y-104253374D01*
X160080533Y-104253376D01*
X160168159Y-104354502D01*
X160180002Y-104390086D01*
X160168159Y-104418678D01*
X160074625Y-104526623D01*
X160074624Y-104526625D01*
X160014833Y-104657545D01*
X159994353Y-104799997D01*
X159994353Y-104800002D01*
X160014833Y-104942454D01*
X160046935Y-105012746D01*
X160074623Y-105073373D01*
X160074624Y-105073374D01*
X160074625Y-105073376D01*
X160143449Y-105152804D01*
X160155292Y-105188388D01*
X160138505Y-105221924D01*
X160120222Y-105231907D01*
X160036420Y-105256514D01*
X160036418Y-105256514D01*
X160036418Y-105256515D01*
X160026841Y-105262670D01*
X159915342Y-105334325D01*
X159821096Y-105443091D01*
X159821095Y-105443093D01*
X159761304Y-105574013D01*
X159740824Y-105716465D01*
X158470934Y-105716465D01*
X158460950Y-105710049D01*
X158460947Y-105710048D01*
X158322862Y-105669502D01*
X158322858Y-105669502D01*
X158178936Y-105669502D01*
X158178934Y-105669502D01*
X158175466Y-105670001D01*
X158175164Y-105667904D01*
X158144484Y-105664290D01*
X158133755Y-105656173D01*
X157423504Y-104945923D01*
X157423502Y-104945920D01*
X157368486Y-104890904D01*
X157368484Y-104890902D01*
X157368481Y-104890900D01*
X157368477Y-104890897D01*
X157304523Y-104853974D01*
X157233184Y-104834858D01*
X157233182Y-104834858D01*
X157233181Y-104834858D01*
X154088498Y-104834858D01*
X154053850Y-104820506D01*
X153988871Y-104755527D01*
X153974519Y-104720879D01*
X153988871Y-104686231D01*
X154023519Y-104671879D01*
X154037324Y-104673864D01*
X154128034Y-104700499D01*
X154128037Y-104700499D01*
X154128039Y-104700500D01*
X154128040Y-104700500D01*
X154271960Y-104700500D01*
X154271961Y-104700500D01*
X154271963Y-104700499D01*
X154271965Y-104700499D01*
X154320557Y-104686231D01*
X154410053Y-104659953D01*
X154531128Y-104582143D01*
X154531222Y-104582034D01*
X154531294Y-104581998D01*
X154533772Y-104579851D01*
X154534319Y-104580483D01*
X154564753Y-104565241D01*
X154600339Y-104577077D01*
X154605291Y-104582027D01*
X154628409Y-104608706D01*
X154628410Y-104608707D01*
X154749485Y-104686517D01*
X154826323Y-104709078D01*
X154887572Y-104727063D01*
X154887575Y-104727063D01*
X154887577Y-104727064D01*
X154887578Y-104727064D01*
X155031498Y-104727064D01*
X155031499Y-104727064D01*
X155031501Y-104727063D01*
X155031503Y-104727063D01*
X155054333Y-104720359D01*
X155169591Y-104686517D01*
X155290666Y-104608707D01*
X155384915Y-104499937D01*
X155444703Y-104369021D01*
X155444703Y-104369019D01*
X155444704Y-104369018D01*
X155450182Y-104330916D01*
X155469318Y-104298663D01*
X155505656Y-104289388D01*
X155537909Y-104308524D01*
X155543253Y-104317529D01*
X155572817Y-104382265D01*
X155572818Y-104382266D01*
X155572819Y-104382268D01*
X155624701Y-104442143D01*
X155667066Y-104491035D01*
X155788141Y-104568845D01*
X155864979Y-104591406D01*
X155926228Y-104609391D01*
X155926231Y-104609391D01*
X155926233Y-104609392D01*
X155926234Y-104609392D01*
X156070154Y-104609392D01*
X156070155Y-104609392D01*
X156070157Y-104609391D01*
X156070159Y-104609391D01*
X156116074Y-104595909D01*
X156208247Y-104568845D01*
X156315469Y-104499938D01*
X156323170Y-104494989D01*
X156360077Y-104488330D01*
X156386692Y-104504121D01*
X156424911Y-104548228D01*
X156545986Y-104626038D01*
X156621232Y-104648132D01*
X156684073Y-104666584D01*
X156684076Y-104666584D01*
X156684078Y-104666585D01*
X156684079Y-104666585D01*
X156827999Y-104666585D01*
X156828000Y-104666585D01*
X156828002Y-104666584D01*
X156828004Y-104666584D01*
X156858788Y-104657545D01*
X156966092Y-104626038D01*
X157087167Y-104548228D01*
X157181416Y-104439458D01*
X157241204Y-104308542D01*
X157241204Y-104308540D01*
X157241205Y-104308539D01*
X157261686Y-104166087D01*
X157261686Y-104166083D01*
X157255413Y-104122454D01*
X157251479Y-104095096D01*
X157260753Y-104058760D01*
X157265325Y-104053483D01*
X157392530Y-103926279D01*
X157427176Y-103911928D01*
X157461824Y-103926280D01*
X157476176Y-103960928D01*
X157475014Y-103969030D01*
X157475333Y-103969076D01*
X157454353Y-104114999D01*
X157454353Y-104115004D01*
X157474833Y-104257456D01*
X157492243Y-104295577D01*
X157534623Y-104388375D01*
X157534624Y-104388376D01*
X157534625Y-104388378D01*
X157627004Y-104494989D01*
X157628872Y-104497145D01*
X157749947Y-104574955D01*
X157809176Y-104592346D01*
X157888034Y-104615501D01*
X157888037Y-104615501D01*
X157888039Y-104615502D01*
X157888040Y-104615502D01*
X158031960Y-104615502D01*
X158031961Y-104615502D01*
X158031963Y-104615501D01*
X158031965Y-104615501D01*
X158055106Y-104608706D01*
X158170053Y-104574955D01*
X158291128Y-104497145D01*
X158385377Y-104388375D01*
X158445165Y-104257459D01*
X158445165Y-104257457D01*
X158445166Y-104257456D01*
X158465647Y-104115004D01*
X158465647Y-104114999D01*
X158445166Y-103972547D01*
X158436324Y-103953187D01*
X158385377Y-103841629D01*
X158381838Y-103837545D01*
X158291128Y-103732859D01*
X158280555Y-103726064D01*
X158170053Y-103655049D01*
X158170050Y-103655048D01*
X158031965Y-103614502D01*
X158031961Y-103614502D01*
X157888039Y-103614502D01*
X157888038Y-103614502D01*
X157888032Y-103614503D01*
X157812137Y-103636787D01*
X157774849Y-103632778D01*
X157751318Y-103603576D01*
X157755327Y-103566288D01*
X157763682Y-103555127D01*
X158324456Y-102994355D01*
X158348177Y-102953268D01*
X158361383Y-102930395D01*
X158361383Y-102930394D01*
X158361384Y-102930393D01*
X158380500Y-102859053D01*
X158380500Y-102785195D01*
X158380500Y-102571123D01*
X158534353Y-102571123D01*
X158534353Y-102571128D01*
X158554833Y-102713580D01*
X158581125Y-102771149D01*
X158614623Y-102844499D01*
X158614624Y-102844500D01*
X158614625Y-102844502D01*
X158692942Y-102934885D01*
X158708872Y-102953269D01*
X158829947Y-103031079D01*
X158906785Y-103053640D01*
X158968034Y-103071625D01*
X158968037Y-103071625D01*
X158968039Y-103071626D01*
X158968040Y-103071626D01*
X159111960Y-103071626D01*
X159111961Y-103071626D01*
X159111963Y-103071625D01*
X159111965Y-103071625D01*
X159134795Y-103064921D01*
X159250053Y-103031079D01*
X159371128Y-102953269D01*
X159465377Y-102844499D01*
X159525165Y-102713583D01*
X159525165Y-102713581D01*
X159525166Y-102713580D01*
X159545647Y-102571128D01*
X159545647Y-102571123D01*
X159525166Y-102428671D01*
X159512071Y-102399997D01*
X160194353Y-102399997D01*
X160194353Y-102400002D01*
X160214833Y-102542454D01*
X160243439Y-102605090D01*
X160274623Y-102673373D01*
X160274624Y-102673374D01*
X160274625Y-102673376D01*
X160327262Y-102734122D01*
X160368872Y-102782143D01*
X160489947Y-102859953D01*
X160566785Y-102882514D01*
X160628034Y-102900499D01*
X160628037Y-102900499D01*
X160628039Y-102900500D01*
X160628040Y-102900500D01*
X160771960Y-102900500D01*
X160771961Y-102900500D01*
X160771963Y-102900499D01*
X160771965Y-102900499D01*
X160794795Y-102893795D01*
X160910053Y-102859953D01*
X161031128Y-102782143D01*
X161125377Y-102673373D01*
X161185165Y-102542457D01*
X161185165Y-102542455D01*
X161185166Y-102542454D01*
X161205647Y-102400002D01*
X161205647Y-102399997D01*
X161185166Y-102257545D01*
X161180751Y-102247879D01*
X161125377Y-102126627D01*
X161111986Y-102111173D01*
X161031128Y-102017857D01*
X161004121Y-102000501D01*
X160910053Y-101940047D01*
X160910050Y-101940046D01*
X160771965Y-101899500D01*
X160771961Y-101899500D01*
X160628039Y-101899500D01*
X160628034Y-101899500D01*
X160489949Y-101940046D01*
X160489947Y-101940046D01*
X160489947Y-101940047D01*
X160452722Y-101963969D01*
X160368871Y-102017857D01*
X160274625Y-102126623D01*
X160274624Y-102126625D01*
X160214833Y-102257545D01*
X160194353Y-102399997D01*
X159512071Y-102399997D01*
X159493963Y-102360347D01*
X159465377Y-102297753D01*
X159371128Y-102188983D01*
X159250053Y-102111173D01*
X159250050Y-102111172D01*
X159111965Y-102070626D01*
X159111961Y-102070626D01*
X158968039Y-102070626D01*
X158968034Y-102070626D01*
X158829949Y-102111172D01*
X158708871Y-102188983D01*
X158614625Y-102297749D01*
X158614624Y-102297751D01*
X158554833Y-102428671D01*
X158534353Y-102571123D01*
X158380500Y-102571123D01*
X158380500Y-101563072D01*
X158380499Y-101563070D01*
X158380499Y-101563066D01*
X158380364Y-101562564D01*
X158380372Y-101562561D01*
X158380354Y-101562529D01*
X158361385Y-101491734D01*
X158361384Y-101491733D01*
X158361384Y-101491731D01*
X158344277Y-101462100D01*
X158324456Y-101427769D01*
X158272231Y-101375544D01*
X158272230Y-101375543D01*
X157958579Y-101061892D01*
X157944227Y-101027244D01*
X157944227Y-100415440D01*
X158894353Y-100415440D01*
X158894353Y-100415445D01*
X158914833Y-100557897D01*
X158934128Y-100600145D01*
X158974623Y-100688816D01*
X158974624Y-100688817D01*
X158974625Y-100688819D01*
X159059816Y-100787135D01*
X159068872Y-100797586D01*
X159189947Y-100875396D01*
X159253110Y-100893942D01*
X159328034Y-100915942D01*
X159328037Y-100915942D01*
X159328039Y-100915943D01*
X159328040Y-100915943D01*
X159471960Y-100915943D01*
X159471961Y-100915943D01*
X159471963Y-100915942D01*
X159471965Y-100915942D01*
X159494795Y-100909238D01*
X159610053Y-100875396D01*
X159731128Y-100797586D01*
X159825377Y-100688816D01*
X159885165Y-100557900D01*
X159885165Y-100557898D01*
X159885166Y-100557897D01*
X159905647Y-100415445D01*
X159905647Y-100415440D01*
X159885166Y-100272988D01*
X159880751Y-100263322D01*
X159825377Y-100142070D01*
X159792233Y-100103820D01*
X159731128Y-100033300D01*
X159610053Y-99955490D01*
X159610050Y-99955489D01*
X159471965Y-99914943D01*
X159471961Y-99914943D01*
X159328039Y-99914943D01*
X159328034Y-99914943D01*
X159189949Y-99955489D01*
X159189947Y-99955489D01*
X159189947Y-99955490D01*
X159162855Y-99972901D01*
X159068871Y-100033300D01*
X158974625Y-100142066D01*
X158974624Y-100142068D01*
X158914833Y-100272988D01*
X158894353Y-100415440D01*
X157944227Y-100415440D01*
X157944227Y-100272755D01*
X157958579Y-100238107D01*
X158301239Y-99895448D01*
X158644456Y-99552231D01*
X158650371Y-99541985D01*
X158652533Y-99538240D01*
X158681383Y-99488271D01*
X158681383Y-99488270D01*
X158681384Y-99488269D01*
X158700500Y-99416928D01*
X158700500Y-98975118D01*
X159019832Y-98975118D01*
X159019832Y-98975123D01*
X159040312Y-99117575D01*
X159067719Y-99177586D01*
X159100102Y-99248494D01*
X159100103Y-99248495D01*
X159100104Y-99248497D01*
X159157606Y-99314858D01*
X159194351Y-99357264D01*
X159315426Y-99435074D01*
X159392264Y-99457635D01*
X159453513Y-99475620D01*
X159453516Y-99475620D01*
X159453518Y-99475621D01*
X159453519Y-99475621D01*
X159597439Y-99475621D01*
X159597440Y-99475621D01*
X159597442Y-99475620D01*
X159597444Y-99475620D01*
X159637447Y-99463874D01*
X159735532Y-99435074D01*
X159856607Y-99357264D01*
X159950856Y-99248494D01*
X160010644Y-99117578D01*
X160010644Y-99117576D01*
X160010645Y-99117575D01*
X160031076Y-98975468D01*
X160050212Y-98943215D01*
X160079577Y-98933441D01*
X160130021Y-98933441D01*
X160130022Y-98933441D01*
X160130024Y-98933440D01*
X160130026Y-98933440D01*
X160152856Y-98926736D01*
X160268114Y-98892894D01*
X160389189Y-98815084D01*
X160483438Y-98706314D01*
X160543226Y-98575398D01*
X160543226Y-98575396D01*
X160543227Y-98575395D01*
X160563708Y-98432943D01*
X160563708Y-98432938D01*
X160543227Y-98290486D01*
X160538812Y-98280820D01*
X160483438Y-98159568D01*
X160468917Y-98142810D01*
X160389189Y-98050798D01*
X160348195Y-98024453D01*
X160310145Y-98000000D01*
X160894355Y-98000000D01*
X160914860Y-98168872D01*
X160914861Y-98168874D01*
X160975181Y-98327929D01*
X160975182Y-98327931D01*
X161071816Y-98467928D01*
X161071817Y-98467929D01*
X161199148Y-98580734D01*
X161201082Y-98581749D01*
X161219875Y-98591613D01*
X161243885Y-98620423D01*
X161240490Y-98657772D01*
X161219875Y-98678387D01*
X161199156Y-98689261D01*
X161199151Y-98689264D01*
X161199148Y-98689266D01*
X161199147Y-98689267D01*
X161199146Y-98689268D01*
X161071816Y-98802071D01*
X160975182Y-98942068D01*
X160975181Y-98942070D01*
X160927348Y-99068199D01*
X160914860Y-99101128D01*
X160894355Y-99270000D01*
X160914860Y-99438872D01*
X160914861Y-99438874D01*
X160975181Y-99597929D01*
X160975182Y-99597931D01*
X161071817Y-99737930D01*
X161093087Y-99756773D01*
X161109505Y-99790491D01*
X161097271Y-99825943D01*
X161070154Y-99841508D01*
X161021770Y-99851132D01*
X160955447Y-99895447D01*
X160912966Y-99959026D01*
X160911133Y-99961769D01*
X160899500Y-100020252D01*
X160899500Y-101059748D01*
X160911133Y-101118231D01*
X160920659Y-101132487D01*
X160955447Y-101184552D01*
X160979314Y-101200499D01*
X161021769Y-101228867D01*
X161080252Y-101240500D01*
X161414926Y-101240500D01*
X161449574Y-101254852D01*
X161463926Y-101289500D01*
X161459498Y-101309856D01*
X161437717Y-101357547D01*
X161417237Y-101499999D01*
X161417237Y-101500004D01*
X161437717Y-101642456D01*
X161458941Y-101688928D01*
X161497507Y-101773375D01*
X161497508Y-101773376D01*
X161497509Y-101773378D01*
X161591755Y-101882144D01*
X161591756Y-101882145D01*
X161712831Y-101959955D01*
X161789669Y-101982516D01*
X161850918Y-102000501D01*
X161850921Y-102000501D01*
X161850923Y-102000502D01*
X161850924Y-102000502D01*
X161994844Y-102000502D01*
X161994845Y-102000502D01*
X161994847Y-102000501D01*
X161994849Y-102000501D01*
X162017679Y-101993797D01*
X162132937Y-101959955D01*
X162254012Y-101882145D01*
X162348261Y-101773375D01*
X162408049Y-101642459D01*
X162408049Y-101642457D01*
X162408050Y-101642456D01*
X162428531Y-101500004D01*
X162428531Y-101499999D01*
X162408050Y-101357547D01*
X162386270Y-101309856D01*
X162348261Y-101226629D01*
X162348258Y-101226625D01*
X162348255Y-101226621D01*
X162297520Y-101168070D01*
X162285676Y-101132487D01*
X162287926Y-101122965D01*
X162287925Y-101122965D01*
X162288867Y-101118230D01*
X162300500Y-101059748D01*
X162300500Y-100020252D01*
X162288867Y-99961769D01*
X162257899Y-99915423D01*
X162244552Y-99895447D01*
X162178228Y-99851131D01*
X162129846Y-99841508D01*
X162098663Y-99820673D01*
X162091347Y-99783891D01*
X162106912Y-99756773D01*
X162128183Y-99737929D01*
X162224818Y-99597930D01*
X162285140Y-99438872D01*
X162305645Y-99270000D01*
X162285140Y-99101128D01*
X162224818Y-98942070D01*
X162223293Y-98939861D01*
X162128183Y-98802071D01*
X162057512Y-98739462D01*
X162000852Y-98689266D01*
X161980122Y-98678386D01*
X161956114Y-98649579D01*
X161959507Y-98612229D01*
X161980122Y-98591613D01*
X162000852Y-98580734D01*
X162128183Y-98467929D01*
X162224818Y-98327930D01*
X162285140Y-98168872D01*
X162305645Y-98000000D01*
X162285140Y-97831128D01*
X162224818Y-97672070D01*
X162143053Y-97553614D01*
X162135183Y-97516949D01*
X162155544Y-97485455D01*
X162156845Y-97484587D01*
X162254012Y-97422143D01*
X162348261Y-97313373D01*
X162408049Y-97182457D01*
X162408049Y-97182455D01*
X162408050Y-97182454D01*
X162428531Y-97040002D01*
X162428531Y-97039997D01*
X162408050Y-96897545D01*
X162382400Y-96841380D01*
X162348261Y-96766627D01*
X162313599Y-96726625D01*
X162254012Y-96657857D01*
X162223968Y-96638549D01*
X162132937Y-96580047D01*
X162132273Y-96579852D01*
X161994849Y-96539500D01*
X161994845Y-96539500D01*
X161850923Y-96539500D01*
X161850918Y-96539500D01*
X161712833Y-96580046D01*
X161712831Y-96580046D01*
X161712831Y-96580047D01*
X161685627Y-96597530D01*
X161591755Y-96657857D01*
X161497509Y-96766623D01*
X161497508Y-96766625D01*
X161437717Y-96897545D01*
X161417237Y-97039997D01*
X161417237Y-97040002D01*
X161437718Y-97182455D01*
X161437718Y-97182457D01*
X161469014Y-97250984D01*
X161470353Y-97288463D01*
X161444797Y-97315911D01*
X161436169Y-97318915D01*
X161349774Y-97340209D01*
X161199156Y-97419261D01*
X161199151Y-97419264D01*
X161199148Y-97419266D01*
X161199146Y-97419268D01*
X161071816Y-97532071D01*
X160975182Y-97672068D01*
X160975181Y-97672070D01*
X160931315Y-97787738D01*
X160914860Y-97831128D01*
X160894355Y-98000000D01*
X160310145Y-98000000D01*
X160268114Y-97972988D01*
X160268111Y-97972987D01*
X160130026Y-97932441D01*
X160130022Y-97932441D01*
X159986100Y-97932441D01*
X159986095Y-97932441D01*
X159848010Y-97972987D01*
X159726932Y-98050798D01*
X159632686Y-98159564D01*
X159632685Y-98159566D01*
X159572894Y-98290486D01*
X159552464Y-98432594D01*
X159533328Y-98464847D01*
X159503963Y-98474621D01*
X159453513Y-98474621D01*
X159315428Y-98515167D01*
X159194350Y-98592978D01*
X159100104Y-98701744D01*
X159100103Y-98701746D01*
X159040312Y-98832666D01*
X159019832Y-98975118D01*
X158700500Y-98975118D01*
X158700500Y-98554071D01*
X158714852Y-98519423D01*
X159951312Y-97282964D01*
X159951312Y-97282963D01*
X159951315Y-97282961D01*
X159955211Y-97276212D01*
X159988243Y-97218999D01*
X160000417Y-97173565D01*
X160007359Y-97147659D01*
X160007359Y-96626448D01*
X159994873Y-96579852D01*
X159988243Y-96555109D01*
X159951315Y-96491147D01*
X159899090Y-96438922D01*
X159899089Y-96438921D01*
X159894852Y-96434684D01*
X159880500Y-96400036D01*
X159880500Y-94326746D01*
X159864770Y-94268044D01*
X159861384Y-94255407D01*
X159824456Y-94191445D01*
X159772231Y-94139220D01*
X159772230Y-94139219D01*
X159325692Y-93692681D01*
X159311340Y-93658033D01*
X159325692Y-93623385D01*
X159360340Y-93609033D01*
X159471960Y-93609033D01*
X159471961Y-93609033D01*
X159471963Y-93609032D01*
X159471965Y-93609032D01*
X159494795Y-93602328D01*
X159610053Y-93568486D01*
X159731128Y-93490676D01*
X159825377Y-93381906D01*
X159885165Y-93250990D01*
X159885165Y-93250988D01*
X159885166Y-93250987D01*
X159905647Y-93108534D01*
X159905647Y-93108531D01*
X159898669Y-93060000D01*
X160894355Y-93060000D01*
X160914860Y-93228872D01*
X160924997Y-93255601D01*
X160975181Y-93387929D01*
X160975182Y-93387931D01*
X161065435Y-93518683D01*
X161071817Y-93527929D01*
X161199148Y-93640734D01*
X161199156Y-93640738D01*
X161219875Y-93651613D01*
X161243885Y-93680423D01*
X161240490Y-93717772D01*
X161219875Y-93738387D01*
X161199156Y-93749261D01*
X161199151Y-93749264D01*
X161199148Y-93749266D01*
X161186592Y-93760390D01*
X161071816Y-93862071D01*
X160975182Y-94002068D01*
X160975181Y-94002070D01*
X160914861Y-94161125D01*
X160914860Y-94161128D01*
X160894355Y-94330000D01*
X160914860Y-94498872D01*
X160931755Y-94543423D01*
X160975181Y-94657929D01*
X160975182Y-94657931D01*
X161071817Y-94797930D01*
X161093087Y-94816773D01*
X161109505Y-94850491D01*
X161097271Y-94885943D01*
X161070154Y-94901508D01*
X161021770Y-94911132D01*
X160955447Y-94955447D01*
X160924039Y-95002454D01*
X160911133Y-95021769D01*
X160899500Y-95080252D01*
X160899500Y-96119748D01*
X160911133Y-96178231D01*
X160924625Y-96198423D01*
X160955447Y-96244552D01*
X160982012Y-96262301D01*
X161021769Y-96288867D01*
X161080252Y-96300500D01*
X161080255Y-96300500D01*
X162119745Y-96300500D01*
X162119748Y-96300500D01*
X162178231Y-96288867D01*
X162244552Y-96244552D01*
X162288867Y-96178231D01*
X162300500Y-96119748D01*
X162300500Y-95080252D01*
X162288867Y-95021769D01*
X162262301Y-94982012D01*
X162244552Y-94955447D01*
X162178228Y-94911131D01*
X162129846Y-94901508D01*
X162098663Y-94880673D01*
X162091347Y-94843891D01*
X162106912Y-94816773D01*
X162128183Y-94797929D01*
X162224818Y-94657930D01*
X162285140Y-94498872D01*
X162305645Y-94330000D01*
X162285140Y-94161128D01*
X162224818Y-94002070D01*
X162208641Y-93978634D01*
X162128183Y-93862071D01*
X162036794Y-93781108D01*
X162000852Y-93749266D01*
X161980122Y-93738386D01*
X161956114Y-93709579D01*
X161959507Y-93672229D01*
X161980122Y-93651613D01*
X162000852Y-93640734D01*
X162128183Y-93527929D01*
X162224818Y-93387930D01*
X162285140Y-93228872D01*
X162305645Y-93060000D01*
X162285140Y-92891128D01*
X162224818Y-92732070D01*
X162224817Y-92732068D01*
X162169795Y-92652355D01*
X162161924Y-92615688D01*
X162182286Y-92584194D01*
X162183583Y-92583328D01*
X162254012Y-92538068D01*
X162348261Y-92429298D01*
X162408049Y-92298382D01*
X162408049Y-92298380D01*
X162408050Y-92298379D01*
X162428531Y-92155927D01*
X162428531Y-92155922D01*
X162408050Y-92013470D01*
X162392786Y-91980047D01*
X162348261Y-91882552D01*
X162331384Y-91863075D01*
X162254012Y-91773782D01*
X162232845Y-91760179D01*
X162132937Y-91695972D01*
X162132934Y-91695971D01*
X162045580Y-91670321D01*
X162016379Y-91646789D01*
X162012370Y-91609501D01*
X162022351Y-91591221D01*
X162108211Y-91492133D01*
X162167999Y-91361217D01*
X162167999Y-91361215D01*
X162168000Y-91361214D01*
X162188481Y-91218762D01*
X162188481Y-91218757D01*
X162168000Y-91076305D01*
X162150502Y-91037990D01*
X162108211Y-90945387D01*
X162074833Y-90906867D01*
X162013962Y-90836617D01*
X161985180Y-90818120D01*
X161892887Y-90758807D01*
X161892884Y-90758806D01*
X161754799Y-90718260D01*
X161754795Y-90718260D01*
X161610873Y-90718260D01*
X161610868Y-90718260D01*
X161472783Y-90758806D01*
X161351705Y-90836617D01*
X161257459Y-90945383D01*
X161257458Y-90945385D01*
X161197667Y-91076305D01*
X161177187Y-91218757D01*
X161177187Y-91218762D01*
X161197667Y-91361214D01*
X161228885Y-91429570D01*
X161257457Y-91492133D01*
X161257458Y-91492134D01*
X161257459Y-91492136D01*
X161346493Y-91594887D01*
X161351706Y-91600903D01*
X161472781Y-91678713D01*
X161519147Y-91692327D01*
X161560137Y-91704363D01*
X161589338Y-91727895D01*
X161593347Y-91765183D01*
X161583364Y-91783466D01*
X161497509Y-91882548D01*
X161497508Y-91882550D01*
X161437717Y-92013470D01*
X161417237Y-92155922D01*
X161417237Y-92155927D01*
X161437717Y-92298379D01*
X161446058Y-92316641D01*
X161447397Y-92354120D01*
X161421842Y-92381569D01*
X161413213Y-92384573D01*
X161349774Y-92400209D01*
X161199156Y-92479261D01*
X161199151Y-92479264D01*
X161199148Y-92479266D01*
X161199146Y-92479268D01*
X161071816Y-92592071D01*
X160975182Y-92732068D01*
X160975181Y-92732070D01*
X160917634Y-92883813D01*
X160914860Y-92891128D01*
X160894355Y-93060000D01*
X159898669Y-93060000D01*
X159898162Y-93056474D01*
X159907436Y-93020136D01*
X159939689Y-93000999D01*
X159946663Y-93000500D01*
X160011960Y-93000500D01*
X160011961Y-93000500D01*
X160011963Y-93000499D01*
X160011965Y-93000499D01*
X160034795Y-92993795D01*
X160150053Y-92959953D01*
X160271128Y-92882143D01*
X160365377Y-92773373D01*
X160425165Y-92642457D01*
X160425165Y-92642455D01*
X160425166Y-92642454D01*
X160445647Y-92500002D01*
X160445647Y-92499997D01*
X160425166Y-92357545D01*
X160415387Y-92336133D01*
X160365377Y-92226627D01*
X160364746Y-92225899D01*
X160271128Y-92117857D01*
X160150053Y-92040047D01*
X160147584Y-92039322D01*
X160011965Y-91999500D01*
X160011961Y-91999500D01*
X159868039Y-91999500D01*
X159868034Y-91999500D01*
X159729949Y-92040046D01*
X159729947Y-92040046D01*
X159729947Y-92040047D01*
X159702234Y-92057857D01*
X159608871Y-92117857D01*
X159514625Y-92226623D01*
X159514624Y-92226625D01*
X159514623Y-92226626D01*
X159514623Y-92226627D01*
X159514100Y-92227772D01*
X159454833Y-92357545D01*
X159434353Y-92499998D01*
X159434353Y-92500001D01*
X159441838Y-92552059D01*
X159432564Y-92588397D01*
X159400311Y-92607534D01*
X159393337Y-92608033D01*
X159328034Y-92608033D01*
X159189949Y-92648579D01*
X159189947Y-92648579D01*
X159189947Y-92648580D01*
X159152722Y-92672502D01*
X159068871Y-92726390D01*
X158974625Y-92835156D01*
X158974624Y-92835158D01*
X158914833Y-92966078D01*
X158894353Y-93108530D01*
X158894353Y-93108537D01*
X158899060Y-93141281D01*
X158889785Y-93177619D01*
X158857531Y-93196754D01*
X158821193Y-93187479D01*
X158815911Y-93182901D01*
X158741547Y-93108537D01*
X158594852Y-92961841D01*
X158580500Y-92927193D01*
X158580500Y-92881435D01*
X158594852Y-92846787D01*
X158603005Y-92840216D01*
X158631128Y-92822143D01*
X158725377Y-92713373D01*
X158785165Y-92582457D01*
X158785165Y-92582455D01*
X158785166Y-92582454D01*
X158805647Y-92440002D01*
X158805647Y-92439997D01*
X158786794Y-92308873D01*
X158796068Y-92272535D01*
X158828322Y-92253399D01*
X158849097Y-92254884D01*
X158888471Y-92266446D01*
X158888476Y-92266446D01*
X159032392Y-92266446D01*
X159032393Y-92266446D01*
X159032395Y-92266445D01*
X159032397Y-92266445D01*
X159055227Y-92259741D01*
X159170485Y-92225899D01*
X159291560Y-92148089D01*
X159385809Y-92039319D01*
X159445597Y-91908403D01*
X159445597Y-91908401D01*
X159445598Y-91908400D01*
X159466079Y-91765948D01*
X159466079Y-91765943D01*
X159445598Y-91623491D01*
X159432535Y-91594887D01*
X159385809Y-91492573D01*
X159385430Y-91492136D01*
X159291560Y-91383803D01*
X159280847Y-91376918D01*
X159170485Y-91305993D01*
X159170482Y-91305992D01*
X159032397Y-91265446D01*
X159032393Y-91265446D01*
X158888471Y-91265446D01*
X158888466Y-91265446D01*
X158750381Y-91305992D01*
X158629303Y-91383803D01*
X158535057Y-91492569D01*
X158535056Y-91492571D01*
X158475265Y-91623491D01*
X158454785Y-91765943D01*
X158454785Y-91765948D01*
X158473637Y-91897071D01*
X158464362Y-91933409D01*
X158432109Y-91952545D01*
X158411332Y-91951059D01*
X158371967Y-91939501D01*
X158371961Y-91939500D01*
X158228039Y-91939500D01*
X158228034Y-91939500D01*
X158089949Y-91980046D01*
X158089947Y-91980046D01*
X158089947Y-91980047D01*
X158052722Y-92003969D01*
X157968871Y-92057857D01*
X157966532Y-92060557D01*
X157932995Y-92077344D01*
X157897412Y-92065501D01*
X157880625Y-92031964D01*
X157880500Y-92028469D01*
X157880500Y-91893297D01*
X157875212Y-91873564D01*
X157875212Y-91873563D01*
X157861385Y-91821959D01*
X157861384Y-91821958D01*
X157861384Y-91821956D01*
X157851822Y-91805394D01*
X157827315Y-91762946D01*
X157824458Y-91757997D01*
X157824453Y-91757991D01*
X157717936Y-91651474D01*
X157703584Y-91616826D01*
X157717936Y-91582178D01*
X157738781Y-91569811D01*
X157750053Y-91566502D01*
X157871128Y-91488692D01*
X157965377Y-91379922D01*
X158025165Y-91249006D01*
X158025165Y-91249004D01*
X158025166Y-91249003D01*
X158045647Y-91106550D01*
X158045647Y-91106547D01*
X158042601Y-91085364D01*
X158035440Y-91035561D01*
X158044714Y-90999225D01*
X158049286Y-90993948D01*
X158441500Y-90601735D01*
X159601849Y-90601735D01*
X159601849Y-90601740D01*
X159622329Y-90744192D01*
X159636734Y-90775733D01*
X159682119Y-90875111D01*
X159682120Y-90875112D01*
X159682121Y-90875114D01*
X159758035Y-90962724D01*
X159776368Y-90983881D01*
X159897443Y-91061691D01*
X159974281Y-91084252D01*
X160035530Y-91102237D01*
X160035533Y-91102237D01*
X160035535Y-91102238D01*
X160035536Y-91102238D01*
X160179456Y-91102238D01*
X160179457Y-91102238D01*
X160179459Y-91102237D01*
X160179461Y-91102237D01*
X160202291Y-91095533D01*
X160317549Y-91061691D01*
X160438624Y-90983881D01*
X160532873Y-90875111D01*
X160592661Y-90744195D01*
X160592661Y-90744193D01*
X160592662Y-90744192D01*
X160613143Y-90601740D01*
X160613143Y-90601735D01*
X160592662Y-90459283D01*
X160565096Y-90398923D01*
X160564764Y-90398198D01*
X160563426Y-90360720D01*
X160582842Y-90336624D01*
X160691127Y-90267035D01*
X160785376Y-90158265D01*
X160845164Y-90027349D01*
X160845164Y-90027347D01*
X160845165Y-90027346D01*
X160865646Y-89884894D01*
X160865646Y-89884889D01*
X160845165Y-89742437D01*
X160831206Y-89711871D01*
X160785376Y-89611519D01*
X160776156Y-89600878D01*
X160711109Y-89525809D01*
X160699266Y-89490225D01*
X160716053Y-89456689D01*
X160721639Y-89452506D01*
X160831128Y-89382143D01*
X160925377Y-89273373D01*
X160985165Y-89142457D01*
X160985165Y-89142455D01*
X160985166Y-89142454D01*
X160991270Y-89099997D01*
X161134353Y-89099997D01*
X161134353Y-89100002D01*
X161154833Y-89242454D01*
X161168954Y-89273373D01*
X161214623Y-89373373D01*
X161214624Y-89373374D01*
X161214625Y-89373376D01*
X161308871Y-89482142D01*
X161308872Y-89482143D01*
X161429947Y-89559953D01*
X161493941Y-89578743D01*
X161568034Y-89600499D01*
X161568037Y-89600499D01*
X161568039Y-89600500D01*
X161568040Y-89600500D01*
X161711960Y-89600500D01*
X161711961Y-89600500D01*
X161711963Y-89600499D01*
X161711965Y-89600499D01*
X161747881Y-89589953D01*
X161850053Y-89559953D01*
X161971128Y-89482143D01*
X162065377Y-89373373D01*
X162125165Y-89242457D01*
X162125165Y-89242455D01*
X162125166Y-89242454D01*
X162145647Y-89100002D01*
X162145647Y-89099997D01*
X162125166Y-88957545D01*
X162114917Y-88935104D01*
X162065377Y-88826627D01*
X161971128Y-88717857D01*
X161850053Y-88640047D01*
X161850050Y-88640046D01*
X161711965Y-88599500D01*
X161711961Y-88599500D01*
X161568039Y-88599500D01*
X161568034Y-88599500D01*
X161429949Y-88640046D01*
X161308871Y-88717857D01*
X161214625Y-88826623D01*
X161214624Y-88826625D01*
X161154833Y-88957545D01*
X161134353Y-89099997D01*
X160991270Y-89099997D01*
X161005647Y-89000002D01*
X161005647Y-88999997D01*
X160985166Y-88857545D01*
X160971044Y-88826623D01*
X160925377Y-88726627D01*
X160831128Y-88617857D01*
X160710053Y-88540047D01*
X160710050Y-88540046D01*
X160571965Y-88499500D01*
X160571961Y-88499500D01*
X160428039Y-88499500D01*
X160428034Y-88499500D01*
X160289949Y-88540046D01*
X160168871Y-88617857D01*
X160074625Y-88726623D01*
X160074624Y-88726625D01*
X160014833Y-88857545D01*
X159994353Y-88999997D01*
X159994353Y-89000002D01*
X160014833Y-89142454D01*
X160023408Y-89161229D01*
X160074623Y-89273373D01*
X160074624Y-89273374D01*
X160074625Y-89273376D01*
X160148889Y-89359082D01*
X160160732Y-89394666D01*
X160143945Y-89428202D01*
X160138348Y-89432391D01*
X160028873Y-89502745D01*
X160028871Y-89502747D01*
X159934624Y-89611515D01*
X159934623Y-89611517D01*
X159874832Y-89742437D01*
X159854352Y-89884889D01*
X159854352Y-89884894D01*
X159874832Y-90027346D01*
X159902729Y-90088430D01*
X159904068Y-90125910D01*
X159884648Y-90150008D01*
X159776367Y-90219595D01*
X159682121Y-90328361D01*
X159682120Y-90328363D01*
X159622329Y-90459283D01*
X159601849Y-90601735D01*
X158441500Y-90601735D01*
X158684455Y-90358781D01*
X158685854Y-90356357D01*
X158686742Y-90354822D01*
X158702018Y-90328361D01*
X158721384Y-90294818D01*
X158728829Y-90267035D01*
X158728829Y-90267034D01*
X158740500Y-90223479D01*
X158740500Y-88994394D01*
X158734561Y-88972231D01*
X158734561Y-88972230D01*
X158721385Y-88923057D01*
X158721384Y-88923053D01*
X158684456Y-88859091D01*
X157335928Y-87510564D01*
X157335927Y-87510562D01*
X157280911Y-87455546D01*
X157280909Y-87455544D01*
X157280906Y-87455542D01*
X157280902Y-87455539D01*
X157216949Y-87418617D01*
X157216944Y-87418614D01*
X157193962Y-87412457D01*
X157177843Y-87408138D01*
X157145609Y-87399500D01*
X157145607Y-87399500D01*
X157145606Y-87399500D01*
X157127911Y-87399500D01*
X157093263Y-87385148D01*
X157078911Y-87350500D01*
X157093263Y-87315852D01*
X157101420Y-87309278D01*
X157115079Y-87300500D01*
X157162543Y-87269997D01*
X158524282Y-87269997D01*
X158524282Y-87270002D01*
X158544762Y-87412454D01*
X158547577Y-87418617D01*
X158604552Y-87543373D01*
X158604553Y-87543374D01*
X158604554Y-87543376D01*
X158632543Y-87575677D01*
X158698801Y-87652143D01*
X158819876Y-87729953D01*
X158896714Y-87752514D01*
X158957963Y-87770499D01*
X158957966Y-87770499D01*
X158957968Y-87770500D01*
X158957969Y-87770500D01*
X159101889Y-87770500D01*
X159101890Y-87770500D01*
X159101892Y-87770499D01*
X159101894Y-87770499D01*
X159131091Y-87761926D01*
X159239982Y-87729953D01*
X159361057Y-87652143D01*
X159455306Y-87543373D01*
X159515094Y-87412457D01*
X159515094Y-87412455D01*
X159515095Y-87412454D01*
X159535576Y-87270002D01*
X159535576Y-87269998D01*
X159532014Y-87245226D01*
X159541288Y-87208888D01*
X159573541Y-87189751D01*
X159594320Y-87191237D01*
X159728034Y-87230499D01*
X159728037Y-87230499D01*
X159728039Y-87230500D01*
X159728040Y-87230500D01*
X159871960Y-87230500D01*
X159871961Y-87230500D01*
X159871963Y-87230499D01*
X159871965Y-87230499D01*
X159901591Y-87221800D01*
X160010053Y-87189953D01*
X160131128Y-87112143D01*
X160225377Y-87003373D01*
X160285165Y-86872457D01*
X160285165Y-86872455D01*
X160285166Y-86872454D01*
X160305647Y-86730002D01*
X160305647Y-86729997D01*
X160285166Y-86587545D01*
X160265976Y-86545525D01*
X160225377Y-86456627D01*
X160192642Y-86418849D01*
X160131128Y-86347857D01*
X160010053Y-86270047D01*
X160010050Y-86270046D01*
X159871965Y-86229500D01*
X159871961Y-86229500D01*
X159728039Y-86229500D01*
X159728034Y-86229500D01*
X159589949Y-86270046D01*
X159589947Y-86270046D01*
X159589947Y-86270047D01*
X159588203Y-86271168D01*
X159468871Y-86347857D01*
X159374625Y-86456623D01*
X159374624Y-86456625D01*
X159314833Y-86587545D01*
X159294353Y-86729997D01*
X159294353Y-86730003D01*
X159297914Y-86754775D01*
X159288639Y-86791113D01*
X159256385Y-86810248D01*
X159235608Y-86808762D01*
X159101894Y-86769500D01*
X159101890Y-86769500D01*
X158957968Y-86769500D01*
X158957963Y-86769500D01*
X158819878Y-86810046D01*
X158819876Y-86810046D01*
X158819876Y-86810047D01*
X158782651Y-86833969D01*
X158698800Y-86887857D01*
X158604554Y-86996623D01*
X158604553Y-86996625D01*
X158544762Y-87127545D01*
X158524282Y-87269997D01*
X157162543Y-87269997D01*
X157176628Y-87260945D01*
X157270877Y-87152175D01*
X157330665Y-87021259D01*
X157330665Y-87021257D01*
X157330666Y-87021256D01*
X157348766Y-86895361D01*
X157349324Y-86891476D01*
X157368460Y-86859225D01*
X157404798Y-86849950D01*
X157437051Y-86869086D01*
X157442397Y-86878095D01*
X157471790Y-86942454D01*
X157500123Y-87004494D01*
X157500124Y-87004495D01*
X157500125Y-87004497D01*
X157559807Y-87073374D01*
X157594372Y-87113264D01*
X157715447Y-87191074D01*
X157776117Y-87208888D01*
X157853534Y-87231620D01*
X157853537Y-87231620D01*
X157853539Y-87231621D01*
X157853540Y-87231621D01*
X157997460Y-87231621D01*
X157997461Y-87231621D01*
X157997463Y-87231620D01*
X157997465Y-87231620D01*
X158029209Y-87222299D01*
X158135553Y-87191074D01*
X158256628Y-87113264D01*
X158350877Y-87004494D01*
X158410665Y-86873578D01*
X158410665Y-86873576D01*
X158410666Y-86873575D01*
X158431147Y-86731123D01*
X158431147Y-86731118D01*
X158410666Y-86588666D01*
X158368647Y-86496659D01*
X158350877Y-86457748D01*
X158349902Y-86456623D01*
X158256628Y-86348978D01*
X158254884Y-86347857D01*
X158135553Y-86271168D01*
X158135550Y-86271167D01*
X157997465Y-86230621D01*
X157997461Y-86230621D01*
X157853539Y-86230621D01*
X157853534Y-86230621D01*
X157715449Y-86271167D01*
X157715447Y-86271167D01*
X157715447Y-86271168D01*
X157681552Y-86292951D01*
X157594371Y-86348978D01*
X157500125Y-86457744D01*
X157500124Y-86457746D01*
X157440333Y-86588666D01*
X157421675Y-86718444D01*
X157402539Y-86750697D01*
X157366201Y-86759972D01*
X157333948Y-86740836D01*
X157328602Y-86731827D01*
X157310290Y-86691731D01*
X157270877Y-86605429D01*
X157264436Y-86597996D01*
X157176628Y-86496659D01*
X157149970Y-86479527D01*
X157055553Y-86418849D01*
X157055550Y-86418848D01*
X156917465Y-86378302D01*
X156917461Y-86378302D01*
X156773539Y-86378302D01*
X156773534Y-86378302D01*
X156635449Y-86418848D01*
X156514371Y-86496659D01*
X156420125Y-86605425D01*
X156420124Y-86605427D01*
X156360333Y-86736347D01*
X156339853Y-86878799D01*
X156339853Y-86878804D01*
X156360333Y-87021256D01*
X156384135Y-87073373D01*
X156420123Y-87152175D01*
X156420124Y-87152176D01*
X156420125Y-87152178D01*
X156507837Y-87253403D01*
X156514372Y-87260945D01*
X156575921Y-87300500D01*
X156589580Y-87309278D01*
X156610969Y-87340084D01*
X156604311Y-87376991D01*
X156573505Y-87398380D01*
X156563089Y-87399500D01*
X155302018Y-87399500D01*
X155267370Y-87385148D01*
X155253018Y-87350500D01*
X155257446Y-87330144D01*
X155270984Y-87300500D01*
X155288823Y-87261439D01*
X155288823Y-87261437D01*
X155288824Y-87261436D01*
X155309305Y-87118984D01*
X155309305Y-87118979D01*
X155288824Y-86976527D01*
X155251756Y-86895361D01*
X155229035Y-86845609D01*
X155189304Y-86799757D01*
X155134786Y-86736839D01*
X155125892Y-86731123D01*
X155090786Y-86708562D01*
X155069948Y-86680023D01*
X155065042Y-86661713D01*
X155052772Y-86640460D01*
X155028114Y-86597751D01*
X154975889Y-86545526D01*
X154975888Y-86545525D01*
X154165926Y-85735564D01*
X154165925Y-85735562D01*
X154110909Y-85680546D01*
X154110903Y-85680541D01*
X154076066Y-85660428D01*
X154046945Y-85643616D01*
X154046943Y-85643615D01*
X154046941Y-85643614D01*
X154027042Y-85638283D01*
X153975607Y-85624500D01*
X153975605Y-85624500D01*
X153975604Y-85624500D01*
X153150357Y-85624500D01*
X153115709Y-85610148D01*
X153091622Y-85586061D01*
X153091620Y-85586059D01*
X153091617Y-85586057D01*
X153091613Y-85586054D01*
X153027659Y-85549131D01*
X152956320Y-85530015D01*
X152956318Y-85530015D01*
X152956317Y-85530015D01*
X152173866Y-85530015D01*
X152100008Y-85530015D01*
X152100006Y-85530015D01*
X152028667Y-85549131D01*
X152028665Y-85549131D01*
X151964712Y-85586054D01*
X151964703Y-85586061D01*
X150900543Y-86650222D01*
X150900542Y-86650222D01*
X150864022Y-86713475D01*
X150864023Y-86713476D01*
X150863614Y-86714184D01*
X150863612Y-86714188D01*
X150850515Y-86763071D01*
X150850515Y-86763072D01*
X150844498Y-86785526D01*
X150370658Y-86785526D01*
X150375348Y-86752906D01*
X150375348Y-86752901D01*
X150354867Y-86610449D01*
X150341417Y-86580999D01*
X150295078Y-86479531D01*
X150276201Y-86457746D01*
X150200829Y-86370761D01*
X150166934Y-86348978D01*
X150079754Y-86292951D01*
X150079751Y-86292950D01*
X149941666Y-86252404D01*
X149941662Y-86252404D01*
X149797740Y-86252404D01*
X149797735Y-86252404D01*
X149659650Y-86292950D01*
X149538572Y-86370761D01*
X149444326Y-86479527D01*
X149444325Y-86479529D01*
X149384534Y-86610449D01*
X149364054Y-86752901D01*
X149364054Y-86752906D01*
X149384534Y-86895358D01*
X149406043Y-86942454D01*
X149444324Y-87026277D01*
X149444325Y-87026278D01*
X149444326Y-87026280D01*
X149538573Y-87135048D01*
X149538575Y-87135050D01*
X149561342Y-87149681D01*
X149582731Y-87180486D01*
X149576072Y-87217393D01*
X149545267Y-87238782D01*
X149521046Y-87237917D01*
X149451964Y-87217632D01*
X149451960Y-87217632D01*
X149308038Y-87217632D01*
X149308033Y-87217632D01*
X149169948Y-87258178D01*
X149169946Y-87258178D01*
X149169946Y-87258179D01*
X149163786Y-87262138D01*
X149048870Y-87335989D01*
X148954624Y-87444755D01*
X148954623Y-87444757D01*
X148894832Y-87575677D01*
X148874352Y-87718129D01*
X148180500Y-87718129D01*
X148180500Y-82129500D01*
X148194852Y-82094852D01*
X148229500Y-82080500D01*
X149915725Y-82080500D01*
X149950373Y-82094852D01*
G37*
G04 #@! TD.AperFunction*
G04 #@! TD*
M02*
