G04 #@! TF.GenerationSoftware,KiCad,Pcbnew,8.0.7-8.0.7-0~ubuntu24.04.1*
G04 #@! TF.CreationDate,2024-12-29T20:55:18-07:00*
G04 #@! TF.ProjectId,ESP32-S3 Hub,45535033-322d-4533-9320-4875622e6b69,V1*
G04 #@! TF.SameCoordinates,Original*
G04 #@! TF.FileFunction,Copper,L5,Inr*
G04 #@! TF.FilePolarity,Positive*
%FSLAX46Y46*%
G04 Gerber Fmt 4.6, Leading zero omitted, Abs format (unit mm)*
G04 Created by KiCad (PCBNEW 8.0.7-8.0.7-0~ubuntu24.04.1) date 2024-12-29 20:55:18*
%MOMM*%
%LPD*%
G01*
G04 APERTURE LIST*
G04 #@! TA.AperFunction,ComponentPad*
%ADD10R,1.000000X1.000000*%
G04 #@! TD*
G04 #@! TA.AperFunction,ComponentPad*
%ADD11O,1.000000X1.000000*%
G04 #@! TD*
G04 #@! TA.AperFunction,ViaPad*
%ADD12C,0.600000*%
G04 #@! TD*
G04 #@! TA.AperFunction,Conductor*
%ADD13C,0.160000*%
G04 #@! TD*
G04 APERTURE END LIST*
D10*
G04 #@! TO.N,VDD*
G04 #@! TO.C,J22*
X157290000Y-108900000D03*
D11*
G04 #@! TO.N,RS485+*
X156020000Y-108900000D03*
G04 #@! TO.N,RS485-*
X154750000Y-108900000D03*
G04 #@! TO.N,GND*
X153480000Y-108900000D03*
G04 #@! TD*
D10*
G04 #@! TO.N,4A*
G04 #@! TO.C,J10*
X149200000Y-93025000D03*
D11*
G04 #@! TO.N,4B*
X149200000Y-94295000D03*
G04 #@! TO.N,4C*
X149200000Y-95565000D03*
G04 #@! TD*
D10*
G04 #@! TO.N,2CSA-A*
G04 #@! TO.C,J6*
X149200000Y-98025000D03*
D11*
G04 #@! TO.N,2CSA-B*
X149200000Y-99295000D03*
G04 #@! TO.N,unconnected-(J6-Pin_3-Pad3)*
X149200000Y-100565000D03*
G04 #@! TD*
D10*
G04 #@! TO.N,1CSA-A*
G04 #@! TO.C,J2*
X161600000Y-110600000D03*
D11*
G04 #@! TO.N,1CSA-B*
X161600000Y-109330000D03*
G04 #@! TO.N,unconnected-(J2-Pin_3-Pad3)*
X161600000Y-108060000D03*
G04 #@! TD*
D10*
G04 #@! TO.N,1A*
G04 #@! TO.C,J1*
X161600000Y-100540000D03*
D11*
G04 #@! TO.N,1B*
X161600000Y-99270000D03*
G04 #@! TO.N,1C*
X161600000Y-98000000D03*
G04 #@! TD*
D10*
G04 #@! TO.N,3A*
G04 #@! TO.C,J7*
X161600000Y-85525000D03*
D11*
G04 #@! TO.N,3B*
X161600000Y-84255000D03*
G04 #@! TO.N,3C*
X161600000Y-82985000D03*
G04 #@! TD*
D10*
G04 #@! TO.N,4CSA-A*
G04 #@! TO.C,J12*
X149200000Y-83000000D03*
D11*
G04 #@! TO.N,4CSA-B*
X149200000Y-84270000D03*
G04 #@! TO.N,unconnected-(J12-Pin_3-Pad3)*
X149200000Y-85540000D03*
G04 #@! TD*
D10*
G04 #@! TO.N,VDD*
G04 #@! TO.C,J21*
X157300000Y-84700000D03*
D11*
G04 #@! TO.N,RS485+*
X156030000Y-84700000D03*
G04 #@! TO.N,RS485-*
X154760000Y-84700000D03*
G04 #@! TO.N,GND*
X153490000Y-84700000D03*
G04 #@! TD*
D10*
G04 #@! TO.N,2A*
G04 #@! TO.C,J4*
X149200000Y-108050000D03*
D11*
G04 #@! TO.N,2B*
X149200000Y-109320000D03*
G04 #@! TO.N,2C*
X149200000Y-110590000D03*
G04 #@! TD*
D10*
G04 #@! TO.N,3CSA-A*
G04 #@! TO.C,J9*
X161600000Y-95600000D03*
D11*
G04 #@! TO.N,3CSA-B*
X161600000Y-94330000D03*
G04 #@! TO.N,unconnected-(J9-Pin_3-Pad3)*
X161600000Y-93060000D03*
G04 #@! TD*
D12*
G04 #@! TO.N,VDD*
X149900000Y-105496998D03*
X160299998Y-95399999D03*
X160344276Y-88186986D03*
X161108450Y-103516808D03*
X152009999Y-101712599D03*
X154034410Y-92092401D03*
X150544998Y-86200000D03*
X150600000Y-95500000D03*
X158203727Y-100415442D03*
G04 #@! TO.N,GND*
X148480000Y-97000000D03*
X160200000Y-110100000D03*
X160300000Y-83500000D03*
X161640000Y-89100000D03*
X159040000Y-102571126D03*
X161922884Y-97040000D03*
X156073223Y-96073223D03*
X155246598Y-97642310D03*
X159000000Y-111100000D03*
X148480000Y-102331717D03*
X151793613Y-90212371D03*
X160200000Y-111100000D03*
X154800000Y-82380000D03*
X158100000Y-82500000D03*
X161922884Y-92155925D03*
X154982015Y-101859847D03*
X150500000Y-110900000D03*
X157800000Y-111100000D03*
X156600000Y-82500000D03*
X149136282Y-104132393D03*
X162320000Y-107300000D03*
X150000000Y-90350000D03*
X152000000Y-111100000D03*
X159800000Y-86730000D03*
X160000000Y-84900000D03*
X151294670Y-99790000D03*
X150500000Y-109700000D03*
X161640000Y-104060001D03*
X159900000Y-82500000D03*
X149379999Y-87718132D03*
G04 #@! TO.N,NRST*
X151141953Y-99041485D03*
X148549578Y-101276085D03*
G04 #@! TO.N,Net-(D1-A)*
X159500000Y-83500000D03*
G04 #@! TO.N,1CSA-B*
X155387269Y-101002147D03*
G04 #@! TO.N,1CSA-A*
X153689712Y-101979452D03*
G04 #@! TO.N,MISO1*
X150536964Y-93719477D03*
X156557167Y-106336230D03*
X154200000Y-104200000D03*
X157119997Y-89254998D03*
X154070000Y-86800000D03*
X150328227Y-104010458D03*
X160359999Y-89884892D03*
X160500000Y-104800000D03*
G04 #@! TO.N,CS1*
X160954233Y-107349656D03*
X161922884Y-101500002D03*
G04 #@! TO.N,MOSI1*
X148480000Y-91262446D03*
X160246471Y-105716468D03*
X160107496Y-90601738D03*
X150468035Y-94714566D03*
X154372324Y-102313585D03*
X150643337Y-103318859D03*
X156244493Y-91108358D03*
X155979163Y-106829699D03*
X154803658Y-87118982D03*
G04 #@! TO.N,SCK1*
X160505908Y-103980000D03*
X155900000Y-89130000D03*
X157774437Y-95425778D03*
X150216282Y-104762171D03*
X152116372Y-92033553D03*
X160500000Y-89000000D03*
X154959538Y-104226564D03*
G04 #@! TO.N,2C*
X159400000Y-100415443D03*
G04 #@! TO.N,2B*
X156863746Y-99160000D03*
G04 #@! TO.N,2A*
X156088197Y-99911803D03*
G04 #@! TO.N,2CSA-B*
X153840274Y-101234516D03*
G04 #@! TO.N,2CSA-A*
X153300000Y-100700000D03*
G04 #@! TO.N,3B*
X159525479Y-98975121D03*
G04 #@! TO.N,CS3*
X152419849Y-97353221D03*
X161682834Y-91218760D03*
G04 #@! TO.N,3CSA-B*
X154292448Y-99156098D03*
G04 #@! TO.N,3CSA-A*
X154829829Y-99770174D03*
G04 #@! TO.N,4A*
X159400000Y-93108533D03*
G04 #@! TO.N,4C*
X159940000Y-92500000D03*
G04 #@! TO.N,4B*
X158960432Y-91765946D03*
G04 #@! TO.N,CS4*
X149869701Y-86752904D03*
X152033203Y-96698923D03*
G04 #@! TO.N,4CSA-B*
X152354046Y-99830446D03*
G04 #@! TO.N,4CSA-A*
X151875582Y-99239962D03*
G04 #@! TO.N,CS8*
X157218989Y-94826615D03*
X157925500Y-86731121D03*
X153265598Y-91105180D03*
G04 #@! TO.N,Free1*
X156756039Y-104166085D03*
X153735770Y-106882760D03*
X158300000Y-92440000D03*
G04 #@! TO.N,SCL1*
X153005358Y-102309998D03*
X152614449Y-86721799D03*
X157540000Y-91106549D03*
X154900000Y-92223542D03*
X157856927Y-106819918D03*
G04 #@! TO.N,CS7*
X152895924Y-89125249D03*
X159029929Y-87270000D03*
X156652392Y-94260000D03*
G04 #@! TO.N,SDA1*
X158250897Y-106170002D03*
X153036657Y-104200000D03*
X151984998Y-87270000D03*
X155757649Y-92176593D03*
X157920000Y-89254998D03*
G04 #@! TO.N,CS5*
X152896560Y-96034926D03*
X157540000Y-102131895D03*
X151932355Y-106170000D03*
G04 #@! TO.N,CS6*
X152365531Y-106794470D03*
X156102321Y-93720000D03*
X157960000Y-104115002D03*
G04 #@! TO.N,Net-(U1-GPIO3)*
X153711171Y-98666485D03*
G04 #@! TO.N,Net-(U1-MTCK)*
X155497422Y-93259890D03*
G04 #@! TO.N,Net-(U1-MTDO)*
X154931835Y-93767545D03*
G04 #@! TO.N,Net-(U1-MTDI)*
X154359934Y-94288522D03*
G04 #@! TO.N,LED*
X153280421Y-95374671D03*
X157300000Y-82800000D03*
G04 #@! TO.N,RS485-*
X155998194Y-104108892D03*
X154731368Y-89295045D03*
X154300000Y-83000000D03*
G04 #@! TO.N,RS485+*
X154635916Y-91103542D03*
X155263382Y-82982396D03*
X156451832Y-102311196D03*
X154438870Y-106433922D03*
G04 #@! TO.N,BOOT*
X160700000Y-102400000D03*
X153181159Y-98121796D03*
G04 #@! TO.N,ShiftCLK*
X158645660Y-97427606D03*
G04 #@! TO.N,ShiftData*
X160058061Y-98432941D03*
G04 #@! TO.N,UART0-RTS{slash}CS0*
X150200000Y-83785235D03*
X152954410Y-92187537D03*
G04 #@! TO.N,Net-(U1-GPIO46)*
X152343963Y-93518681D03*
G04 #@! TO.N,ShiftRegCLK*
X158048399Y-97897588D03*
G04 #@! TO.N,ShiftEn*
X159186859Y-96887054D03*
G04 #@! TO.N,UART0_TX*
X150200000Y-82600000D03*
X153856792Y-94860000D03*
G04 #@! TO.N,UART0_RX*
X150300000Y-84800000D03*
X152343963Y-92758678D03*
G04 #@! TO.N,Free2*
X156958254Y-92272623D03*
X153983239Y-89161229D03*
X156845500Y-86878802D03*
G04 #@! TD*
D13*
G04 #@! TO.N,MISO1*
X156557167Y-106336230D02*
X157263395Y-105630002D01*
X150536964Y-93719477D02*
X150400000Y-93582513D01*
X157700000Y-92030225D02*
X157700000Y-92800000D01*
X154291018Y-86578982D02*
X154070000Y-86800000D01*
X159156468Y-106256468D02*
X160543532Y-106256468D01*
X160786471Y-105086471D02*
X160500000Y-104800000D01*
X157263395Y-105630002D02*
X158530002Y-105630002D01*
X158415055Y-87418802D02*
X155867154Y-87418802D01*
X150917769Y-104600000D02*
X151900000Y-104600000D01*
X155027334Y-86578982D02*
X154291018Y-86578982D01*
X159960000Y-89247973D02*
X159960000Y-88963747D01*
X151439281Y-90760719D02*
X152003199Y-90760719D01*
X158700000Y-93800000D02*
X159536104Y-93800000D01*
X152354904Y-90640000D02*
X152774904Y-90220000D01*
X160647496Y-90172389D02*
X160359999Y-89884892D01*
X150400000Y-93582513D02*
X150400000Y-91800000D01*
X159100000Y-106200000D02*
X159156468Y-106256468D01*
X150328227Y-104010458D02*
X150917769Y-104600000D01*
X150400000Y-91800000D02*
X151439281Y-90760719D01*
X155867154Y-87418802D02*
X155027334Y-86578982D01*
X160500000Y-91185370D02*
X160647496Y-91037874D01*
X152774904Y-90220000D02*
X156220000Y-90220000D01*
X156900000Y-90900000D02*
X156900000Y-91230225D01*
X159536104Y-93800000D02*
X160500000Y-92836104D01*
X152003199Y-90760719D02*
X152123918Y-90640000D01*
X160500000Y-92836104D02*
X160500000Y-91185370D01*
X158530002Y-105630002D02*
X159100000Y-106200000D01*
X160786471Y-106013529D02*
X160786471Y-105086471D01*
X152123918Y-90640000D02*
X152354904Y-90640000D01*
X160647496Y-91037874D02*
X160647496Y-90172389D01*
X157700000Y-92800000D02*
X158700000Y-93800000D01*
X160543532Y-106256468D02*
X160786471Y-106013529D01*
X153500000Y-104900000D02*
X154200000Y-104200000D01*
X156900000Y-91230225D02*
X157700000Y-92030225D01*
X152200000Y-104900000D02*
X153500000Y-104900000D01*
X159960000Y-88963747D02*
X158415055Y-87418802D01*
X156220000Y-90220000D02*
X156900000Y-90900000D01*
X151900000Y-104600000D02*
X152200000Y-104900000D01*
X150204319Y-104010458D02*
X150328227Y-104010458D01*
X160359999Y-89884892D02*
X160359999Y-89647972D01*
X160359999Y-89647972D02*
X159960000Y-89247973D01*
G04 #@! TO.N,MOSI1*
X159520000Y-90014242D02*
X159520000Y-88976295D01*
X150980000Y-93271018D02*
X151076964Y-93367982D01*
X154380274Y-102305635D02*
X154372324Y-102313585D01*
X151076964Y-93367982D02*
X151076964Y-94105637D01*
X159520000Y-88976295D02*
X158282507Y-87738802D01*
X150980000Y-93271018D02*
X150980000Y-91720000D01*
X152256466Y-90960000D02*
X152487452Y-90960000D01*
X152487452Y-90960000D02*
X152883910Y-90563542D01*
X160107496Y-90601738D02*
X159520000Y-90014242D01*
X158282507Y-87738802D02*
X155423478Y-87738802D01*
X151076964Y-94105637D02*
X150468035Y-94714566D01*
X155423478Y-87738802D02*
X154803658Y-87118982D01*
X159840005Y-105310002D02*
X156689998Y-105310002D01*
X151619281Y-91080719D02*
X152135747Y-91080719D01*
X150980000Y-91720000D02*
X151619281Y-91080719D01*
X155979163Y-106020837D02*
X155979163Y-106829699D01*
X156689998Y-105310002D02*
X155979163Y-106020837D01*
X160246471Y-105716468D02*
X159840005Y-105310002D01*
X152883910Y-90563542D02*
X155699677Y-90563542D01*
X152135747Y-91080719D02*
X152256466Y-90960000D01*
X155699677Y-90563542D02*
X156244493Y-91108358D01*
G04 #@! TO.N,SCK1*
X161100000Y-89600000D02*
X161100000Y-91200000D01*
X160180000Y-103980000D02*
X160160000Y-104000000D01*
X160500000Y-89000000D02*
X161100000Y-89600000D01*
X156985800Y-104700000D02*
X159785908Y-104700000D01*
X154412240Y-91643542D02*
X155527024Y-91643542D01*
X154959538Y-104226564D02*
X154959538Y-104665623D01*
X155527024Y-91643542D02*
X155533973Y-91636593D01*
X155000000Y-104706085D02*
X154480017Y-104706085D01*
X160505908Y-103980000D02*
X160180000Y-103980000D01*
X156979715Y-104706085D02*
X156985800Y-104700000D01*
X160160000Y-104325908D02*
X160160000Y-104000000D01*
X160160000Y-101940000D02*
X160700000Y-101400000D01*
X155533973Y-91636593D02*
X155981325Y-91636593D01*
X160160000Y-104000000D02*
X160160000Y-101940000D01*
X160700000Y-97100000D02*
X159025778Y-95425778D01*
X152521562Y-91600000D02*
X152996742Y-91600000D01*
X154480017Y-104706085D02*
X153786102Y-105400000D01*
X160860000Y-93340000D02*
X158774222Y-95425778D01*
X154959538Y-104665623D02*
X155000000Y-104706085D01*
X160860000Y-91440000D02*
X160860000Y-93340000D01*
X152996742Y-91600000D02*
X153041922Y-91645180D01*
X158774222Y-95425778D02*
X157774437Y-95425778D01*
X159785908Y-104700000D02*
X160160000Y-104325908D01*
X152116372Y-92033553D02*
X152116372Y-92005190D01*
X156418254Y-92073522D02*
X156418254Y-92518254D01*
X153582053Y-91552401D02*
X154321099Y-91552401D01*
X154321099Y-91552401D02*
X154412240Y-91643542D01*
X150854111Y-105400000D02*
X150216282Y-104762171D01*
X160700000Y-101400000D02*
X160700000Y-97100000D01*
X161100000Y-91200000D02*
X160860000Y-91440000D01*
X159025778Y-95425778D02*
X157774437Y-95425778D01*
X152116372Y-92005190D02*
X152521562Y-91600000D01*
X155981325Y-91636593D02*
X156418254Y-92073522D01*
X155000000Y-104706085D02*
X156979715Y-104706085D01*
X157774437Y-93874437D02*
X157774437Y-95425778D01*
X156418254Y-92518254D02*
X157774437Y-93874437D01*
X153041922Y-91645180D02*
X153489274Y-91645180D01*
X153489274Y-91645180D02*
X153582053Y-91552401D01*
X153786102Y-105400000D02*
X150854111Y-105400000D01*
G04 #@! TO.N,2C*
X149360000Y-105720674D02*
X151040000Y-107400674D01*
X151700000Y-103500000D02*
X150978859Y-102778859D01*
X150723676Y-110360000D02*
X149430000Y-110360000D01*
X159400000Y-100415443D02*
X158100000Y-101715443D01*
X150170401Y-102778859D02*
X149788227Y-103161033D01*
X149360000Y-104816454D02*
X149360000Y-105720674D01*
X149788227Y-103161033D02*
X149788227Y-104388227D01*
X151040000Y-107400674D02*
X151040000Y-110043676D01*
X156935569Y-103500000D02*
X151700000Y-103500000D01*
X158100000Y-102335569D02*
X156935569Y-103500000D01*
X150978859Y-102778859D02*
X150170401Y-102778859D01*
X149430000Y-110360000D02*
X149200000Y-110590000D01*
X158100000Y-101715443D02*
X158100000Y-102335569D01*
X151040000Y-110043676D02*
X150723676Y-110360000D01*
X149788227Y-104388227D02*
X149360000Y-104816454D01*
G04 #@! TO.N,2B*
X156991832Y-99288086D02*
X156991832Y-102808168D01*
X156620000Y-103180000D02*
X151832548Y-103180000D01*
X150300000Y-108927106D02*
X149907106Y-109320000D01*
X148596282Y-105409504D02*
X150300000Y-107113222D01*
X150300000Y-107113222D02*
X150300000Y-108927106D01*
X148596282Y-103703718D02*
X148596282Y-105409504D01*
X151111407Y-102458859D02*
X149841141Y-102458859D01*
X149841141Y-102458859D02*
X148596282Y-103703718D01*
X151832548Y-103180000D02*
X151111407Y-102458859D01*
X156863746Y-99160000D02*
X156991832Y-99288086D01*
X149907106Y-109320000D02*
X149200000Y-109320000D01*
X156991832Y-102808168D02*
X156620000Y-103180000D01*
G04 #@! TO.N,2A*
X149200000Y-106465770D02*
X149200000Y-108050000D01*
X151243955Y-102138859D02*
X149561141Y-102138859D01*
X156088197Y-101911155D02*
X155139352Y-102860000D01*
X149561141Y-102138859D02*
X148260000Y-103440000D01*
X151965096Y-102860000D02*
X151243955Y-102138859D01*
X148260000Y-105525770D02*
X149200000Y-106465770D01*
X156088197Y-99911803D02*
X156088197Y-101911155D01*
X155139352Y-102860000D02*
X151965096Y-102860000D01*
X148260000Y-103440000D02*
X148260000Y-105525770D01*
X156088197Y-99911803D02*
X156009761Y-99911803D01*
G04 #@! TO.N,2CSA-B*
X152740000Y-101240000D02*
X152600000Y-101100000D01*
X153840274Y-101234516D02*
X153834790Y-101240000D01*
X153834790Y-101240000D02*
X152740000Y-101240000D01*
X152600000Y-101100000D02*
X151005000Y-101100000D01*
X151005000Y-101100000D02*
X149200000Y-99295000D01*
G04 #@! TO.N,2CSA-A*
X151057548Y-100700000D02*
X149940000Y-99582452D01*
X149940000Y-99582452D02*
X149940000Y-98765000D01*
X153300000Y-100700000D02*
X151057548Y-100700000D01*
X149940000Y-98765000D02*
X149200000Y-98025000D01*
G04 #@! TO.N,4A*
X149340000Y-92885000D02*
X149200000Y-93025000D01*
X159540000Y-92123676D02*
X159540000Y-91250466D01*
X150540000Y-89560000D02*
X150540000Y-90573676D01*
X159400000Y-92263676D02*
X159540000Y-92123676D01*
X151514751Y-88585249D02*
X150540000Y-89560000D01*
X158013927Y-88585249D02*
X151514751Y-88585249D01*
X158700000Y-89271322D02*
X158013927Y-88585249D01*
X149340000Y-91773676D02*
X149340000Y-92885000D01*
X150540000Y-90573676D02*
X149340000Y-91773676D01*
X159540000Y-91250466D02*
X158700000Y-90410466D01*
X159400000Y-93108533D02*
X159400000Y-92263676D01*
X158700000Y-90410466D02*
X158700000Y-89271322D01*
G04 #@! TO.N,4C*
X151321075Y-88265249D02*
X149020000Y-90566324D01*
X148460000Y-92400000D02*
X148460000Y-94825000D01*
X159200000Y-90457918D02*
X159200000Y-89108843D01*
X149020000Y-91840000D02*
X148460000Y-92400000D01*
X148460000Y-94825000D02*
X149200000Y-95565000D01*
X159940000Y-91197918D02*
X159200000Y-90457918D01*
X159940000Y-92500000D02*
X159940000Y-91197918D01*
X149020000Y-90566324D02*
X149020000Y-91840000D01*
X158356406Y-88265249D02*
X151321075Y-88265249D01*
X159200000Y-89108843D02*
X158356406Y-88265249D01*
G04 #@! TO.N,4B*
X149940000Y-93760000D02*
X149405000Y-94295000D01*
X150873726Y-90873726D02*
X149940000Y-91807452D01*
X158960432Y-91360432D02*
X157500000Y-89900000D01*
X152244918Y-89900000D02*
X152017289Y-89672371D01*
X151527629Y-89672371D02*
X150873726Y-90326274D01*
X158960432Y-91765946D02*
X158960432Y-91360432D01*
X152017289Y-89672371D02*
X151527629Y-89672371D01*
X150873726Y-90326274D02*
X150873726Y-90873726D01*
X149940000Y-91807452D02*
X149940000Y-93760000D01*
X149405000Y-94295000D02*
X149200000Y-94295000D01*
X157500000Y-89900000D02*
X152244918Y-89900000D01*
G04 #@! TO.N,CS8*
X152794820Y-91105180D02*
X152620000Y-91280000D01*
X152268295Y-91400719D02*
X151899281Y-91400719D01*
X154736458Y-92763542D02*
X155123676Y-92763542D01*
X155170625Y-92716593D02*
X155872661Y-92716593D01*
X153100000Y-94400000D02*
X154736458Y-92763542D01*
X155872661Y-92716593D02*
X157218989Y-94062921D01*
X152389014Y-91280000D02*
X152268295Y-91400719D01*
X157218989Y-94062921D02*
X157218989Y-94826615D01*
X152620000Y-91280000D02*
X152389014Y-91280000D01*
X153265598Y-91105180D02*
X152794820Y-91105180D01*
X151500000Y-93750000D02*
X152150000Y-94400000D01*
X152150000Y-94400000D02*
X153100000Y-94400000D01*
X155123676Y-92763542D02*
X155170625Y-92716593D01*
X151500000Y-91800000D02*
X151500000Y-93750000D01*
X151899281Y-91400719D02*
X151500000Y-91800000D01*
G04 #@! TO.N,CS5*
X157067422Y-98600000D02*
X155440612Y-98600000D01*
X157540000Y-102131895D02*
X157540000Y-99072578D01*
X155440612Y-98600000D02*
X152896560Y-96055948D01*
X152896560Y-96055948D02*
X152896560Y-96034926D01*
X157540000Y-99072578D02*
X157067422Y-98600000D01*
G04 #@! TO.N,CS6*
X158420000Y-102180000D02*
X160000000Y-100600000D01*
X160000000Y-100600000D02*
X160000000Y-100251767D01*
X157960000Y-104115002D02*
X158420000Y-103655002D01*
X158420000Y-103655002D02*
X158420000Y-102180000D01*
X155533223Y-96613253D02*
X155533223Y-94289098D01*
X155533223Y-94289098D02*
X156102321Y-93720000D01*
X159548233Y-99800000D02*
X158719970Y-99800000D01*
X160000000Y-100251767D02*
X159548233Y-99800000D01*
X158719970Y-99800000D02*
X155533223Y-96613253D01*
G04 #@! TD*
G04 #@! TA.AperFunction,Conductor*
G04 #@! TO.N,GND*
G36*
X149950373Y-82094852D02*
G01*
X149964725Y-82129500D01*
X149950373Y-82164148D01*
X149942216Y-82170722D01*
X149868871Y-82217857D01*
X149805258Y-82291270D01*
X149771721Y-82308057D01*
X149758668Y-82307241D01*
X149734183Y-82302371D01*
X149719748Y-82299500D01*
X148680252Y-82299500D01*
X148621769Y-82311133D01*
X148555447Y-82355447D01*
X148522828Y-82404266D01*
X148511133Y-82421769D01*
X148499500Y-82480252D01*
X148499500Y-83519748D01*
X148511133Y-83578231D01*
X148523827Y-83597229D01*
X148555447Y-83644552D01*
X148599762Y-83674162D01*
X148621769Y-83688867D01*
X148670155Y-83698491D01*
X148701336Y-83719325D01*
X148708653Y-83756108D01*
X148693088Y-83783226D01*
X148671816Y-83802071D01*
X148575182Y-83942068D01*
X148575181Y-83942070D01*
X148514861Y-84101125D01*
X148514860Y-84101128D01*
X148494355Y-84270000D01*
X148514860Y-84438872D01*
X148514861Y-84438874D01*
X148575181Y-84597929D01*
X148575182Y-84597931D01*
X148645636Y-84700000D01*
X148671817Y-84737929D01*
X148799148Y-84850734D01*
X148799156Y-84850738D01*
X148819875Y-84861613D01*
X148843885Y-84890423D01*
X148840490Y-84927772D01*
X148819875Y-84948387D01*
X148799156Y-84959261D01*
X148799151Y-84959264D01*
X148799148Y-84959266D01*
X148799147Y-84959267D01*
X148799146Y-84959268D01*
X148671816Y-85072071D01*
X148575182Y-85212068D01*
X148575181Y-85212070D01*
X148541645Y-85300500D01*
X148514860Y-85371128D01*
X148494355Y-85540000D01*
X148514860Y-85708872D01*
X148514861Y-85708874D01*
X148575181Y-85867929D01*
X148575182Y-85867931D01*
X148671816Y-86007928D01*
X148671817Y-86007929D01*
X148799148Y-86120734D01*
X148949775Y-86199790D01*
X149114944Y-86240500D01*
X149285056Y-86240500D01*
X149450225Y-86199790D01*
X149600852Y-86120734D01*
X149728183Y-86007929D01*
X149824818Y-85867930D01*
X149885140Y-85708872D01*
X149905645Y-85540000D01*
X149885140Y-85371128D01*
X149824818Y-85212070D01*
X149808857Y-85188947D01*
X149728183Y-85072071D01*
X149652760Y-85005252D01*
X149600852Y-84959266D01*
X149580122Y-84948386D01*
X149556114Y-84919579D01*
X149559507Y-84882229D01*
X149580122Y-84861613D01*
X149600852Y-84850734D01*
X149714231Y-84750289D01*
X149749680Y-84738056D01*
X149783399Y-84754474D01*
X149795633Y-84789925D01*
X149795224Y-84793936D01*
X149794353Y-84799998D01*
X149794353Y-84800002D01*
X149814833Y-84942454D01*
X149822512Y-84959268D01*
X149874623Y-85073373D01*
X149874624Y-85073374D01*
X149874625Y-85073376D01*
X149958849Y-85170576D01*
X149968872Y-85182143D01*
X150089947Y-85259953D01*
X150160735Y-85280738D01*
X150228034Y-85300499D01*
X150228037Y-85300499D01*
X150228039Y-85300500D01*
X150228040Y-85300500D01*
X150371960Y-85300500D01*
X150371961Y-85300500D01*
X150371963Y-85300499D01*
X150371965Y-85300499D01*
X150394795Y-85293795D01*
X150510053Y-85259953D01*
X150631128Y-85182143D01*
X150725377Y-85073373D01*
X150785165Y-84942457D01*
X150785165Y-84942455D01*
X150785166Y-84942454D01*
X150805647Y-84800002D01*
X150805647Y-84799997D01*
X150785166Y-84657545D01*
X150780751Y-84647879D01*
X150747468Y-84575000D01*
X152749337Y-84575000D01*
X153161147Y-84575000D01*
X153140000Y-84653922D01*
X153140000Y-84746078D01*
X153161147Y-84825000D01*
X152749338Y-84825000D01*
X152754176Y-84867941D01*
X152754178Y-84867950D01*
X152809997Y-85027471D01*
X152809998Y-85027473D01*
X152899914Y-85170573D01*
X152899917Y-85170577D01*
X153019422Y-85290082D01*
X153019426Y-85290085D01*
X153162526Y-85380001D01*
X153162528Y-85380002D01*
X153322052Y-85435822D01*
X153322055Y-85435823D01*
X153365000Y-85440660D01*
X153365000Y-85028852D01*
X153443922Y-85050000D01*
X153536078Y-85050000D01*
X153615000Y-85028852D01*
X153615000Y-85440660D01*
X153657944Y-85435823D01*
X153657947Y-85435822D01*
X153817471Y-85380002D01*
X153817473Y-85380001D01*
X153960573Y-85290085D01*
X153960577Y-85290082D01*
X154080083Y-85170576D01*
X154113690Y-85117090D01*
X154144276Y-85095388D01*
X154181249Y-85101669D01*
X154195506Y-85115324D01*
X154231817Y-85167929D01*
X154359148Y-85280734D01*
X154509775Y-85359790D01*
X154674944Y-85400500D01*
X154845056Y-85400500D01*
X155010225Y-85359790D01*
X155160852Y-85280734D01*
X155288183Y-85167929D01*
X155353451Y-85073373D01*
X155354674Y-85071601D01*
X155386168Y-85051239D01*
X155422835Y-85059110D01*
X155435326Y-85071601D01*
X155435650Y-85072071D01*
X155501817Y-85167929D01*
X155629148Y-85280734D01*
X155779775Y-85359790D01*
X155944944Y-85400500D01*
X156115056Y-85400500D01*
X156280225Y-85359790D01*
X156430852Y-85280734D01*
X156520649Y-85201180D01*
X156556101Y-85188947D01*
X156589819Y-85205365D01*
X156601200Y-85228298D01*
X156611132Y-85278229D01*
X156611132Y-85278230D01*
X156611133Y-85278231D01*
X156612808Y-85280738D01*
X156655447Y-85344552D01*
X156678253Y-85359790D01*
X156721769Y-85388867D01*
X156780252Y-85400500D01*
X156780255Y-85400500D01*
X157819745Y-85400500D01*
X157819748Y-85400500D01*
X157878231Y-85388867D01*
X157944552Y-85344552D01*
X157988867Y-85278231D01*
X158000500Y-85219748D01*
X158000500Y-84180252D01*
X157988867Y-84121769D01*
X157962301Y-84082012D01*
X157944552Y-84055447D01*
X157891498Y-84019998D01*
X157878231Y-84011133D01*
X157819748Y-83999500D01*
X156780252Y-83999500D01*
X156721769Y-84011133D01*
X156655447Y-84055447D01*
X156611132Y-84121770D01*
X156601200Y-84171702D01*
X156580365Y-84202884D01*
X156543582Y-84210200D01*
X156520649Y-84198819D01*
X156430852Y-84119266D01*
X156430844Y-84119262D01*
X156430843Y-84119261D01*
X156280224Y-84040209D01*
X156115056Y-83999500D01*
X155944944Y-83999500D01*
X155779775Y-84040209D01*
X155629156Y-84119261D01*
X155629151Y-84119264D01*
X155629148Y-84119266D01*
X155629146Y-84119268D01*
X155501816Y-84232071D01*
X155435326Y-84328398D01*
X155403832Y-84348760D01*
X155367165Y-84340889D01*
X155354674Y-84328398D01*
X155288183Y-84232071D01*
X155285193Y-84229422D01*
X155160852Y-84119266D01*
X155160844Y-84119262D01*
X155160843Y-84119261D01*
X155010224Y-84040209D01*
X154845056Y-83999500D01*
X154674944Y-83999500D01*
X154509775Y-84040209D01*
X154359156Y-84119261D01*
X154359151Y-84119264D01*
X154359148Y-84119266D01*
X154359146Y-84119268D01*
X154231817Y-84232070D01*
X154195506Y-84284675D01*
X154164012Y-84305037D01*
X154127344Y-84297165D01*
X154113691Y-84282909D01*
X154080085Y-84229425D01*
X153960577Y-84109917D01*
X153960573Y-84109914D01*
X153817473Y-84019998D01*
X153817471Y-84019997D01*
X153657950Y-83964178D01*
X153657941Y-83964176D01*
X153615000Y-83959337D01*
X153615000Y-84371147D01*
X153536078Y-84350000D01*
X153443922Y-84350000D01*
X153365000Y-84371147D01*
X153365000Y-83959337D01*
X153322058Y-83964176D01*
X153322049Y-83964178D01*
X153162528Y-84019997D01*
X153162526Y-84019998D01*
X153019426Y-84109914D01*
X153019422Y-84109917D01*
X152899917Y-84229422D01*
X152899914Y-84229426D01*
X152809998Y-84372526D01*
X152809997Y-84372528D01*
X152754178Y-84532049D01*
X152754176Y-84532058D01*
X152749337Y-84575000D01*
X150747468Y-84575000D01*
X150725377Y-84526627D01*
X150649337Y-84438872D01*
X150631128Y-84417857D01*
X150601658Y-84398918D01*
X150510053Y-84340047D01*
X150510050Y-84340046D01*
X150443048Y-84320372D01*
X150413847Y-84296840D01*
X150409838Y-84259552D01*
X150430360Y-84232137D01*
X150531128Y-84167378D01*
X150625377Y-84058608D01*
X150685165Y-83927692D01*
X150685165Y-83927690D01*
X150685166Y-83927689D01*
X150705647Y-83785237D01*
X150705647Y-83785232D01*
X150685166Y-83642780D01*
X150680751Y-83633114D01*
X150625377Y-83511862D01*
X150615099Y-83500001D01*
X150531128Y-83403092D01*
X150499498Y-83382765D01*
X150410053Y-83325282D01*
X150410050Y-83325281D01*
X150271965Y-83284735D01*
X150271961Y-83284735D01*
X150128039Y-83284735D01*
X150128034Y-83284735D01*
X149989946Y-83325281D01*
X149975990Y-83334251D01*
X149939083Y-83340909D01*
X149908278Y-83319519D01*
X149900500Y-83293029D01*
X149900500Y-83092205D01*
X149914852Y-83057557D01*
X149949500Y-83043205D01*
X149975990Y-83050983D01*
X149989947Y-83059953D01*
X150035652Y-83073373D01*
X150128034Y-83100499D01*
X150128037Y-83100499D01*
X150128039Y-83100500D01*
X150128040Y-83100500D01*
X150271960Y-83100500D01*
X150271961Y-83100500D01*
X150271963Y-83100499D01*
X150271965Y-83100499D01*
X150294795Y-83093795D01*
X150410053Y-83059953D01*
X150503347Y-82999997D01*
X153794353Y-82999997D01*
X153794353Y-83000002D01*
X153814833Y-83142454D01*
X153832959Y-83182143D01*
X153874623Y-83273373D01*
X153874624Y-83273374D01*
X153874625Y-83273376D01*
X153933143Y-83340909D01*
X153968872Y-83382143D01*
X154089947Y-83459953D01*
X154166785Y-83482514D01*
X154228034Y-83500499D01*
X154228037Y-83500499D01*
X154228039Y-83500500D01*
X154228040Y-83500500D01*
X154371960Y-83500500D01*
X154371961Y-83500500D01*
X154371963Y-83500499D01*
X154371965Y-83500499D01*
X154373675Y-83499997D01*
X158994353Y-83499997D01*
X158994353Y-83500001D01*
X159014833Y-83642454D01*
X159036030Y-83688867D01*
X159074623Y-83773373D01*
X159074624Y-83773374D01*
X159074625Y-83773376D01*
X159168871Y-83882142D01*
X159168872Y-83882143D01*
X159289947Y-83959953D01*
X159366785Y-83982514D01*
X159428034Y-84000499D01*
X159428037Y-84000499D01*
X159428039Y-84000500D01*
X159428040Y-84000500D01*
X159571960Y-84000500D01*
X159571961Y-84000500D01*
X159571963Y-84000499D01*
X159571965Y-84000499D01*
X159594795Y-83993795D01*
X159710053Y-83959953D01*
X159831128Y-83882143D01*
X159925377Y-83773373D01*
X159985165Y-83642457D01*
X159985165Y-83642455D01*
X159985166Y-83642454D01*
X160005647Y-83500001D01*
X160005647Y-83499997D01*
X159985166Y-83357545D01*
X159964791Y-83312931D01*
X159925377Y-83226627D01*
X159831128Y-83117857D01*
X159710053Y-83040047D01*
X159710050Y-83040046D01*
X159571965Y-82999500D01*
X159571961Y-82999500D01*
X159428039Y-82999500D01*
X159428034Y-82999500D01*
X159289949Y-83040046D01*
X159168871Y-83117857D01*
X159074625Y-83226623D01*
X159074624Y-83226625D01*
X159014833Y-83357545D01*
X158994353Y-83499997D01*
X154373675Y-83499997D01*
X154394795Y-83493795D01*
X154510053Y-83459953D01*
X154631128Y-83382143D01*
X154725377Y-83273373D01*
X154741139Y-83238858D01*
X154768585Y-83213304D01*
X154806064Y-83214642D01*
X154830282Y-83238858D01*
X154838005Y-83255770D01*
X154838007Y-83255772D01*
X154926192Y-83357543D01*
X154932254Y-83364539D01*
X155053329Y-83442349D01*
X155130167Y-83464910D01*
X155191416Y-83482895D01*
X155191419Y-83482895D01*
X155191421Y-83482896D01*
X155191422Y-83482896D01*
X155335342Y-83482896D01*
X155335343Y-83482896D01*
X155335345Y-83482895D01*
X155335347Y-83482895D01*
X155358177Y-83476191D01*
X155473435Y-83442349D01*
X155594510Y-83364539D01*
X155688759Y-83255769D01*
X155748547Y-83124853D01*
X155748547Y-83124851D01*
X155748548Y-83124850D01*
X155769029Y-82982398D01*
X155769029Y-82982393D01*
X155748548Y-82839941D01*
X155730306Y-82799997D01*
X156794353Y-82799997D01*
X156794353Y-82800002D01*
X156814833Y-82942454D01*
X156834264Y-82985000D01*
X156874623Y-83073373D01*
X156874624Y-83073374D01*
X156874625Y-83073376D01*
X156934484Y-83142457D01*
X156968872Y-83182143D01*
X157089947Y-83259953D01*
X157166785Y-83282514D01*
X157228034Y-83300499D01*
X157228037Y-83300499D01*
X157228039Y-83300500D01*
X157228040Y-83300500D01*
X157371960Y-83300500D01*
X157371961Y-83300500D01*
X157371963Y-83300499D01*
X157371965Y-83300499D01*
X157397405Y-83293029D01*
X157510053Y-83259953D01*
X157631128Y-83182143D01*
X157725377Y-83073373D01*
X157765736Y-82985000D01*
X160894355Y-82985000D01*
X160914860Y-83153872D01*
X160914861Y-83153874D01*
X160975181Y-83312929D01*
X160975182Y-83312931D01*
X161064514Y-83442349D01*
X161071817Y-83452929D01*
X161199148Y-83565734D01*
X161199156Y-83565738D01*
X161219875Y-83576613D01*
X161243885Y-83605423D01*
X161240490Y-83642772D01*
X161219875Y-83663387D01*
X161199156Y-83674261D01*
X161199151Y-83674264D01*
X161199148Y-83674266D01*
X161199147Y-83674267D01*
X161199146Y-83674268D01*
X161071816Y-83787071D01*
X160975182Y-83927068D01*
X160975181Y-83927070D01*
X160914861Y-84086125D01*
X160914860Y-84086128D01*
X160894355Y-84255000D01*
X160914860Y-84423872D01*
X160931755Y-84468423D01*
X160975181Y-84582929D01*
X160975182Y-84582931D01*
X161071817Y-84722930D01*
X161093087Y-84741773D01*
X161109505Y-84775491D01*
X161097271Y-84810943D01*
X161070154Y-84826508D01*
X161021770Y-84836132D01*
X160955447Y-84880447D01*
X160914016Y-84942454D01*
X160911133Y-84946769D01*
X160899500Y-85005252D01*
X160899500Y-86044748D01*
X160911133Y-86103231D01*
X160922831Y-86120738D01*
X160955447Y-86169552D01*
X160982012Y-86187301D01*
X161021769Y-86213867D01*
X161080252Y-86225500D01*
X161080255Y-86225500D01*
X162119745Y-86225500D01*
X162119748Y-86225500D01*
X162178231Y-86213867D01*
X162244552Y-86169552D01*
X162288867Y-86103231D01*
X162300500Y-86044748D01*
X162300500Y-85005252D01*
X162288867Y-84946769D01*
X162260957Y-84905000D01*
X162244552Y-84880447D01*
X162178228Y-84836131D01*
X162129846Y-84826508D01*
X162098663Y-84805673D01*
X162091347Y-84768891D01*
X162106912Y-84741773D01*
X162128183Y-84722929D01*
X162224818Y-84582930D01*
X162285140Y-84423872D01*
X162305645Y-84255000D01*
X162285140Y-84086128D01*
X162224818Y-83927070D01*
X162128183Y-83787071D01*
X162000852Y-83674266D01*
X161980122Y-83663386D01*
X161956114Y-83634579D01*
X161959507Y-83597229D01*
X161980122Y-83576613D01*
X162000852Y-83565734D01*
X162128183Y-83452929D01*
X162224818Y-83312930D01*
X162285140Y-83153872D01*
X162305645Y-82985000D01*
X162285140Y-82816128D01*
X162224818Y-82657070D01*
X162128183Y-82517071D01*
X162000852Y-82404266D01*
X162000844Y-82404262D01*
X162000843Y-82404261D01*
X161850224Y-82325209D01*
X161685056Y-82284500D01*
X161514944Y-82284500D01*
X161349775Y-82325209D01*
X161199156Y-82404261D01*
X161199151Y-82404264D01*
X161199148Y-82404266D01*
X161199146Y-82404268D01*
X161071816Y-82517071D01*
X160975182Y-82657068D01*
X160975181Y-82657070D01*
X160914861Y-82816125D01*
X160914860Y-82816128D01*
X160894355Y-82985000D01*
X157765736Y-82985000D01*
X157785165Y-82942457D01*
X157785165Y-82942455D01*
X157785166Y-82942454D01*
X157805647Y-82800002D01*
X157805647Y-82799997D01*
X157785166Y-82657545D01*
X157759001Y-82600253D01*
X157725377Y-82526627D01*
X157631128Y-82417857D01*
X157510053Y-82340047D01*
X157510050Y-82340046D01*
X157371965Y-82299500D01*
X157371961Y-82299500D01*
X157228039Y-82299500D01*
X157228034Y-82299500D01*
X157089949Y-82340046D01*
X156968871Y-82417857D01*
X156874625Y-82526623D01*
X156874624Y-82526625D01*
X156814833Y-82657545D01*
X156794353Y-82799997D01*
X155730306Y-82799997D01*
X155688759Y-82709023D01*
X155644153Y-82657545D01*
X155594510Y-82600253D01*
X155594112Y-82599997D01*
X155473435Y-82522443D01*
X155473432Y-82522442D01*
X155335347Y-82481896D01*
X155335343Y-82481896D01*
X155191421Y-82481896D01*
X155191416Y-82481896D01*
X155053331Y-82522442D01*
X154932253Y-82600253D01*
X154838007Y-82709019D01*
X154838006Y-82709021D01*
X154838005Y-82709022D01*
X154838005Y-82709023D01*
X154822738Y-82742454D01*
X154822243Y-82743537D01*
X154794794Y-82769092D01*
X154757315Y-82767753D01*
X154733099Y-82743536D01*
X154725377Y-82726627D01*
X154725374Y-82726623D01*
X154631128Y-82617857D01*
X154510053Y-82540047D01*
X154510050Y-82540046D01*
X154371965Y-82499500D01*
X154371961Y-82499500D01*
X154228039Y-82499500D01*
X154228034Y-82499500D01*
X154089949Y-82540046D01*
X153968871Y-82617857D01*
X153874625Y-82726623D01*
X153874624Y-82726625D01*
X153814833Y-82857545D01*
X153794353Y-82999997D01*
X150503347Y-82999997D01*
X150531128Y-82982143D01*
X150625377Y-82873373D01*
X150685165Y-82742457D01*
X150685165Y-82742455D01*
X150685166Y-82742454D01*
X150705647Y-82600002D01*
X150705647Y-82599997D01*
X150685166Y-82457545D01*
X150667041Y-82417857D01*
X150625377Y-82326627D01*
X150624149Y-82325210D01*
X150531128Y-82217857D01*
X150457784Y-82170722D01*
X150436395Y-82139916D01*
X150443053Y-82103009D01*
X150473859Y-82081620D01*
X150484275Y-82080500D01*
X162570500Y-82080500D01*
X162605148Y-82094852D01*
X162619500Y-82129500D01*
X162619500Y-111470500D01*
X162605148Y-111505148D01*
X162570500Y-111519500D01*
X148229500Y-111519500D01*
X148194852Y-111505148D01*
X148180500Y-111470500D01*
X148180500Y-105961252D01*
X148194852Y-105926604D01*
X148229500Y-105912252D01*
X148264148Y-105926604D01*
X148905148Y-106567604D01*
X148919500Y-106602252D01*
X148919500Y-107300500D01*
X148905148Y-107335148D01*
X148870500Y-107349500D01*
X148680252Y-107349500D01*
X148629979Y-107359500D01*
X148621769Y-107361133D01*
X148555447Y-107405447D01*
X148521565Y-107456156D01*
X148511133Y-107471769D01*
X148499500Y-107530252D01*
X148499500Y-108569748D01*
X148511133Y-108628231D01*
X148519490Y-108640738D01*
X148555447Y-108694552D01*
X148599762Y-108724162D01*
X148621769Y-108738867D01*
X148670155Y-108748491D01*
X148701336Y-108769325D01*
X148708653Y-108806108D01*
X148693088Y-108833226D01*
X148671816Y-108852071D01*
X148575182Y-108992068D01*
X148575181Y-108992070D01*
X148534419Y-109099554D01*
X148514860Y-109151128D01*
X148494355Y-109320000D01*
X148514860Y-109488872D01*
X148518653Y-109498874D01*
X148575181Y-109647929D01*
X148575182Y-109647931D01*
X148582085Y-109657931D01*
X148671817Y-109787929D01*
X148799148Y-109900734D01*
X148799156Y-109900738D01*
X148819875Y-109911613D01*
X148843885Y-109940423D01*
X148840490Y-109977772D01*
X148819875Y-109998387D01*
X148799156Y-110009261D01*
X148799151Y-110009264D01*
X148799148Y-110009266D01*
X148799147Y-110009267D01*
X148799146Y-110009268D01*
X148671816Y-110122071D01*
X148575182Y-110262068D01*
X148575181Y-110262070D01*
X148514861Y-110421125D01*
X148514860Y-110421128D01*
X148494355Y-110590000D01*
X148514860Y-110758872D01*
X148514861Y-110758874D01*
X148575181Y-110917929D01*
X148575182Y-110917931D01*
X148671816Y-111057928D01*
X148671817Y-111057929D01*
X148799148Y-111170734D01*
X148949775Y-111249790D01*
X149114944Y-111290500D01*
X149285056Y-111290500D01*
X149450225Y-111249790D01*
X149600852Y-111170734D01*
X149728183Y-111057929D01*
X149824818Y-110917930D01*
X149885140Y-110758872D01*
X149894280Y-110683593D01*
X149912704Y-110650928D01*
X149942923Y-110640500D01*
X150760607Y-110640500D01*
X150785498Y-110633829D01*
X150831945Y-110621384D01*
X150895907Y-110584456D01*
X150948132Y-110532231D01*
X150948132Y-110532229D01*
X150952161Y-110528201D01*
X150952164Y-110528196D01*
X151264456Y-110215907D01*
X151280701Y-110187769D01*
X151301384Y-110151945D01*
X151320500Y-110080604D01*
X151320500Y-108775000D01*
X152739337Y-108775000D01*
X153177030Y-108775000D01*
X153155000Y-108857213D01*
X153155000Y-108942787D01*
X153177030Y-109025000D01*
X152739338Y-109025000D01*
X152744176Y-109067941D01*
X152744178Y-109067950D01*
X152799997Y-109227471D01*
X152799998Y-109227473D01*
X152889914Y-109370573D01*
X152889917Y-109370577D01*
X153009422Y-109490082D01*
X153009426Y-109490085D01*
X153152526Y-109580001D01*
X153152528Y-109580002D01*
X153312052Y-109635822D01*
X153312055Y-109635823D01*
X153355000Y-109640660D01*
X153355000Y-109202970D01*
X153437213Y-109225000D01*
X153522787Y-109225000D01*
X153605000Y-109202970D01*
X153605000Y-109640660D01*
X153647944Y-109635823D01*
X153647947Y-109635822D01*
X153807471Y-109580002D01*
X153807473Y-109580001D01*
X153950573Y-109490085D01*
X153950577Y-109490082D01*
X154070083Y-109370576D01*
X154103690Y-109317090D01*
X154134276Y-109295388D01*
X154171249Y-109301669D01*
X154185506Y-109315324D01*
X154221817Y-109367929D01*
X154349148Y-109480734D01*
X154499775Y-109559790D01*
X154664944Y-109600500D01*
X154835056Y-109600500D01*
X155000225Y-109559790D01*
X155150852Y-109480734D01*
X155278183Y-109367929D01*
X155344674Y-109271601D01*
X155376168Y-109251239D01*
X155412835Y-109259110D01*
X155425326Y-109271601D01*
X155491817Y-109367929D01*
X155619148Y-109480734D01*
X155769775Y-109559790D01*
X155934944Y-109600500D01*
X156105056Y-109600500D01*
X156270225Y-109559790D01*
X156420852Y-109480734D01*
X156510649Y-109401180D01*
X156546101Y-109388947D01*
X156579819Y-109405365D01*
X156591200Y-109428298D01*
X156601132Y-109478229D01*
X156601132Y-109478230D01*
X156601133Y-109478231D01*
X156602808Y-109480738D01*
X156645447Y-109544552D01*
X156668253Y-109559790D01*
X156711769Y-109588867D01*
X156770252Y-109600500D01*
X156770255Y-109600500D01*
X157809745Y-109600500D01*
X157809748Y-109600500D01*
X157868231Y-109588867D01*
X157934552Y-109544552D01*
X157978867Y-109478231D01*
X157990500Y-109419748D01*
X157990500Y-108380252D01*
X157978867Y-108321769D01*
X157952301Y-108282012D01*
X157934552Y-108255447D01*
X157881498Y-108219998D01*
X157868231Y-108211133D01*
X157809748Y-108199500D01*
X156770252Y-108199500D01*
X156711769Y-108211133D01*
X156645447Y-108255447D01*
X156601132Y-108321770D01*
X156591200Y-108371702D01*
X156570365Y-108402884D01*
X156533582Y-108410200D01*
X156510649Y-108398819D01*
X156498357Y-108387929D01*
X156420852Y-108319266D01*
X156420844Y-108319262D01*
X156420843Y-108319261D01*
X156270224Y-108240209D01*
X156105056Y-108199500D01*
X155934944Y-108199500D01*
X155769775Y-108240209D01*
X155619156Y-108319261D01*
X155619151Y-108319264D01*
X155619148Y-108319266D01*
X155619146Y-108319268D01*
X155491816Y-108432071D01*
X155425326Y-108528398D01*
X155393832Y-108548760D01*
X155357165Y-108540889D01*
X155344674Y-108528398D01*
X155278183Y-108432071D01*
X155275193Y-108429422D01*
X155150852Y-108319266D01*
X155150844Y-108319262D01*
X155150843Y-108319261D01*
X155000224Y-108240209D01*
X154835056Y-108199500D01*
X154664944Y-108199500D01*
X154499775Y-108240209D01*
X154349156Y-108319261D01*
X154349151Y-108319264D01*
X154349148Y-108319266D01*
X154349146Y-108319268D01*
X154221817Y-108432070D01*
X154185506Y-108484675D01*
X154154012Y-108505037D01*
X154117344Y-108497165D01*
X154103691Y-108482909D01*
X154070085Y-108429425D01*
X153950577Y-108309917D01*
X153950573Y-108309914D01*
X153807473Y-108219998D01*
X153807471Y-108219997D01*
X153647950Y-108164178D01*
X153647941Y-108164176D01*
X153605000Y-108159337D01*
X153605000Y-108597029D01*
X153522787Y-108575000D01*
X153437213Y-108575000D01*
X153355000Y-108597029D01*
X153355000Y-108159337D01*
X153312058Y-108164176D01*
X153312049Y-108164178D01*
X153152528Y-108219997D01*
X153152526Y-108219998D01*
X153009426Y-108309914D01*
X153009422Y-108309917D01*
X152889917Y-108429422D01*
X152889914Y-108429426D01*
X152799998Y-108572526D01*
X152799997Y-108572528D01*
X152744178Y-108732049D01*
X152744176Y-108732058D01*
X152739337Y-108775000D01*
X151320500Y-108775000D01*
X151320500Y-107363746D01*
X151320500Y-107363744D01*
X151302071Y-107294969D01*
X151301384Y-107292405D01*
X151264456Y-107228443D01*
X151212231Y-107176218D01*
X151212230Y-107176217D01*
X150077935Y-106041923D01*
X150063584Y-106007276D01*
X150077936Y-105972628D01*
X150098779Y-105960261D01*
X150110053Y-105956951D01*
X150231128Y-105879141D01*
X150325377Y-105770371D01*
X150385165Y-105639455D01*
X150385165Y-105639453D01*
X150385166Y-105639452D01*
X150405647Y-105497000D01*
X150405647Y-105496996D01*
X150401616Y-105468962D01*
X150410890Y-105432624D01*
X150443143Y-105413487D01*
X150479481Y-105422761D01*
X150484761Y-105427337D01*
X150629654Y-105572230D01*
X150629655Y-105572231D01*
X150681880Y-105624456D01*
X150681883Y-105624457D01*
X150681886Y-105624460D01*
X150745840Y-105661383D01*
X150745842Y-105661384D01*
X150778948Y-105670254D01*
X150817180Y-105680500D01*
X150817182Y-105680500D01*
X150817183Y-105680500D01*
X151601399Y-105680500D01*
X151636047Y-105694852D01*
X151650399Y-105729500D01*
X151636047Y-105764148D01*
X151627890Y-105770722D01*
X151601226Y-105787857D01*
X151506980Y-105896623D01*
X151506979Y-105896625D01*
X151447188Y-106027545D01*
X151426708Y-106169997D01*
X151426708Y-106170000D01*
X151447188Y-106312454D01*
X151458047Y-106336231D01*
X151506978Y-106443373D01*
X151506979Y-106443374D01*
X151506980Y-106443376D01*
X151596376Y-106546545D01*
X151601227Y-106552143D01*
X151722302Y-106629953D01*
X151836268Y-106663416D01*
X151865469Y-106686948D01*
X151870964Y-106717403D01*
X151859884Y-106794470D01*
X151865903Y-106836333D01*
X151880364Y-106936924D01*
X151912466Y-107007216D01*
X151940154Y-107067843D01*
X151940155Y-107067844D01*
X151940156Y-107067846D01*
X152034060Y-107176217D01*
X152034403Y-107176613D01*
X152155478Y-107254423D01*
X152232316Y-107276984D01*
X152293565Y-107294969D01*
X152293568Y-107294969D01*
X152293570Y-107294970D01*
X152293571Y-107294970D01*
X152437491Y-107294970D01*
X152437492Y-107294970D01*
X152437494Y-107294969D01*
X152437496Y-107294969D01*
X152460326Y-107288265D01*
X152575584Y-107254423D01*
X152696659Y-107176613D01*
X152790908Y-107067843D01*
X152850696Y-106936927D01*
X152850696Y-106936925D01*
X152850697Y-106936924D01*
X152858485Y-106882757D01*
X153230123Y-106882757D01*
X153230123Y-106882762D01*
X153250603Y-107025214D01*
X153270072Y-107067843D01*
X153310393Y-107156133D01*
X153310394Y-107156134D01*
X153310395Y-107156136D01*
X153391472Y-107249704D01*
X153404642Y-107264903D01*
X153525717Y-107342713D01*
X153597343Y-107363744D01*
X153663804Y-107383259D01*
X153663807Y-107383259D01*
X153663809Y-107383260D01*
X153663810Y-107383260D01*
X153807730Y-107383260D01*
X153807731Y-107383260D01*
X153807733Y-107383259D01*
X153807735Y-107383259D01*
X153830565Y-107376555D01*
X153922187Y-107349653D01*
X160448586Y-107349653D01*
X160448586Y-107349658D01*
X160469066Y-107492110D01*
X160501168Y-107562402D01*
X160528856Y-107623029D01*
X160528857Y-107623030D01*
X160528858Y-107623032D01*
X160623104Y-107731798D01*
X160623105Y-107731799D01*
X160744180Y-107809609D01*
X160856621Y-107842624D01*
X160878699Y-107849107D01*
X160907900Y-107872639D01*
X160913536Y-107902026D01*
X160894355Y-108060000D01*
X160914860Y-108228872D01*
X160924939Y-108255448D01*
X160975181Y-108387929D01*
X160975182Y-108387931D01*
X161071816Y-108527928D01*
X161071817Y-108527929D01*
X161199148Y-108640734D01*
X161199156Y-108640738D01*
X161219875Y-108651613D01*
X161243885Y-108680423D01*
X161240490Y-108717772D01*
X161219875Y-108738387D01*
X161199156Y-108749261D01*
X161199151Y-108749264D01*
X161199148Y-108749266D01*
X161176506Y-108769325D01*
X161071816Y-108862071D01*
X160975182Y-109002068D01*
X160975181Y-109002070D01*
X160914861Y-109161125D01*
X160914860Y-109161128D01*
X160894355Y-109330000D01*
X160914860Y-109498872D01*
X160914861Y-109498874D01*
X160975181Y-109657929D01*
X160975182Y-109657931D01*
X161071817Y-109797930D01*
X161093087Y-109816773D01*
X161109505Y-109850491D01*
X161097271Y-109885943D01*
X161070154Y-109901508D01*
X161021770Y-109911132D01*
X160955447Y-109955447D01*
X160919486Y-110009268D01*
X160911133Y-110021769D01*
X160899500Y-110080252D01*
X160899500Y-111119748D01*
X160911133Y-111178231D01*
X160928882Y-111204795D01*
X160955447Y-111244552D01*
X160982012Y-111262301D01*
X161021769Y-111288867D01*
X161080252Y-111300500D01*
X161080255Y-111300500D01*
X162119745Y-111300500D01*
X162119748Y-111300500D01*
X162178231Y-111288867D01*
X162244552Y-111244552D01*
X162288867Y-111178231D01*
X162300500Y-111119748D01*
X162300500Y-110080252D01*
X162288867Y-110021769D01*
X162253994Y-109969579D01*
X162244552Y-109955447D01*
X162178228Y-109911131D01*
X162129846Y-109901508D01*
X162098663Y-109880673D01*
X162091347Y-109843891D01*
X162106912Y-109816773D01*
X162128183Y-109797929D01*
X162224818Y-109657930D01*
X162285140Y-109498872D01*
X162305645Y-109330000D01*
X162285140Y-109161128D01*
X162224818Y-109002070D01*
X162217915Y-108992070D01*
X162128183Y-108862071D01*
X162057564Y-108799508D01*
X162000852Y-108749266D01*
X161980122Y-108738386D01*
X161956114Y-108709579D01*
X161959507Y-108672229D01*
X161980122Y-108651613D01*
X162000852Y-108640734D01*
X162128183Y-108527929D01*
X162224818Y-108387930D01*
X162285140Y-108228872D01*
X162305645Y-108060000D01*
X162285140Y-107891128D01*
X162224818Y-107732070D01*
X162224630Y-107731798D01*
X162128183Y-107592071D01*
X162000852Y-107479266D01*
X162000844Y-107479262D01*
X162000843Y-107479261D01*
X161850224Y-107400209D01*
X161685056Y-107359500D01*
X161514944Y-107359500D01*
X161514941Y-107359500D01*
X161511999Y-107359857D01*
X161511864Y-107358746D01*
X161478581Y-107353679D01*
X161456356Y-107323471D01*
X161455432Y-107318720D01*
X161439399Y-107207201D01*
X161434984Y-107197535D01*
X161379610Y-107076283D01*
X161372299Y-107067846D01*
X161285361Y-106967513D01*
X161233870Y-106934422D01*
X161164286Y-106889703D01*
X161164283Y-106889702D01*
X161026198Y-106849156D01*
X161026194Y-106849156D01*
X160882272Y-106849156D01*
X160882267Y-106849156D01*
X160744182Y-106889702D01*
X160744180Y-106889702D01*
X160744180Y-106889703D01*
X160732866Y-106896974D01*
X160623104Y-106967513D01*
X160528858Y-107076279D01*
X160528857Y-107076281D01*
X160469066Y-107207201D01*
X160448586Y-107349653D01*
X153922187Y-107349653D01*
X153945823Y-107342713D01*
X154066898Y-107264903D01*
X154161147Y-107156133D01*
X154220935Y-107025217D01*
X154220935Y-107025215D01*
X154220936Y-107025214D01*
X154231325Y-106952948D01*
X154250461Y-106920694D01*
X154286798Y-106911419D01*
X154293623Y-106912903D01*
X154366909Y-106934422D01*
X154366914Y-106934422D01*
X154510830Y-106934422D01*
X154510831Y-106934422D01*
X154510833Y-106934421D01*
X154510835Y-106934421D01*
X154533665Y-106927717D01*
X154648923Y-106893875D01*
X154769998Y-106816065D01*
X154864247Y-106707295D01*
X154924035Y-106576379D01*
X154924035Y-106576377D01*
X154924036Y-106576376D01*
X154944517Y-106433924D01*
X154944517Y-106433919D01*
X154924036Y-106291467D01*
X154912060Y-106265244D01*
X154864247Y-106160549D01*
X154830669Y-106121798D01*
X154769998Y-106051779D01*
X154754663Y-106041924D01*
X154648923Y-105973969D01*
X154644356Y-105972628D01*
X154510835Y-105933422D01*
X154510831Y-105933422D01*
X154366909Y-105933422D01*
X154366904Y-105933422D01*
X154228819Y-105973968D01*
X154228817Y-105973968D01*
X154228817Y-105973969D01*
X154213350Y-105983909D01*
X154107741Y-106051779D01*
X154013495Y-106160545D01*
X154013494Y-106160547D01*
X153953705Y-106291464D01*
X153943313Y-106363734D01*
X153924176Y-106395987D01*
X153887838Y-106405261D01*
X153881007Y-106403775D01*
X153807735Y-106382260D01*
X153807731Y-106382260D01*
X153663809Y-106382260D01*
X153663804Y-106382260D01*
X153525719Y-106422806D01*
X153525717Y-106422806D01*
X153525717Y-106422807D01*
X153493711Y-106443376D01*
X153404641Y-106500617D01*
X153310395Y-106609383D01*
X153310394Y-106609385D01*
X153250603Y-106740305D01*
X153230123Y-106882757D01*
X152858485Y-106882757D01*
X152871178Y-106794472D01*
X152871178Y-106794467D01*
X152850697Y-106652015D01*
X152831328Y-106609604D01*
X152790908Y-106521097D01*
X152788096Y-106517852D01*
X152696659Y-106412327D01*
X152659213Y-106388262D01*
X152575584Y-106334517D01*
X152575581Y-106334516D01*
X152461619Y-106301053D01*
X152432418Y-106277521D01*
X152426923Y-106247062D01*
X152438002Y-106170029D01*
X152438002Y-106169968D01*
X152417520Y-106027544D01*
X152408264Y-106007276D01*
X152357732Y-105896627D01*
X152342580Y-105879141D01*
X152263483Y-105787857D01*
X152236820Y-105770722D01*
X152215431Y-105739916D01*
X152222089Y-105703009D01*
X152252895Y-105681620D01*
X152263311Y-105680500D01*
X153823033Y-105680500D01*
X153847924Y-105673829D01*
X153894371Y-105661384D01*
X153920195Y-105646475D01*
X153958326Y-105624460D01*
X153958325Y-105624460D01*
X153958333Y-105624456D01*
X154010558Y-105572231D01*
X154010558Y-105572229D01*
X154014587Y-105568201D01*
X154014590Y-105568196D01*
X154581851Y-105000937D01*
X154616499Y-104986585D01*
X156506302Y-104986585D01*
X156540950Y-105000937D01*
X156555302Y-105035585D01*
X156540950Y-105070233D01*
X156530801Y-105078021D01*
X156517770Y-105085543D01*
X156517764Y-105085548D01*
X155754708Y-105848605D01*
X155754707Y-105848605D01*
X155721997Y-105905261D01*
X155717781Y-105912563D01*
X155717778Y-105912569D01*
X155707593Y-105950583D01*
X155707593Y-105950584D01*
X155698663Y-105983909D01*
X155698663Y-106388262D01*
X155684311Y-106422910D01*
X155676155Y-106429483D01*
X155648035Y-106447555D01*
X155553788Y-106556322D01*
X155553787Y-106556324D01*
X155493996Y-106687244D01*
X155473516Y-106829696D01*
X155473516Y-106829701D01*
X155493996Y-106972153D01*
X155518229Y-107025214D01*
X155553786Y-107103072D01*
X155553787Y-107103073D01*
X155553788Y-107103075D01*
X155648034Y-107211841D01*
X155648035Y-107211842D01*
X155769110Y-107289652D01*
X155845948Y-107312213D01*
X155907197Y-107330198D01*
X155907200Y-107330198D01*
X155907202Y-107330199D01*
X155907203Y-107330199D01*
X156051123Y-107330199D01*
X156051124Y-107330199D01*
X156051126Y-107330198D01*
X156051128Y-107330198D01*
X156090218Y-107318720D01*
X156189216Y-107289652D01*
X156310291Y-107211842D01*
X156404540Y-107103072D01*
X156464328Y-106972156D01*
X156464328Y-106972154D01*
X156464329Y-106972153D01*
X156477757Y-106878757D01*
X156496893Y-106846504D01*
X156526258Y-106836730D01*
X156629127Y-106836730D01*
X156629128Y-106836730D01*
X156629130Y-106836729D01*
X156629132Y-106836729D01*
X156653084Y-106829696D01*
X156767220Y-106796183D01*
X156888295Y-106718373D01*
X156982544Y-106609603D01*
X157042332Y-106478687D01*
X157042332Y-106478685D01*
X157042333Y-106478684D01*
X157062814Y-106336231D01*
X157062814Y-106336228D01*
X157059396Y-106312457D01*
X157052607Y-106265242D01*
X157061881Y-106228906D01*
X157066453Y-106223629D01*
X157365230Y-105924854D01*
X157399878Y-105910502D01*
X157742938Y-105910502D01*
X157777586Y-105924854D01*
X157791938Y-105959502D01*
X157787510Y-105979857D01*
X157765731Y-106027544D01*
X157765731Y-106027546D01*
X157745250Y-106169999D01*
X157745250Y-106170004D01*
X157761427Y-106282527D01*
X157752152Y-106318865D01*
X157726732Y-106336515D01*
X157646876Y-106359964D01*
X157646874Y-106359964D01*
X157646874Y-106359965D01*
X157612182Y-106382260D01*
X157525798Y-106437775D01*
X157431552Y-106546541D01*
X157431551Y-106546543D01*
X157371760Y-106677463D01*
X157351280Y-106819915D01*
X157351280Y-106819920D01*
X157371760Y-106962372D01*
X157400460Y-107025214D01*
X157431550Y-107093291D01*
X157431551Y-107093292D01*
X157431552Y-107093294D01*
X157486002Y-107156133D01*
X157525799Y-107202061D01*
X157646874Y-107279871D01*
X157717131Y-107300500D01*
X157784961Y-107320417D01*
X157784964Y-107320417D01*
X157784966Y-107320418D01*
X157784967Y-107320418D01*
X157928887Y-107320418D01*
X157928888Y-107320418D01*
X157928890Y-107320417D01*
X157928892Y-107320417D01*
X157951722Y-107313713D01*
X158066980Y-107279871D01*
X158188055Y-107202061D01*
X158282304Y-107093291D01*
X158342092Y-106962375D01*
X158342092Y-106962373D01*
X158342093Y-106962372D01*
X158362574Y-106819920D01*
X158362574Y-106819916D01*
X158353917Y-106759704D01*
X158346395Y-106707391D01*
X158355669Y-106671054D01*
X158381092Y-106653403D01*
X158460947Y-106629956D01*
X158460947Y-106629955D01*
X158460950Y-106629955D01*
X158582025Y-106552145D01*
X158676274Y-106443375D01*
X158731735Y-106321932D01*
X158759182Y-106296378D01*
X158796661Y-106297717D01*
X158810954Y-106307641D01*
X158981997Y-106478684D01*
X158984237Y-106480924D01*
X159048199Y-106517852D01*
X159081305Y-106526722D01*
X159119537Y-106536968D01*
X159119539Y-106536968D01*
X160580463Y-106536968D01*
X160605354Y-106530297D01*
X160651801Y-106517852D01*
X160715763Y-106480924D01*
X160767988Y-106428699D01*
X160767989Y-106428697D01*
X161010927Y-106185760D01*
X161020026Y-106170000D01*
X161047855Y-106121798D01*
X161066971Y-106050457D01*
X161066971Y-105049543D01*
X161066971Y-105049541D01*
X161064657Y-105040909D01*
X161064656Y-105040906D01*
X161063621Y-105037045D01*
X161047855Y-104978202D01*
X161047854Y-104978199D01*
X161024026Y-104936929D01*
X161024025Y-104936928D01*
X161010929Y-104914243D01*
X161010924Y-104914237D01*
X161009293Y-104912606D01*
X160994941Y-104877958D01*
X160995439Y-104870995D01*
X161005647Y-104800000D01*
X161005070Y-104795985D01*
X160985166Y-104657545D01*
X160979082Y-104644223D01*
X160925377Y-104526627D01*
X160879233Y-104473374D01*
X160837748Y-104425497D01*
X160825905Y-104389913D01*
X160837748Y-104361321D01*
X160931285Y-104253373D01*
X160991073Y-104122457D01*
X160991073Y-104122455D01*
X160991074Y-104122454D01*
X161000149Y-104059335D01*
X161019285Y-104027082D01*
X161048650Y-104017308D01*
X161180410Y-104017308D01*
X161180411Y-104017308D01*
X161180413Y-104017307D01*
X161180415Y-104017307D01*
X161231207Y-104002393D01*
X161318503Y-103976761D01*
X161439578Y-103898951D01*
X161533827Y-103790181D01*
X161593615Y-103659265D01*
X161593615Y-103659263D01*
X161593616Y-103659262D01*
X161614097Y-103516810D01*
X161614097Y-103516805D01*
X161593616Y-103374353D01*
X161589201Y-103364687D01*
X161533827Y-103243435D01*
X161439578Y-103134665D01*
X161318503Y-103056855D01*
X161307135Y-103053517D01*
X161180415Y-103016308D01*
X161180411Y-103016308D01*
X161036489Y-103016308D01*
X161036484Y-103016308D01*
X160898399Y-103056854D01*
X160777321Y-103134665D01*
X160683075Y-103243431D01*
X160683074Y-103243433D01*
X160623285Y-103374350D01*
X160614209Y-103437474D01*
X160595072Y-103469727D01*
X160565708Y-103479500D01*
X160489500Y-103479500D01*
X160454852Y-103465148D01*
X160440500Y-103430500D01*
X160440500Y-102910890D01*
X160454852Y-102876242D01*
X160489500Y-102861890D01*
X160503303Y-102863874D01*
X160504769Y-102864305D01*
X160628034Y-102900499D01*
X160628037Y-102900499D01*
X160628039Y-102900500D01*
X160628040Y-102900500D01*
X160771960Y-102900500D01*
X160771961Y-102900500D01*
X160771963Y-102900499D01*
X160771965Y-102900499D01*
X160795781Y-102893506D01*
X160910053Y-102859953D01*
X161031128Y-102782143D01*
X161125377Y-102673373D01*
X161185165Y-102542457D01*
X161185165Y-102542455D01*
X161185166Y-102542454D01*
X161205647Y-102400002D01*
X161205647Y-102399997D01*
X161185166Y-102257545D01*
X161180751Y-102247879D01*
X161125377Y-102126627D01*
X161047390Y-102036625D01*
X161031128Y-102017857D01*
X161004121Y-102000501D01*
X160910053Y-101940047D01*
X160910050Y-101940046D01*
X160771965Y-101899500D01*
X160771961Y-101899500D01*
X160715482Y-101899500D01*
X160680834Y-101885148D01*
X160666482Y-101850500D01*
X160680834Y-101815852D01*
X160838459Y-101658227D01*
X160924455Y-101572232D01*
X160954323Y-101520500D01*
X160957725Y-101514608D01*
X160961381Y-101508274D01*
X160961380Y-101508274D01*
X160961384Y-101508269D01*
X160970498Y-101474257D01*
X160980500Y-101436929D01*
X160980500Y-101363072D01*
X160980500Y-101280364D01*
X160994852Y-101245716D01*
X161029500Y-101231364D01*
X161039056Y-101232305D01*
X161080252Y-101240500D01*
X161414926Y-101240500D01*
X161449574Y-101254852D01*
X161463926Y-101289500D01*
X161459498Y-101309856D01*
X161437717Y-101357547D01*
X161417237Y-101499999D01*
X161417237Y-101500004D01*
X161437717Y-101642456D01*
X161458941Y-101688928D01*
X161497507Y-101773375D01*
X161497508Y-101773376D01*
X161497509Y-101773378D01*
X161568281Y-101855053D01*
X161591756Y-101882145D01*
X161712831Y-101959955D01*
X161788401Y-101982144D01*
X161850918Y-102000501D01*
X161850921Y-102000501D01*
X161850923Y-102000502D01*
X161850924Y-102000502D01*
X161994844Y-102000502D01*
X161994845Y-102000502D01*
X161994847Y-102000501D01*
X161994849Y-102000501D01*
X162017679Y-101993797D01*
X162132937Y-101959955D01*
X162254012Y-101882145D01*
X162348261Y-101773375D01*
X162408049Y-101642459D01*
X162408049Y-101642457D01*
X162408050Y-101642456D01*
X162428531Y-101500004D01*
X162428531Y-101499999D01*
X162408050Y-101357547D01*
X162403635Y-101347881D01*
X162348261Y-101226629D01*
X162348258Y-101226625D01*
X162348255Y-101226621D01*
X162297520Y-101168070D01*
X162285676Y-101132487D01*
X162287926Y-101122965D01*
X162287925Y-101122965D01*
X162288867Y-101118231D01*
X162300500Y-101059748D01*
X162300500Y-100020252D01*
X162288867Y-99961769D01*
X162256034Y-99912631D01*
X162244552Y-99895447D01*
X162178228Y-99851131D01*
X162129846Y-99841508D01*
X162098663Y-99820673D01*
X162091347Y-99783891D01*
X162106912Y-99756773D01*
X162128183Y-99737929D01*
X162224818Y-99597930D01*
X162285140Y-99438872D01*
X162305645Y-99270000D01*
X162285140Y-99101128D01*
X162224818Y-98942070D01*
X162223293Y-98939861D01*
X162128183Y-98802071D01*
X162000853Y-98689267D01*
X162000852Y-98689266D01*
X161980122Y-98678386D01*
X161956114Y-98649579D01*
X161959507Y-98612229D01*
X161980122Y-98591613D01*
X162000852Y-98580734D01*
X162128183Y-98467929D01*
X162224818Y-98327930D01*
X162285140Y-98168872D01*
X162305645Y-98000000D01*
X162285140Y-97831128D01*
X162224818Y-97672070D01*
X162211522Y-97652808D01*
X162128183Y-97532071D01*
X162097910Y-97505252D01*
X162000852Y-97419266D01*
X162000844Y-97419262D01*
X162000843Y-97419261D01*
X161850224Y-97340209D01*
X161685056Y-97299500D01*
X161514944Y-97299500D01*
X161349775Y-97340209D01*
X161199156Y-97419261D01*
X161199151Y-97419264D01*
X161199148Y-97419266D01*
X161114260Y-97494469D01*
X161071818Y-97532070D01*
X161069826Y-97534956D01*
X161038332Y-97555317D01*
X161001664Y-97547446D01*
X160981303Y-97515952D01*
X160980500Y-97507120D01*
X160980500Y-97063070D01*
X160970942Y-97027401D01*
X160961384Y-96991731D01*
X160924456Y-96927769D01*
X160872231Y-96875544D01*
X160872230Y-96875543D01*
X160116431Y-96119744D01*
X159331334Y-95334647D01*
X159316982Y-95299999D01*
X159331333Y-95265352D01*
X161037579Y-93559106D01*
X161072226Y-93544755D01*
X161104719Y-93557078D01*
X161131281Y-93580609D01*
X161199148Y-93640734D01*
X161199156Y-93640738D01*
X161219875Y-93651613D01*
X161243885Y-93680423D01*
X161240490Y-93717772D01*
X161219875Y-93738387D01*
X161199156Y-93749261D01*
X161199151Y-93749264D01*
X161199148Y-93749266D01*
X161178515Y-93767545D01*
X161071816Y-93862071D01*
X160975182Y-94002068D01*
X160975181Y-94002070D01*
X160917190Y-94154985D01*
X160914860Y-94161128D01*
X160894355Y-94330000D01*
X160914860Y-94498872D01*
X160930819Y-94540952D01*
X160975181Y-94657929D01*
X160975182Y-94657931D01*
X161071817Y-94797930D01*
X161093087Y-94816773D01*
X161109505Y-94850491D01*
X161097271Y-94885943D01*
X161070154Y-94901508D01*
X161021770Y-94911132D01*
X160955447Y-94955447D01*
X160913748Y-95017856D01*
X160911133Y-95021769D01*
X160899500Y-95080252D01*
X160899500Y-95080255D01*
X160899500Y-95151000D01*
X160885148Y-95185648D01*
X160850500Y-95200000D01*
X160790374Y-95200000D01*
X160755726Y-95185648D01*
X160745802Y-95171355D01*
X160725375Y-95126626D01*
X160725372Y-95126622D01*
X160631126Y-95017856D01*
X160620610Y-95011098D01*
X160510051Y-94940046D01*
X160510048Y-94940045D01*
X160371963Y-94899499D01*
X160371959Y-94899499D01*
X160228037Y-94899499D01*
X160228032Y-94899499D01*
X160089947Y-94940045D01*
X160089945Y-94940045D01*
X160089945Y-94940046D01*
X160065981Y-94955447D01*
X159968869Y-95017856D01*
X159874623Y-95126622D01*
X159874622Y-95126624D01*
X159814831Y-95257544D01*
X159794351Y-95399996D01*
X159794351Y-95400001D01*
X159814831Y-95542453D01*
X159826606Y-95568235D01*
X159874621Y-95673372D01*
X159874622Y-95673373D01*
X159874623Y-95673375D01*
X159961274Y-95773376D01*
X159968870Y-95782142D01*
X160089945Y-95859952D01*
X160166783Y-95882513D01*
X160228032Y-95900498D01*
X160228035Y-95900498D01*
X160228037Y-95900499D01*
X160228038Y-95900499D01*
X160371958Y-95900499D01*
X160371959Y-95900499D01*
X160371961Y-95900498D01*
X160371963Y-95900498D01*
X160394793Y-95893794D01*
X160510051Y-95859952D01*
X160631126Y-95782142D01*
X160725375Y-95673372D01*
X160745801Y-95628644D01*
X160773249Y-95603089D01*
X160790373Y-95600000D01*
X160850500Y-95600000D01*
X160885148Y-95614352D01*
X160899500Y-95649000D01*
X160899500Y-96119748D01*
X160911133Y-96178231D01*
X160924625Y-96198423D01*
X160955447Y-96244552D01*
X160982012Y-96262301D01*
X161021769Y-96288867D01*
X161080252Y-96300500D01*
X161080255Y-96300500D01*
X162119745Y-96300500D01*
X162119748Y-96300500D01*
X162178231Y-96288867D01*
X162244552Y-96244552D01*
X162288867Y-96178231D01*
X162300500Y-96119748D01*
X162300500Y-95080252D01*
X162288867Y-95021769D01*
X162262301Y-94982012D01*
X162244552Y-94955447D01*
X162178228Y-94911131D01*
X162129846Y-94901508D01*
X162098663Y-94880673D01*
X162091347Y-94843891D01*
X162106912Y-94816773D01*
X162128183Y-94797929D01*
X162224818Y-94657930D01*
X162285140Y-94498872D01*
X162305645Y-94330000D01*
X162285140Y-94161128D01*
X162224818Y-94002070D01*
X162213216Y-93985262D01*
X162128183Y-93862071D01*
X162021485Y-93767545D01*
X162000852Y-93749266D01*
X161980122Y-93738386D01*
X161956114Y-93709579D01*
X161959507Y-93672229D01*
X161980122Y-93651613D01*
X162000852Y-93640734D01*
X162128183Y-93527929D01*
X162224818Y-93387930D01*
X162285140Y-93228872D01*
X162305645Y-93060000D01*
X162285140Y-92891128D01*
X162224818Y-92732070D01*
X162220897Y-92726390D01*
X162128183Y-92592071D01*
X162117328Y-92582454D01*
X162000852Y-92479266D01*
X162000844Y-92479262D01*
X162000843Y-92479261D01*
X161850224Y-92400209D01*
X161685056Y-92359500D01*
X161514944Y-92359500D01*
X161349773Y-92400210D01*
X161212271Y-92472377D01*
X161174922Y-92475771D01*
X161146113Y-92451761D01*
X161140500Y-92428990D01*
X161140500Y-91576482D01*
X161154850Y-91541835D01*
X161195683Y-91501002D01*
X161230328Y-91486652D01*
X161264977Y-91501003D01*
X161267361Y-91503564D01*
X161351705Y-91600902D01*
X161351706Y-91600903D01*
X161472781Y-91678713D01*
X161549619Y-91701274D01*
X161610868Y-91719259D01*
X161610871Y-91719259D01*
X161610873Y-91719260D01*
X161610874Y-91719260D01*
X161754794Y-91719260D01*
X161754795Y-91719260D01*
X161754797Y-91719259D01*
X161754799Y-91719259D01*
X161777629Y-91712555D01*
X161892887Y-91678713D01*
X162013962Y-91600903D01*
X162108211Y-91492133D01*
X162167999Y-91361217D01*
X162167999Y-91361215D01*
X162168000Y-91361214D01*
X162188481Y-91218762D01*
X162188481Y-91218757D01*
X162168000Y-91076305D01*
X162150219Y-91037371D01*
X162108211Y-90945387D01*
X162054213Y-90883070D01*
X162013962Y-90836617D01*
X161985180Y-90818120D01*
X161892887Y-90758807D01*
X161879462Y-90754865D01*
X161754799Y-90718260D01*
X161754795Y-90718260D01*
X161610873Y-90718260D01*
X161610868Y-90718260D01*
X161472780Y-90758806D01*
X161455990Y-90769597D01*
X161419083Y-90776255D01*
X161388278Y-90754865D01*
X161380500Y-90728375D01*
X161380500Y-89563072D01*
X161375221Y-89543372D01*
X161375221Y-89543371D01*
X161361384Y-89491731D01*
X161361383Y-89491729D01*
X161343037Y-89459953D01*
X161343036Y-89459952D01*
X161336087Y-89447916D01*
X161330075Y-89437502D01*
X161324458Y-89427772D01*
X161324453Y-89427766D01*
X161009293Y-89112606D01*
X160994941Y-89077958D01*
X160995439Y-89070995D01*
X161005647Y-89000000D01*
X161005647Y-88999998D01*
X160985166Y-88857545D01*
X160980751Y-88847879D01*
X160925377Y-88726627D01*
X160856327Y-88646939D01*
X160831128Y-88617857D01*
X160751554Y-88566718D01*
X160730166Y-88535913D01*
X160736824Y-88499006D01*
X160741008Y-88493416D01*
X160769653Y-88460359D01*
X160829441Y-88329443D01*
X160829441Y-88329441D01*
X160829442Y-88329440D01*
X160849923Y-88186988D01*
X160849923Y-88186983D01*
X160829442Y-88044531D01*
X160810870Y-88003865D01*
X160769653Y-87913613D01*
X160758811Y-87901101D01*
X160675404Y-87804843D01*
X160637178Y-87780277D01*
X160554329Y-87727033D01*
X160554326Y-87727032D01*
X160416241Y-87686486D01*
X160416237Y-87686486D01*
X160272315Y-87686486D01*
X160272310Y-87686486D01*
X160134225Y-87727032D01*
X160134223Y-87727032D01*
X160134223Y-87727033D01*
X160124532Y-87733261D01*
X160013147Y-87804843D01*
X159918901Y-87913609D01*
X159918900Y-87913611D01*
X159859109Y-88044531D01*
X159838629Y-88186983D01*
X159838629Y-88186988D01*
X159859109Y-88329441D01*
X159861216Y-88334053D01*
X159862553Y-88371532D01*
X159836997Y-88398980D01*
X159799518Y-88400317D01*
X159781995Y-88389055D01*
X159207865Y-87814925D01*
X159193513Y-87780277D01*
X159207865Y-87745629D01*
X159228710Y-87733262D01*
X159239982Y-87729953D01*
X159361057Y-87652143D01*
X159455306Y-87543373D01*
X159515094Y-87412457D01*
X159515094Y-87412455D01*
X159515095Y-87412454D01*
X159535576Y-87270002D01*
X159535576Y-87269997D01*
X159515095Y-87127545D01*
X159499226Y-87092798D01*
X159455306Y-86996627D01*
X159454046Y-86995173D01*
X159361057Y-86887857D01*
X159338838Y-86873578D01*
X159239982Y-86810047D01*
X159239979Y-86810046D01*
X159101894Y-86769500D01*
X159101890Y-86769500D01*
X158957968Y-86769500D01*
X158957963Y-86769500D01*
X158819878Y-86810046D01*
X158698800Y-86887857D01*
X158604554Y-86996623D01*
X158604553Y-86996625D01*
X158547488Y-87121577D01*
X158520039Y-87147132D01*
X158490233Y-87148551D01*
X158451986Y-87138302D01*
X158451984Y-87138302D01*
X158451983Y-87138302D01*
X158342228Y-87138302D01*
X158307580Y-87123950D01*
X158293228Y-87089302D01*
X158305196Y-87057214D01*
X158350874Y-87004497D01*
X158350877Y-87004494D01*
X158410665Y-86873578D01*
X158410665Y-86873576D01*
X158410666Y-86873575D01*
X158431147Y-86731123D01*
X158431147Y-86731118D01*
X158410666Y-86588666D01*
X158382332Y-86526625D01*
X158350877Y-86457748D01*
X158317170Y-86418848D01*
X158256628Y-86348978D01*
X158242731Y-86340047D01*
X158135553Y-86271168D01*
X158135550Y-86271167D01*
X157997465Y-86230621D01*
X157997461Y-86230621D01*
X157853539Y-86230621D01*
X157853534Y-86230621D01*
X157715449Y-86271167D01*
X157715447Y-86271167D01*
X157715447Y-86271168D01*
X157681552Y-86292951D01*
X157594371Y-86348978D01*
X157500125Y-86457744D01*
X157500124Y-86457746D01*
X157440333Y-86588666D01*
X157421675Y-86718444D01*
X157402539Y-86750697D01*
X157366201Y-86759972D01*
X157333948Y-86740836D01*
X157328602Y-86731827D01*
X157309373Y-86689723D01*
X157270877Y-86605429D01*
X157256350Y-86588664D01*
X157176628Y-86496659D01*
X157149970Y-86479527D01*
X157055553Y-86418849D01*
X157052175Y-86417857D01*
X156917465Y-86378302D01*
X156917461Y-86378302D01*
X156773539Y-86378302D01*
X156773534Y-86378302D01*
X156635449Y-86418848D01*
X156514371Y-86496659D01*
X156420125Y-86605425D01*
X156420124Y-86605427D01*
X156360333Y-86736347D01*
X156339853Y-86878799D01*
X156339853Y-86878804D01*
X156360334Y-87021257D01*
X156360334Y-87021259D01*
X156382113Y-87068947D01*
X156383452Y-87106426D01*
X156357896Y-87133874D01*
X156337541Y-87138302D01*
X156003637Y-87138302D01*
X155968989Y-87123950D01*
X155254585Y-86409547D01*
X155254583Y-86409544D01*
X155199567Y-86354528D01*
X155199565Y-86354526D01*
X155199562Y-86354524D01*
X155199558Y-86354521D01*
X155135606Y-86317599D01*
X155135603Y-86317598D01*
X155130785Y-86316307D01*
X155108611Y-86310365D01*
X155064265Y-86298482D01*
X155064263Y-86298482D01*
X155064262Y-86298482D01*
X154254090Y-86298482D01*
X154254087Y-86298482D01*
X154206936Y-86311116D01*
X154180450Y-86310801D01*
X154141964Y-86299501D01*
X154141961Y-86299500D01*
X153998039Y-86299500D01*
X153998034Y-86299500D01*
X153859949Y-86340046D01*
X153738871Y-86417857D01*
X153644625Y-86526623D01*
X153644624Y-86526625D01*
X153584833Y-86657545D01*
X153564353Y-86799997D01*
X153564353Y-86800002D01*
X153584833Y-86942454D01*
X153608909Y-86995172D01*
X153644623Y-87073373D01*
X153644624Y-87073374D01*
X153644625Y-87073376D01*
X153712905Y-87152175D01*
X153738872Y-87182143D01*
X153859947Y-87259953D01*
X153936785Y-87282514D01*
X153998034Y-87300499D01*
X153998037Y-87300499D01*
X153998039Y-87300500D01*
X153998040Y-87300500D01*
X154141960Y-87300500D01*
X154141961Y-87300500D01*
X154141963Y-87300499D01*
X154141965Y-87300499D01*
X154181818Y-87288797D01*
X154272611Y-87262138D01*
X154309898Y-87266147D01*
X154330987Y-87288797D01*
X154378281Y-87392355D01*
X154378282Y-87392356D01*
X154378283Y-87392358D01*
X154395699Y-87412457D01*
X154472530Y-87501125D01*
X154593605Y-87578935D01*
X154670443Y-87601496D01*
X154731692Y-87619481D01*
X154731695Y-87619481D01*
X154731697Y-87619482D01*
X154731698Y-87619482D01*
X154875616Y-87619482D01*
X154875619Y-87619482D01*
X154875621Y-87619481D01*
X154879085Y-87618983D01*
X154879424Y-87621340D01*
X154909111Y-87624170D01*
X154920798Y-87632809D01*
X155189090Y-87901101D01*
X155203442Y-87935749D01*
X155189090Y-87970397D01*
X155154442Y-87984749D01*
X151284144Y-87984749D01*
X151245739Y-87995040D01*
X151226536Y-88000186D01*
X151212806Y-88003864D01*
X151212803Y-88003865D01*
X151148850Y-88040788D01*
X151148841Y-88040795D01*
X148795546Y-90394090D01*
X148795539Y-90394099D01*
X148761600Y-90452886D01*
X148761600Y-90452887D01*
X148758615Y-90458056D01*
X148740247Y-90526608D01*
X148740246Y-90526613D01*
X148739748Y-90528468D01*
X148739500Y-90529395D01*
X148739500Y-90751555D01*
X148725148Y-90786203D01*
X148690500Y-90800555D01*
X148676695Y-90798570D01*
X148551965Y-90761946D01*
X148551961Y-90761946D01*
X148408039Y-90761946D01*
X148408034Y-90761946D01*
X148269946Y-90802492D01*
X148255990Y-90811462D01*
X148219083Y-90818120D01*
X148188278Y-90796730D01*
X148180500Y-90770240D01*
X148180500Y-87269997D01*
X151479351Y-87269997D01*
X151479351Y-87270002D01*
X151499831Y-87412454D01*
X151531933Y-87482746D01*
X151559621Y-87543373D01*
X151559622Y-87543374D01*
X151559623Y-87543376D01*
X151625137Y-87618983D01*
X151653870Y-87652143D01*
X151774945Y-87729953D01*
X151851783Y-87752514D01*
X151913032Y-87770499D01*
X151913035Y-87770499D01*
X151913037Y-87770500D01*
X151913038Y-87770500D01*
X152056958Y-87770500D01*
X152056959Y-87770500D01*
X152056961Y-87770499D01*
X152056963Y-87770499D01*
X152104540Y-87756529D01*
X152195051Y-87729953D01*
X152316126Y-87652143D01*
X152410375Y-87543373D01*
X152470163Y-87412457D01*
X152470163Y-87412455D01*
X152470164Y-87412454D01*
X152491144Y-87266531D01*
X152492537Y-87266731D01*
X152504997Y-87236651D01*
X152539645Y-87222299D01*
X152686409Y-87222299D01*
X152686410Y-87222299D01*
X152686412Y-87222298D01*
X152686414Y-87222298D01*
X152718567Y-87212857D01*
X152824502Y-87181752D01*
X152945577Y-87103942D01*
X153039826Y-86995172D01*
X153099614Y-86864256D01*
X153099614Y-86864254D01*
X153099615Y-86864253D01*
X153120096Y-86721801D01*
X153120096Y-86721796D01*
X153099615Y-86579344D01*
X153095200Y-86569678D01*
X153039826Y-86448426D01*
X153006137Y-86409547D01*
X152945577Y-86339656D01*
X152824502Y-86261846D01*
X152824499Y-86261845D01*
X152686414Y-86221299D01*
X152686410Y-86221299D01*
X152542488Y-86221299D01*
X152542483Y-86221299D01*
X152404398Y-86261845D01*
X152404396Y-86261845D01*
X152404396Y-86261846D01*
X152400008Y-86264666D01*
X152283320Y-86339656D01*
X152189074Y-86448422D01*
X152189073Y-86448424D01*
X152129282Y-86579344D01*
X152108303Y-86725267D01*
X152106910Y-86725066D01*
X152094450Y-86755148D01*
X152059802Y-86769500D01*
X151913032Y-86769500D01*
X151774947Y-86810046D01*
X151653869Y-86887857D01*
X151559623Y-86996623D01*
X151559622Y-86996625D01*
X151499831Y-87127545D01*
X151479351Y-87269997D01*
X148180500Y-87269997D01*
X148180500Y-86752901D01*
X149364054Y-86752901D01*
X149364054Y-86752906D01*
X149384534Y-86895358D01*
X149406043Y-86942454D01*
X149444324Y-87026277D01*
X149444325Y-87026278D01*
X149444326Y-87026280D01*
X149538572Y-87135046D01*
X149538573Y-87135047D01*
X149659648Y-87212857D01*
X149736486Y-87235418D01*
X149797735Y-87253403D01*
X149797738Y-87253403D01*
X149797740Y-87253404D01*
X149797741Y-87253404D01*
X149941661Y-87253404D01*
X149941662Y-87253404D01*
X149941664Y-87253403D01*
X149941666Y-87253403D01*
X149964496Y-87246699D01*
X150079754Y-87212857D01*
X150200829Y-87135047D01*
X150295078Y-87026277D01*
X150354866Y-86895361D01*
X150354866Y-86895359D01*
X150354867Y-86895358D01*
X150375348Y-86752905D01*
X150375348Y-86752904D01*
X150374026Y-86743712D01*
X150383299Y-86707375D01*
X150415551Y-86688237D01*
X150436332Y-86689723D01*
X150473032Y-86700499D01*
X150473035Y-86700499D01*
X150473037Y-86700500D01*
X150473038Y-86700500D01*
X150616958Y-86700500D01*
X150616959Y-86700500D01*
X150616961Y-86700499D01*
X150616963Y-86700499D01*
X150639793Y-86693795D01*
X150755051Y-86659953D01*
X150876126Y-86582143D01*
X150970375Y-86473373D01*
X151030163Y-86342457D01*
X151030163Y-86342455D01*
X151030164Y-86342454D01*
X151050645Y-86200002D01*
X151050645Y-86199997D01*
X151030164Y-86057545D01*
X151024318Y-86044744D01*
X150970375Y-85926627D01*
X150919513Y-85867929D01*
X150876126Y-85817857D01*
X150755051Y-85740047D01*
X150755048Y-85740046D01*
X150616963Y-85699500D01*
X150616959Y-85699500D01*
X150473037Y-85699500D01*
X150473032Y-85699500D01*
X150334947Y-85740046D01*
X150213869Y-85817857D01*
X150119623Y-85926623D01*
X150119622Y-85926625D01*
X150059831Y-86057545D01*
X150039351Y-86199997D01*
X150039351Y-86200003D01*
X150040672Y-86209193D01*
X150031397Y-86245531D01*
X149999143Y-86264666D01*
X149978367Y-86263180D01*
X149941668Y-86252404D01*
X149941662Y-86252404D01*
X149797740Y-86252404D01*
X149797735Y-86252404D01*
X149659650Y-86292950D01*
X149538572Y-86370761D01*
X149444326Y-86479527D01*
X149444325Y-86479529D01*
X149384534Y-86610449D01*
X149364054Y-86752901D01*
X148180500Y-86752901D01*
X148180500Y-82129500D01*
X148194852Y-82094852D01*
X148229500Y-82080500D01*
X149915725Y-82080500D01*
X149950373Y-82094852D01*
G37*
G04 #@! TD.AperFunction*
G04 #@! TA.AperFunction,Conductor*
G36*
X150664148Y-107421508D02*
G01*
X150745148Y-107502508D01*
X150759500Y-107537156D01*
X150759500Y-109907193D01*
X150745148Y-109941841D01*
X150621842Y-110065148D01*
X150587194Y-110079500D01*
X149698713Y-110079500D01*
X149666220Y-110067177D01*
X149600853Y-110009267D01*
X149600852Y-110009266D01*
X149580122Y-109998386D01*
X149556114Y-109969579D01*
X149559507Y-109932229D01*
X149580122Y-109911613D01*
X149600852Y-109900734D01*
X149728183Y-109787929D01*
X149824818Y-109647930D01*
X149830812Y-109632124D01*
X149856517Y-109604817D01*
X149876628Y-109600500D01*
X149944037Y-109600500D01*
X149968928Y-109593829D01*
X150015375Y-109581384D01*
X150017771Y-109580001D01*
X150079330Y-109544460D01*
X150079329Y-109544460D01*
X150079337Y-109544456D01*
X150131562Y-109492231D01*
X150131562Y-109492229D01*
X150135591Y-109488201D01*
X150135595Y-109488196D01*
X150468196Y-109155595D01*
X150468201Y-109155591D01*
X150472229Y-109151562D01*
X150472231Y-109151562D01*
X150524456Y-109099337D01*
X150561384Y-109035375D01*
X150577124Y-108976635D01*
X150580500Y-108964035D01*
X150580500Y-108890177D01*
X150580500Y-107456156D01*
X150594852Y-107421508D01*
X150629500Y-107407156D01*
X150664148Y-107421508D01*
G37*
G04 #@! TD.AperFunction*
G04 #@! TA.AperFunction,Conductor*
G36*
X149493375Y-103272607D02*
G01*
X149507727Y-103307255D01*
X149507727Y-104251744D01*
X149493375Y-104286392D01*
X149135546Y-104644220D01*
X149135541Y-104644226D01*
X149111127Y-104686516D01*
X149111126Y-104686517D01*
X149098616Y-104708183D01*
X149098615Y-104708186D01*
X149081010Y-104773889D01*
X149079500Y-104779524D01*
X149079500Y-105377740D01*
X149065148Y-105412388D01*
X149030500Y-105426740D01*
X148995852Y-105412388D01*
X148891134Y-105307670D01*
X148876782Y-105273022D01*
X148876782Y-103840200D01*
X148891134Y-103805552D01*
X149424079Y-103272607D01*
X149458727Y-103258255D01*
X149493375Y-103272607D01*
G37*
G04 #@! TD.AperFunction*
G04 #@! TA.AperFunction,Conductor*
G36*
X160411721Y-98858850D02*
G01*
X160419500Y-98885341D01*
X160419500Y-101263517D01*
X160405148Y-101298165D01*
X159935546Y-101767766D01*
X159935541Y-101767772D01*
X159919841Y-101794968D01*
X159910761Y-101810696D01*
X159909382Y-101813084D01*
X159898616Y-101831731D01*
X159898614Y-101831735D01*
X159882051Y-101893551D01*
X159879500Y-101903071D01*
X159879500Y-104189425D01*
X159865148Y-104224073D01*
X159684074Y-104405148D01*
X159649426Y-104419500D01*
X158447408Y-104419500D01*
X158412760Y-104405148D01*
X158398408Y-104370500D01*
X158402836Y-104350145D01*
X158445165Y-104257459D01*
X158445165Y-104257457D01*
X158445166Y-104257456D01*
X158465647Y-104115003D01*
X158465647Y-104115000D01*
X158457643Y-104059335D01*
X158455440Y-104044014D01*
X158464714Y-104007678D01*
X158469279Y-104002408D01*
X158644455Y-103827234D01*
X158651892Y-103814354D01*
X158681384Y-103763271D01*
X158693113Y-103719500D01*
X158696806Y-103705715D01*
X158700500Y-103691932D01*
X158700500Y-102316482D01*
X158714852Y-102281834D01*
X159467727Y-101528960D01*
X160224455Y-100772232D01*
X160229321Y-100763805D01*
X160261384Y-100708269D01*
X160263600Y-100700000D01*
X160280500Y-100636929D01*
X160280500Y-100563072D01*
X160280500Y-100214839D01*
X160279641Y-100211635D01*
X160279641Y-100211634D01*
X160279642Y-100211633D01*
X160279639Y-100211628D01*
X160261384Y-100143498D01*
X160261383Y-100143495D01*
X160238860Y-100104485D01*
X160238859Y-100104484D01*
X160234579Y-100097071D01*
X160227359Y-100084564D01*
X160224458Y-100079539D01*
X160224453Y-100079533D01*
X160170525Y-100025605D01*
X160170514Y-100025595D01*
X159775484Y-99630565D01*
X159775482Y-99630562D01*
X159720466Y-99575546D01*
X159720464Y-99575544D01*
X159720461Y-99575542D01*
X159720457Y-99575539D01*
X159663360Y-99542575D01*
X159640530Y-99512823D01*
X159645425Y-99475640D01*
X159674055Y-99453125D01*
X159735532Y-99435074D01*
X159856607Y-99357264D01*
X159950856Y-99248494D01*
X160010644Y-99117578D01*
X160010644Y-99117576D01*
X160010645Y-99117575D01*
X160031076Y-98975468D01*
X160050212Y-98943215D01*
X160079577Y-98933441D01*
X160130021Y-98933441D01*
X160130022Y-98933441D01*
X160130024Y-98933440D01*
X160130026Y-98933440D01*
X160150541Y-98927416D01*
X160268114Y-98892894D01*
X160322692Y-98857819D01*
X160344009Y-98844120D01*
X160380916Y-98837461D01*
X160411721Y-98858850D01*
G37*
G04 #@! TD.AperFunction*
G04 #@! TA.AperFunction,Conductor*
G36*
X149978450Y-100470642D02*
G01*
X149982879Y-100474566D01*
X150780543Y-101272230D01*
X150780544Y-101272231D01*
X150832769Y-101324456D01*
X150874015Y-101348269D01*
X150896728Y-101361383D01*
X150896730Y-101361383D01*
X150896731Y-101361384D01*
X150920511Y-101367756D01*
X150968069Y-101380500D01*
X150968071Y-101380500D01*
X150968072Y-101380500D01*
X151535196Y-101380500D01*
X151569844Y-101394852D01*
X151584196Y-101429500D01*
X151579768Y-101449853D01*
X151574176Y-101462100D01*
X151524832Y-101570144D01*
X151504352Y-101712596D01*
X151504352Y-101712601D01*
X151524832Y-101855053D01*
X151553222Y-101917216D01*
X151554561Y-101954695D01*
X151529006Y-101982144D01*
X151491527Y-101983483D01*
X151474002Y-101972220D01*
X151471206Y-101969424D01*
X151471204Y-101969421D01*
X151416188Y-101914405D01*
X151416187Y-101914404D01*
X151416186Y-101914403D01*
X151416183Y-101914401D01*
X151416179Y-101914398D01*
X151352225Y-101877475D01*
X151280886Y-101858359D01*
X151280884Y-101858359D01*
X151280883Y-101858359D01*
X149598069Y-101858359D01*
X149524212Y-101858359D01*
X149524210Y-101858359D01*
X149452871Y-101877475D01*
X149452869Y-101877475D01*
X149388916Y-101914398D01*
X149388907Y-101914405D01*
X148264148Y-103039165D01*
X148229500Y-103053517D01*
X148194852Y-103039165D01*
X148180500Y-103004517D01*
X148180500Y-101723576D01*
X148194852Y-101688928D01*
X148229500Y-101674576D01*
X148255990Y-101682353D01*
X148339525Y-101736038D01*
X148416363Y-101758599D01*
X148477612Y-101776584D01*
X148477615Y-101776584D01*
X148477617Y-101776585D01*
X148477618Y-101776585D01*
X148621538Y-101776585D01*
X148621539Y-101776585D01*
X148621541Y-101776584D01*
X148621543Y-101776584D01*
X148644373Y-101769880D01*
X148759631Y-101736038D01*
X148880706Y-101658228D01*
X148974955Y-101549458D01*
X149034743Y-101418542D01*
X149034743Y-101418540D01*
X149034744Y-101418539D01*
X149048270Y-101324456D01*
X149051039Y-101305194D01*
X149070175Y-101272943D01*
X149106513Y-101263668D01*
X149111245Y-101264588D01*
X149114944Y-101265500D01*
X149114948Y-101265500D01*
X149285056Y-101265500D01*
X149450225Y-101224790D01*
X149600852Y-101145734D01*
X149728183Y-101032929D01*
X149824818Y-100892930D01*
X149885140Y-100733872D01*
X149905645Y-100565000D01*
X149899588Y-100515119D01*
X149909659Y-100478995D01*
X149942324Y-100460571D01*
X149978450Y-100470642D01*
G37*
G04 #@! TD.AperFunction*
G04 #@! TA.AperFunction,Conductor*
G36*
X150140069Y-94025912D02*
G01*
X150142453Y-94028472D01*
X150193859Y-94087798D01*
X150205836Y-94101620D01*
X150288874Y-94154985D01*
X150295330Y-94159134D01*
X150316719Y-94189940D01*
X150310061Y-94226847D01*
X150282645Y-94247371D01*
X150257983Y-94254612D01*
X150136906Y-94332423D01*
X150042660Y-94441189D01*
X150042659Y-94441191D01*
X149982868Y-94572111D01*
X149962388Y-94714563D01*
X149962388Y-94714568D01*
X149982868Y-94857020D01*
X150007581Y-94911132D01*
X150042658Y-94987939D01*
X150042659Y-94987940D01*
X150042660Y-94987942D01*
X150136906Y-95096708D01*
X150136907Y-95096709D01*
X150185868Y-95128174D01*
X150207257Y-95158980D01*
X150200599Y-95195887D01*
X150196409Y-95201483D01*
X150174626Y-95226622D01*
X150174623Y-95226626D01*
X150114833Y-95357545D01*
X150094353Y-95499997D01*
X150094353Y-95500002D01*
X150114833Y-95642454D01*
X150140727Y-95699152D01*
X150174623Y-95773373D01*
X150174624Y-95773374D01*
X150174625Y-95773376D01*
X150258020Y-95869619D01*
X150268872Y-95882143D01*
X150389947Y-95959953D01*
X150466785Y-95982514D01*
X150528034Y-96000499D01*
X150528037Y-96000499D01*
X150528039Y-96000500D01*
X150528040Y-96000500D01*
X150671960Y-96000500D01*
X150671961Y-96000500D01*
X150671963Y-96000499D01*
X150671965Y-96000499D01*
X150694795Y-95993795D01*
X150810053Y-95959953D01*
X150931128Y-95882143D01*
X151025377Y-95773373D01*
X151085165Y-95642457D01*
X151085165Y-95642455D01*
X151085166Y-95642454D01*
X151105647Y-95500002D01*
X151105647Y-95499997D01*
X151085166Y-95357545D01*
X151063190Y-95309426D01*
X151025377Y-95226627D01*
X150989869Y-95185648D01*
X150931127Y-95117855D01*
X150931125Y-95117853D01*
X150882166Y-95086390D01*
X150860777Y-95055585D01*
X150867436Y-95018678D01*
X150871614Y-95013094D01*
X150893412Y-94987939D01*
X150953200Y-94857023D01*
X150953200Y-94857021D01*
X150953201Y-94857020D01*
X150973682Y-94714567D01*
X150973682Y-94714564D01*
X150967370Y-94670665D01*
X150963475Y-94643578D01*
X150972749Y-94607242D01*
X150977321Y-94601965D01*
X151301420Y-94277868D01*
X151312849Y-94258072D01*
X151314847Y-94254612D01*
X151338347Y-94213908D01*
X151338347Y-94213907D01*
X151338348Y-94213906D01*
X151354136Y-94154985D01*
X151357464Y-94142566D01*
X151357464Y-94122446D01*
X151371816Y-94087798D01*
X151406464Y-94073446D01*
X151441111Y-94087797D01*
X151977769Y-94624456D01*
X151977772Y-94624457D01*
X151977775Y-94624460D01*
X152035748Y-94657930D01*
X152041731Y-94661384D01*
X152074837Y-94670254D01*
X152113069Y-94680500D01*
X152113071Y-94680500D01*
X153136931Y-94680500D01*
X153161822Y-94673829D01*
X153208269Y-94661384D01*
X153214254Y-94657929D01*
X153272224Y-94624460D01*
X153272223Y-94624460D01*
X153272231Y-94624456D01*
X153324456Y-94572231D01*
X153324456Y-94572229D01*
X153328485Y-94568201D01*
X153328488Y-94568196D01*
X153341381Y-94555303D01*
X153376028Y-94540952D01*
X153410676Y-94555304D01*
X153425028Y-94589952D01*
X153420600Y-94610308D01*
X153371625Y-94717545D01*
X153355150Y-94832144D01*
X153336014Y-94864397D01*
X153306649Y-94874171D01*
X153208455Y-94874171D01*
X153070370Y-94914717D01*
X152949292Y-94992528D01*
X152855046Y-95101294D01*
X152855045Y-95101296D01*
X152795254Y-95232216D01*
X152774774Y-95374668D01*
X152774774Y-95374673D01*
X152792787Y-95499965D01*
X152783512Y-95536303D01*
X152758091Y-95553953D01*
X152686509Y-95574971D01*
X152565431Y-95652783D01*
X152471185Y-95761549D01*
X152471184Y-95761551D01*
X152411393Y-95892471D01*
X152390913Y-96034923D01*
X152390913Y-96034928D01*
X152411394Y-96177381D01*
X152411394Y-96177383D01*
X152456867Y-96276953D01*
X152458206Y-96314432D01*
X152432650Y-96341880D01*
X152395171Y-96343219D01*
X152375263Y-96329396D01*
X152364331Y-96316780D01*
X152351134Y-96308299D01*
X152243256Y-96238970D01*
X152243253Y-96238969D01*
X152105168Y-96198423D01*
X152105164Y-96198423D01*
X151961242Y-96198423D01*
X151961237Y-96198423D01*
X151823152Y-96238969D01*
X151823150Y-96238969D01*
X151823150Y-96238970D01*
X151785925Y-96262892D01*
X151702074Y-96316780D01*
X151607828Y-96425546D01*
X151607827Y-96425548D01*
X151548036Y-96556468D01*
X151527556Y-96698920D01*
X151527556Y-96698925D01*
X151548036Y-96841377D01*
X151551140Y-96848173D01*
X151607826Y-96972296D01*
X151607827Y-96972297D01*
X151607828Y-96972299D01*
X151702074Y-97081065D01*
X151702075Y-97081066D01*
X151823150Y-97158876D01*
X151823152Y-97158877D01*
X151862526Y-97170437D01*
X151896584Y-97180437D01*
X151925786Y-97203968D01*
X151931281Y-97234425D01*
X151914202Y-97353218D01*
X151914202Y-97353223D01*
X151934682Y-97495675D01*
X151966784Y-97565967D01*
X151994472Y-97626594D01*
X151994473Y-97626595D01*
X151994474Y-97626597D01*
X152067700Y-97711104D01*
X152088721Y-97735364D01*
X152209796Y-97813174D01*
X152286634Y-97835735D01*
X152347883Y-97853720D01*
X152347886Y-97853720D01*
X152347888Y-97853721D01*
X152347889Y-97853721D01*
X152491809Y-97853721D01*
X152491810Y-97853721D01*
X152491812Y-97853720D01*
X152491814Y-97853720D01*
X152525336Y-97843877D01*
X152629902Y-97813174D01*
X152696194Y-97770571D01*
X152733101Y-97763912D01*
X152763906Y-97785301D01*
X152770565Y-97822208D01*
X152759719Y-97843877D01*
X152755787Y-97848415D01*
X152755783Y-97848421D01*
X152695992Y-97979341D01*
X152675512Y-98121793D01*
X152675512Y-98121798D01*
X152695992Y-98264250D01*
X152705168Y-98284342D01*
X152755782Y-98395169D01*
X152755783Y-98395170D01*
X152755784Y-98395172D01*
X152850030Y-98503938D01*
X152850031Y-98503939D01*
X152971106Y-98581749D01*
X153044268Y-98603231D01*
X153109193Y-98622295D01*
X153109196Y-98622295D01*
X153109198Y-98622296D01*
X153156712Y-98622296D01*
X153191360Y-98636648D01*
X153205213Y-98664323D01*
X153226004Y-98808939D01*
X153248798Y-98858850D01*
X153285794Y-98939858D01*
X153285795Y-98939859D01*
X153285796Y-98939861D01*
X153373855Y-99041487D01*
X153380043Y-99048628D01*
X153501118Y-99126438D01*
X153577956Y-99148999D01*
X153639205Y-99166984D01*
X153639208Y-99166984D01*
X153639210Y-99166985D01*
X153639211Y-99166985D01*
X153745908Y-99166985D01*
X153780556Y-99181337D01*
X153794408Y-99209011D01*
X153807283Y-99298554D01*
X153807283Y-99298556D01*
X153821619Y-99329946D01*
X153867071Y-99429471D01*
X153867072Y-99429472D01*
X153867073Y-99429474D01*
X153961319Y-99538240D01*
X153961320Y-99538241D01*
X154082395Y-99616051D01*
X154131826Y-99630565D01*
X154220482Y-99656597D01*
X154220485Y-99656597D01*
X154220487Y-99656598D01*
X154283963Y-99656598D01*
X154318611Y-99670950D01*
X154332963Y-99705598D01*
X154332464Y-99712572D01*
X154324182Y-99770172D01*
X154324182Y-99770175D01*
X154344662Y-99912628D01*
X154352596Y-99930000D01*
X154404452Y-100043547D01*
X154404453Y-100043548D01*
X154404454Y-100043550D01*
X154498700Y-100152316D01*
X154498701Y-100152317D01*
X154619776Y-100230127D01*
X154696614Y-100252688D01*
X154757863Y-100270673D01*
X154757866Y-100270673D01*
X154757868Y-100270674D01*
X154757869Y-100270674D01*
X154901789Y-100270674D01*
X154901790Y-100270674D01*
X154901792Y-100270673D01*
X154901794Y-100270673D01*
X154924624Y-100263969D01*
X155039882Y-100230127D01*
X155160957Y-100152317D01*
X155255206Y-100043547D01*
X155314994Y-99912631D01*
X155314994Y-99912629D01*
X155314995Y-99912628D01*
X155335476Y-99770176D01*
X155335476Y-99770171D01*
X155314995Y-99627719D01*
X155301391Y-99597931D01*
X155255206Y-99496801D01*
X155255171Y-99496761D01*
X155160957Y-99388031D01*
X155133667Y-99370493D01*
X155039882Y-99310221D01*
X155039879Y-99310220D01*
X154901794Y-99269674D01*
X154901790Y-99269674D01*
X154838314Y-99269674D01*
X154803666Y-99255322D01*
X154789314Y-99220674D01*
X154789813Y-99213700D01*
X154798095Y-99156099D01*
X154798095Y-99156096D01*
X154777614Y-99013643D01*
X154756344Y-98967070D01*
X154717825Y-98882725D01*
X154699332Y-98861383D01*
X154623576Y-98773955D01*
X154614484Y-98768112D01*
X154502501Y-98696145D01*
X154502498Y-98696144D01*
X154364413Y-98655598D01*
X154364409Y-98655598D01*
X154257711Y-98655598D01*
X154223063Y-98641246D01*
X154209210Y-98613571D01*
X154196337Y-98524030D01*
X154191922Y-98514364D01*
X154136548Y-98393112D01*
X154129174Y-98384602D01*
X154042299Y-98284342D01*
X154035124Y-98279731D01*
X153921224Y-98206532D01*
X153921221Y-98206531D01*
X153783136Y-98165985D01*
X153783132Y-98165985D01*
X153735618Y-98165985D01*
X153700970Y-98151633D01*
X153687117Y-98123958D01*
X153666325Y-97979341D01*
X153639833Y-97921333D01*
X153606536Y-97848423D01*
X153606529Y-97848415D01*
X153512287Y-97739653D01*
X153505612Y-97735363D01*
X153391212Y-97661843D01*
X153391209Y-97661842D01*
X153253124Y-97621296D01*
X153253120Y-97621296D01*
X153109198Y-97621296D01*
X153109193Y-97621296D01*
X152971107Y-97661842D01*
X152904813Y-97704446D01*
X152867906Y-97711104D01*
X152837100Y-97689715D01*
X152830442Y-97652808D01*
X152841290Y-97631135D01*
X152845226Y-97626594D01*
X152905014Y-97495678D01*
X152905014Y-97495676D01*
X152905015Y-97495675D01*
X152925496Y-97353223D01*
X152925496Y-97353218D01*
X152905015Y-97210766D01*
X152882026Y-97160428D01*
X152845226Y-97079848D01*
X152815431Y-97045463D01*
X152750977Y-96971078D01*
X152683591Y-96927772D01*
X152629902Y-96893268D01*
X152608746Y-96887056D01*
X152556466Y-96871705D01*
X152527265Y-96848173D01*
X152521770Y-96817716D01*
X152526405Y-96785484D01*
X152538850Y-96698923D01*
X152538850Y-96698920D01*
X152518369Y-96556468D01*
X152494823Y-96504911D01*
X152472894Y-96456895D01*
X152471556Y-96419417D01*
X152497111Y-96391968D01*
X152534590Y-96390629D01*
X152554499Y-96404452D01*
X152565432Y-96417069D01*
X152686507Y-96494879D01*
X152763345Y-96517440D01*
X152824594Y-96535425D01*
X152824597Y-96535425D01*
X152824599Y-96535426D01*
X152824600Y-96535426D01*
X152959056Y-96535426D01*
X152993703Y-96549777D01*
X155268381Y-98824456D01*
X155268384Y-98824457D01*
X155268387Y-98824460D01*
X155302440Y-98844120D01*
X155332343Y-98861384D01*
X155365449Y-98870254D01*
X155403681Y-98880500D01*
X155403683Y-98880500D01*
X155403684Y-98880500D01*
X156364921Y-98880500D01*
X156399569Y-98894852D01*
X156413921Y-98929500D01*
X156409493Y-98949856D01*
X156378579Y-99017545D01*
X156358099Y-99159997D01*
X156358099Y-99160002D01*
X156378579Y-99302454D01*
X156391135Y-99329946D01*
X156436588Y-99429474D01*
X156439196Y-99435183D01*
X156440535Y-99472662D01*
X156414980Y-99500111D01*
X156377501Y-99501450D01*
X156368133Y-99496761D01*
X156298250Y-99451850D01*
X156298247Y-99451849D01*
X156160162Y-99411303D01*
X156160158Y-99411303D01*
X156016236Y-99411303D01*
X156016231Y-99411303D01*
X155878146Y-99451849D01*
X155878144Y-99451849D01*
X155878144Y-99451850D01*
X155859434Y-99463874D01*
X155757068Y-99529660D01*
X155662822Y-99638426D01*
X155662821Y-99638428D01*
X155603030Y-99769348D01*
X155582550Y-99911800D01*
X155582550Y-99911805D01*
X155603030Y-100054257D01*
X155625666Y-100103822D01*
X155662820Y-100185176D01*
X155662821Y-100185177D01*
X155662822Y-100185179D01*
X155757067Y-100293944D01*
X155757069Y-100293946D01*
X155785188Y-100312017D01*
X155806577Y-100342822D01*
X155807697Y-100353238D01*
X155807697Y-100591687D01*
X155793345Y-100626335D01*
X155758697Y-100640687D01*
X155724049Y-100626335D01*
X155721665Y-100623775D01*
X155718397Y-100620004D01*
X155597322Y-100542194D01*
X155597319Y-100542193D01*
X155459234Y-100501647D01*
X155459230Y-100501647D01*
X155315308Y-100501647D01*
X155315303Y-100501647D01*
X155177218Y-100542193D01*
X155177216Y-100542193D01*
X155177216Y-100542194D01*
X155144729Y-100563072D01*
X155056140Y-100620004D01*
X154961894Y-100728770D01*
X154961893Y-100728772D01*
X154902102Y-100859692D01*
X154881622Y-101002144D01*
X154881622Y-101002149D01*
X154902102Y-101144601D01*
X154927992Y-101201291D01*
X154961892Y-101275520D01*
X154961893Y-101275521D01*
X154961894Y-101275523D01*
X155048587Y-101375572D01*
X155056141Y-101384290D01*
X155177216Y-101462100D01*
X155254054Y-101484661D01*
X155315303Y-101502646D01*
X155315306Y-101502646D01*
X155315308Y-101502647D01*
X155315309Y-101502647D01*
X155459229Y-101502647D01*
X155459230Y-101502647D01*
X155459232Y-101502646D01*
X155459234Y-101502646D01*
X155482064Y-101495942D01*
X155597322Y-101462100D01*
X155718397Y-101384290D01*
X155721663Y-101380521D01*
X155755198Y-101363731D01*
X155790782Y-101375572D01*
X155807572Y-101409107D01*
X155807697Y-101412606D01*
X155807697Y-101774672D01*
X155793345Y-101809320D01*
X155037518Y-102565148D01*
X155002870Y-102579500D01*
X154877353Y-102579500D01*
X154842705Y-102565148D01*
X154828353Y-102530500D01*
X154832781Y-102510144D01*
X154843403Y-102486885D01*
X154857489Y-102456042D01*
X154857489Y-102456040D01*
X154857490Y-102456039D01*
X154877971Y-102313587D01*
X154877971Y-102313582D01*
X154857490Y-102171130D01*
X154822604Y-102094742D01*
X154797701Y-102040212D01*
X154794591Y-102036623D01*
X154703452Y-101931442D01*
X154582377Y-101853632D01*
X154574241Y-101851243D01*
X154444289Y-101813085D01*
X154444285Y-101813085D01*
X154300363Y-101813085D01*
X154300356Y-101813085D01*
X154220823Y-101836438D01*
X154183535Y-101832429D01*
X154162447Y-101809778D01*
X154155683Y-101794968D01*
X154115089Y-101706079D01*
X154115088Y-101706078D01*
X154113933Y-101703548D01*
X154112594Y-101666069D01*
X154132015Y-101641971D01*
X154171401Y-101616660D01*
X154171402Y-101616659D01*
X154265651Y-101507889D01*
X154325439Y-101376973D01*
X154325439Y-101376971D01*
X154325440Y-101376970D01*
X154345921Y-101234518D01*
X154345921Y-101234513D01*
X154325440Y-101092061D01*
X154310681Y-101059744D01*
X154265651Y-100961143D01*
X154252629Y-100946115D01*
X154171402Y-100852373D01*
X154050327Y-100774563D01*
X154050324Y-100774562D01*
X153912239Y-100734016D01*
X153912235Y-100734016D01*
X153852996Y-100734016D01*
X153818348Y-100719664D01*
X153804495Y-100691989D01*
X153785166Y-100557545D01*
X153771695Y-100528049D01*
X153725377Y-100426627D01*
X153719201Y-100419500D01*
X153631128Y-100317857D01*
X153622039Y-100312016D01*
X153510053Y-100240047D01*
X153510050Y-100240046D01*
X153371965Y-100199500D01*
X153371961Y-100199500D01*
X153228039Y-100199500D01*
X153228034Y-100199500D01*
X153089949Y-100240046D01*
X152968871Y-100317857D01*
X152895453Y-100402588D01*
X152861917Y-100419375D01*
X152858421Y-100419500D01*
X152465224Y-100419500D01*
X152430576Y-100405148D01*
X152416224Y-100370500D01*
X152430576Y-100335852D01*
X152451419Y-100323485D01*
X152494730Y-100310767D01*
X152564099Y-100290399D01*
X152685174Y-100212589D01*
X152779423Y-100103819D01*
X152839211Y-99972903D01*
X152839211Y-99972901D01*
X152839212Y-99972900D01*
X152859693Y-99830448D01*
X152859693Y-99830443D01*
X152839212Y-99687991D01*
X152834797Y-99678325D01*
X152779423Y-99557073D01*
X152766486Y-99542143D01*
X152685174Y-99448303D01*
X152655872Y-99429472D01*
X152564099Y-99370493D01*
X152564096Y-99370492D01*
X152426011Y-99329946D01*
X152426007Y-99329946D01*
X152424840Y-99329946D01*
X152424220Y-99329689D01*
X152422541Y-99329448D01*
X152422602Y-99329019D01*
X152390192Y-99315594D01*
X152375840Y-99280946D01*
X152376339Y-99273972D01*
X152381229Y-99239963D01*
X152381229Y-99239960D01*
X152360748Y-99097507D01*
X152335163Y-99041485D01*
X152300959Y-98966589D01*
X152280705Y-98943215D01*
X152206710Y-98857819D01*
X152167571Y-98832666D01*
X152085635Y-98780009D01*
X152085632Y-98780008D01*
X151947547Y-98739462D01*
X151947543Y-98739462D01*
X151803621Y-98739462D01*
X151803616Y-98739462D01*
X151665528Y-98780008D01*
X151641382Y-98795526D01*
X151604475Y-98802184D01*
X151573670Y-98780794D01*
X151570320Y-98774660D01*
X151569998Y-98773955D01*
X151567330Y-98768112D01*
X151473081Y-98659342D01*
X151352006Y-98581532D01*
X151349302Y-98580738D01*
X151213918Y-98540985D01*
X151213914Y-98540985D01*
X151069992Y-98540985D01*
X151069987Y-98540985D01*
X150931902Y-98581531D01*
X150931900Y-98581531D01*
X150931900Y-98581532D01*
X150916215Y-98591612D01*
X150810824Y-98659342D01*
X150716578Y-98768108D01*
X150716577Y-98768110D01*
X150656786Y-98899030D01*
X150636306Y-99041482D01*
X150636306Y-99041487D01*
X150656786Y-99183939D01*
X150668237Y-99209012D01*
X150716576Y-99314858D01*
X150716577Y-99314859D01*
X150716578Y-99314861D01*
X150810824Y-99423627D01*
X150810825Y-99423628D01*
X150931900Y-99501438D01*
X151008738Y-99523999D01*
X151069987Y-99541984D01*
X151069990Y-99541984D01*
X151069992Y-99541985D01*
X151069993Y-99541985D01*
X151213913Y-99541985D01*
X151213914Y-99541985D01*
X151213916Y-99541984D01*
X151213918Y-99541984D01*
X151265390Y-99526870D01*
X151352006Y-99501438D01*
X151376151Y-99485920D01*
X151413056Y-99479260D01*
X151443862Y-99500648D01*
X151447214Y-99506785D01*
X151450205Y-99513336D01*
X151450207Y-99513338D01*
X151523506Y-99597930D01*
X151544454Y-99622105D01*
X151665529Y-99699915D01*
X151742367Y-99722476D01*
X151803616Y-99740461D01*
X151803619Y-99740461D01*
X151803621Y-99740462D01*
X151804788Y-99740462D01*
X151805407Y-99740718D01*
X151807087Y-99740960D01*
X151807025Y-99741388D01*
X151839436Y-99754814D01*
X151853788Y-99789462D01*
X151853289Y-99796436D01*
X151848399Y-99830444D01*
X151848399Y-99830447D01*
X151868879Y-99972900D01*
X151896463Y-100033299D01*
X151928669Y-100103819D01*
X151928670Y-100103820D01*
X151928671Y-100103822D01*
X152022090Y-100211634D01*
X152022918Y-100212589D01*
X152143993Y-100290399D01*
X152202178Y-100307483D01*
X152256673Y-100323485D01*
X152285874Y-100347017D01*
X152289883Y-100384305D01*
X152266351Y-100413506D01*
X152242868Y-100419500D01*
X151194031Y-100419500D01*
X151159383Y-100405148D01*
X150234852Y-99480617D01*
X150220500Y-99445969D01*
X150220500Y-98728072D01*
X150213446Y-98701748D01*
X150213446Y-98701747D01*
X150201384Y-98656731D01*
X150201383Y-98656728D01*
X150174525Y-98610210D01*
X150174524Y-98610208D01*
X150164460Y-98592775D01*
X150164457Y-98592772D01*
X150164456Y-98592769D01*
X150112231Y-98540544D01*
X150110525Y-98538838D01*
X150110514Y-98538828D01*
X149914852Y-98343166D01*
X149900500Y-98308518D01*
X149900500Y-97505255D01*
X149900500Y-97505252D01*
X149888867Y-97446769D01*
X149855671Y-97397088D01*
X149844552Y-97380447D01*
X149803800Y-97353218D01*
X149778231Y-97336133D01*
X149719748Y-97324500D01*
X148680252Y-97324500D01*
X148621769Y-97336133D01*
X148555447Y-97380447D01*
X148517237Y-97437634D01*
X148511133Y-97446769D01*
X148499500Y-97505252D01*
X148499500Y-98544748D01*
X148511133Y-98603231D01*
X148523872Y-98622296D01*
X148555447Y-98669552D01*
X148599762Y-98699162D01*
X148621769Y-98713867D01*
X148670155Y-98723491D01*
X148701336Y-98744325D01*
X148708653Y-98781108D01*
X148693088Y-98808226D01*
X148671816Y-98827071D01*
X148575182Y-98967068D01*
X148575181Y-98967070D01*
X148514861Y-99126125D01*
X148514860Y-99126128D01*
X148494355Y-99295000D01*
X148514860Y-99463872D01*
X148528807Y-99500648D01*
X148575181Y-99622929D01*
X148575182Y-99622931D01*
X148667567Y-99756772D01*
X148671817Y-99762929D01*
X148799148Y-99875734D01*
X148799156Y-99875738D01*
X148819875Y-99886613D01*
X148843885Y-99915423D01*
X148840490Y-99952772D01*
X148819875Y-99973387D01*
X148799156Y-99984261D01*
X148799151Y-99984264D01*
X148799148Y-99984266D01*
X148799146Y-99984268D01*
X148671816Y-100097071D01*
X148575182Y-100237068D01*
X148575181Y-100237070D01*
X148526652Y-100365034D01*
X148514860Y-100396128D01*
X148499483Y-100522766D01*
X148494355Y-100565000D01*
X148513463Y-100722367D01*
X148503392Y-100758492D01*
X148478625Y-100775288D01*
X148339526Y-100816131D01*
X148255991Y-100869815D01*
X148219084Y-100876473D01*
X148188278Y-100855084D01*
X148180500Y-100828593D01*
X148180500Y-95060483D01*
X148194852Y-95025835D01*
X148229500Y-95011483D01*
X148264148Y-95025835D01*
X148290559Y-95052246D01*
X148290565Y-95052251D01*
X148525338Y-95287024D01*
X148539690Y-95321672D01*
X148536506Y-95339046D01*
X148514863Y-95396117D01*
X148514860Y-95396127D01*
X148502247Y-95500002D01*
X148494355Y-95565000D01*
X148514860Y-95733872D01*
X148514861Y-95733874D01*
X148575181Y-95892929D01*
X148575182Y-95892931D01*
X148671816Y-96032928D01*
X148671817Y-96032929D01*
X148799148Y-96145734D01*
X148949775Y-96224790D01*
X149114944Y-96265500D01*
X149285056Y-96265500D01*
X149450225Y-96224790D01*
X149600852Y-96145734D01*
X149728183Y-96032929D01*
X149824818Y-95892930D01*
X149885140Y-95733872D01*
X149905645Y-95565000D01*
X149885140Y-95396128D01*
X149824818Y-95237070D01*
X149817608Y-95226625D01*
X149728183Y-95097071D01*
X149709198Y-95080252D01*
X149600852Y-94984266D01*
X149580122Y-94973386D01*
X149556114Y-94944579D01*
X149559507Y-94907229D01*
X149580122Y-94886613D01*
X149600852Y-94875734D01*
X149728183Y-94762929D01*
X149824818Y-94622930D01*
X149885140Y-94463872D01*
X149905645Y-94295000D01*
X149897263Y-94225978D01*
X149907333Y-94189855D01*
X149911249Y-94185435D01*
X150070774Y-94025911D01*
X150105421Y-94011560D01*
X150140069Y-94025912D01*
G37*
G04 #@! TD.AperFunction*
G04 #@! TA.AperFunction,Conductor*
G36*
X156026819Y-94220481D02*
G01*
X156026888Y-94220001D01*
X156030360Y-94220500D01*
X156098607Y-94220500D01*
X156133255Y-94234852D01*
X156147108Y-94262527D01*
X156167225Y-94402454D01*
X156199327Y-94472746D01*
X156227015Y-94533373D01*
X156227016Y-94533374D01*
X156227017Y-94533376D01*
X156305938Y-94624456D01*
X156321264Y-94642143D01*
X156442339Y-94719953D01*
X156519177Y-94742514D01*
X156580426Y-94760499D01*
X156580429Y-94760499D01*
X156580431Y-94760500D01*
X156666299Y-94760500D01*
X156700947Y-94774852D01*
X156715299Y-94809500D01*
X156714800Y-94816474D01*
X156713342Y-94826613D01*
X156713342Y-94826616D01*
X156733822Y-94969069D01*
X156757890Y-95021769D01*
X156793612Y-95099988D01*
X156793613Y-95099989D01*
X156793614Y-95099991D01*
X156844728Y-95158980D01*
X156887861Y-95208758D01*
X157008936Y-95286568D01*
X157085774Y-95309129D01*
X157147023Y-95327114D01*
X157147026Y-95327114D01*
X157147028Y-95327115D01*
X157226426Y-95327115D01*
X157261074Y-95341467D01*
X157275426Y-95376115D01*
X157274927Y-95383088D01*
X157268790Y-95425776D01*
X157268790Y-95425780D01*
X157289270Y-95568232D01*
X157305189Y-95603089D01*
X157349060Y-95699151D01*
X157349061Y-95699152D01*
X157349062Y-95699154D01*
X157443308Y-95807920D01*
X157443309Y-95807921D01*
X157564384Y-95885731D01*
X157614680Y-95900499D01*
X157702471Y-95926277D01*
X157702474Y-95926277D01*
X157702476Y-95926278D01*
X157702477Y-95926278D01*
X157846397Y-95926278D01*
X157846398Y-95926278D01*
X157846400Y-95926277D01*
X157846402Y-95926277D01*
X157869232Y-95919573D01*
X157984490Y-95885731D01*
X158105565Y-95807921D01*
X158178984Y-95723190D01*
X158212520Y-95706403D01*
X158216016Y-95706278D01*
X158737293Y-95706278D01*
X158811151Y-95706278D01*
X158889296Y-95706278D01*
X158923944Y-95720630D01*
X160405148Y-97201834D01*
X160419500Y-97236482D01*
X160419500Y-97980540D01*
X160405148Y-98015188D01*
X160370500Y-98029540D01*
X160344009Y-98021762D01*
X160268112Y-97972987D01*
X160130026Y-97932441D01*
X160130022Y-97932441D01*
X159986100Y-97932441D01*
X159986095Y-97932441D01*
X159848010Y-97972987D01*
X159726932Y-98050798D01*
X159632686Y-98159564D01*
X159632685Y-98159566D01*
X159572894Y-98290486D01*
X159552464Y-98432594D01*
X159533328Y-98464847D01*
X159503963Y-98474621D01*
X159453513Y-98474621D01*
X159315428Y-98515167D01*
X159315426Y-98515167D01*
X159315426Y-98515168D01*
X159278610Y-98538828D01*
X159194350Y-98592978D01*
X159100104Y-98701744D01*
X159100103Y-98701746D01*
X159040312Y-98832666D01*
X159019832Y-98975118D01*
X159019832Y-98975123D01*
X159040312Y-99117575D01*
X159069432Y-99181337D01*
X159100102Y-99248494D01*
X159100103Y-99248495D01*
X159100104Y-99248497D01*
X159153587Y-99310220D01*
X159194351Y-99357264D01*
X159306408Y-99429278D01*
X159327797Y-99460084D01*
X159321139Y-99496991D01*
X159290333Y-99518380D01*
X159279917Y-99519500D01*
X158856453Y-99519500D01*
X158821805Y-99505148D01*
X157701259Y-98384602D01*
X157686907Y-98349954D01*
X157701259Y-98315306D01*
X157735907Y-98300954D01*
X157762397Y-98308731D01*
X157838346Y-98357541D01*
X157915184Y-98380102D01*
X157976433Y-98398087D01*
X157976436Y-98398087D01*
X157976438Y-98398088D01*
X157976439Y-98398088D01*
X158120359Y-98398088D01*
X158120360Y-98398088D01*
X158120362Y-98398087D01*
X158120364Y-98398087D01*
X158143194Y-98391383D01*
X158258452Y-98357541D01*
X158379527Y-98279731D01*
X158473776Y-98170961D01*
X158533564Y-98040045D01*
X158533564Y-98040043D01*
X158533565Y-98040042D01*
X158543616Y-97970133D01*
X158562752Y-97937880D01*
X158592117Y-97928106D01*
X158717620Y-97928106D01*
X158717621Y-97928106D01*
X158717623Y-97928105D01*
X158717625Y-97928105D01*
X158740688Y-97921333D01*
X158855713Y-97887559D01*
X158976788Y-97809749D01*
X159071037Y-97700979D01*
X159130825Y-97570063D01*
X159130825Y-97570061D01*
X159130826Y-97570060D01*
X159151023Y-97429581D01*
X159170159Y-97397328D01*
X159199524Y-97387554D01*
X159258819Y-97387554D01*
X159258820Y-97387554D01*
X159258822Y-97387553D01*
X159258824Y-97387553D01*
X159283024Y-97380447D01*
X159396912Y-97347007D01*
X159517987Y-97269197D01*
X159612236Y-97160427D01*
X159672024Y-97029511D01*
X159672024Y-97029509D01*
X159672025Y-97029508D01*
X159692506Y-96887056D01*
X159692506Y-96887051D01*
X159672025Y-96744599D01*
X159651166Y-96698925D01*
X159612236Y-96613681D01*
X159579866Y-96576324D01*
X159517987Y-96504911D01*
X159502377Y-96494879D01*
X159396912Y-96427101D01*
X159391623Y-96425548D01*
X159258824Y-96386554D01*
X159258820Y-96386554D01*
X159114898Y-96386554D01*
X159114893Y-96386554D01*
X158976808Y-96427100D01*
X158855730Y-96504911D01*
X158761484Y-96613677D01*
X158761483Y-96613679D01*
X158701692Y-96744599D01*
X158681496Y-96885079D01*
X158662360Y-96917332D01*
X158632995Y-96927106D01*
X158573694Y-96927106D01*
X158435609Y-96967652D01*
X158435607Y-96967652D01*
X158435607Y-96967653D01*
X158428381Y-96972297D01*
X158314531Y-97045463D01*
X158220285Y-97154229D01*
X158220284Y-97154231D01*
X158167781Y-97269196D01*
X158160495Y-97285149D01*
X158150442Y-97355063D01*
X158131306Y-97387315D01*
X158101942Y-97397088D01*
X157976433Y-97397088D01*
X157838348Y-97437634D01*
X157717270Y-97515445D01*
X157623024Y-97624211D01*
X157623023Y-97624213D01*
X157563232Y-97755133D01*
X157542752Y-97897585D01*
X157542752Y-97897590D01*
X157563232Y-98040042D01*
X157624014Y-98173133D01*
X157625353Y-98210613D01*
X157599798Y-98238061D01*
X157562318Y-98239400D01*
X157544794Y-98228137D01*
X155828075Y-96511418D01*
X155813723Y-96476770D01*
X155813723Y-94425579D01*
X155828074Y-94390932D01*
X155985178Y-94233827D01*
X156019826Y-94219476D01*
X156026819Y-94220481D01*
G37*
G04 #@! TD.AperFunction*
G04 #@! TA.AperFunction,Conductor*
G36*
X155245368Y-94219240D02*
G01*
X155252022Y-94248958D01*
X155252723Y-94248958D01*
X155252723Y-94252090D01*
X155252729Y-94252117D01*
X155252723Y-94252162D01*
X155252723Y-96650183D01*
X155271839Y-96721522D01*
X155271839Y-96721524D01*
X155308762Y-96785477D01*
X155308769Y-96785486D01*
X155363782Y-96840499D01*
X155363788Y-96840504D01*
X156759136Y-98235852D01*
X156773488Y-98270500D01*
X156759136Y-98305148D01*
X156724488Y-98319500D01*
X155577095Y-98319500D01*
X155542447Y-98305148D01*
X154473781Y-97236482D01*
X153403209Y-96165911D01*
X153388858Y-96131264D01*
X153389356Y-96124302D01*
X153402207Y-96034926D01*
X153384192Y-95909629D01*
X153393466Y-95873293D01*
X153418887Y-95855643D01*
X153490474Y-95834624D01*
X153611549Y-95756814D01*
X153705798Y-95648044D01*
X153765586Y-95517128D01*
X153765586Y-95517126D01*
X153765587Y-95517125D01*
X153782063Y-95402527D01*
X153801199Y-95370274D01*
X153830564Y-95360500D01*
X153928752Y-95360500D01*
X153928753Y-95360500D01*
X153928755Y-95360499D01*
X153928757Y-95360499D01*
X153951587Y-95353795D01*
X154066845Y-95319953D01*
X154187920Y-95242143D01*
X154282169Y-95133373D01*
X154341957Y-95002457D01*
X154341957Y-95002455D01*
X154341958Y-95002454D01*
X154362439Y-94860002D01*
X154362439Y-94859997D01*
X154360282Y-94844995D01*
X154369557Y-94808657D01*
X154401810Y-94789521D01*
X154408783Y-94789022D01*
X154431894Y-94789022D01*
X154431895Y-94789022D01*
X154431897Y-94789021D01*
X154431899Y-94789021D01*
X154454729Y-94782317D01*
X154569987Y-94748475D01*
X154691062Y-94670665D01*
X154785311Y-94561895D01*
X154845099Y-94430979D01*
X154845099Y-94430977D01*
X154845100Y-94430976D01*
X154862483Y-94310072D01*
X154881619Y-94277819D01*
X154910984Y-94268045D01*
X155003795Y-94268045D01*
X155003796Y-94268045D01*
X155003798Y-94268044D01*
X155003800Y-94268044D01*
X155037761Y-94258072D01*
X155141888Y-94227498D01*
X155177657Y-94204510D01*
X155214562Y-94197852D01*
X155245368Y-94219240D01*
G37*
G04 #@! TD.AperFunction*
G04 #@! TA.AperFunction,Conductor*
G36*
X150245148Y-89807158D02*
G01*
X150259500Y-89841806D01*
X150259500Y-90437193D01*
X150245148Y-90471841D01*
X149384148Y-91332841D01*
X149349500Y-91347193D01*
X149314852Y-91332841D01*
X149300500Y-91298193D01*
X149300500Y-90702806D01*
X149314852Y-90668158D01*
X150175852Y-89807158D01*
X150210500Y-89792806D01*
X150245148Y-89807158D01*
G37*
G04 #@! TD.AperFunction*
G04 #@! TA.AperFunction,Conductor*
G36*
X151915455Y-89967223D02*
G01*
X152018746Y-90070514D01*
X152018751Y-90070520D01*
X152020462Y-90072231D01*
X152072687Y-90124456D01*
X152123934Y-90154043D01*
X152136649Y-90161384D01*
X152160429Y-90167756D01*
X152207987Y-90180500D01*
X152207989Y-90180500D01*
X152207990Y-90180500D01*
X152299421Y-90180500D01*
X152334069Y-90194852D01*
X152348421Y-90229500D01*
X152334069Y-90264148D01*
X152253070Y-90345148D01*
X152218422Y-90359500D01*
X152086987Y-90359500D01*
X152034604Y-90373537D01*
X152034603Y-90373537D01*
X152015653Y-90378614D01*
X152015649Y-90378616D01*
X151951690Y-90415541D01*
X151951684Y-90415546D01*
X151901364Y-90465867D01*
X151866716Y-90480219D01*
X151402350Y-90480219D01*
X151352904Y-90493469D01*
X151352903Y-90493469D01*
X151331016Y-90499333D01*
X151331012Y-90499335D01*
X151267053Y-90536260D01*
X151267047Y-90536265D01*
X151237874Y-90565439D01*
X151203226Y-90579791D01*
X151168578Y-90565439D01*
X151154226Y-90530791D01*
X151154226Y-90462756D01*
X151168578Y-90428108D01*
X151629464Y-89967223D01*
X151664112Y-89952871D01*
X151880807Y-89952871D01*
X151915455Y-89967223D01*
G37*
G04 #@! TD.AperFunction*
G04 #@! TD*
M02*
