%TF.GenerationSoftware,KiCad,Pcbnew,8.0.7-8.0.7-0~ubuntu24.04.1*%
%TF.CreationDate,2024-12-29T20:55:18-07:00*%
%TF.ProjectId,ESP32-S3 Hub,45535033-322d-4533-9320-4875622e6b69,V1*%
%TF.SameCoordinates,Original*%
%TF.FileFunction,Drillmap*%
%TF.FilePolarity,Positive*%
%FSLAX45Y45*%
G04 Gerber Fmt 4.5, Leading zero omitted, Abs format (unit mm)*
G04 Created by KiCad (PCBNEW 8.0.7-8.0.7-0~ubuntu24.04.1) date 2024-12-29 20:55:18*
%MOMM*%
%LPD*%
G01*
G04 APERTURE LIST*
%ADD10C,0.050000*%
%ADD11C,0.200000*%
%ADD12C,0.100000*%
G04 APERTURE END LIST*
D10*
X14790000Y-8180000D02*
X16290000Y-8180000D01*
X16290000Y-11180000D01*
X14790000Y-11180000D01*
X14790000Y-8180000D01*
D11*
D12*
X14833000Y-9111245D02*
X14863000Y-9141245D01*
X14863000Y-9111245D02*
X14833000Y-9141245D01*
X14833000Y-9685000D02*
X14863000Y-9715000D01*
X14863000Y-9685000D02*
X14833000Y-9715000D01*
X14833000Y-10218172D02*
X14863000Y-10248172D01*
X14863000Y-10218172D02*
X14833000Y-10248172D01*
X14839958Y-10112609D02*
X14869958Y-10142609D01*
X14869958Y-10112609D02*
X14839958Y-10142609D01*
X14898628Y-10398239D02*
X14928628Y-10428239D01*
X14928628Y-10398239D02*
X14898628Y-10428239D01*
X14923000Y-8756813D02*
X14953000Y-8786813D01*
X14953000Y-8756813D02*
X14923000Y-8786813D01*
X14971970Y-8660290D02*
X15001970Y-8690290D01*
X15001970Y-8660290D02*
X14971970Y-8690290D01*
X14975000Y-10534700D02*
X15005000Y-10564700D01*
X15005000Y-10534700D02*
X14975000Y-10564700D01*
X14985000Y-9020000D02*
X15015000Y-9050000D01*
X15015000Y-9020000D02*
X14985000Y-9050000D01*
X15005000Y-8245000D02*
X15035000Y-8275000D01*
X15035000Y-8245000D02*
X15005000Y-8275000D01*
X15005000Y-8363523D02*
X15035000Y-8393524D01*
X15035000Y-8363523D02*
X15005000Y-8393524D01*
X15006628Y-10461217D02*
X15036628Y-10491217D01*
X15036628Y-10461217D02*
X15006628Y-10491217D01*
X15015000Y-8465000D02*
X15045000Y-8495000D01*
X15045000Y-8465000D02*
X15015000Y-8495000D01*
X15017823Y-10386046D02*
X15047823Y-10416046D01*
X15047823Y-10386046D02*
X15017823Y-10416046D01*
X15031803Y-9456457D02*
X15061803Y-9486457D01*
X15061803Y-9456457D02*
X15031803Y-9486457D01*
X15035000Y-10955000D02*
X15065000Y-10985000D01*
X15065000Y-10955000D02*
X15035000Y-10985000D01*
X15035000Y-11075000D02*
X15065000Y-11105000D01*
X15065000Y-11075000D02*
X15035000Y-11105000D01*
X15038696Y-9356948D02*
X15068696Y-9386948D01*
X15068696Y-9356948D02*
X15038696Y-9386948D01*
X15039500Y-8605000D02*
X15069500Y-8635000D01*
X15069500Y-8605000D02*
X15039500Y-8635000D01*
X15045000Y-9535000D02*
X15075000Y-9565000D01*
X15075000Y-9535000D02*
X15045000Y-9565000D01*
X15049334Y-10316886D02*
X15079334Y-10346886D01*
X15079334Y-10316886D02*
X15049334Y-10346886D01*
X15099195Y-9889149D02*
X15129195Y-9919149D01*
X15129195Y-9889149D02*
X15099195Y-9919149D01*
X15114467Y-9964000D02*
X15144467Y-9994000D01*
X15144467Y-9964000D02*
X15114467Y-9994000D01*
X15164361Y-9006237D02*
X15194361Y-9036237D01*
X15194361Y-9006237D02*
X15164361Y-9036237D01*
X15172558Y-9908996D02*
X15202558Y-9938996D01*
X15202558Y-9908996D02*
X15172558Y-9938996D01*
X15178235Y-10602000D02*
X15208235Y-10632000D01*
X15208235Y-10602000D02*
X15178235Y-10632000D01*
X15183500Y-8712000D02*
X15213500Y-8742000D01*
X15213500Y-8712000D02*
X15183500Y-8742000D01*
X15185000Y-11095000D02*
X15215000Y-11125000D01*
X15215000Y-11095000D02*
X15185000Y-11125000D01*
X15186000Y-10156260D02*
X15216000Y-10186260D01*
X15216000Y-10156260D02*
X15186000Y-10186260D01*
X15188320Y-9654892D02*
X15218320Y-9684892D01*
X15218320Y-9654892D02*
X15188320Y-9684892D01*
X15196637Y-9188355D02*
X15226637Y-9218355D01*
X15226637Y-9188355D02*
X15196637Y-9218355D01*
X15219396Y-9260868D02*
X15249396Y-9290868D01*
X15249396Y-9260868D02*
X15219396Y-9290868D01*
X15219396Y-9336868D02*
X15249396Y-9366868D01*
X15249396Y-9336868D02*
X15219396Y-9366868D01*
X15220405Y-9968045D02*
X15250405Y-9998045D01*
X15250405Y-9968045D02*
X15220405Y-9998045D01*
X15221553Y-10664447D02*
X15251553Y-10694447D01*
X15251553Y-10664447D02*
X15221553Y-10694447D01*
X15226985Y-9720322D02*
X15256985Y-9750322D01*
X15256985Y-9720322D02*
X15226985Y-9750322D01*
X15246445Y-8657180D02*
X15276445Y-8687180D01*
X15276445Y-8657180D02*
X15246445Y-8687180D01*
X15274592Y-8897525D02*
X15304592Y-8927525D01*
X15304592Y-8897525D02*
X15274592Y-8927525D01*
X15274656Y-9588493D02*
X15304656Y-9618493D01*
X15304656Y-9588493D02*
X15274656Y-9618493D01*
X15280441Y-9203754D02*
X15310441Y-9233754D01*
X15310441Y-9203754D02*
X15280441Y-9233754D01*
X15285536Y-10216000D02*
X15315536Y-10246000D01*
X15315536Y-10216000D02*
X15285536Y-10246000D01*
X15288666Y-10405000D02*
X15318666Y-10435000D01*
X15318666Y-10405000D02*
X15288666Y-10435000D01*
X15303116Y-9797180D02*
X15333116Y-9827180D01*
X15333116Y-9797180D02*
X15303116Y-9827180D01*
X15311560Y-9095518D02*
X15341560Y-9125518D01*
X15341560Y-9095518D02*
X15311560Y-9125518D01*
X15313042Y-9522467D02*
X15343042Y-9552467D01*
X15343042Y-9522467D02*
X15313042Y-9552467D01*
X15315000Y-10055000D02*
X15345000Y-10085000D01*
X15345000Y-10055000D02*
X15315000Y-10085000D01*
X15353971Y-10182945D02*
X15383971Y-10212945D01*
X15383971Y-10182945D02*
X15353971Y-10212945D01*
X15356117Y-9851649D02*
X15386117Y-9881649D01*
X15386117Y-9851649D02*
X15356117Y-9881649D01*
X15358577Y-10673276D02*
X15388577Y-10703276D01*
X15388577Y-10673276D02*
X15358577Y-10703276D01*
X15369027Y-10108452D02*
X15399027Y-10138452D01*
X15399027Y-10108452D02*
X15369027Y-10138452D01*
X15370679Y-9471000D02*
X15400679Y-9501000D01*
X15400679Y-9471000D02*
X15370679Y-9501000D01*
X15383324Y-8901123D02*
X15413324Y-8931123D01*
X15413324Y-8901123D02*
X15383324Y-8931123D01*
X15388441Y-9194240D02*
X15418441Y-9224240D01*
X15418441Y-9194240D02*
X15388441Y-9224240D01*
X15392000Y-8665000D02*
X15422000Y-8695000D01*
X15422000Y-8665000D02*
X15392000Y-8695000D01*
X15405000Y-10405000D02*
X15435000Y-10435000D01*
X15435000Y-10405000D02*
X15405000Y-10435000D01*
X15414245Y-9900610D02*
X15444245Y-9930610D01*
X15444245Y-9900610D02*
X15414245Y-9930610D01*
X15415000Y-8285000D02*
X15445000Y-8315000D01*
X15445000Y-8285000D02*
X15415000Y-8315000D01*
X15420993Y-9413852D02*
X15450993Y-9443852D01*
X15450993Y-9413852D02*
X15420993Y-9443852D01*
X15422232Y-10216359D02*
X15452232Y-10246359D01*
X15452232Y-10216359D02*
X15422232Y-10246359D01*
X15428887Y-10628392D02*
X15458887Y-10658392D01*
X15458887Y-10628392D02*
X15428887Y-10658392D01*
X15448592Y-9095354D02*
X15478592Y-9125354D01*
X15478592Y-9095354D02*
X15448592Y-9125354D01*
X15458137Y-8914505D02*
X15488137Y-8944505D01*
X15488137Y-8914505D02*
X15458137Y-8944505D01*
X15465000Y-8223000D02*
X15495000Y-8253000D01*
X15495000Y-8223000D02*
X15465000Y-8253000D01*
X15465366Y-8696898D02*
X15495366Y-8726898D01*
X15495366Y-8696898D02*
X15465366Y-8726898D01*
X15467983Y-9962017D02*
X15497983Y-9992017D01*
X15497983Y-9962017D02*
X15467983Y-9992017D01*
X15475000Y-9207354D02*
X15505000Y-9237354D01*
X15505000Y-9207354D02*
X15475000Y-9237354D01*
X15478183Y-9361755D02*
X15508183Y-9391755D01*
X15508183Y-9361755D02*
X15478183Y-9391755D01*
X15480954Y-10407656D02*
X15510954Y-10437656D01*
X15510954Y-10407656D02*
X15480954Y-10437656D01*
X15483201Y-10170985D02*
X15513201Y-10200985D01*
X15513201Y-10170985D02*
X15483201Y-10200985D01*
X15509660Y-9749231D02*
X15539660Y-9779231D01*
X15539660Y-9749231D02*
X15509660Y-9779231D01*
X15511338Y-8283240D02*
X15541338Y-8313240D01*
X15541338Y-8283240D02*
X15511338Y-8313240D01*
X15523727Y-10085215D02*
X15553727Y-10115215D01*
X15553727Y-10085215D02*
X15523727Y-10115215D01*
X15534742Y-9310989D02*
X15564742Y-9340989D01*
X15564742Y-9310989D02*
X15534742Y-9340989D01*
X15560765Y-9202659D02*
X15590765Y-9232659D01*
X15590765Y-9202659D02*
X15560765Y-9232659D01*
X15575000Y-8898000D02*
X15605000Y-8928000D01*
X15605000Y-8898000D02*
X15575000Y-8928000D01*
X15582916Y-10667970D02*
X15612916Y-10697970D01*
X15612916Y-10667970D02*
X15582916Y-10697970D01*
X15584819Y-10395889D02*
X15614819Y-10425889D01*
X15614819Y-10395889D02*
X15584819Y-10425889D01*
X15592322Y-9592322D02*
X15622322Y-9622322D01*
X15622322Y-9592322D02*
X15592322Y-9622322D01*
X15593820Y-9976180D02*
X15623820Y-10006180D01*
X15623820Y-9976180D02*
X15593820Y-10006180D01*
X15595232Y-9357000D02*
X15625232Y-9387000D01*
X15625232Y-9357000D02*
X15595232Y-9387000D01*
X15609449Y-9095836D02*
X15639449Y-9125836D01*
X15639449Y-9095836D02*
X15609449Y-9125836D01*
X15630183Y-10216120D02*
X15660183Y-10246120D01*
X15660183Y-10216120D02*
X15630183Y-10246120D01*
X15640717Y-10618623D02*
X15670717Y-10648623D01*
X15670717Y-10618623D02*
X15640717Y-10648623D01*
X15645000Y-8235000D02*
X15675000Y-8265000D01*
X15675000Y-8235000D02*
X15645000Y-8265000D01*
X15650239Y-9411000D02*
X15680239Y-9441000D01*
X15680239Y-9411000D02*
X15650239Y-9441000D01*
X15660604Y-10401609D02*
X15690604Y-10431609D01*
X15690604Y-10401609D02*
X15660604Y-10431609D01*
X15669550Y-8672880D02*
X15699550Y-8702880D01*
X15699550Y-8672880D02*
X15669550Y-8702880D01*
X15671375Y-9901000D02*
X15701375Y-9931000D01*
X15701375Y-9901000D02*
X15671375Y-9931000D01*
X15680825Y-9212262D02*
X15710825Y-9242262D01*
X15710825Y-9212262D02*
X15680825Y-9242262D01*
X15697000Y-8910500D02*
X15727000Y-8940500D01*
X15727000Y-8910500D02*
X15697000Y-8940500D01*
X15706899Y-9467662D02*
X15736899Y-9497662D01*
X15736899Y-9467662D02*
X15706899Y-9497662D01*
X15715000Y-8265000D02*
X15745000Y-8295000D01*
X15745000Y-8265000D02*
X15715000Y-8295000D01*
X15739000Y-9095655D02*
X15769000Y-9125655D01*
X15769000Y-9095655D02*
X15739000Y-9125655D01*
X15739000Y-10198190D02*
X15769000Y-10228190D01*
X15769000Y-10198190D02*
X15739000Y-10228190D01*
X15762444Y-9527578D02*
X15792444Y-9557578D01*
X15792444Y-9527578D02*
X15762444Y-9557578D01*
X15765000Y-11095000D02*
X15795000Y-11125000D01*
X15795000Y-11095000D02*
X15765000Y-11125000D01*
X15770693Y-10666992D02*
X15800693Y-10696992D01*
X15800693Y-10666992D02*
X15770693Y-10696992D01*
X15777000Y-8910500D02*
X15807000Y-8940500D01*
X15807000Y-8910500D02*
X15777000Y-8940500D01*
X15777550Y-8658112D02*
X15807550Y-8688112D01*
X15807550Y-8658112D02*
X15777550Y-8688112D01*
X15781000Y-10396500D02*
X15811000Y-10426500D01*
X15811000Y-10396500D02*
X15781000Y-10426500D01*
X15789840Y-9774759D02*
X15819840Y-9804759D01*
X15819840Y-9774759D02*
X15789840Y-9804759D01*
X15795000Y-8235000D02*
X15825000Y-8265000D01*
X15825000Y-8235000D02*
X15795000Y-8265000D01*
X15805373Y-10026544D02*
X15835373Y-10056544D01*
X15835373Y-10026544D02*
X15805373Y-10056544D01*
X15810090Y-10602000D02*
X15840090Y-10632000D01*
X15840090Y-10602000D02*
X15810090Y-10632000D01*
X15815000Y-9229000D02*
X15845000Y-9259000D01*
X15845000Y-9229000D02*
X15815000Y-9259000D01*
X15849566Y-9727761D02*
X15879566Y-9757761D01*
X15879566Y-9727761D02*
X15849566Y-9757761D01*
X15881043Y-9161595D02*
X15911043Y-9191595D01*
X15911043Y-9161595D02*
X15881043Y-9191595D01*
X15885000Y-11095000D02*
X15915000Y-11125000D01*
X15915000Y-11095000D02*
X15885000Y-11125000D01*
X15887993Y-8712000D02*
X15917993Y-8742000D01*
X15917993Y-8712000D02*
X15887993Y-8742000D01*
X15889000Y-10242113D02*
X15919000Y-10272113D01*
X15919000Y-10242113D02*
X15889000Y-10272113D01*
X15903686Y-9673705D02*
X15933686Y-9703705D01*
X15933686Y-9673705D02*
X15903686Y-9703705D01*
X15925000Y-9295853D02*
X15955000Y-9325853D01*
X15955000Y-9295853D02*
X15925000Y-9325853D01*
X15925000Y-10026544D02*
X15955000Y-10056544D01*
X15955000Y-10026544D02*
X15925000Y-10056544D01*
X15935000Y-8335000D02*
X15965000Y-8365000D01*
X15965000Y-8335000D02*
X15935000Y-8365000D01*
X15937548Y-9882512D02*
X15967548Y-9912512D01*
X15967548Y-9882512D02*
X15937548Y-9912512D01*
X15965000Y-8658000D02*
X15995000Y-8688000D01*
X15995000Y-8658000D02*
X15965000Y-8688000D01*
X15975000Y-8235000D02*
X16005000Y-8265000D01*
X16005000Y-8235000D02*
X15975000Y-8265000D01*
X15979000Y-9235000D02*
X16009000Y-9265000D01*
X16009000Y-9235000D02*
X15979000Y-9265000D01*
X15985000Y-8475000D02*
X16015000Y-8505000D01*
X16015000Y-8475000D02*
X15985000Y-8505000D01*
X15990806Y-9828294D02*
X16020806Y-9858294D01*
X16020806Y-9828294D02*
X15990806Y-9858294D01*
X15995750Y-9045174D02*
X16025750Y-9075174D01*
X16025750Y-9045174D02*
X15995750Y-9075174D01*
X16005000Y-10995000D02*
X16035000Y-11025000D01*
X16035000Y-10995000D02*
X16005000Y-11025000D01*
X16005000Y-11095000D02*
X16035000Y-11125000D01*
X16035000Y-11095000D02*
X16005000Y-11125000D01*
X16009647Y-10556647D02*
X16039647Y-10586647D01*
X16039647Y-10556647D02*
X16009647Y-10586647D01*
X16015000Y-9525000D02*
X16045000Y-9555000D01*
X16045000Y-9525000D02*
X16015000Y-9555000D01*
X16015000Y-8335000D02*
X16045000Y-8365000D01*
X16045000Y-8335000D02*
X16015000Y-8365000D01*
X16019428Y-8803699D02*
X16049428Y-8833699D01*
X16049428Y-8803699D02*
X16019428Y-8833699D01*
X16021000Y-8973489D02*
X16051000Y-9003489D01*
X16051000Y-8973489D02*
X16021000Y-9003489D01*
X16035000Y-8885000D02*
X16065000Y-8915000D01*
X16065000Y-8885000D02*
X16035000Y-8915000D01*
X16035000Y-10465000D02*
X16065000Y-10495000D01*
X16065000Y-10465000D02*
X16035000Y-10495000D01*
X16035591Y-10383000D02*
X16065591Y-10413000D01*
X16065591Y-10383000D02*
X16035591Y-10413000D01*
X16055000Y-10225000D02*
X16085000Y-10255000D01*
X16085000Y-10225000D02*
X16055000Y-10255000D01*
X16080423Y-10719966D02*
X16110423Y-10749966D01*
X16110423Y-10719966D02*
X16080423Y-10749966D01*
X16095845Y-10336681D02*
X16125845Y-10366681D01*
X16125845Y-10336681D02*
X16095845Y-10366681D01*
X16149000Y-8895000D02*
X16179000Y-8925000D01*
X16179000Y-8895000D02*
X16149000Y-8925000D01*
X16149000Y-10391000D02*
X16179000Y-10421000D01*
X16179000Y-10391000D02*
X16149000Y-10421000D01*
X16153283Y-9106876D02*
X16183283Y-9136876D01*
X16183283Y-9106876D02*
X16153283Y-9136876D01*
X16177288Y-9200593D02*
X16207288Y-9230593D01*
X16207288Y-9200593D02*
X16177288Y-9230593D01*
X16177288Y-9689000D02*
X16207288Y-9719000D01*
X16207288Y-9689000D02*
X16177288Y-9719000D01*
X16177288Y-10135000D02*
X16207288Y-10165000D01*
X16207288Y-10135000D02*
X16177288Y-10165000D01*
X16217000Y-10715000D02*
X16247000Y-10745000D01*
X16247000Y-10715000D02*
X16217000Y-10745000D01*
X14952500Y-8300000D02*
G75*
G02*
X14887500Y-8300000I-32500J0D01*
G01*
X14887500Y-8300000D02*
G75*
G02*
X14952500Y-8300000I32500J0D01*
G01*
X14952500Y-8427000D02*
G75*
G02*
X14887500Y-8427000I-32500J0D01*
G01*
X14887500Y-8427000D02*
G75*
G02*
X14952500Y-8427000I32500J0D01*
G01*
X14952500Y-8554000D02*
G75*
G02*
X14887500Y-8554000I-32500J0D01*
G01*
X14887500Y-8554000D02*
G75*
G02*
X14952500Y-8554000I32500J0D01*
G01*
X14952500Y-9302500D02*
G75*
G02*
X14887500Y-9302500I-32500J0D01*
G01*
X14887500Y-9302500D02*
G75*
G02*
X14952500Y-9302500I32500J0D01*
G01*
X14952500Y-9429500D02*
G75*
G02*
X14887500Y-9429500I-32500J0D01*
G01*
X14887500Y-9429500D02*
G75*
G02*
X14952500Y-9429500I32500J0D01*
G01*
X14952500Y-9556500D02*
G75*
G02*
X14887500Y-9556500I-32500J0D01*
G01*
X14887500Y-9556500D02*
G75*
G02*
X14952500Y-9556500I32500J0D01*
G01*
X14952500Y-9802500D02*
G75*
G02*
X14887500Y-9802500I-32500J0D01*
G01*
X14887500Y-9802500D02*
G75*
G02*
X14952500Y-9802500I32500J0D01*
G01*
X14952500Y-9929500D02*
G75*
G02*
X14887500Y-9929500I-32500J0D01*
G01*
X14887500Y-9929500D02*
G75*
G02*
X14952500Y-9929500I32500J0D01*
G01*
X14952500Y-10056500D02*
G75*
G02*
X14887500Y-10056500I-32500J0D01*
G01*
X14887500Y-10056500D02*
G75*
G02*
X14952500Y-10056500I32500J0D01*
G01*
X14952500Y-10805000D02*
G75*
G02*
X14887500Y-10805000I-32500J0D01*
G01*
X14887500Y-10805000D02*
G75*
G02*
X14952500Y-10805000I32500J0D01*
G01*
X14952500Y-10932000D02*
G75*
G02*
X14887500Y-10932000I-32500J0D01*
G01*
X14887500Y-10932000D02*
G75*
G02*
X14952500Y-10932000I32500J0D01*
G01*
X14952500Y-11059000D02*
G75*
G02*
X14887500Y-11059000I-32500J0D01*
G01*
X14887500Y-11059000D02*
G75*
G02*
X14952500Y-11059000I32500J0D01*
G01*
X15380500Y-10890000D02*
G75*
G02*
X15315500Y-10890000I-32500J0D01*
G01*
X15315500Y-10890000D02*
G75*
G02*
X15380500Y-10890000I32500J0D01*
G01*
X15507500Y-10890000D02*
G75*
G02*
X15442500Y-10890000I-32500J0D01*
G01*
X15442500Y-10890000D02*
G75*
G02*
X15507500Y-10890000I32500J0D01*
G01*
X15634500Y-10890000D02*
G75*
G02*
X15569500Y-10890000I-32500J0D01*
G01*
X15569500Y-10890000D02*
G75*
G02*
X15634500Y-10890000I32500J0D01*
G01*
X15761500Y-10890000D02*
G75*
G02*
X15696500Y-10890000I-32500J0D01*
G01*
X15696500Y-10890000D02*
G75*
G02*
X15761500Y-10890000I32500J0D01*
G01*
X16192500Y-8298500D02*
G75*
G02*
X16127500Y-8298500I-32500J0D01*
G01*
X16127500Y-8298500D02*
G75*
G02*
X16192500Y-8298500I32500J0D01*
G01*
X16192500Y-8425500D02*
G75*
G02*
X16127500Y-8425500I-32500J0D01*
G01*
X16127500Y-8425500D02*
G75*
G02*
X16192500Y-8425500I32500J0D01*
G01*
X16192500Y-8552500D02*
G75*
G02*
X16127500Y-8552500I-32500J0D01*
G01*
X16127500Y-8552500D02*
G75*
G02*
X16192500Y-8552500I32500J0D01*
G01*
X16192500Y-9306000D02*
G75*
G02*
X16127500Y-9306000I-32500J0D01*
G01*
X16127500Y-9306000D02*
G75*
G02*
X16192500Y-9306000I32500J0D01*
G01*
X16192500Y-9433000D02*
G75*
G02*
X16127500Y-9433000I-32500J0D01*
G01*
X16127500Y-9433000D02*
G75*
G02*
X16192500Y-9433000I32500J0D01*
G01*
X16192500Y-9560000D02*
G75*
G02*
X16127500Y-9560000I-32500J0D01*
G01*
X16127500Y-9560000D02*
G75*
G02*
X16192500Y-9560000I32500J0D01*
G01*
X16192500Y-9800000D02*
G75*
G02*
X16127500Y-9800000I-32500J0D01*
G01*
X16127500Y-9800000D02*
G75*
G02*
X16192500Y-9800000I32500J0D01*
G01*
X16192500Y-9927000D02*
G75*
G02*
X16127500Y-9927000I-32500J0D01*
G01*
X16127500Y-9927000D02*
G75*
G02*
X16192500Y-9927000I32500J0D01*
G01*
X16192500Y-10054000D02*
G75*
G02*
X16127500Y-10054000I-32500J0D01*
G01*
X16127500Y-10054000D02*
G75*
G02*
X16192500Y-10054000I32500J0D01*
G01*
X16192500Y-10806000D02*
G75*
G02*
X16127500Y-10806000I-32500J0D01*
G01*
X16127500Y-10806000D02*
G75*
G02*
X16192500Y-10806000I32500J0D01*
G01*
X16192500Y-10933000D02*
G75*
G02*
X16127500Y-10933000I-32500J0D01*
G01*
X16127500Y-10933000D02*
G75*
G02*
X16192500Y-10933000I32500J0D01*
G01*
X16192500Y-11060000D02*
G75*
G02*
X16127500Y-11060000I-32500J0D01*
G01*
X16127500Y-11060000D02*
G75*
G02*
X16192500Y-11060000I32500J0D01*
G01*
X15349000Y-8435000D02*
X15349000Y-8505000D01*
X15314000Y-8470000D02*
X15384000Y-8470000D01*
X15476000Y-8435000D02*
X15476000Y-8505000D01*
X15441000Y-8470000D02*
X15511000Y-8470000D01*
X15603000Y-8435000D02*
X15603000Y-8505000D01*
X15568000Y-8470000D02*
X15638000Y-8470000D01*
X15730000Y-8435000D02*
X15730000Y-8505000D01*
X15695000Y-8470000D02*
X15765000Y-8470000D01*
D11*
X15048277Y-11493984D02*
X15048277Y-11293984D01*
X15048277Y-11293984D02*
X15095896Y-11293984D01*
X15095896Y-11293984D02*
X15124467Y-11303508D01*
X15124467Y-11303508D02*
X15143515Y-11322555D01*
X15143515Y-11322555D02*
X15153039Y-11341603D01*
X15153039Y-11341603D02*
X15162562Y-11379698D01*
X15162562Y-11379698D02*
X15162562Y-11408269D01*
X15162562Y-11408269D02*
X15153039Y-11446365D01*
X15153039Y-11446365D02*
X15143515Y-11465412D01*
X15143515Y-11465412D02*
X15124467Y-11484460D01*
X15124467Y-11484460D02*
X15095896Y-11493984D01*
X15095896Y-11493984D02*
X15048277Y-11493984D01*
X15248277Y-11493984D02*
X15248277Y-11360650D01*
X15248277Y-11398746D02*
X15257801Y-11379698D01*
X15257801Y-11379698D02*
X15267324Y-11370174D01*
X15267324Y-11370174D02*
X15286372Y-11360650D01*
X15286372Y-11360650D02*
X15305420Y-11360650D01*
X15372086Y-11493984D02*
X15372086Y-11360650D01*
X15372086Y-11293984D02*
X15362562Y-11303508D01*
X15362562Y-11303508D02*
X15372086Y-11313031D01*
X15372086Y-11313031D02*
X15381610Y-11303508D01*
X15381610Y-11303508D02*
X15372086Y-11293984D01*
X15372086Y-11293984D02*
X15372086Y-11313031D01*
X15495896Y-11493984D02*
X15476848Y-11484460D01*
X15476848Y-11484460D02*
X15467324Y-11465412D01*
X15467324Y-11465412D02*
X15467324Y-11293984D01*
X15600658Y-11493984D02*
X15581610Y-11484460D01*
X15581610Y-11484460D02*
X15572086Y-11465412D01*
X15572086Y-11465412D02*
X15572086Y-11293984D01*
X15829229Y-11493984D02*
X15829229Y-11293984D01*
X15829229Y-11293984D02*
X15895896Y-11436841D01*
X15895896Y-11436841D02*
X15962562Y-11293984D01*
X15962562Y-11293984D02*
X15962562Y-11493984D01*
X16143515Y-11493984D02*
X16143515Y-11389222D01*
X16143515Y-11389222D02*
X16133991Y-11370174D01*
X16133991Y-11370174D02*
X16114943Y-11360650D01*
X16114943Y-11360650D02*
X16076848Y-11360650D01*
X16076848Y-11360650D02*
X16057801Y-11370174D01*
X16143515Y-11484460D02*
X16124467Y-11493984D01*
X16124467Y-11493984D02*
X16076848Y-11493984D01*
X16076848Y-11493984D02*
X16057801Y-11484460D01*
X16057801Y-11484460D02*
X16048277Y-11465412D01*
X16048277Y-11465412D02*
X16048277Y-11446365D01*
X16048277Y-11446365D02*
X16057801Y-11427317D01*
X16057801Y-11427317D02*
X16076848Y-11417793D01*
X16076848Y-11417793D02*
X16124467Y-11417793D01*
X16124467Y-11417793D02*
X16143515Y-11408269D01*
X16238753Y-11360650D02*
X16238753Y-11560650D01*
X16238753Y-11370174D02*
X16257801Y-11360650D01*
X16257801Y-11360650D02*
X16295896Y-11360650D01*
X16295896Y-11360650D02*
X16314943Y-11370174D01*
X16314943Y-11370174D02*
X16324467Y-11379698D01*
X16324467Y-11379698D02*
X16333991Y-11398746D01*
X16333991Y-11398746D02*
X16333991Y-11455888D01*
X16333991Y-11455888D02*
X16324467Y-11474936D01*
X16324467Y-11474936D02*
X16314943Y-11484460D01*
X16314943Y-11484460D02*
X16295896Y-11493984D01*
X16295896Y-11493984D02*
X16257801Y-11493984D01*
X16257801Y-11493984D02*
X16238753Y-11484460D01*
X16419705Y-11474936D02*
X16429229Y-11484460D01*
X16429229Y-11484460D02*
X16419705Y-11493984D01*
X16419705Y-11493984D02*
X16410182Y-11484460D01*
X16410182Y-11484460D02*
X16419705Y-11474936D01*
X16419705Y-11474936D02*
X16419705Y-11493984D01*
X16419705Y-11370174D02*
X16429229Y-11379698D01*
X16429229Y-11379698D02*
X16419705Y-11389222D01*
X16419705Y-11389222D02*
X16410182Y-11379698D01*
X16410182Y-11379698D02*
X16419705Y-11370174D01*
X16419705Y-11370174D02*
X16419705Y-11389222D01*
D12*
X14757500Y-11807500D02*
X14787500Y-11837500D01*
X14787500Y-11807500D02*
X14757500Y-11837500D01*
D11*
X15086372Y-11713984D02*
X15105420Y-11713984D01*
X15105420Y-11713984D02*
X15124467Y-11723508D01*
X15124467Y-11723508D02*
X15133991Y-11733031D01*
X15133991Y-11733031D02*
X15143515Y-11752079D01*
X15143515Y-11752079D02*
X15153039Y-11790174D01*
X15153039Y-11790174D02*
X15153039Y-11837793D01*
X15153039Y-11837793D02*
X15143515Y-11875888D01*
X15143515Y-11875888D02*
X15133991Y-11894936D01*
X15133991Y-11894936D02*
X15124467Y-11904460D01*
X15124467Y-11904460D02*
X15105420Y-11913984D01*
X15105420Y-11913984D02*
X15086372Y-11913984D01*
X15086372Y-11913984D02*
X15067324Y-11904460D01*
X15067324Y-11904460D02*
X15057801Y-11894936D01*
X15057801Y-11894936D02*
X15048277Y-11875888D01*
X15048277Y-11875888D02*
X15038753Y-11837793D01*
X15038753Y-11837793D02*
X15038753Y-11790174D01*
X15038753Y-11790174D02*
X15048277Y-11752079D01*
X15048277Y-11752079D02*
X15057801Y-11733031D01*
X15057801Y-11733031D02*
X15067324Y-11723508D01*
X15067324Y-11723508D02*
X15086372Y-11713984D01*
X15238753Y-11894936D02*
X15248277Y-11904460D01*
X15248277Y-11904460D02*
X15238753Y-11913984D01*
X15238753Y-11913984D02*
X15229229Y-11904460D01*
X15229229Y-11904460D02*
X15238753Y-11894936D01*
X15238753Y-11894936D02*
X15238753Y-11913984D01*
X15314943Y-11713984D02*
X15438753Y-11713984D01*
X15438753Y-11713984D02*
X15372086Y-11790174D01*
X15372086Y-11790174D02*
X15400658Y-11790174D01*
X15400658Y-11790174D02*
X15419705Y-11799698D01*
X15419705Y-11799698D02*
X15429229Y-11809222D01*
X15429229Y-11809222D02*
X15438753Y-11828269D01*
X15438753Y-11828269D02*
X15438753Y-11875888D01*
X15438753Y-11875888D02*
X15429229Y-11894936D01*
X15429229Y-11894936D02*
X15419705Y-11904460D01*
X15419705Y-11904460D02*
X15400658Y-11913984D01*
X15400658Y-11913984D02*
X15343515Y-11913984D01*
X15343515Y-11913984D02*
X15324467Y-11904460D01*
X15324467Y-11904460D02*
X15314943Y-11894936D01*
X15562562Y-11713984D02*
X15581610Y-11713984D01*
X15581610Y-11713984D02*
X15600658Y-11723508D01*
X15600658Y-11723508D02*
X15610182Y-11733031D01*
X15610182Y-11733031D02*
X15619705Y-11752079D01*
X15619705Y-11752079D02*
X15629229Y-11790174D01*
X15629229Y-11790174D02*
X15629229Y-11837793D01*
X15629229Y-11837793D02*
X15619705Y-11875888D01*
X15619705Y-11875888D02*
X15610182Y-11894936D01*
X15610182Y-11894936D02*
X15600658Y-11904460D01*
X15600658Y-11904460D02*
X15581610Y-11913984D01*
X15581610Y-11913984D02*
X15562562Y-11913984D01*
X15562562Y-11913984D02*
X15543515Y-11904460D01*
X15543515Y-11904460D02*
X15533991Y-11894936D01*
X15533991Y-11894936D02*
X15524467Y-11875888D01*
X15524467Y-11875888D02*
X15514943Y-11837793D01*
X15514943Y-11837793D02*
X15514943Y-11790174D01*
X15514943Y-11790174D02*
X15524467Y-11752079D01*
X15524467Y-11752079D02*
X15533991Y-11733031D01*
X15533991Y-11733031D02*
X15543515Y-11723508D01*
X15543515Y-11723508D02*
X15562562Y-11713984D01*
X15753039Y-11713984D02*
X15772086Y-11713984D01*
X15772086Y-11713984D02*
X15791134Y-11723508D01*
X15791134Y-11723508D02*
X15800658Y-11733031D01*
X15800658Y-11733031D02*
X15810182Y-11752079D01*
X15810182Y-11752079D02*
X15819705Y-11790174D01*
X15819705Y-11790174D02*
X15819705Y-11837793D01*
X15819705Y-11837793D02*
X15810182Y-11875888D01*
X15810182Y-11875888D02*
X15800658Y-11894936D01*
X15800658Y-11894936D02*
X15791134Y-11904460D01*
X15791134Y-11904460D02*
X15772086Y-11913984D01*
X15772086Y-11913984D02*
X15753039Y-11913984D01*
X15753039Y-11913984D02*
X15733991Y-11904460D01*
X15733991Y-11904460D02*
X15724467Y-11894936D01*
X15724467Y-11894936D02*
X15714943Y-11875888D01*
X15714943Y-11875888D02*
X15705420Y-11837793D01*
X15705420Y-11837793D02*
X15705420Y-11790174D01*
X15705420Y-11790174D02*
X15714943Y-11752079D01*
X15714943Y-11752079D02*
X15724467Y-11733031D01*
X15724467Y-11733031D02*
X15733991Y-11723508D01*
X15733991Y-11723508D02*
X15753039Y-11713984D01*
X15905420Y-11913984D02*
X15905420Y-11780650D01*
X15905420Y-11799698D02*
X15914943Y-11790174D01*
X15914943Y-11790174D02*
X15933991Y-11780650D01*
X15933991Y-11780650D02*
X15962563Y-11780650D01*
X15962563Y-11780650D02*
X15981610Y-11790174D01*
X15981610Y-11790174D02*
X15991134Y-11809222D01*
X15991134Y-11809222D02*
X15991134Y-11913984D01*
X15991134Y-11809222D02*
X16000658Y-11790174D01*
X16000658Y-11790174D02*
X16019705Y-11780650D01*
X16019705Y-11780650D02*
X16048277Y-11780650D01*
X16048277Y-11780650D02*
X16067324Y-11790174D01*
X16067324Y-11790174D02*
X16076848Y-11809222D01*
X16076848Y-11809222D02*
X16076848Y-11913984D01*
X16172086Y-11913984D02*
X16172086Y-11780650D01*
X16172086Y-11799698D02*
X16181610Y-11790174D01*
X16181610Y-11790174D02*
X16200658Y-11780650D01*
X16200658Y-11780650D02*
X16229229Y-11780650D01*
X16229229Y-11780650D02*
X16248277Y-11790174D01*
X16248277Y-11790174D02*
X16257801Y-11809222D01*
X16257801Y-11809222D02*
X16257801Y-11913984D01*
X16257801Y-11809222D02*
X16267324Y-11790174D01*
X16267324Y-11790174D02*
X16286372Y-11780650D01*
X16286372Y-11780650D02*
X16314943Y-11780650D01*
X16314943Y-11780650D02*
X16333991Y-11790174D01*
X16333991Y-11790174D02*
X16343515Y-11809222D01*
X16343515Y-11809222D02*
X16343515Y-11913984D01*
X16733991Y-11704460D02*
X16562563Y-11961603D01*
X16991134Y-11713984D02*
X17010182Y-11713984D01*
X17010182Y-11713984D02*
X17029229Y-11723508D01*
X17029229Y-11723508D02*
X17038753Y-11733031D01*
X17038753Y-11733031D02*
X17048277Y-11752079D01*
X17048277Y-11752079D02*
X17057801Y-11790174D01*
X17057801Y-11790174D02*
X17057801Y-11837793D01*
X17057801Y-11837793D02*
X17048277Y-11875888D01*
X17048277Y-11875888D02*
X17038753Y-11894936D01*
X17038753Y-11894936D02*
X17029229Y-11904460D01*
X17029229Y-11904460D02*
X17010182Y-11913984D01*
X17010182Y-11913984D02*
X16991134Y-11913984D01*
X16991134Y-11913984D02*
X16972087Y-11904460D01*
X16972087Y-11904460D02*
X16962563Y-11894936D01*
X16962563Y-11894936D02*
X16953039Y-11875888D01*
X16953039Y-11875888D02*
X16943515Y-11837793D01*
X16943515Y-11837793D02*
X16943515Y-11790174D01*
X16943515Y-11790174D02*
X16953039Y-11752079D01*
X16953039Y-11752079D02*
X16962563Y-11733031D01*
X16962563Y-11733031D02*
X16972087Y-11723508D01*
X16972087Y-11723508D02*
X16991134Y-11713984D01*
X17143515Y-11894936D02*
X17153039Y-11904460D01*
X17153039Y-11904460D02*
X17143515Y-11913984D01*
X17143515Y-11913984D02*
X17133991Y-11904460D01*
X17133991Y-11904460D02*
X17143515Y-11894936D01*
X17143515Y-11894936D02*
X17143515Y-11913984D01*
X17276848Y-11713984D02*
X17295896Y-11713984D01*
X17295896Y-11713984D02*
X17314944Y-11723508D01*
X17314944Y-11723508D02*
X17324468Y-11733031D01*
X17324468Y-11733031D02*
X17333991Y-11752079D01*
X17333991Y-11752079D02*
X17343515Y-11790174D01*
X17343515Y-11790174D02*
X17343515Y-11837793D01*
X17343515Y-11837793D02*
X17333991Y-11875888D01*
X17333991Y-11875888D02*
X17324468Y-11894936D01*
X17324468Y-11894936D02*
X17314944Y-11904460D01*
X17314944Y-11904460D02*
X17295896Y-11913984D01*
X17295896Y-11913984D02*
X17276848Y-11913984D01*
X17276848Y-11913984D02*
X17257801Y-11904460D01*
X17257801Y-11904460D02*
X17248277Y-11894936D01*
X17248277Y-11894936D02*
X17238753Y-11875888D01*
X17238753Y-11875888D02*
X17229229Y-11837793D01*
X17229229Y-11837793D02*
X17229229Y-11790174D01*
X17229229Y-11790174D02*
X17238753Y-11752079D01*
X17238753Y-11752079D02*
X17248277Y-11733031D01*
X17248277Y-11733031D02*
X17257801Y-11723508D01*
X17257801Y-11723508D02*
X17276848Y-11713984D01*
X17533991Y-11913984D02*
X17419706Y-11913984D01*
X17476848Y-11913984D02*
X17476848Y-11713984D01*
X17476848Y-11713984D02*
X17457801Y-11742555D01*
X17457801Y-11742555D02*
X17438753Y-11761603D01*
X17438753Y-11761603D02*
X17419706Y-11771127D01*
X17724468Y-11913984D02*
X17610182Y-11913984D01*
X17667325Y-11913984D02*
X17667325Y-11713984D01*
X17667325Y-11713984D02*
X17648277Y-11742555D01*
X17648277Y-11742555D02*
X17629229Y-11761603D01*
X17629229Y-11761603D02*
X17610182Y-11771127D01*
X17838753Y-11799698D02*
X17819706Y-11790174D01*
X17819706Y-11790174D02*
X17810182Y-11780650D01*
X17810182Y-11780650D02*
X17800658Y-11761603D01*
X17800658Y-11761603D02*
X17800658Y-11752079D01*
X17800658Y-11752079D02*
X17810182Y-11733031D01*
X17810182Y-11733031D02*
X17819706Y-11723508D01*
X17819706Y-11723508D02*
X17838753Y-11713984D01*
X17838753Y-11713984D02*
X17876849Y-11713984D01*
X17876849Y-11713984D02*
X17895896Y-11723508D01*
X17895896Y-11723508D02*
X17905420Y-11733031D01*
X17905420Y-11733031D02*
X17914944Y-11752079D01*
X17914944Y-11752079D02*
X17914944Y-11761603D01*
X17914944Y-11761603D02*
X17905420Y-11780650D01*
X17905420Y-11780650D02*
X17895896Y-11790174D01*
X17895896Y-11790174D02*
X17876849Y-11799698D01*
X17876849Y-11799698D02*
X17838753Y-11799698D01*
X17838753Y-11799698D02*
X17819706Y-11809222D01*
X17819706Y-11809222D02*
X17810182Y-11818746D01*
X17810182Y-11818746D02*
X17800658Y-11837793D01*
X17800658Y-11837793D02*
X17800658Y-11875888D01*
X17800658Y-11875888D02*
X17810182Y-11894936D01*
X17810182Y-11894936D02*
X17819706Y-11904460D01*
X17819706Y-11904460D02*
X17838753Y-11913984D01*
X17838753Y-11913984D02*
X17876849Y-11913984D01*
X17876849Y-11913984D02*
X17895896Y-11904460D01*
X17895896Y-11904460D02*
X17905420Y-11894936D01*
X17905420Y-11894936D02*
X17914944Y-11875888D01*
X17914944Y-11875888D02*
X17914944Y-11837793D01*
X17914944Y-11837793D02*
X17905420Y-11818746D01*
X17905420Y-11818746D02*
X17895896Y-11809222D01*
X17895896Y-11809222D02*
X17876849Y-11799698D01*
X17991134Y-11713984D02*
X17991134Y-11752079D01*
X18067325Y-11713984D02*
X18067325Y-11752079D01*
X18362563Y-11990174D02*
X18353039Y-11980650D01*
X18353039Y-11980650D02*
X18333991Y-11952079D01*
X18333991Y-11952079D02*
X18324468Y-11933031D01*
X18324468Y-11933031D02*
X18314944Y-11904460D01*
X18314944Y-11904460D02*
X18305420Y-11856841D01*
X18305420Y-11856841D02*
X18305420Y-11818746D01*
X18305420Y-11818746D02*
X18314944Y-11771127D01*
X18314944Y-11771127D02*
X18324468Y-11742555D01*
X18324468Y-11742555D02*
X18333991Y-11723508D01*
X18333991Y-11723508D02*
X18353039Y-11694936D01*
X18353039Y-11694936D02*
X18362563Y-11685412D01*
X18543515Y-11913984D02*
X18429230Y-11913984D01*
X18486372Y-11913984D02*
X18486372Y-11713984D01*
X18486372Y-11713984D02*
X18467325Y-11742555D01*
X18467325Y-11742555D02*
X18448277Y-11761603D01*
X18448277Y-11761603D02*
X18429230Y-11771127D01*
X18714944Y-11780650D02*
X18714944Y-11913984D01*
X18667325Y-11704460D02*
X18619706Y-11847317D01*
X18619706Y-11847317D02*
X18743515Y-11847317D01*
X18924468Y-11913984D02*
X18810182Y-11913984D01*
X18867325Y-11913984D02*
X18867325Y-11713984D01*
X18867325Y-11713984D02*
X18848277Y-11742555D01*
X18848277Y-11742555D02*
X18829230Y-11761603D01*
X18829230Y-11761603D02*
X18810182Y-11771127D01*
X19162563Y-11913984D02*
X19162563Y-11713984D01*
X19248277Y-11913984D02*
X19248277Y-11809222D01*
X19248277Y-11809222D02*
X19238753Y-11790174D01*
X19238753Y-11790174D02*
X19219706Y-11780650D01*
X19219706Y-11780650D02*
X19191134Y-11780650D01*
X19191134Y-11780650D02*
X19172087Y-11790174D01*
X19172087Y-11790174D02*
X19162563Y-11799698D01*
X19372087Y-11913984D02*
X19353039Y-11904460D01*
X19353039Y-11904460D02*
X19343515Y-11894936D01*
X19343515Y-11894936D02*
X19333992Y-11875888D01*
X19333992Y-11875888D02*
X19333992Y-11818746D01*
X19333992Y-11818746D02*
X19343515Y-11799698D01*
X19343515Y-11799698D02*
X19353039Y-11790174D01*
X19353039Y-11790174D02*
X19372087Y-11780650D01*
X19372087Y-11780650D02*
X19400658Y-11780650D01*
X19400658Y-11780650D02*
X19419706Y-11790174D01*
X19419706Y-11790174D02*
X19429230Y-11799698D01*
X19429230Y-11799698D02*
X19438753Y-11818746D01*
X19438753Y-11818746D02*
X19438753Y-11875888D01*
X19438753Y-11875888D02*
X19429230Y-11894936D01*
X19429230Y-11894936D02*
X19419706Y-11904460D01*
X19419706Y-11904460D02*
X19400658Y-11913984D01*
X19400658Y-11913984D02*
X19372087Y-11913984D01*
X19553039Y-11913984D02*
X19533992Y-11904460D01*
X19533992Y-11904460D02*
X19524468Y-11885412D01*
X19524468Y-11885412D02*
X19524468Y-11713984D01*
X19705420Y-11904460D02*
X19686373Y-11913984D01*
X19686373Y-11913984D02*
X19648277Y-11913984D01*
X19648277Y-11913984D02*
X19629230Y-11904460D01*
X19629230Y-11904460D02*
X19619706Y-11885412D01*
X19619706Y-11885412D02*
X19619706Y-11809222D01*
X19619706Y-11809222D02*
X19629230Y-11790174D01*
X19629230Y-11790174D02*
X19648277Y-11780650D01*
X19648277Y-11780650D02*
X19686373Y-11780650D01*
X19686373Y-11780650D02*
X19705420Y-11790174D01*
X19705420Y-11790174D02*
X19714944Y-11809222D01*
X19714944Y-11809222D02*
X19714944Y-11828269D01*
X19714944Y-11828269D02*
X19619706Y-11847317D01*
X19791134Y-11904460D02*
X19810182Y-11913984D01*
X19810182Y-11913984D02*
X19848277Y-11913984D01*
X19848277Y-11913984D02*
X19867325Y-11904460D01*
X19867325Y-11904460D02*
X19876849Y-11885412D01*
X19876849Y-11885412D02*
X19876849Y-11875888D01*
X19876849Y-11875888D02*
X19867325Y-11856841D01*
X19867325Y-11856841D02*
X19848277Y-11847317D01*
X19848277Y-11847317D02*
X19819706Y-11847317D01*
X19819706Y-11847317D02*
X19800658Y-11837793D01*
X19800658Y-11837793D02*
X19791134Y-11818746D01*
X19791134Y-11818746D02*
X19791134Y-11809222D01*
X19791134Y-11809222D02*
X19800658Y-11790174D01*
X19800658Y-11790174D02*
X19819706Y-11780650D01*
X19819706Y-11780650D02*
X19848277Y-11780650D01*
X19848277Y-11780650D02*
X19867325Y-11790174D01*
X19943515Y-11990174D02*
X19953039Y-11980650D01*
X19953039Y-11980650D02*
X19972087Y-11952079D01*
X19972087Y-11952079D02*
X19981611Y-11933031D01*
X19981611Y-11933031D02*
X19991134Y-11904460D01*
X19991134Y-11904460D02*
X20000658Y-11856841D01*
X20000658Y-11856841D02*
X20000658Y-11818746D01*
X20000658Y-11818746D02*
X19991134Y-11771127D01*
X19991134Y-11771127D02*
X19981611Y-11742555D01*
X19981611Y-11742555D02*
X19972087Y-11723508D01*
X19972087Y-11723508D02*
X19953039Y-11694936D01*
X19953039Y-11694936D02*
X19943515Y-11685412D01*
D12*
X14787500Y-12086500D02*
G75*
G02*
X14722500Y-12086500I-32500J0D01*
G01*
X14722500Y-12086500D02*
G75*
G02*
X14787500Y-12086500I32500J0D01*
G01*
D11*
X15086372Y-11977984D02*
X15105420Y-11977984D01*
X15105420Y-11977984D02*
X15124467Y-11987508D01*
X15124467Y-11987508D02*
X15133991Y-11997031D01*
X15133991Y-11997031D02*
X15143515Y-12016079D01*
X15143515Y-12016079D02*
X15153039Y-12054174D01*
X15153039Y-12054174D02*
X15153039Y-12101793D01*
X15153039Y-12101793D02*
X15143515Y-12139888D01*
X15143515Y-12139888D02*
X15133991Y-12158936D01*
X15133991Y-12158936D02*
X15124467Y-12168460D01*
X15124467Y-12168460D02*
X15105420Y-12177984D01*
X15105420Y-12177984D02*
X15086372Y-12177984D01*
X15086372Y-12177984D02*
X15067324Y-12168460D01*
X15067324Y-12168460D02*
X15057801Y-12158936D01*
X15057801Y-12158936D02*
X15048277Y-12139888D01*
X15048277Y-12139888D02*
X15038753Y-12101793D01*
X15038753Y-12101793D02*
X15038753Y-12054174D01*
X15038753Y-12054174D02*
X15048277Y-12016079D01*
X15048277Y-12016079D02*
X15057801Y-11997031D01*
X15057801Y-11997031D02*
X15067324Y-11987508D01*
X15067324Y-11987508D02*
X15086372Y-11977984D01*
X15238753Y-12158936D02*
X15248277Y-12168460D01*
X15248277Y-12168460D02*
X15238753Y-12177984D01*
X15238753Y-12177984D02*
X15229229Y-12168460D01*
X15229229Y-12168460D02*
X15238753Y-12158936D01*
X15238753Y-12158936D02*
X15238753Y-12177984D01*
X15419705Y-11977984D02*
X15381610Y-11977984D01*
X15381610Y-11977984D02*
X15362562Y-11987508D01*
X15362562Y-11987508D02*
X15353039Y-11997031D01*
X15353039Y-11997031D02*
X15333991Y-12025603D01*
X15333991Y-12025603D02*
X15324467Y-12063698D01*
X15324467Y-12063698D02*
X15324467Y-12139888D01*
X15324467Y-12139888D02*
X15333991Y-12158936D01*
X15333991Y-12158936D02*
X15343515Y-12168460D01*
X15343515Y-12168460D02*
X15362562Y-12177984D01*
X15362562Y-12177984D02*
X15400658Y-12177984D01*
X15400658Y-12177984D02*
X15419705Y-12168460D01*
X15419705Y-12168460D02*
X15429229Y-12158936D01*
X15429229Y-12158936D02*
X15438753Y-12139888D01*
X15438753Y-12139888D02*
X15438753Y-12092269D01*
X15438753Y-12092269D02*
X15429229Y-12073222D01*
X15429229Y-12073222D02*
X15419705Y-12063698D01*
X15419705Y-12063698D02*
X15400658Y-12054174D01*
X15400658Y-12054174D02*
X15362562Y-12054174D01*
X15362562Y-12054174D02*
X15343515Y-12063698D01*
X15343515Y-12063698D02*
X15333991Y-12073222D01*
X15333991Y-12073222D02*
X15324467Y-12092269D01*
X15619705Y-11977984D02*
X15524467Y-11977984D01*
X15524467Y-11977984D02*
X15514943Y-12073222D01*
X15514943Y-12073222D02*
X15524467Y-12063698D01*
X15524467Y-12063698D02*
X15543515Y-12054174D01*
X15543515Y-12054174D02*
X15591134Y-12054174D01*
X15591134Y-12054174D02*
X15610182Y-12063698D01*
X15610182Y-12063698D02*
X15619705Y-12073222D01*
X15619705Y-12073222D02*
X15629229Y-12092269D01*
X15629229Y-12092269D02*
X15629229Y-12139888D01*
X15629229Y-12139888D02*
X15619705Y-12158936D01*
X15619705Y-12158936D02*
X15610182Y-12168460D01*
X15610182Y-12168460D02*
X15591134Y-12177984D01*
X15591134Y-12177984D02*
X15543515Y-12177984D01*
X15543515Y-12177984D02*
X15524467Y-12168460D01*
X15524467Y-12168460D02*
X15514943Y-12158936D01*
X15753039Y-11977984D02*
X15772086Y-11977984D01*
X15772086Y-11977984D02*
X15791134Y-11987508D01*
X15791134Y-11987508D02*
X15800658Y-11997031D01*
X15800658Y-11997031D02*
X15810182Y-12016079D01*
X15810182Y-12016079D02*
X15819705Y-12054174D01*
X15819705Y-12054174D02*
X15819705Y-12101793D01*
X15819705Y-12101793D02*
X15810182Y-12139888D01*
X15810182Y-12139888D02*
X15800658Y-12158936D01*
X15800658Y-12158936D02*
X15791134Y-12168460D01*
X15791134Y-12168460D02*
X15772086Y-12177984D01*
X15772086Y-12177984D02*
X15753039Y-12177984D01*
X15753039Y-12177984D02*
X15733991Y-12168460D01*
X15733991Y-12168460D02*
X15724467Y-12158936D01*
X15724467Y-12158936D02*
X15714943Y-12139888D01*
X15714943Y-12139888D02*
X15705420Y-12101793D01*
X15705420Y-12101793D02*
X15705420Y-12054174D01*
X15705420Y-12054174D02*
X15714943Y-12016079D01*
X15714943Y-12016079D02*
X15724467Y-11997031D01*
X15724467Y-11997031D02*
X15733991Y-11987508D01*
X15733991Y-11987508D02*
X15753039Y-11977984D01*
X15905420Y-12177984D02*
X15905420Y-12044650D01*
X15905420Y-12063698D02*
X15914943Y-12054174D01*
X15914943Y-12054174D02*
X15933991Y-12044650D01*
X15933991Y-12044650D02*
X15962563Y-12044650D01*
X15962563Y-12044650D02*
X15981610Y-12054174D01*
X15981610Y-12054174D02*
X15991134Y-12073222D01*
X15991134Y-12073222D02*
X15991134Y-12177984D01*
X15991134Y-12073222D02*
X16000658Y-12054174D01*
X16000658Y-12054174D02*
X16019705Y-12044650D01*
X16019705Y-12044650D02*
X16048277Y-12044650D01*
X16048277Y-12044650D02*
X16067324Y-12054174D01*
X16067324Y-12054174D02*
X16076848Y-12073222D01*
X16076848Y-12073222D02*
X16076848Y-12177984D01*
X16172086Y-12177984D02*
X16172086Y-12044650D01*
X16172086Y-12063698D02*
X16181610Y-12054174D01*
X16181610Y-12054174D02*
X16200658Y-12044650D01*
X16200658Y-12044650D02*
X16229229Y-12044650D01*
X16229229Y-12044650D02*
X16248277Y-12054174D01*
X16248277Y-12054174D02*
X16257801Y-12073222D01*
X16257801Y-12073222D02*
X16257801Y-12177984D01*
X16257801Y-12073222D02*
X16267324Y-12054174D01*
X16267324Y-12054174D02*
X16286372Y-12044650D01*
X16286372Y-12044650D02*
X16314943Y-12044650D01*
X16314943Y-12044650D02*
X16333991Y-12054174D01*
X16333991Y-12054174D02*
X16343515Y-12073222D01*
X16343515Y-12073222D02*
X16343515Y-12177984D01*
X16733991Y-11968460D02*
X16562563Y-12225603D01*
X16991134Y-11977984D02*
X17010182Y-11977984D01*
X17010182Y-11977984D02*
X17029229Y-11987508D01*
X17029229Y-11987508D02*
X17038753Y-11997031D01*
X17038753Y-11997031D02*
X17048277Y-12016079D01*
X17048277Y-12016079D02*
X17057801Y-12054174D01*
X17057801Y-12054174D02*
X17057801Y-12101793D01*
X17057801Y-12101793D02*
X17048277Y-12139888D01*
X17048277Y-12139888D02*
X17038753Y-12158936D01*
X17038753Y-12158936D02*
X17029229Y-12168460D01*
X17029229Y-12168460D02*
X17010182Y-12177984D01*
X17010182Y-12177984D02*
X16991134Y-12177984D01*
X16991134Y-12177984D02*
X16972087Y-12168460D01*
X16972087Y-12168460D02*
X16962563Y-12158936D01*
X16962563Y-12158936D02*
X16953039Y-12139888D01*
X16953039Y-12139888D02*
X16943515Y-12101793D01*
X16943515Y-12101793D02*
X16943515Y-12054174D01*
X16943515Y-12054174D02*
X16953039Y-12016079D01*
X16953039Y-12016079D02*
X16962563Y-11997031D01*
X16962563Y-11997031D02*
X16972087Y-11987508D01*
X16972087Y-11987508D02*
X16991134Y-11977984D01*
X17143515Y-12158936D02*
X17153039Y-12168460D01*
X17153039Y-12168460D02*
X17143515Y-12177984D01*
X17143515Y-12177984D02*
X17133991Y-12168460D01*
X17133991Y-12168460D02*
X17143515Y-12158936D01*
X17143515Y-12158936D02*
X17143515Y-12177984D01*
X17276848Y-11977984D02*
X17295896Y-11977984D01*
X17295896Y-11977984D02*
X17314944Y-11987508D01*
X17314944Y-11987508D02*
X17324468Y-11997031D01*
X17324468Y-11997031D02*
X17333991Y-12016079D01*
X17333991Y-12016079D02*
X17343515Y-12054174D01*
X17343515Y-12054174D02*
X17343515Y-12101793D01*
X17343515Y-12101793D02*
X17333991Y-12139888D01*
X17333991Y-12139888D02*
X17324468Y-12158936D01*
X17324468Y-12158936D02*
X17314944Y-12168460D01*
X17314944Y-12168460D02*
X17295896Y-12177984D01*
X17295896Y-12177984D02*
X17276848Y-12177984D01*
X17276848Y-12177984D02*
X17257801Y-12168460D01*
X17257801Y-12168460D02*
X17248277Y-12158936D01*
X17248277Y-12158936D02*
X17238753Y-12139888D01*
X17238753Y-12139888D02*
X17229229Y-12101793D01*
X17229229Y-12101793D02*
X17229229Y-12054174D01*
X17229229Y-12054174D02*
X17238753Y-12016079D01*
X17238753Y-12016079D02*
X17248277Y-11997031D01*
X17248277Y-11997031D02*
X17257801Y-11987508D01*
X17257801Y-11987508D02*
X17276848Y-11977984D01*
X17419706Y-11997031D02*
X17429229Y-11987508D01*
X17429229Y-11987508D02*
X17448277Y-11977984D01*
X17448277Y-11977984D02*
X17495896Y-11977984D01*
X17495896Y-11977984D02*
X17514944Y-11987508D01*
X17514944Y-11987508D02*
X17524468Y-11997031D01*
X17524468Y-11997031D02*
X17533991Y-12016079D01*
X17533991Y-12016079D02*
X17533991Y-12035127D01*
X17533991Y-12035127D02*
X17524468Y-12063698D01*
X17524468Y-12063698D02*
X17410182Y-12177984D01*
X17410182Y-12177984D02*
X17533991Y-12177984D01*
X17714944Y-11977984D02*
X17619706Y-11977984D01*
X17619706Y-11977984D02*
X17610182Y-12073222D01*
X17610182Y-12073222D02*
X17619706Y-12063698D01*
X17619706Y-12063698D02*
X17638753Y-12054174D01*
X17638753Y-12054174D02*
X17686372Y-12054174D01*
X17686372Y-12054174D02*
X17705420Y-12063698D01*
X17705420Y-12063698D02*
X17714944Y-12073222D01*
X17714944Y-12073222D02*
X17724468Y-12092269D01*
X17724468Y-12092269D02*
X17724468Y-12139888D01*
X17724468Y-12139888D02*
X17714944Y-12158936D01*
X17714944Y-12158936D02*
X17705420Y-12168460D01*
X17705420Y-12168460D02*
X17686372Y-12177984D01*
X17686372Y-12177984D02*
X17638753Y-12177984D01*
X17638753Y-12177984D02*
X17619706Y-12168460D01*
X17619706Y-12168460D02*
X17610182Y-12158936D01*
X17895896Y-11977984D02*
X17857801Y-11977984D01*
X17857801Y-11977984D02*
X17838753Y-11987508D01*
X17838753Y-11987508D02*
X17829229Y-11997031D01*
X17829229Y-11997031D02*
X17810182Y-12025603D01*
X17810182Y-12025603D02*
X17800658Y-12063698D01*
X17800658Y-12063698D02*
X17800658Y-12139888D01*
X17800658Y-12139888D02*
X17810182Y-12158936D01*
X17810182Y-12158936D02*
X17819706Y-12168460D01*
X17819706Y-12168460D02*
X17838753Y-12177984D01*
X17838753Y-12177984D02*
X17876849Y-12177984D01*
X17876849Y-12177984D02*
X17895896Y-12168460D01*
X17895896Y-12168460D02*
X17905420Y-12158936D01*
X17905420Y-12158936D02*
X17914944Y-12139888D01*
X17914944Y-12139888D02*
X17914944Y-12092269D01*
X17914944Y-12092269D02*
X17905420Y-12073222D01*
X17905420Y-12073222D02*
X17895896Y-12063698D01*
X17895896Y-12063698D02*
X17876849Y-12054174D01*
X17876849Y-12054174D02*
X17838753Y-12054174D01*
X17838753Y-12054174D02*
X17819706Y-12063698D01*
X17819706Y-12063698D02*
X17810182Y-12073222D01*
X17810182Y-12073222D02*
X17800658Y-12092269D01*
X17991134Y-11977984D02*
X17991134Y-12016079D01*
X18067325Y-11977984D02*
X18067325Y-12016079D01*
X18362563Y-12254174D02*
X18353039Y-12244650D01*
X18353039Y-12244650D02*
X18333991Y-12216079D01*
X18333991Y-12216079D02*
X18324468Y-12197031D01*
X18324468Y-12197031D02*
X18314944Y-12168460D01*
X18314944Y-12168460D02*
X18305420Y-12120841D01*
X18305420Y-12120841D02*
X18305420Y-12082746D01*
X18305420Y-12082746D02*
X18314944Y-12035127D01*
X18314944Y-12035127D02*
X18324468Y-12006555D01*
X18324468Y-12006555D02*
X18333991Y-11987508D01*
X18333991Y-11987508D02*
X18353039Y-11958936D01*
X18353039Y-11958936D02*
X18362563Y-11949412D01*
X18429230Y-11997031D02*
X18438753Y-11987508D01*
X18438753Y-11987508D02*
X18457801Y-11977984D01*
X18457801Y-11977984D02*
X18505420Y-11977984D01*
X18505420Y-11977984D02*
X18524468Y-11987508D01*
X18524468Y-11987508D02*
X18533991Y-11997031D01*
X18533991Y-11997031D02*
X18543515Y-12016079D01*
X18543515Y-12016079D02*
X18543515Y-12035127D01*
X18543515Y-12035127D02*
X18533991Y-12063698D01*
X18533991Y-12063698D02*
X18419706Y-12177984D01*
X18419706Y-12177984D02*
X18543515Y-12177984D01*
X18657801Y-12063698D02*
X18638753Y-12054174D01*
X18638753Y-12054174D02*
X18629230Y-12044650D01*
X18629230Y-12044650D02*
X18619706Y-12025603D01*
X18619706Y-12025603D02*
X18619706Y-12016079D01*
X18619706Y-12016079D02*
X18629230Y-11997031D01*
X18629230Y-11997031D02*
X18638753Y-11987508D01*
X18638753Y-11987508D02*
X18657801Y-11977984D01*
X18657801Y-11977984D02*
X18695896Y-11977984D01*
X18695896Y-11977984D02*
X18714944Y-11987508D01*
X18714944Y-11987508D02*
X18724468Y-11997031D01*
X18724468Y-11997031D02*
X18733991Y-12016079D01*
X18733991Y-12016079D02*
X18733991Y-12025603D01*
X18733991Y-12025603D02*
X18724468Y-12044650D01*
X18724468Y-12044650D02*
X18714944Y-12054174D01*
X18714944Y-12054174D02*
X18695896Y-12063698D01*
X18695896Y-12063698D02*
X18657801Y-12063698D01*
X18657801Y-12063698D02*
X18638753Y-12073222D01*
X18638753Y-12073222D02*
X18629230Y-12082746D01*
X18629230Y-12082746D02*
X18619706Y-12101793D01*
X18619706Y-12101793D02*
X18619706Y-12139888D01*
X18619706Y-12139888D02*
X18629230Y-12158936D01*
X18629230Y-12158936D02*
X18638753Y-12168460D01*
X18638753Y-12168460D02*
X18657801Y-12177984D01*
X18657801Y-12177984D02*
X18695896Y-12177984D01*
X18695896Y-12177984D02*
X18714944Y-12168460D01*
X18714944Y-12168460D02*
X18724468Y-12158936D01*
X18724468Y-12158936D02*
X18733991Y-12139888D01*
X18733991Y-12139888D02*
X18733991Y-12101793D01*
X18733991Y-12101793D02*
X18724468Y-12082746D01*
X18724468Y-12082746D02*
X18714944Y-12073222D01*
X18714944Y-12073222D02*
X18695896Y-12063698D01*
X18972087Y-12177984D02*
X18972087Y-11977984D01*
X19057801Y-12177984D02*
X19057801Y-12073222D01*
X19057801Y-12073222D02*
X19048277Y-12054174D01*
X19048277Y-12054174D02*
X19029230Y-12044650D01*
X19029230Y-12044650D02*
X19000658Y-12044650D01*
X19000658Y-12044650D02*
X18981611Y-12054174D01*
X18981611Y-12054174D02*
X18972087Y-12063698D01*
X19181611Y-12177984D02*
X19162563Y-12168460D01*
X19162563Y-12168460D02*
X19153039Y-12158936D01*
X19153039Y-12158936D02*
X19143515Y-12139888D01*
X19143515Y-12139888D02*
X19143515Y-12082746D01*
X19143515Y-12082746D02*
X19153039Y-12063698D01*
X19153039Y-12063698D02*
X19162563Y-12054174D01*
X19162563Y-12054174D02*
X19181611Y-12044650D01*
X19181611Y-12044650D02*
X19210182Y-12044650D01*
X19210182Y-12044650D02*
X19229230Y-12054174D01*
X19229230Y-12054174D02*
X19238753Y-12063698D01*
X19238753Y-12063698D02*
X19248277Y-12082746D01*
X19248277Y-12082746D02*
X19248277Y-12139888D01*
X19248277Y-12139888D02*
X19238753Y-12158936D01*
X19238753Y-12158936D02*
X19229230Y-12168460D01*
X19229230Y-12168460D02*
X19210182Y-12177984D01*
X19210182Y-12177984D02*
X19181611Y-12177984D01*
X19362563Y-12177984D02*
X19343515Y-12168460D01*
X19343515Y-12168460D02*
X19333992Y-12149412D01*
X19333992Y-12149412D02*
X19333992Y-11977984D01*
X19514944Y-12168460D02*
X19495896Y-12177984D01*
X19495896Y-12177984D02*
X19457801Y-12177984D01*
X19457801Y-12177984D02*
X19438753Y-12168460D01*
X19438753Y-12168460D02*
X19429230Y-12149412D01*
X19429230Y-12149412D02*
X19429230Y-12073222D01*
X19429230Y-12073222D02*
X19438753Y-12054174D01*
X19438753Y-12054174D02*
X19457801Y-12044650D01*
X19457801Y-12044650D02*
X19495896Y-12044650D01*
X19495896Y-12044650D02*
X19514944Y-12054174D01*
X19514944Y-12054174D02*
X19524468Y-12073222D01*
X19524468Y-12073222D02*
X19524468Y-12092269D01*
X19524468Y-12092269D02*
X19429230Y-12111317D01*
X19600658Y-12168460D02*
X19619706Y-12177984D01*
X19619706Y-12177984D02*
X19657801Y-12177984D01*
X19657801Y-12177984D02*
X19676849Y-12168460D01*
X19676849Y-12168460D02*
X19686373Y-12149412D01*
X19686373Y-12149412D02*
X19686373Y-12139888D01*
X19686373Y-12139888D02*
X19676849Y-12120841D01*
X19676849Y-12120841D02*
X19657801Y-12111317D01*
X19657801Y-12111317D02*
X19629230Y-12111317D01*
X19629230Y-12111317D02*
X19610182Y-12101793D01*
X19610182Y-12101793D02*
X19600658Y-12082746D01*
X19600658Y-12082746D02*
X19600658Y-12073222D01*
X19600658Y-12073222D02*
X19610182Y-12054174D01*
X19610182Y-12054174D02*
X19629230Y-12044650D01*
X19629230Y-12044650D02*
X19657801Y-12044650D01*
X19657801Y-12044650D02*
X19676849Y-12054174D01*
X19753039Y-12254174D02*
X19762563Y-12244650D01*
X19762563Y-12244650D02*
X19781611Y-12216079D01*
X19781611Y-12216079D02*
X19791134Y-12197031D01*
X19791134Y-12197031D02*
X19800658Y-12168460D01*
X19800658Y-12168460D02*
X19810182Y-12120841D01*
X19810182Y-12120841D02*
X19810182Y-12082746D01*
X19810182Y-12082746D02*
X19800658Y-12035127D01*
X19800658Y-12035127D02*
X19791134Y-12006555D01*
X19791134Y-12006555D02*
X19781611Y-11987508D01*
X19781611Y-11987508D02*
X19762563Y-11958936D01*
X19762563Y-11958936D02*
X19753039Y-11949412D01*
D12*
X14752500Y-12315500D02*
X14752500Y-12385500D01*
X14717500Y-12350500D02*
X14787500Y-12350500D01*
D11*
X15086372Y-12241984D02*
X15105420Y-12241984D01*
X15105420Y-12241984D02*
X15124467Y-12251508D01*
X15124467Y-12251508D02*
X15133991Y-12261031D01*
X15133991Y-12261031D02*
X15143515Y-12280079D01*
X15143515Y-12280079D02*
X15153039Y-12318174D01*
X15153039Y-12318174D02*
X15153039Y-12365793D01*
X15153039Y-12365793D02*
X15143515Y-12403888D01*
X15143515Y-12403888D02*
X15133991Y-12422936D01*
X15133991Y-12422936D02*
X15124467Y-12432460D01*
X15124467Y-12432460D02*
X15105420Y-12441984D01*
X15105420Y-12441984D02*
X15086372Y-12441984D01*
X15086372Y-12441984D02*
X15067324Y-12432460D01*
X15067324Y-12432460D02*
X15057801Y-12422936D01*
X15057801Y-12422936D02*
X15048277Y-12403888D01*
X15048277Y-12403888D02*
X15038753Y-12365793D01*
X15038753Y-12365793D02*
X15038753Y-12318174D01*
X15038753Y-12318174D02*
X15048277Y-12280079D01*
X15048277Y-12280079D02*
X15057801Y-12261031D01*
X15057801Y-12261031D02*
X15067324Y-12251508D01*
X15067324Y-12251508D02*
X15086372Y-12241984D01*
X15238753Y-12422936D02*
X15248277Y-12432460D01*
X15248277Y-12432460D02*
X15238753Y-12441984D01*
X15238753Y-12441984D02*
X15229229Y-12432460D01*
X15229229Y-12432460D02*
X15238753Y-12422936D01*
X15238753Y-12422936D02*
X15238753Y-12441984D01*
X15314943Y-12241984D02*
X15448277Y-12241984D01*
X15448277Y-12241984D02*
X15362562Y-12441984D01*
X15562562Y-12241984D02*
X15581610Y-12241984D01*
X15581610Y-12241984D02*
X15600658Y-12251508D01*
X15600658Y-12251508D02*
X15610182Y-12261031D01*
X15610182Y-12261031D02*
X15619705Y-12280079D01*
X15619705Y-12280079D02*
X15629229Y-12318174D01*
X15629229Y-12318174D02*
X15629229Y-12365793D01*
X15629229Y-12365793D02*
X15619705Y-12403888D01*
X15619705Y-12403888D02*
X15610182Y-12422936D01*
X15610182Y-12422936D02*
X15600658Y-12432460D01*
X15600658Y-12432460D02*
X15581610Y-12441984D01*
X15581610Y-12441984D02*
X15562562Y-12441984D01*
X15562562Y-12441984D02*
X15543515Y-12432460D01*
X15543515Y-12432460D02*
X15533991Y-12422936D01*
X15533991Y-12422936D02*
X15524467Y-12403888D01*
X15524467Y-12403888D02*
X15514943Y-12365793D01*
X15514943Y-12365793D02*
X15514943Y-12318174D01*
X15514943Y-12318174D02*
X15524467Y-12280079D01*
X15524467Y-12280079D02*
X15533991Y-12261031D01*
X15533991Y-12261031D02*
X15543515Y-12251508D01*
X15543515Y-12251508D02*
X15562562Y-12241984D01*
X15753039Y-12241984D02*
X15772086Y-12241984D01*
X15772086Y-12241984D02*
X15791134Y-12251508D01*
X15791134Y-12251508D02*
X15800658Y-12261031D01*
X15800658Y-12261031D02*
X15810182Y-12280079D01*
X15810182Y-12280079D02*
X15819705Y-12318174D01*
X15819705Y-12318174D02*
X15819705Y-12365793D01*
X15819705Y-12365793D02*
X15810182Y-12403888D01*
X15810182Y-12403888D02*
X15800658Y-12422936D01*
X15800658Y-12422936D02*
X15791134Y-12432460D01*
X15791134Y-12432460D02*
X15772086Y-12441984D01*
X15772086Y-12441984D02*
X15753039Y-12441984D01*
X15753039Y-12441984D02*
X15733991Y-12432460D01*
X15733991Y-12432460D02*
X15724467Y-12422936D01*
X15724467Y-12422936D02*
X15714943Y-12403888D01*
X15714943Y-12403888D02*
X15705420Y-12365793D01*
X15705420Y-12365793D02*
X15705420Y-12318174D01*
X15705420Y-12318174D02*
X15714943Y-12280079D01*
X15714943Y-12280079D02*
X15724467Y-12261031D01*
X15724467Y-12261031D02*
X15733991Y-12251508D01*
X15733991Y-12251508D02*
X15753039Y-12241984D01*
X15905420Y-12441984D02*
X15905420Y-12308650D01*
X15905420Y-12327698D02*
X15914943Y-12318174D01*
X15914943Y-12318174D02*
X15933991Y-12308650D01*
X15933991Y-12308650D02*
X15962563Y-12308650D01*
X15962563Y-12308650D02*
X15981610Y-12318174D01*
X15981610Y-12318174D02*
X15991134Y-12337222D01*
X15991134Y-12337222D02*
X15991134Y-12441984D01*
X15991134Y-12337222D02*
X16000658Y-12318174D01*
X16000658Y-12318174D02*
X16019705Y-12308650D01*
X16019705Y-12308650D02*
X16048277Y-12308650D01*
X16048277Y-12308650D02*
X16067324Y-12318174D01*
X16067324Y-12318174D02*
X16076848Y-12337222D01*
X16076848Y-12337222D02*
X16076848Y-12441984D01*
X16172086Y-12441984D02*
X16172086Y-12308650D01*
X16172086Y-12327698D02*
X16181610Y-12318174D01*
X16181610Y-12318174D02*
X16200658Y-12308650D01*
X16200658Y-12308650D02*
X16229229Y-12308650D01*
X16229229Y-12308650D02*
X16248277Y-12318174D01*
X16248277Y-12318174D02*
X16257801Y-12337222D01*
X16257801Y-12337222D02*
X16257801Y-12441984D01*
X16257801Y-12337222D02*
X16267324Y-12318174D01*
X16267324Y-12318174D02*
X16286372Y-12308650D01*
X16286372Y-12308650D02*
X16314943Y-12308650D01*
X16314943Y-12308650D02*
X16333991Y-12318174D01*
X16333991Y-12318174D02*
X16343515Y-12337222D01*
X16343515Y-12337222D02*
X16343515Y-12441984D01*
X16733991Y-12232460D02*
X16562563Y-12489603D01*
X16991134Y-12241984D02*
X17010182Y-12241984D01*
X17010182Y-12241984D02*
X17029229Y-12251508D01*
X17029229Y-12251508D02*
X17038753Y-12261031D01*
X17038753Y-12261031D02*
X17048277Y-12280079D01*
X17048277Y-12280079D02*
X17057801Y-12318174D01*
X17057801Y-12318174D02*
X17057801Y-12365793D01*
X17057801Y-12365793D02*
X17048277Y-12403888D01*
X17048277Y-12403888D02*
X17038753Y-12422936D01*
X17038753Y-12422936D02*
X17029229Y-12432460D01*
X17029229Y-12432460D02*
X17010182Y-12441984D01*
X17010182Y-12441984D02*
X16991134Y-12441984D01*
X16991134Y-12441984D02*
X16972087Y-12432460D01*
X16972087Y-12432460D02*
X16962563Y-12422936D01*
X16962563Y-12422936D02*
X16953039Y-12403888D01*
X16953039Y-12403888D02*
X16943515Y-12365793D01*
X16943515Y-12365793D02*
X16943515Y-12318174D01*
X16943515Y-12318174D02*
X16953039Y-12280079D01*
X16953039Y-12280079D02*
X16962563Y-12261031D01*
X16962563Y-12261031D02*
X16972087Y-12251508D01*
X16972087Y-12251508D02*
X16991134Y-12241984D01*
X17143515Y-12422936D02*
X17153039Y-12432460D01*
X17153039Y-12432460D02*
X17143515Y-12441984D01*
X17143515Y-12441984D02*
X17133991Y-12432460D01*
X17133991Y-12432460D02*
X17143515Y-12422936D01*
X17143515Y-12422936D02*
X17143515Y-12441984D01*
X17276848Y-12241984D02*
X17295896Y-12241984D01*
X17295896Y-12241984D02*
X17314944Y-12251508D01*
X17314944Y-12251508D02*
X17324468Y-12261031D01*
X17324468Y-12261031D02*
X17333991Y-12280079D01*
X17333991Y-12280079D02*
X17343515Y-12318174D01*
X17343515Y-12318174D02*
X17343515Y-12365793D01*
X17343515Y-12365793D02*
X17333991Y-12403888D01*
X17333991Y-12403888D02*
X17324468Y-12422936D01*
X17324468Y-12422936D02*
X17314944Y-12432460D01*
X17314944Y-12432460D02*
X17295896Y-12441984D01*
X17295896Y-12441984D02*
X17276848Y-12441984D01*
X17276848Y-12441984D02*
X17257801Y-12432460D01*
X17257801Y-12432460D02*
X17248277Y-12422936D01*
X17248277Y-12422936D02*
X17238753Y-12403888D01*
X17238753Y-12403888D02*
X17229229Y-12365793D01*
X17229229Y-12365793D02*
X17229229Y-12318174D01*
X17229229Y-12318174D02*
X17238753Y-12280079D01*
X17238753Y-12280079D02*
X17248277Y-12261031D01*
X17248277Y-12261031D02*
X17257801Y-12251508D01*
X17257801Y-12251508D02*
X17276848Y-12241984D01*
X17419706Y-12261031D02*
X17429229Y-12251508D01*
X17429229Y-12251508D02*
X17448277Y-12241984D01*
X17448277Y-12241984D02*
X17495896Y-12241984D01*
X17495896Y-12241984D02*
X17514944Y-12251508D01*
X17514944Y-12251508D02*
X17524468Y-12261031D01*
X17524468Y-12261031D02*
X17533991Y-12280079D01*
X17533991Y-12280079D02*
X17533991Y-12299127D01*
X17533991Y-12299127D02*
X17524468Y-12327698D01*
X17524468Y-12327698D02*
X17410182Y-12441984D01*
X17410182Y-12441984D02*
X17533991Y-12441984D01*
X17600658Y-12241984D02*
X17733991Y-12241984D01*
X17733991Y-12241984D02*
X17648277Y-12441984D01*
X17895896Y-12241984D02*
X17857801Y-12241984D01*
X17857801Y-12241984D02*
X17838753Y-12251508D01*
X17838753Y-12251508D02*
X17829229Y-12261031D01*
X17829229Y-12261031D02*
X17810182Y-12289603D01*
X17810182Y-12289603D02*
X17800658Y-12327698D01*
X17800658Y-12327698D02*
X17800658Y-12403888D01*
X17800658Y-12403888D02*
X17810182Y-12422936D01*
X17810182Y-12422936D02*
X17819706Y-12432460D01*
X17819706Y-12432460D02*
X17838753Y-12441984D01*
X17838753Y-12441984D02*
X17876849Y-12441984D01*
X17876849Y-12441984D02*
X17895896Y-12432460D01*
X17895896Y-12432460D02*
X17905420Y-12422936D01*
X17905420Y-12422936D02*
X17914944Y-12403888D01*
X17914944Y-12403888D02*
X17914944Y-12356269D01*
X17914944Y-12356269D02*
X17905420Y-12337222D01*
X17905420Y-12337222D02*
X17895896Y-12327698D01*
X17895896Y-12327698D02*
X17876849Y-12318174D01*
X17876849Y-12318174D02*
X17838753Y-12318174D01*
X17838753Y-12318174D02*
X17819706Y-12327698D01*
X17819706Y-12327698D02*
X17810182Y-12337222D01*
X17810182Y-12337222D02*
X17800658Y-12356269D01*
X17991134Y-12241984D02*
X17991134Y-12280079D01*
X18067325Y-12241984D02*
X18067325Y-12280079D01*
X18362563Y-12518174D02*
X18353039Y-12508650D01*
X18353039Y-12508650D02*
X18333991Y-12480079D01*
X18333991Y-12480079D02*
X18324468Y-12461031D01*
X18324468Y-12461031D02*
X18314944Y-12432460D01*
X18314944Y-12432460D02*
X18305420Y-12384841D01*
X18305420Y-12384841D02*
X18305420Y-12346746D01*
X18305420Y-12346746D02*
X18314944Y-12299127D01*
X18314944Y-12299127D02*
X18324468Y-12270555D01*
X18324468Y-12270555D02*
X18333991Y-12251508D01*
X18333991Y-12251508D02*
X18353039Y-12222936D01*
X18353039Y-12222936D02*
X18362563Y-12213412D01*
X18524468Y-12308650D02*
X18524468Y-12441984D01*
X18476849Y-12232460D02*
X18429230Y-12375317D01*
X18429230Y-12375317D02*
X18553039Y-12375317D01*
X18781611Y-12441984D02*
X18781611Y-12241984D01*
X18867325Y-12441984D02*
X18867325Y-12337222D01*
X18867325Y-12337222D02*
X18857801Y-12318174D01*
X18857801Y-12318174D02*
X18838753Y-12308650D01*
X18838753Y-12308650D02*
X18810182Y-12308650D01*
X18810182Y-12308650D02*
X18791134Y-12318174D01*
X18791134Y-12318174D02*
X18781611Y-12327698D01*
X18991134Y-12441984D02*
X18972087Y-12432460D01*
X18972087Y-12432460D02*
X18962563Y-12422936D01*
X18962563Y-12422936D02*
X18953039Y-12403888D01*
X18953039Y-12403888D02*
X18953039Y-12346746D01*
X18953039Y-12346746D02*
X18962563Y-12327698D01*
X18962563Y-12327698D02*
X18972087Y-12318174D01*
X18972087Y-12318174D02*
X18991134Y-12308650D01*
X18991134Y-12308650D02*
X19019706Y-12308650D01*
X19019706Y-12308650D02*
X19038753Y-12318174D01*
X19038753Y-12318174D02*
X19048277Y-12327698D01*
X19048277Y-12327698D02*
X19057801Y-12346746D01*
X19057801Y-12346746D02*
X19057801Y-12403888D01*
X19057801Y-12403888D02*
X19048277Y-12422936D01*
X19048277Y-12422936D02*
X19038753Y-12432460D01*
X19038753Y-12432460D02*
X19019706Y-12441984D01*
X19019706Y-12441984D02*
X18991134Y-12441984D01*
X19172087Y-12441984D02*
X19153039Y-12432460D01*
X19153039Y-12432460D02*
X19143515Y-12413412D01*
X19143515Y-12413412D02*
X19143515Y-12241984D01*
X19324468Y-12432460D02*
X19305420Y-12441984D01*
X19305420Y-12441984D02*
X19267325Y-12441984D01*
X19267325Y-12441984D02*
X19248277Y-12432460D01*
X19248277Y-12432460D02*
X19238753Y-12413412D01*
X19238753Y-12413412D02*
X19238753Y-12337222D01*
X19238753Y-12337222D02*
X19248277Y-12318174D01*
X19248277Y-12318174D02*
X19267325Y-12308650D01*
X19267325Y-12308650D02*
X19305420Y-12308650D01*
X19305420Y-12308650D02*
X19324468Y-12318174D01*
X19324468Y-12318174D02*
X19333992Y-12337222D01*
X19333992Y-12337222D02*
X19333992Y-12356269D01*
X19333992Y-12356269D02*
X19238753Y-12375317D01*
X19410182Y-12432460D02*
X19429230Y-12441984D01*
X19429230Y-12441984D02*
X19467325Y-12441984D01*
X19467325Y-12441984D02*
X19486373Y-12432460D01*
X19486373Y-12432460D02*
X19495896Y-12413412D01*
X19495896Y-12413412D02*
X19495896Y-12403888D01*
X19495896Y-12403888D02*
X19486373Y-12384841D01*
X19486373Y-12384841D02*
X19467325Y-12375317D01*
X19467325Y-12375317D02*
X19438753Y-12375317D01*
X19438753Y-12375317D02*
X19419706Y-12365793D01*
X19419706Y-12365793D02*
X19410182Y-12346746D01*
X19410182Y-12346746D02*
X19410182Y-12337222D01*
X19410182Y-12337222D02*
X19419706Y-12318174D01*
X19419706Y-12318174D02*
X19438753Y-12308650D01*
X19438753Y-12308650D02*
X19467325Y-12308650D01*
X19467325Y-12308650D02*
X19486373Y-12318174D01*
X19562563Y-12518174D02*
X19572087Y-12508650D01*
X19572087Y-12508650D02*
X19591134Y-12480079D01*
X19591134Y-12480079D02*
X19600658Y-12461031D01*
X19600658Y-12461031D02*
X19610182Y-12432460D01*
X19610182Y-12432460D02*
X19619706Y-12384841D01*
X19619706Y-12384841D02*
X19619706Y-12346746D01*
X19619706Y-12346746D02*
X19610182Y-12299127D01*
X19610182Y-12299127D02*
X19600658Y-12270555D01*
X19600658Y-12270555D02*
X19591134Y-12251508D01*
X19591134Y-12251508D02*
X19572087Y-12222936D01*
X19572087Y-12222936D02*
X19562563Y-12213412D01*
M02*
