G04 #@! TF.GenerationSoftware,KiCad,Pcbnew,8.0.7-8.0.7-0~ubuntu24.04.1*
G04 #@! TF.CreationDate,2024-12-29T20:55:18-07:00*
G04 #@! TF.ProjectId,ESP32-S3 Hub,45535033-322d-4533-9320-4875622e6b69,V1*
G04 #@! TF.SameCoordinates,Original*
G04 #@! TF.FileFunction,Soldermask,Bot*
G04 #@! TF.FilePolarity,Negative*
%FSLAX46Y46*%
G04 Gerber Fmt 4.6, Leading zero omitted, Abs format (unit mm)*
G04 Created by KiCad (PCBNEW 8.0.7-8.0.7-0~ubuntu24.04.1) date 2024-12-29 20:55:18*
%MOMM*%
%LPD*%
G01*
G04 APERTURE LIST*
G04 Aperture macros list*
%AMRoundRect*
0 Rectangle with rounded corners*
0 $1 Rounding radius*
0 $2 $3 $4 $5 $6 $7 $8 $9 X,Y pos of 4 corners*
0 Add a 4 corners polygon primitive as box body*
4,1,4,$2,$3,$4,$5,$6,$7,$8,$9,$2,$3,0*
0 Add four circle primitives for the rounded corners*
1,1,$1+$1,$2,$3*
1,1,$1+$1,$4,$5*
1,1,$1+$1,$6,$7*
1,1,$1+$1,$8,$9*
0 Add four rect primitives between the rounded corners*
20,1,$1+$1,$2,$3,$4,$5,0*
20,1,$1+$1,$4,$5,$6,$7,0*
20,1,$1+$1,$6,$7,$8,$9,0*
20,1,$1+$1,$8,$9,$2,$3,0*%
%AMRotRect*
0 Rectangle, with rotation*
0 The origin of the aperture is its center*
0 $1 length*
0 $2 width*
0 $3 Rotation angle, in degrees counterclockwise*
0 Add horizontal line*
21,1,$1,$2,0,0,$3*%
G04 Aperture macros list end*
%ADD10R,1.000000X1.000000*%
%ADD11O,1.000000X1.000000*%
%ADD12RoundRect,0.135000X-0.226274X-0.035355X-0.035355X-0.226274X0.226274X0.035355X0.035355X0.226274X0*%
%ADD13RoundRect,0.135000X-0.135000X-0.185000X0.135000X-0.185000X0.135000X0.185000X-0.135000X0.185000X0*%
%ADD14RoundRect,0.140000X0.170000X-0.140000X0.170000X0.140000X-0.170000X0.140000X-0.170000X-0.140000X0*%
%ADD15RoundRect,0.062500X-0.291682X-0.203293X-0.203293X-0.291682X0.291682X0.203293X0.203293X0.291682X0*%
%ADD16RoundRect,0.062500X-0.291682X0.203293X0.203293X-0.291682X0.291682X-0.203293X-0.203293X0.291682X0*%
%ADD17RotRect,1.000000X2.000000X315.000000*%
%ADD18RoundRect,0.140000X-0.140000X-0.170000X0.140000X-0.170000X0.140000X0.170000X-0.140000X0.170000X0*%
%ADD19RoundRect,0.140000X0.140000X0.170000X-0.140000X0.170000X-0.140000X-0.170000X0.140000X-0.170000X0*%
%ADD20C,1.000000*%
%ADD21R,0.230000X0.650000*%
%ADD22R,0.450000X0.530000*%
%ADD23RoundRect,0.135000X0.135000X0.185000X-0.135000X0.185000X-0.135000X-0.185000X0.135000X-0.185000X0*%
%ADD24RoundRect,0.135000X-0.035355X0.226274X-0.226274X0.035355X0.035355X-0.226274X0.226274X-0.035355X0*%
%ADD25R,0.440000X0.230000*%
%ADD26R,0.340000X0.230000*%
%ADD27RoundRect,0.140000X-0.170000X0.140000X-0.170000X-0.140000X0.170000X-0.140000X0.170000X0.140000X0*%
%ADD28RoundRect,0.050000X-0.285000X-0.100000X0.285000X-0.100000X0.285000X0.100000X-0.285000X0.100000X0*%
%ADD29RoundRect,0.135000X0.226274X0.035355X0.035355X0.226274X-0.226274X-0.035355X-0.035355X-0.226274X0*%
G04 APERTURE END LIST*
D10*
G04 #@! TO.C,J22*
X157290000Y-108900000D03*
D11*
X156020000Y-108900000D03*
X154750000Y-108900000D03*
X153480000Y-108900000D03*
G04 #@! TD*
D10*
G04 #@! TO.C,J10*
X149200000Y-93025000D03*
D11*
X149200000Y-94295000D03*
X149200000Y-95565000D03*
G04 #@! TD*
D10*
G04 #@! TO.C,J6*
X149200000Y-98025000D03*
D11*
X149200000Y-99295000D03*
X149200000Y-100565000D03*
G04 #@! TD*
D10*
G04 #@! TO.C,J2*
X161600000Y-110600000D03*
D11*
X161600000Y-109330000D03*
X161600000Y-108060000D03*
G04 #@! TD*
D10*
G04 #@! TO.C,J1*
X161600000Y-100540000D03*
D11*
X161600000Y-99270000D03*
X161600000Y-98000000D03*
G04 #@! TD*
D10*
G04 #@! TO.C,J7*
X161600000Y-85525000D03*
D11*
X161600000Y-84255000D03*
X161600000Y-82985000D03*
G04 #@! TD*
D10*
G04 #@! TO.C,J12*
X149200000Y-83000000D03*
D11*
X149200000Y-84270000D03*
X149200000Y-85540000D03*
G04 #@! TD*
D10*
G04 #@! TO.C,J21*
X157300000Y-84700000D03*
D11*
X156030000Y-84700000D03*
X154760000Y-84700000D03*
X153490000Y-84700000D03*
G04 #@! TD*
D10*
G04 #@! TO.C,J4*
X149200000Y-108050000D03*
D11*
X149200000Y-109320000D03*
X149200000Y-110590000D03*
G04 #@! TD*
D10*
G04 #@! TO.C,J9*
X161600000Y-95600000D03*
D11*
X161600000Y-94330000D03*
X161600000Y-93060000D03*
G04 #@! TD*
D12*
G04 #@! TO.C,R1*
X153639376Y-99739376D03*
X154360624Y-100460624D03*
G04 #@! TD*
D13*
G04 #@! TO.C,R10*
X157690000Y-83400000D03*
X158710000Y-83400000D03*
G04 #@! TD*
D14*
G04 #@! TO.C,C1*
X158900000Y-85880000D03*
X158900000Y-84920000D03*
G04 #@! TD*
D15*
G04 #@! TO.C,U2*
X154229981Y-97916466D03*
D16*
X153876427Y-96944194D03*
X154229981Y-96590641D03*
X154583534Y-96237087D03*
X154937087Y-95883534D03*
X155290641Y-95529981D03*
X155644194Y-95176427D03*
D15*
X156616466Y-95529981D03*
X156970019Y-95883534D03*
D16*
X157323573Y-96855806D03*
X156970019Y-97209359D03*
X156616466Y-97562913D03*
X156262913Y-97916466D03*
X155909359Y-98270019D03*
X155555806Y-98623573D03*
D15*
X154583534Y-98270019D03*
D17*
X155600000Y-96900000D03*
G04 #@! TD*
D18*
G04 #@! TO.C,C9*
X149020000Y-96800000D03*
X149980000Y-96800000D03*
G04 #@! TD*
D19*
G04 #@! TO.C,C2*
X152180000Y-100600000D03*
X151220000Y-100600000D03*
G04 #@! TD*
D12*
G04 #@! TO.C,R3*
X156939376Y-93239376D03*
X157660624Y-93960624D03*
G04 #@! TD*
D20*
G04 #@! TO.C,TP4*
X151000000Y-92200000D03*
G04 #@! TD*
D21*
G04 #@! TO.C,J14*
X158210000Y-105080000D03*
X158210000Y-103330000D03*
X157810000Y-105080000D03*
X157810000Y-103330000D03*
X157410000Y-105080000D03*
X157410000Y-103330000D03*
X157010000Y-105080000D03*
X157010000Y-103330000D03*
X156610000Y-105080000D03*
X156610000Y-103330000D03*
X156210000Y-105080000D03*
X156210000Y-103330000D03*
X155810000Y-105080000D03*
X155810000Y-103330000D03*
X155410000Y-105080000D03*
X155410000Y-103330000D03*
X155010000Y-105080000D03*
X155010000Y-103330000D03*
X154610000Y-105080000D03*
X154610000Y-103330000D03*
X154210000Y-105080000D03*
X154210000Y-103330000D03*
X153810000Y-105080000D03*
X153810000Y-103330000D03*
X153410000Y-105080000D03*
X153410000Y-103330000D03*
X153010000Y-105080000D03*
X153010000Y-103330000D03*
X152610000Y-105080000D03*
X152610000Y-103330000D03*
D22*
X159010000Y-104770000D03*
X159010000Y-103640000D03*
X151810000Y-104770000D03*
X151810000Y-103640000D03*
G04 #@! TD*
D14*
G04 #@! TO.C,C7*
X160300000Y-95380000D03*
X160300000Y-94420000D03*
G04 #@! TD*
D23*
G04 #@! TO.C,R20*
X151010000Y-86900000D03*
X149990000Y-86900000D03*
G04 #@! TD*
D24*
G04 #@! TO.C,R4*
X154360624Y-92839376D03*
X153639376Y-93560624D03*
G04 #@! TD*
D20*
G04 #@! TO.C,TP14*
X160100000Y-98200000D03*
G04 #@! TD*
D25*
G04 #@! TO.C,J11*
X148410000Y-90200000D03*
D26*
X151170000Y-89900000D03*
D25*
X148410000Y-89600000D03*
D26*
X151170000Y-89300000D03*
D25*
X148410000Y-89000000D03*
D26*
X151170000Y-88700000D03*
D25*
X148410000Y-88400000D03*
G04 #@! TD*
D27*
G04 #@! TO.C,C8*
X157700000Y-100320000D03*
X157700000Y-101280000D03*
G04 #@! TD*
D21*
G04 #@! TO.C,J17*
X158210000Y-90080000D03*
X158210000Y-88330000D03*
X157810000Y-90080000D03*
X157810000Y-88330000D03*
X157410000Y-90080000D03*
X157410000Y-88330000D03*
X157010000Y-90080000D03*
X157010000Y-88330000D03*
X156610000Y-90080000D03*
X156610000Y-88330000D03*
X156210000Y-90080000D03*
X156210000Y-88330000D03*
X155810000Y-90080000D03*
X155810000Y-88330000D03*
X155410000Y-90080000D03*
X155410000Y-88330000D03*
X155010000Y-90080000D03*
X155010000Y-88330000D03*
X154610000Y-90080000D03*
X154610000Y-88330000D03*
X154210000Y-90080000D03*
X154210000Y-88330000D03*
X153810000Y-90080000D03*
X153810000Y-88330000D03*
X153410000Y-90080000D03*
X153410000Y-88330000D03*
X153010000Y-90080000D03*
X153010000Y-88330000D03*
X152610000Y-90080000D03*
X152610000Y-88330000D03*
D22*
X159010000Y-89770000D03*
X159010000Y-88640000D03*
X151810000Y-89770000D03*
X151810000Y-88640000D03*
G04 #@! TD*
D20*
G04 #@! TO.C,TP1*
X158700000Y-93900000D03*
G04 #@! TD*
D13*
G04 #@! TO.C,R19*
X160290000Y-91600000D03*
X161310000Y-91600000D03*
G04 #@! TD*
D25*
G04 #@! TO.C,J8*
X162390000Y-88400000D03*
D26*
X159630000Y-88700000D03*
D25*
X162390000Y-89000000D03*
D26*
X159630000Y-89300000D03*
D25*
X162390000Y-89600000D03*
D26*
X159630000Y-89900000D03*
D25*
X162390000Y-90200000D03*
G04 #@! TD*
D20*
G04 #@! TO.C,TP12*
X158800000Y-95300000D03*
G04 #@! TD*
D14*
G04 #@! TO.C,C14*
X159100000Y-108680000D03*
X159100000Y-107720000D03*
G04 #@! TD*
D13*
G04 #@! TO.C,R11*
X158990000Y-96600000D03*
X160010000Y-96600000D03*
G04 #@! TD*
D28*
G04 #@! TO.C,U3*
X151010000Y-84350000D03*
X151010000Y-83850000D03*
X151010000Y-83350000D03*
X151010000Y-82850000D03*
X152490000Y-82850000D03*
X152490000Y-83350000D03*
X152490000Y-83850000D03*
X152490000Y-84350000D03*
G04 #@! TD*
D23*
G04 #@! TO.C,R18*
X150210000Y-101900000D03*
X149190000Y-101900000D03*
G04 #@! TD*
D25*
G04 #@! TO.C,J5*
X148410000Y-105100000D03*
D26*
X151170000Y-104800000D03*
D25*
X148410000Y-104500000D03*
D26*
X151170000Y-104200000D03*
D25*
X148410000Y-103900000D03*
D26*
X151170000Y-103600000D03*
D25*
X148410000Y-103300000D03*
G04 #@! TD*
D18*
G04 #@! TO.C,C5*
X160920000Y-96800000D03*
X161880000Y-96800000D03*
G04 #@! TD*
D13*
G04 #@! TO.C,R2*
X160700000Y-106500000D03*
X161720000Y-106500000D03*
G04 #@! TD*
D19*
G04 #@! TO.C,C3*
X152080000Y-101600000D03*
X151120000Y-101600000D03*
G04 #@! TD*
D25*
G04 #@! TO.C,J3*
X162390000Y-103300000D03*
D26*
X159630000Y-103600000D03*
D25*
X162390000Y-103900000D03*
D26*
X159630000Y-104200000D03*
D25*
X162390000Y-104500000D03*
D26*
X159630000Y-104800000D03*
D25*
X162390000Y-105100000D03*
G04 #@! TD*
D29*
G04 #@! TO.C,R5*
X152260624Y-95360624D03*
X151539376Y-94639376D03*
G04 #@! TD*
M02*
