G04 #@! TF.GenerationSoftware,KiCad,Pcbnew,8.0.7-8.0.7-0~ubuntu24.04.1*
G04 #@! TF.CreationDate,2024-12-29T20:55:18-07:00*
G04 #@! TF.ProjectId,ESP32-S3 Hub,45535033-322d-4533-9320-4875622e6b69,V1*
G04 #@! TF.SameCoordinates,Original*
G04 #@! TF.FileFunction,Copper,L4,Inr*
G04 #@! TF.FilePolarity,Positive*
%FSLAX46Y46*%
G04 Gerber Fmt 4.6, Leading zero omitted, Abs format (unit mm)*
G04 Created by KiCad (PCBNEW 8.0.7-8.0.7-0~ubuntu24.04.1) date 2024-12-29 20:55:18*
%MOMM*%
%LPD*%
G01*
G04 APERTURE LIST*
G04 #@! TA.AperFunction,ComponentPad*
%ADD10R,1.000000X1.000000*%
G04 #@! TD*
G04 #@! TA.AperFunction,ComponentPad*
%ADD11O,1.000000X1.000000*%
G04 #@! TD*
G04 #@! TA.AperFunction,ViaPad*
%ADD12C,0.600000*%
G04 #@! TD*
G04 #@! TA.AperFunction,Conductor*
%ADD13C,0.160000*%
G04 #@! TD*
G04 #@! TA.AperFunction,Conductor*
%ADD14C,0.200000*%
G04 #@! TD*
G04 APERTURE END LIST*
D10*
G04 #@! TO.N,VDD*
G04 #@! TO.C,J22*
X157290000Y-108900000D03*
D11*
G04 #@! TO.N,RS485+*
X156020000Y-108900000D03*
G04 #@! TO.N,RS485-*
X154750000Y-108900000D03*
G04 #@! TO.N,GND*
X153480000Y-108900000D03*
G04 #@! TD*
D10*
G04 #@! TO.N,4A*
G04 #@! TO.C,J10*
X149200000Y-93025000D03*
D11*
G04 #@! TO.N,4B*
X149200000Y-94295000D03*
G04 #@! TO.N,4C*
X149200000Y-95565000D03*
G04 #@! TD*
D10*
G04 #@! TO.N,2CSA-A*
G04 #@! TO.C,J6*
X149200000Y-98025000D03*
D11*
G04 #@! TO.N,2CSA-B*
X149200000Y-99295000D03*
G04 #@! TO.N,unconnected-(J6-Pin_3-Pad3)*
X149200000Y-100565000D03*
G04 #@! TD*
D10*
G04 #@! TO.N,1CSA-A*
G04 #@! TO.C,J2*
X161600000Y-110600000D03*
D11*
G04 #@! TO.N,1CSA-B*
X161600000Y-109330000D03*
G04 #@! TO.N,unconnected-(J2-Pin_3-Pad3)*
X161600000Y-108060000D03*
G04 #@! TD*
D10*
G04 #@! TO.N,1A*
G04 #@! TO.C,J1*
X161600000Y-100540000D03*
D11*
G04 #@! TO.N,1B*
X161600000Y-99270000D03*
G04 #@! TO.N,1C*
X161600000Y-98000000D03*
G04 #@! TD*
D10*
G04 #@! TO.N,3A*
G04 #@! TO.C,J7*
X161600000Y-85525000D03*
D11*
G04 #@! TO.N,3B*
X161600000Y-84255000D03*
G04 #@! TO.N,3C*
X161600000Y-82985000D03*
G04 #@! TD*
D10*
G04 #@! TO.N,4CSA-A*
G04 #@! TO.C,J12*
X149200000Y-83000000D03*
D11*
G04 #@! TO.N,4CSA-B*
X149200000Y-84270000D03*
G04 #@! TO.N,unconnected-(J12-Pin_3-Pad3)*
X149200000Y-85540000D03*
G04 #@! TD*
D10*
G04 #@! TO.N,VDD*
G04 #@! TO.C,J21*
X157300000Y-84700000D03*
D11*
G04 #@! TO.N,RS485+*
X156030000Y-84700000D03*
G04 #@! TO.N,RS485-*
X154760000Y-84700000D03*
G04 #@! TO.N,GND*
X153490000Y-84700000D03*
G04 #@! TD*
D10*
G04 #@! TO.N,2A*
G04 #@! TO.C,J4*
X149200000Y-108050000D03*
D11*
G04 #@! TO.N,2B*
X149200000Y-109320000D03*
G04 #@! TO.N,2C*
X149200000Y-110590000D03*
G04 #@! TD*
D10*
G04 #@! TO.N,3CSA-A*
G04 #@! TO.C,J9*
X161600000Y-95600000D03*
D11*
G04 #@! TO.N,3CSA-B*
X161600000Y-94330000D03*
G04 #@! TO.N,unconnected-(J9-Pin_3-Pad3)*
X161600000Y-93060000D03*
G04 #@! TD*
D12*
G04 #@! TO.N,VDD*
X149900000Y-105496998D03*
X160299998Y-95399999D03*
X160344276Y-88186986D03*
X161108450Y-103516808D03*
X152009999Y-101712599D03*
X154034410Y-92092401D03*
X150544998Y-86200000D03*
X150600000Y-95500000D03*
X158203727Y-100415442D03*
G04 #@! TO.N,GND*
X148480000Y-97000000D03*
X160200000Y-110100000D03*
X160300000Y-83500000D03*
X161640000Y-89100000D03*
X159040000Y-102571126D03*
X161922884Y-97040000D03*
X156073223Y-96073223D03*
X155246598Y-97642310D03*
X159000000Y-111100000D03*
X148480000Y-102331717D03*
X151793613Y-90212371D03*
X160200000Y-111100000D03*
X154800000Y-82380000D03*
X158100000Y-82500000D03*
X161922884Y-92155925D03*
X154982015Y-101859847D03*
X150500000Y-110900000D03*
X157800000Y-111100000D03*
X156600000Y-82500000D03*
X149136282Y-104132393D03*
X162320000Y-107300000D03*
X150000000Y-90350000D03*
X152000000Y-111100000D03*
X159800000Y-86730000D03*
X160000000Y-84900000D03*
X151294670Y-99790000D03*
X150500000Y-109700000D03*
X161640000Y-104060001D03*
X159900000Y-82500000D03*
X149379999Y-87718132D03*
G04 #@! TO.N,NRST*
X151141953Y-99041485D03*
X148549578Y-101276085D03*
G04 #@! TO.N,Net-(D1-A)*
X159500000Y-83500000D03*
G04 #@! TO.N,1CSA-B*
X155387269Y-101002147D03*
G04 #@! TO.N,1CSA-A*
X153689712Y-101979452D03*
G04 #@! TO.N,MISO1*
X150536964Y-93719477D03*
X156557167Y-106336230D03*
X154200000Y-104200000D03*
X157119997Y-89254998D03*
X154070000Y-86800000D03*
X150328227Y-104010458D03*
X160359999Y-89884892D03*
X160500000Y-104800000D03*
G04 #@! TO.N,CS1*
X160954233Y-107349656D03*
X161922884Y-101500002D03*
G04 #@! TO.N,MOSI1*
X148480000Y-91262446D03*
X160246471Y-105716468D03*
X160107496Y-90601738D03*
X150468035Y-94714566D03*
X154372324Y-102313585D03*
X150643337Y-103318859D03*
X156244493Y-91108358D03*
X155979163Y-106829699D03*
X154803658Y-87118982D03*
G04 #@! TO.N,SCK1*
X160505908Y-103980000D03*
X155900000Y-89130000D03*
X157774437Y-95425778D03*
X150216282Y-104762171D03*
X152116372Y-92033553D03*
X160500000Y-89000000D03*
X154959538Y-104226564D03*
G04 #@! TO.N,2C*
X159400000Y-100415443D03*
G04 #@! TO.N,2B*
X156863746Y-99160000D03*
G04 #@! TO.N,2A*
X156088197Y-99911803D03*
G04 #@! TO.N,2CSA-B*
X153840274Y-101234516D03*
G04 #@! TO.N,2CSA-A*
X153300000Y-100700000D03*
G04 #@! TO.N,3B*
X159525479Y-98975121D03*
G04 #@! TO.N,CS3*
X152419849Y-97353221D03*
X161682834Y-91218760D03*
G04 #@! TO.N,3CSA-B*
X154292448Y-99156098D03*
G04 #@! TO.N,3CSA-A*
X154829829Y-99770174D03*
G04 #@! TO.N,4A*
X159400000Y-93108533D03*
G04 #@! TO.N,4C*
X159940000Y-92500000D03*
G04 #@! TO.N,4B*
X158960432Y-91765946D03*
G04 #@! TO.N,CS4*
X149869701Y-86752904D03*
X152033203Y-96698923D03*
G04 #@! TO.N,4CSA-B*
X152354046Y-99830446D03*
G04 #@! TO.N,4CSA-A*
X151875582Y-99239962D03*
G04 #@! TO.N,CS8*
X157218989Y-94826615D03*
X157925500Y-86731121D03*
X153265598Y-91105180D03*
G04 #@! TO.N,Free1*
X156756039Y-104166085D03*
X153735770Y-106882760D03*
X158300000Y-92440000D03*
G04 #@! TO.N,SCL1*
X153005358Y-102309998D03*
X152614449Y-86721799D03*
X157540000Y-91106549D03*
X154900000Y-92223542D03*
X157856927Y-106819918D03*
G04 #@! TO.N,CS7*
X152895924Y-89125249D03*
X159029929Y-87270000D03*
X156652392Y-94260000D03*
G04 #@! TO.N,SDA1*
X158250897Y-106170002D03*
X153036657Y-104200000D03*
X151984998Y-87270000D03*
X155757649Y-92176593D03*
X157920000Y-89254998D03*
G04 #@! TO.N,CS5*
X152896560Y-96034926D03*
X157540000Y-102131895D03*
X151932355Y-106170000D03*
G04 #@! TO.N,CS6*
X152365531Y-106794470D03*
X156102321Y-93720000D03*
X157960000Y-104115002D03*
G04 #@! TO.N,Net-(U1-GPIO3)*
X153711171Y-98666485D03*
G04 #@! TO.N,Net-(U1-MTCK)*
X155497422Y-93259890D03*
G04 #@! TO.N,Net-(U1-MTDO)*
X154931835Y-93767545D03*
G04 #@! TO.N,Net-(U1-MTDI)*
X154359934Y-94288522D03*
G04 #@! TO.N,LED*
X153280421Y-95374671D03*
X157300000Y-82800000D03*
G04 #@! TO.N,RS485-*
X155998194Y-104108892D03*
X154731368Y-89295045D03*
X154300000Y-83000000D03*
G04 #@! TO.N,RS485+*
X154635916Y-91103542D03*
X155263382Y-82982396D03*
X156451832Y-102311196D03*
X154438870Y-106433922D03*
G04 #@! TO.N,BOOT*
X160700000Y-102400000D03*
X153181159Y-98121796D03*
G04 #@! TO.N,ShiftCLK*
X158645660Y-97427606D03*
G04 #@! TO.N,ShiftData*
X160058061Y-98432941D03*
G04 #@! TO.N,UART0-RTS{slash}CS0*
X150200000Y-83785235D03*
X152954410Y-92187537D03*
G04 #@! TO.N,Net-(U1-GPIO46)*
X152343963Y-93518681D03*
G04 #@! TO.N,ShiftRegCLK*
X158048399Y-97897588D03*
G04 #@! TO.N,ShiftEn*
X159186859Y-96887054D03*
G04 #@! TO.N,UART0_TX*
X150200000Y-82600000D03*
X153856792Y-94860000D03*
G04 #@! TO.N,UART0_RX*
X150300000Y-84800000D03*
X152343963Y-92758678D03*
G04 #@! TO.N,Free2*
X156958254Y-92272623D03*
X153983239Y-89161229D03*
X156845500Y-86878802D03*
G04 #@! TD*
D13*
G04 #@! TO.N,1CSA-B*
X159900000Y-102194904D02*
X159900000Y-105299263D01*
X159900000Y-105299263D02*
X159700000Y-105499263D01*
X158660539Y-100955443D02*
X159900000Y-102194904D01*
X159700000Y-105499263D02*
X159700000Y-107430000D01*
X157866914Y-100955443D02*
X158660539Y-100955443D01*
X159700000Y-107430000D02*
X161600000Y-109330000D01*
X155437521Y-100951895D02*
X157863366Y-100951895D01*
X155387269Y-101002147D02*
X155437521Y-100951895D01*
X157863366Y-100951895D02*
X157866914Y-100955443D01*
G04 #@! TO.N,1CSA-A*
X159580000Y-102327452D02*
X159580000Y-105166715D01*
X159380000Y-105366715D02*
X159380000Y-108380000D01*
X159580000Y-105166715D02*
X159380000Y-105366715D01*
X157730818Y-101271895D02*
X157734366Y-101275443D01*
X156584477Y-101271895D02*
X157730818Y-101271895D01*
X157734366Y-101275443D02*
X158527991Y-101275443D01*
X159380000Y-108380000D02*
X161600000Y-110600000D01*
X153689712Y-102394649D02*
X154148648Y-102853585D01*
X153689712Y-101979452D02*
X153689712Y-102394649D01*
X158527991Y-101275443D02*
X159580000Y-102327452D01*
X154148648Y-102853585D02*
X155002787Y-102853585D01*
X155002787Y-102853585D02*
X156584477Y-101271895D01*
G04 #@! TO.N,MISO1*
X158790897Y-105946326D02*
X158420845Y-105576274D01*
X149360000Y-105720674D02*
X150200000Y-106560674D01*
X149928035Y-94938242D02*
X149940000Y-94950207D01*
X157876274Y-105576274D02*
X157116318Y-106336230D01*
X156852548Y-111000000D02*
X157632548Y-110220000D01*
X149940000Y-94316441D02*
X149940000Y-94478925D01*
X157116318Y-106336230D02*
X156557167Y-106336230D01*
X157632548Y-110220000D02*
X158480000Y-110220000D01*
X150200000Y-106560674D02*
X150200000Y-108500000D01*
X158480000Y-110220000D02*
X158790897Y-109909103D01*
X150328227Y-104010458D02*
X149789542Y-104010458D01*
X149940000Y-94478925D02*
X149928035Y-94490890D01*
X149700000Y-103800000D02*
X149700000Y-104100000D01*
X149940000Y-94950207D02*
X149940000Y-103560000D01*
X149789542Y-104010458D02*
X149700000Y-104100000D01*
X158790897Y-109909103D02*
X158790897Y-105946326D01*
X149700000Y-104100000D02*
X149700000Y-104600000D01*
X149700000Y-104600000D02*
X149360000Y-104940000D01*
X150200000Y-108500000D02*
X152700000Y-111000000D01*
X158420845Y-105576274D02*
X157876274Y-105576274D01*
X150536964Y-93719477D02*
X149940000Y-94316441D01*
X152700000Y-111000000D02*
X156852548Y-111000000D01*
X149360000Y-104940000D02*
X149360000Y-105720674D01*
X149928035Y-94490890D02*
X149928035Y-94938242D01*
X149940000Y-103560000D02*
X149700000Y-103800000D01*
G04 #@! TO.N,CS1*
X162240000Y-106063889D02*
X160954233Y-107349656D01*
X161922884Y-101500002D02*
X162240000Y-101817118D01*
X162240000Y-101817118D02*
X162240000Y-106063889D01*
G04 #@! TO.N,MOSI1*
X156609464Y-107460000D02*
X155979163Y-106829699D01*
X152798922Y-100160000D02*
X150858922Y-102100000D01*
X151200000Y-103400000D02*
X151200000Y-103907669D01*
X150468035Y-94714566D02*
X150578242Y-94714566D01*
X158100000Y-109900000D02*
X158470897Y-109529103D01*
X150601953Y-96501953D02*
X150601953Y-102301953D01*
X150600000Y-96447452D02*
X150600000Y-96500000D01*
X151140000Y-95276324D02*
X151140000Y-95907452D01*
X158470897Y-107900897D02*
X158030000Y-107460000D01*
X150939807Y-104167862D02*
X150939807Y-104802322D01*
X158030000Y-107460000D02*
X156609464Y-107460000D01*
X154380274Y-102305635D02*
X154380274Y-100880274D01*
X150700000Y-108547452D02*
X152832548Y-110680000D01*
X150700000Y-105042129D02*
X150700000Y-108547452D01*
X151200000Y-103907669D02*
X150939807Y-104167862D01*
X151200000Y-102900000D02*
X151200000Y-103400000D01*
X158470897Y-109529103D02*
X158470897Y-107900897D01*
X150601953Y-102301953D02*
X151200000Y-102900000D01*
X152832548Y-110680000D02*
X156720000Y-110680000D01*
X150643337Y-103318859D02*
X151118859Y-103318859D01*
X154380274Y-100880274D02*
X153660000Y-100160000D01*
X150578242Y-94714566D02*
X151140000Y-95276324D01*
X150601953Y-103277475D02*
X150643337Y-103318859D01*
X157500000Y-109900000D02*
X158100000Y-109900000D01*
X151118859Y-103318859D02*
X151200000Y-103400000D01*
X150858922Y-102100000D02*
X150601953Y-102100000D01*
X154372324Y-102313585D02*
X154380274Y-102305635D01*
X151140000Y-95907452D02*
X150600000Y-96447452D01*
X150600000Y-96500000D02*
X150601953Y-96501953D01*
X150939807Y-104802322D02*
X150700000Y-105042129D01*
X156720000Y-110680000D02*
X157500000Y-109900000D01*
X153660000Y-100160000D02*
X152798922Y-100160000D01*
G04 #@! TO.N,SCK1*
X156300000Y-86500000D02*
X156300000Y-88730000D01*
X160500000Y-89000000D02*
X158900000Y-89000000D01*
X156300000Y-88730000D02*
X155900000Y-89130000D01*
X157385500Y-86655126D02*
X157069176Y-86338802D01*
X157069176Y-86338802D02*
X156461198Y-86338802D01*
X158900000Y-89000000D02*
X157385500Y-87485500D01*
X157385500Y-87485500D02*
X157385500Y-86655126D01*
X156461198Y-86338802D02*
X156300000Y-86500000D01*
G04 #@! TO.N,3B*
X159518061Y-98967703D02*
X159518061Y-98209265D01*
X162500000Y-96100000D02*
X162500000Y-84422894D01*
X162500000Y-84422894D02*
X162332106Y-84255000D01*
X161227326Y-96500000D02*
X162100000Y-96500000D01*
X162100000Y-96500000D02*
X162500000Y-96100000D01*
X159525479Y-98975121D02*
X159518061Y-98967703D01*
X159518061Y-98209265D02*
X161227326Y-96500000D01*
X162332106Y-84255000D02*
X161600000Y-84255000D01*
G04 #@! TO.N,CS3*
X161682834Y-91218760D02*
X160860000Y-92041594D01*
X152670760Y-97102310D02*
X152419849Y-97353221D01*
X160860000Y-92041594D02*
X160860000Y-93556439D01*
X157314129Y-97102310D02*
X152670760Y-97102310D01*
X160860000Y-93556439D02*
X157314129Y-97102310D01*
G04 #@! TO.N,3CSA-B*
X160606322Y-94330000D02*
X161600000Y-94330000D01*
X156282412Y-98117588D02*
X156818734Y-98117588D01*
X154292448Y-99156098D02*
X155243902Y-99156098D01*
X155243902Y-99156098D02*
X156282412Y-98117588D01*
X156818734Y-98117588D02*
X160606322Y-94330000D01*
G04 #@! TO.N,3CSA-A*
X161400000Y-95600000D02*
X161600000Y-95600000D01*
X158562412Y-98437588D02*
X161400000Y-95600000D01*
X155129826Y-99770174D02*
X156462412Y-98437588D01*
X156462412Y-98437588D02*
X158562412Y-98437588D01*
X154829829Y-99770174D02*
X155129826Y-99770174D01*
G04 #@! TO.N,CS4*
X149980000Y-89606324D02*
X149980000Y-86863203D01*
X149840000Y-91134904D02*
X149840000Y-90953676D01*
X151803963Y-93098867D02*
X149840000Y-91134904D01*
X149980000Y-86863203D02*
X149869701Y-86752904D01*
X149840000Y-90953676D02*
X149460000Y-90573676D01*
X152200000Y-96532126D02*
X152200000Y-94138394D01*
X149460000Y-90573676D02*
X149460000Y-90126324D01*
X149460000Y-90126324D02*
X149980000Y-89606324D01*
X152033203Y-96698923D02*
X152200000Y-96532126D01*
X151803963Y-93742357D02*
X151803963Y-93098867D01*
X152200000Y-94138394D02*
X151803963Y-93742357D01*
G04 #@! TO.N,4CSA-B*
X149940000Y-85203676D02*
X149200000Y-84463676D01*
X149940000Y-85846519D02*
X149940000Y-85203676D01*
X149520000Y-91086224D02*
X149140000Y-90706224D01*
X152415582Y-99768910D02*
X152415582Y-98215582D01*
X152415582Y-98215582D02*
X151493203Y-97293203D01*
X151880000Y-94270942D02*
X151483963Y-93874905D01*
X148839999Y-88339999D02*
X148839999Y-86946520D01*
X149520000Y-91267452D02*
X149520000Y-91086224D01*
X149200000Y-84463676D02*
X149200000Y-84270000D01*
X149140000Y-88640000D02*
X148839999Y-88339999D01*
X151493203Y-96475245D02*
X151880000Y-96088448D01*
X148839999Y-86946520D02*
X149940000Y-85846519D01*
X149140000Y-90706224D02*
X149140000Y-88640000D01*
X152354046Y-99830446D02*
X152415582Y-99768910D01*
X151493203Y-97293203D02*
X151493203Y-96475245D01*
X151483963Y-93231415D02*
X149520000Y-91267452D01*
X151880000Y-96088448D02*
X151880000Y-94270942D01*
X151483963Y-93874905D02*
X151483963Y-93231415D01*
G04 #@! TO.N,4CSA-A*
X148460000Y-83740000D02*
X149200000Y-83000000D01*
X151875582Y-99239962D02*
X151881251Y-99234293D01*
X151875582Y-99239962D02*
X151875582Y-98128130D01*
X148460000Y-90478772D02*
X148460000Y-83740000D01*
X151875582Y-98128130D02*
X151173203Y-97425751D01*
X151560000Y-94403490D02*
X151163963Y-94007453D01*
X151173203Y-96326797D02*
X151560000Y-95940000D01*
X151560000Y-95940000D02*
X151560000Y-94403490D01*
X151163963Y-93363963D02*
X149200000Y-91400000D01*
X149200000Y-91400000D02*
X149200000Y-91218772D01*
X151875582Y-99239962D02*
X151875582Y-99011438D01*
X151173203Y-97425751D02*
X151173203Y-96326797D01*
X149200000Y-91218772D02*
X148460000Y-90478772D01*
X151163963Y-94007453D02*
X151163963Y-93363963D01*
G04 #@! TO.N,CS8*
X152750000Y-85450000D02*
X152750000Y-84102548D01*
X153500000Y-88880792D02*
X153500000Y-86200000D01*
X157925500Y-86929247D02*
X157925500Y-86731121D01*
X153265598Y-91105180D02*
X153443239Y-90927539D01*
X158400000Y-84352548D02*
X158400000Y-86256621D01*
X153443239Y-88937553D02*
X153500000Y-88880792D01*
X153443239Y-90927539D02*
X153443239Y-88937553D01*
X158400000Y-86256621D02*
X157925500Y-86731121D01*
X157967452Y-83920000D02*
X158400000Y-84352548D01*
X153500000Y-86200000D02*
X152750000Y-85450000D01*
X152750000Y-84102548D02*
X152932548Y-83920000D01*
X152932548Y-83920000D02*
X157967452Y-83920000D01*
X158056621Y-86600000D02*
X157925500Y-86731121D01*
G04 #@! TO.N,Free1*
X158145443Y-101595443D02*
X158500000Y-101950000D01*
X157598270Y-101591895D02*
X157601818Y-101595443D01*
X154673758Y-105435358D02*
X153735770Y-106373346D01*
X157601818Y-101595443D02*
X158145443Y-101595443D01*
X156756039Y-104166085D02*
X156991832Y-103930292D01*
X156991832Y-103930292D02*
X156991832Y-101866702D01*
X158500000Y-101950000D02*
X158500000Y-104500000D01*
X153735770Y-106373346D02*
X153735770Y-106882760D01*
X157266639Y-101591895D02*
X157598270Y-101591895D01*
X157564642Y-105435358D02*
X154673758Y-105435358D01*
X156991832Y-101866702D02*
X157266639Y-101591895D01*
X158500000Y-104500000D02*
X157564642Y-105435358D01*
G04 #@! TO.N,SCL1*
X154900000Y-92223542D02*
X154900000Y-92136527D01*
X154900000Y-92136527D02*
X155704493Y-91332034D01*
X155704493Y-90884682D02*
X156020817Y-90568358D01*
X155704493Y-91332034D02*
X155704493Y-90884682D01*
X157001809Y-90568358D02*
X157540000Y-91106549D01*
X156020817Y-90568358D02*
X157001809Y-90568358D01*
G04 #@! TO.N,CS7*
X157340000Y-94260000D02*
X161040000Y-90560000D01*
X159029929Y-84529929D02*
X158100000Y-83600000D01*
X152430000Y-83970000D02*
X152430000Y-85773674D01*
X152430000Y-85773674D02*
X153154449Y-86498123D01*
X160570000Y-87270000D02*
X159029929Y-87270000D01*
X152800000Y-83600000D02*
X152430000Y-83970000D01*
X161040000Y-90560000D02*
X161040000Y-87740000D01*
X152895924Y-87204000D02*
X152895924Y-89125249D01*
X156652392Y-94260000D02*
X157340000Y-94260000D01*
X153154449Y-86498123D02*
X153154449Y-86945475D01*
X158100000Y-83600000D02*
X152800000Y-83600000D01*
X161040000Y-87740000D02*
X160570000Y-87270000D01*
X159029929Y-87270000D02*
X159029929Y-84529929D01*
X152895924Y-89125249D02*
X152895924Y-89154524D01*
X153154449Y-86945475D02*
X152895924Y-87204000D01*
G04 #@! TO.N,SDA1*
X155757649Y-92176593D02*
X155819030Y-92237974D01*
X158120000Y-89454998D02*
X157920000Y-89254998D01*
X155819030Y-92237974D02*
X155819030Y-92380970D01*
X156500000Y-91700000D02*
X157710225Y-91700000D01*
X155757649Y-92176593D02*
X156023407Y-92176593D01*
X158120000Y-91290225D02*
X158120000Y-89454998D01*
X157710225Y-91700000D02*
X158120000Y-91290225D01*
X156023407Y-92176593D02*
X156500000Y-91700000D01*
G04 #@! TO.N,CS5*
X157540000Y-102131895D02*
X157311832Y-102360063D01*
X157311832Y-104559390D02*
X157075864Y-104795358D01*
X153306997Y-104795358D02*
X151932355Y-106170000D01*
X157075864Y-104795358D02*
X153306997Y-104795358D01*
X157311832Y-102360063D02*
X157311832Y-104559390D01*
G04 #@! TO.N,CS6*
X154044643Y-105115358D02*
X157208412Y-105115358D01*
X157208412Y-105115358D02*
X157960000Y-104363770D01*
X152365531Y-106794470D02*
X154044643Y-105115358D01*
X157960000Y-104363770D02*
X157960000Y-104115002D01*
G04 #@! TO.N,LED*
X160223676Y-84360000D02*
X160800000Y-84936324D01*
X162180000Y-88180000D02*
X162180000Y-89957918D01*
X157300000Y-82800000D02*
X157540000Y-83040000D01*
X157963891Y-96000000D02*
X156763676Y-96000000D01*
X156163676Y-95400000D02*
X153305750Y-95400000D01*
X159360000Y-84360000D02*
X160223676Y-84360000D01*
X157540000Y-83040000D02*
X158040000Y-83040000D01*
X162180000Y-89957918D02*
X160540000Y-91597918D01*
X160540000Y-93423890D02*
X158336287Y-95627604D01*
X158040000Y-83040000D02*
X159360000Y-84360000D01*
X160540000Y-91597918D02*
X160540000Y-93423890D01*
X160800000Y-86800000D02*
X162180000Y-88180000D01*
X156763676Y-96000000D02*
X156163676Y-95400000D01*
X158336287Y-95627604D02*
X157963891Y-96000000D01*
X160800000Y-84936324D02*
X160800000Y-86800000D01*
X153305750Y-95400000D02*
X153280421Y-95374671D01*
G04 #@! TO.N,RS485-*
X152496657Y-104703343D02*
X152235028Y-104964972D01*
X152054008Y-104964972D02*
X151918208Y-104829172D01*
X155244000Y-86544000D02*
X154978300Y-86544000D01*
X151836084Y-107312355D02*
X151672355Y-107312355D01*
X151392355Y-105807646D02*
X151539939Y-105660062D01*
X151559720Y-108459720D02*
X151392355Y-108292355D01*
X151976647Y-104424324D02*
X152368657Y-104424324D01*
X154978300Y-86154000D02*
X155244000Y-86154000D01*
X155998194Y-103961871D02*
X155998194Y-103809981D01*
X151918243Y-105281757D02*
X151988954Y-105352468D01*
X154750000Y-109750000D02*
X154520000Y-109980000D01*
X152443603Y-109343602D02*
X152090050Y-108990050D01*
X154563828Y-87749239D02*
X154609082Y-87703986D01*
X155998194Y-103809981D02*
X155788213Y-103600000D01*
X151918241Y-105281754D02*
X151918243Y-105281757D01*
X152116084Y-107732355D02*
X152116084Y-107592355D01*
X154731368Y-89295045D02*
X154800000Y-89226413D01*
X154750000Y-108900000D02*
X154750000Y-109750000D01*
D14*
X155998194Y-104108892D02*
X156145215Y-104108892D01*
D13*
X154800000Y-88600000D02*
X154800000Y-88347452D01*
X155217500Y-85582500D02*
X154760000Y-85125000D01*
X151848647Y-104232324D02*
X151848647Y-104296324D01*
X155400000Y-87747452D02*
X155400000Y-86700000D01*
X154520000Y-109980000D02*
X153080000Y-109980000D01*
X155400000Y-85998000D02*
X155400000Y-85920000D01*
X151672355Y-108012355D02*
X151836084Y-108012355D01*
X152090050Y-108990050D02*
X151559720Y-108459720D01*
X151691933Y-105055446D02*
X151827732Y-105191245D01*
X155252550Y-87894903D02*
X155323726Y-87823726D01*
X153080000Y-109697156D02*
X152726446Y-109343602D01*
X151392355Y-107032355D02*
X151392355Y-106892355D01*
X151392355Y-106892355D02*
X151392355Y-106452844D01*
X154822300Y-86388000D02*
X154822300Y-86310000D01*
X151827732Y-105191245D02*
X151918241Y-105281754D01*
X152872981Y-103600000D02*
X152496657Y-103976324D01*
X152496657Y-104552324D02*
X152496657Y-104616324D01*
X155400000Y-85765000D02*
X155217500Y-85582500D01*
X154790102Y-87703986D02*
X155026276Y-87940160D01*
X154800001Y-88166432D02*
X154563828Y-87930259D01*
X155788213Y-103600000D02*
X152872981Y-103600000D01*
X151988954Y-105493890D02*
X151904101Y-105578744D01*
X155323726Y-87823726D02*
X155400000Y-87747452D01*
X155207296Y-87940160D02*
X155252550Y-87894903D01*
X151392355Y-106452844D02*
X151392355Y-105807646D01*
X152496657Y-104616324D02*
X152496657Y-104703343D01*
X154760000Y-85125000D02*
X154760000Y-84700000D01*
X151621259Y-105578743D02*
X151539939Y-105660062D01*
X155400000Y-85920000D02*
X155400000Y-85765000D01*
X154800000Y-89226413D02*
X154800000Y-88600000D01*
X152368657Y-104104324D02*
X151976647Y-104104324D01*
X151737189Y-104829172D02*
X151691933Y-104874427D01*
X151392355Y-108292355D02*
G75*
G02*
X151672355Y-108012355I280045J-45D01*
G01*
X151918208Y-104829172D02*
G75*
G03*
X151737190Y-104829172I-90509J-90507D01*
G01*
X151904101Y-105578744D02*
G75*
G02*
X151762679Y-105578744I-70711J70713D01*
G01*
X151848647Y-104296324D02*
G75*
G03*
X151976647Y-104424253I127953J24D01*
G01*
X152585025Y-109343602D02*
G75*
G02*
X152443603Y-109343602I-70711J70713D01*
G01*
X152116084Y-107592355D02*
G75*
G03*
X151836084Y-107312416I-279984J-45D01*
G01*
X152726446Y-109343602D02*
G75*
G03*
X152585026Y-109343602I-70710J-70708D01*
G01*
X152496657Y-103976324D02*
G75*
G02*
X152368657Y-104104257I-127957J24D01*
G01*
X154563828Y-87930259D02*
G75*
G02*
X154563779Y-87749190I90472J90559D01*
G01*
X152235028Y-104964972D02*
G75*
G02*
X152054008Y-104964972I-90510J90512D01*
G01*
X153080000Y-109838578D02*
G75*
G03*
X153079967Y-109697189I-70700J70678D01*
G01*
X152368657Y-104424324D02*
G75*
G02*
X152496676Y-104552324I43J-127976D01*
G01*
X151672355Y-107312355D02*
G75*
G02*
X151392445Y-107032355I45J279955D01*
G01*
X155400000Y-86700000D02*
G75*
G03*
X155244000Y-86544000I-156000J0D01*
G01*
X153080000Y-109980000D02*
G75*
G02*
X153080011Y-109838589I70700J70700D01*
G01*
X154609082Y-87703986D02*
G75*
G02*
X154790102Y-87703986I90510J-90512D01*
G01*
X155244000Y-86154000D02*
G75*
G03*
X155400000Y-85998000I0J156000D01*
G01*
X151836084Y-108012355D02*
G75*
G03*
X152116055Y-107732355I16J279955D01*
G01*
X151762679Y-105578744D02*
G75*
G03*
X151621290Y-105578774I-70679J-70756D01*
G01*
X151976647Y-104104324D02*
G75*
G03*
X151848624Y-104232324I-47J-127976D01*
G01*
X154978300Y-86544000D02*
G75*
G02*
X154822300Y-86388000I0J156000D01*
G01*
X151691933Y-104874427D02*
G75*
G03*
X151691969Y-105055409I90467J-90473D01*
G01*
X154822300Y-86310000D02*
G75*
G02*
X154978300Y-86154000I156000J0D01*
G01*
X155026276Y-87940160D02*
G75*
G03*
X155207296Y-87940160I90510J90512D01*
G01*
X154800000Y-88347452D02*
G75*
G03*
X154800043Y-88166391I-90500J90552D01*
G01*
X151988954Y-105352468D02*
G75*
G02*
X151988975Y-105493911I-70754J-70732D01*
G01*
G04 #@! TO.N,RS485+*
X151072355Y-105675097D02*
X151072355Y-108467259D01*
X155000000Y-89790089D02*
X155271368Y-89518721D01*
X156451832Y-102311196D02*
X155483028Y-103280000D01*
X156020000Y-107811375D02*
X154642547Y-106433922D01*
X155720000Y-87880000D02*
X155720000Y-85010000D01*
X155720000Y-85010000D02*
X156030000Y-84700000D01*
X155271368Y-89518721D02*
X155271368Y-88328632D01*
X151259807Y-104300410D02*
X151259807Y-105487645D01*
X152905096Y-110300000D02*
X155300000Y-110300000D01*
X154642547Y-106433922D02*
X154438870Y-106433922D01*
X155300000Y-110300000D02*
X156020000Y-109580000D01*
X155483028Y-103280000D02*
X152280217Y-103280000D01*
X151259807Y-105487645D02*
X151072355Y-105675097D01*
X155271368Y-88328632D02*
X155720000Y-87880000D01*
X151072355Y-108467259D02*
X152905096Y-110300000D01*
X156020000Y-109580000D02*
X156020000Y-108900000D01*
X156020000Y-108900000D02*
X156020000Y-107811375D01*
X155000000Y-90739458D02*
X155000000Y-89790089D01*
X154347708Y-106342760D02*
X154438870Y-106433922D01*
X152280217Y-103280000D02*
X151259807Y-104300410D01*
X154635916Y-91103542D02*
X155000000Y-90739458D01*
G04 #@! TO.N,BOOT*
X160700000Y-102400000D02*
X160700000Y-100951767D01*
X153171171Y-98131784D02*
X153171171Y-98890161D01*
X153171171Y-98890161D02*
X154743157Y-100462147D01*
X159623676Y-99875443D02*
X157824557Y-99875443D01*
X157824557Y-99875443D02*
X157237853Y-100462147D01*
X153181159Y-98121796D02*
X153171171Y-98131784D01*
X154743157Y-100462147D02*
X157237853Y-100462147D01*
X160700000Y-100951767D02*
X159623676Y-99875443D01*
G04 #@! TO.N,UART0-RTS{slash}CS0*
X151080000Y-90563920D02*
X151716080Y-91200000D01*
X150200000Y-83785235D02*
X150385235Y-83785235D01*
X150385235Y-83785235D02*
X151680000Y-85080000D01*
X151080000Y-86958774D02*
X151080000Y-90563920D01*
X151716080Y-91200000D02*
X152144194Y-91200000D01*
X152954410Y-92010216D02*
X152954410Y-92187537D01*
X151680000Y-86358774D02*
X151080000Y-86958774D01*
X151680000Y-85080000D02*
X151680000Y-86358774D01*
X152144194Y-91200000D02*
X152954410Y-92010216D01*
G04 #@! TO.N,UART0_TX*
X152000000Y-86491322D02*
X151400000Y-87091322D01*
X150200000Y-82600000D02*
X152000000Y-84400000D01*
X152400000Y-89800000D02*
X152400000Y-91003258D01*
X152400000Y-91003258D02*
X153041922Y-91645180D01*
X151400000Y-87091322D02*
X151400000Y-88800000D01*
X153494410Y-91894410D02*
X153494410Y-94497618D01*
X153494410Y-94497618D02*
X153856792Y-94860000D01*
X153245180Y-91645180D02*
X153494410Y-91894410D01*
X153041922Y-91645180D02*
X153245180Y-91645180D01*
X152000000Y-84400000D02*
X152000000Y-86491322D01*
X151400000Y-88800000D02*
X152400000Y-89800000D01*
G04 #@! TO.N,UART0_RX*
X150760000Y-86826226D02*
X151200000Y-86386226D01*
X152343963Y-92758678D02*
X152077821Y-92758678D01*
X151200000Y-86386226D02*
X151200000Y-85400000D01*
X151200000Y-85400000D02*
X150600000Y-84800000D01*
X150600000Y-84800000D02*
X150300000Y-84800000D01*
X150760000Y-91260000D02*
X150760000Y-86826226D01*
X152077821Y-92758678D02*
X151576372Y-92257229D01*
X151576372Y-92076372D02*
X150760000Y-91260000D01*
X151576372Y-92257229D02*
X151576372Y-92076372D01*
G04 #@! TO.N,Free2*
X156845500Y-87416822D02*
X158500000Y-89071322D01*
X155320000Y-91183134D02*
X154859592Y-91643542D01*
X156845500Y-88637048D02*
X156579997Y-88902551D01*
X156845500Y-86878802D02*
X156845500Y-87416822D01*
X153983239Y-91214541D02*
X153983239Y-89161229D01*
X157603701Y-92272623D02*
X156958254Y-92272623D01*
X156845500Y-86878802D02*
X156845500Y-88637048D01*
X158500000Y-89071322D02*
X158500000Y-91376324D01*
X158500000Y-91376324D02*
X157603701Y-92272623D01*
X156579997Y-89213679D02*
X155320000Y-90473676D01*
X154412240Y-91643542D02*
X153983239Y-91214541D01*
X156579997Y-88902551D02*
X156579997Y-89213679D01*
X154859592Y-91643542D02*
X154412240Y-91643542D01*
X155320000Y-90473676D02*
X155320000Y-91183134D01*
G04 #@! TD*
G04 #@! TA.AperFunction,Conductor*
G04 #@! TO.N,GND*
G36*
X162605148Y-96460833D02*
G01*
X162619500Y-96495481D01*
X162619500Y-111470500D01*
X162605148Y-111505148D01*
X162570500Y-111519500D01*
X148229500Y-111519500D01*
X148194852Y-111505148D01*
X148180500Y-111470500D01*
X148180500Y-101723576D01*
X148194852Y-101688928D01*
X148229500Y-101674576D01*
X148255990Y-101682353D01*
X148339525Y-101736038D01*
X148402943Y-101754659D01*
X148477612Y-101776584D01*
X148477615Y-101776584D01*
X148477617Y-101776585D01*
X148477618Y-101776585D01*
X148621538Y-101776585D01*
X148621539Y-101776585D01*
X148621541Y-101776584D01*
X148621543Y-101776584D01*
X148644373Y-101769880D01*
X148759631Y-101736038D01*
X148880706Y-101658228D01*
X148974955Y-101549458D01*
X149034743Y-101418542D01*
X149034743Y-101418540D01*
X149034744Y-101418539D01*
X149043513Y-101357545D01*
X149051039Y-101305194D01*
X149070175Y-101272943D01*
X149106513Y-101263668D01*
X149111245Y-101264588D01*
X149114944Y-101265500D01*
X149114948Y-101265500D01*
X149285056Y-101265500D01*
X149450225Y-101224790D01*
X149587728Y-101152621D01*
X149625077Y-101149228D01*
X149653887Y-101173237D01*
X149659500Y-101196009D01*
X149659500Y-103423516D01*
X149645148Y-103458164D01*
X149524974Y-103578337D01*
X149524975Y-103578338D01*
X149475541Y-103627772D01*
X149462059Y-103651126D01*
X149452162Y-103668269D01*
X149451015Y-103670256D01*
X149438615Y-103691732D01*
X149421623Y-103755147D01*
X149421623Y-103755150D01*
X149419500Y-103763072D01*
X149419500Y-103763075D01*
X149419500Y-104463517D01*
X149405148Y-104498165D01*
X149135546Y-104767766D01*
X149135541Y-104767772D01*
X149098616Y-104831731D01*
X149098615Y-104831733D01*
X149079500Y-104903070D01*
X149079500Y-105757604D01*
X149091718Y-105803201D01*
X149098615Y-105828941D01*
X149098617Y-105828945D01*
X149135539Y-105892898D01*
X149135546Y-105892907D01*
X149190559Y-105947920D01*
X149190565Y-105947925D01*
X149905148Y-106662508D01*
X149919500Y-106697156D01*
X149919500Y-107363853D01*
X149905148Y-107398501D01*
X149870500Y-107412853D01*
X149843277Y-107404595D01*
X149778231Y-107361133D01*
X149770021Y-107359500D01*
X149719748Y-107349500D01*
X148680252Y-107349500D01*
X148629979Y-107359500D01*
X148621769Y-107361133D01*
X148555447Y-107405447D01*
X148518955Y-107460062D01*
X148511133Y-107471769D01*
X148499500Y-107530252D01*
X148499500Y-108569748D01*
X148511133Y-108628231D01*
X148526756Y-108651612D01*
X148555447Y-108694552D01*
X148577937Y-108709579D01*
X148621769Y-108738867D01*
X148670155Y-108748491D01*
X148701336Y-108769325D01*
X148708653Y-108806108D01*
X148693088Y-108833226D01*
X148671816Y-108852071D01*
X148575182Y-108992068D01*
X148575181Y-108992070D01*
X148517085Y-109145261D01*
X148514860Y-109151128D01*
X148494355Y-109320000D01*
X148514860Y-109488872D01*
X148518653Y-109498874D01*
X148575181Y-109647929D01*
X148575182Y-109647931D01*
X148671816Y-109787928D01*
X148671817Y-109787929D01*
X148799148Y-109900734D01*
X148799156Y-109900738D01*
X148819875Y-109911613D01*
X148843885Y-109940423D01*
X148840490Y-109977772D01*
X148819875Y-109998387D01*
X148799156Y-110009261D01*
X148799151Y-110009264D01*
X148799148Y-110009266D01*
X148799147Y-110009267D01*
X148799146Y-110009268D01*
X148671816Y-110122071D01*
X148575182Y-110262068D01*
X148575181Y-110262070D01*
X148541645Y-110350500D01*
X148514860Y-110421128D01*
X148494355Y-110590000D01*
X148514860Y-110758872D01*
X148514861Y-110758874D01*
X148575181Y-110917929D01*
X148575182Y-110917931D01*
X148671816Y-111057928D01*
X148671817Y-111057929D01*
X148799148Y-111170734D01*
X148949775Y-111249790D01*
X149114944Y-111290500D01*
X149285056Y-111290500D01*
X149450225Y-111249790D01*
X149600852Y-111170734D01*
X149728183Y-111057929D01*
X149824818Y-110917930D01*
X149885140Y-110758872D01*
X149905645Y-110590000D01*
X149885140Y-110421128D01*
X149824818Y-110262070D01*
X149728183Y-110122071D01*
X149600852Y-110009266D01*
X149580122Y-109998386D01*
X149556114Y-109969579D01*
X149559507Y-109932229D01*
X149580122Y-109911613D01*
X149600852Y-109900734D01*
X149728183Y-109787929D01*
X149824818Y-109647930D01*
X149885140Y-109488872D01*
X149905645Y-109320000D01*
X149885140Y-109151128D01*
X149824818Y-108992070D01*
X149790801Y-108942787D01*
X149728182Y-108852069D01*
X149706912Y-108833226D01*
X149690494Y-108799508D01*
X149702728Y-108764056D01*
X149729842Y-108748492D01*
X149778231Y-108738867D01*
X149844552Y-108694552D01*
X149877959Y-108644554D01*
X149909141Y-108623719D01*
X149945923Y-108631035D01*
X149961136Y-108647277D01*
X149975539Y-108672224D01*
X149975546Y-108672233D01*
X150030559Y-108727246D01*
X150030564Y-108727250D01*
X152527769Y-111224456D01*
X152527772Y-111224457D01*
X152527775Y-111224460D01*
X152571649Y-111249790D01*
X152591731Y-111261384D01*
X152624837Y-111270254D01*
X152663069Y-111280500D01*
X152663071Y-111280500D01*
X156889479Y-111280500D01*
X156914370Y-111273829D01*
X156960817Y-111261384D01*
X157024779Y-111224456D01*
X157077004Y-111172231D01*
X157077004Y-111172229D01*
X157081033Y-111168201D01*
X157081036Y-111168196D01*
X157734383Y-110514852D01*
X157769031Y-110500500D01*
X158516931Y-110500500D01*
X158541822Y-110493829D01*
X158588269Y-110481384D01*
X158652231Y-110444456D01*
X158704456Y-110392231D01*
X158704456Y-110392229D01*
X158708485Y-110388201D01*
X158708488Y-110388196D01*
X159015353Y-110081334D01*
X159018696Y-110075544D01*
X159052281Y-110017372D01*
X159071397Y-109946031D01*
X159071397Y-108586380D01*
X159085749Y-108551732D01*
X159120397Y-108537380D01*
X159155045Y-108551732D01*
X159210559Y-108607246D01*
X159210565Y-108607251D01*
X160885148Y-110281834D01*
X160899500Y-110316482D01*
X160899500Y-111119748D01*
X160911133Y-111178231D01*
X160928882Y-111204795D01*
X160955447Y-111244552D01*
X160980637Y-111261383D01*
X161021769Y-111288867D01*
X161080252Y-111300500D01*
X161080255Y-111300500D01*
X162119745Y-111300500D01*
X162119748Y-111300500D01*
X162178231Y-111288867D01*
X162244552Y-111244552D01*
X162288867Y-111178231D01*
X162300500Y-111119748D01*
X162300500Y-110080252D01*
X162288867Y-110021769D01*
X162253994Y-109969579D01*
X162244552Y-109955447D01*
X162178228Y-109911131D01*
X162129846Y-109901508D01*
X162098663Y-109880673D01*
X162091347Y-109843891D01*
X162106912Y-109816773D01*
X162128183Y-109797929D01*
X162224818Y-109657930D01*
X162285140Y-109498872D01*
X162305645Y-109330000D01*
X162285140Y-109161128D01*
X162224818Y-109002070D01*
X162217915Y-108992070D01*
X162128183Y-108862071D01*
X162023494Y-108769325D01*
X162000852Y-108749266D01*
X161980122Y-108738386D01*
X161956114Y-108709579D01*
X161959507Y-108672229D01*
X161980122Y-108651613D01*
X162000852Y-108640734D01*
X162128183Y-108527929D01*
X162224818Y-108387930D01*
X162285140Y-108228872D01*
X162305645Y-108060000D01*
X162285140Y-107891128D01*
X162224818Y-107732070D01*
X162224663Y-107731846D01*
X162128183Y-107592071D01*
X162097310Y-107564720D01*
X162000852Y-107479266D01*
X162000844Y-107479262D01*
X162000843Y-107479261D01*
X161850224Y-107400209D01*
X161685056Y-107359500D01*
X161514944Y-107359500D01*
X161514941Y-107359500D01*
X161511999Y-107359857D01*
X161511864Y-107358746D01*
X161478581Y-107353679D01*
X161456356Y-107323471D01*
X161455432Y-107318721D01*
X161449673Y-107278667D01*
X161458947Y-107242331D01*
X161463519Y-107237054D01*
X162464455Y-106236121D01*
X162469167Y-106227961D01*
X162501384Y-106172158D01*
X162501753Y-106170782D01*
X162520500Y-106100818D01*
X162520500Y-106026960D01*
X162520500Y-101780190D01*
X162520500Y-101780188D01*
X162502389Y-101712601D01*
X162501384Y-101708849D01*
X162464456Y-101644887D01*
X162432177Y-101612608D01*
X162417825Y-101577960D01*
X162418323Y-101570997D01*
X162428531Y-101500002D01*
X162419793Y-101439224D01*
X162408050Y-101357547D01*
X162386270Y-101309856D01*
X162348261Y-101226629D01*
X162348258Y-101226625D01*
X162348255Y-101226621D01*
X162297520Y-101168070D01*
X162285676Y-101132487D01*
X162287926Y-101122965D01*
X162287925Y-101122965D01*
X162293731Y-101093776D01*
X162300500Y-101059748D01*
X162300500Y-100020252D01*
X162288867Y-99961769D01*
X162246669Y-99898616D01*
X162244552Y-99895447D01*
X162178228Y-99851131D01*
X162129846Y-99841508D01*
X162098663Y-99820673D01*
X162091347Y-99783891D01*
X162106912Y-99756773D01*
X162128183Y-99737929D01*
X162224818Y-99597930D01*
X162285140Y-99438872D01*
X162305645Y-99270000D01*
X162285140Y-99101128D01*
X162224818Y-98942070D01*
X162186545Y-98886623D01*
X162128183Y-98802071D01*
X162063001Y-98744325D01*
X162000852Y-98689266D01*
X161980122Y-98678386D01*
X161956114Y-98649579D01*
X161959507Y-98612229D01*
X161980122Y-98591613D01*
X162000852Y-98580734D01*
X162128183Y-98467929D01*
X162224818Y-98327930D01*
X162285140Y-98168872D01*
X162305645Y-98000000D01*
X162285140Y-97831128D01*
X162224818Y-97672070D01*
X162211656Y-97653002D01*
X162128183Y-97532071D01*
X162097910Y-97505252D01*
X162000852Y-97419266D01*
X162000844Y-97419262D01*
X162000843Y-97419261D01*
X161850224Y-97340209D01*
X161685056Y-97299500D01*
X161514944Y-97299500D01*
X161349775Y-97340209D01*
X161199156Y-97419261D01*
X161199151Y-97419264D01*
X161199148Y-97419266D01*
X161199146Y-97419268D01*
X161071816Y-97532071D01*
X160975182Y-97672068D01*
X160975181Y-97672070D01*
X160914861Y-97831125D01*
X160914860Y-97831128D01*
X160894355Y-98000000D01*
X160914860Y-98168872D01*
X160914861Y-98168874D01*
X160975181Y-98327929D01*
X160975182Y-98327931D01*
X161064719Y-98457646D01*
X161071817Y-98467929D01*
X161199148Y-98580734D01*
X161205029Y-98583820D01*
X161219875Y-98591613D01*
X161243885Y-98620423D01*
X161240490Y-98657772D01*
X161219875Y-98678387D01*
X161199156Y-98689261D01*
X161199151Y-98689264D01*
X161199148Y-98689266D01*
X161179905Y-98706314D01*
X161071816Y-98802071D01*
X160975182Y-98942068D01*
X160975181Y-98942070D01*
X160914861Y-99101125D01*
X160914860Y-99101128D01*
X160894355Y-99270000D01*
X160914860Y-99438872D01*
X160923211Y-99460891D01*
X160975181Y-99597929D01*
X160975182Y-99597931D01*
X161071817Y-99737930D01*
X161093087Y-99756773D01*
X161109505Y-99790491D01*
X161097271Y-99825943D01*
X161070154Y-99841508D01*
X161021770Y-99851132D01*
X160955447Y-99895447D01*
X160911133Y-99961769D01*
X160899500Y-100020252D01*
X160899500Y-100020255D01*
X160899500Y-100636285D01*
X160885148Y-100670933D01*
X160850500Y-100685285D01*
X160815852Y-100670933D01*
X159850927Y-99706008D01*
X159850925Y-99706005D01*
X159795909Y-99650989D01*
X159795907Y-99650987D01*
X159795904Y-99650985D01*
X159795900Y-99650982D01*
X159731946Y-99614059D01*
X159660607Y-99594943D01*
X159660605Y-99594943D01*
X159660604Y-99594943D01*
X157787629Y-99594943D01*
X157787627Y-99594943D01*
X157716290Y-99614058D01*
X157716288Y-99614059D01*
X157652329Y-99650984D01*
X157652323Y-99650989D01*
X157136019Y-100167295D01*
X157101371Y-100181647D01*
X156591432Y-100181647D01*
X156556784Y-100167295D01*
X156542432Y-100132647D01*
X156546860Y-100112292D01*
X156573362Y-100054260D01*
X156573362Y-100054258D01*
X156578252Y-100020252D01*
X156593844Y-99911803D01*
X156591493Y-99895448D01*
X156573363Y-99769348D01*
X156560171Y-99740462D01*
X156513574Y-99638430D01*
X156513572Y-99638427D01*
X156512746Y-99636619D01*
X156511407Y-99599140D01*
X156536962Y-99571691D01*
X156574441Y-99570352D01*
X156583809Y-99575042D01*
X156619423Y-99597929D01*
X156653693Y-99619953D01*
X156716621Y-99638430D01*
X156791780Y-99660499D01*
X156791783Y-99660499D01*
X156791785Y-99660500D01*
X156791786Y-99660500D01*
X156935706Y-99660500D01*
X156935707Y-99660500D01*
X156935709Y-99660499D01*
X156935711Y-99660499D01*
X156968099Y-99650989D01*
X157073799Y-99619953D01*
X157194874Y-99542143D01*
X157289123Y-99433373D01*
X157348911Y-99302457D01*
X157348911Y-99302455D01*
X157348912Y-99302454D01*
X157369393Y-99160002D01*
X157369393Y-99159997D01*
X157348912Y-99017545D01*
X157336861Y-98991157D01*
X157289123Y-98886627D01*
X157279566Y-98875598D01*
X157213347Y-98799176D01*
X157201504Y-98763592D01*
X157218291Y-98730056D01*
X157250379Y-98718088D01*
X158599343Y-98718088D01*
X158624234Y-98711417D01*
X158670681Y-98698972D01*
X158675580Y-98696144D01*
X158734636Y-98662048D01*
X158734635Y-98662048D01*
X158734643Y-98662044D01*
X158786868Y-98609819D01*
X158786868Y-98609817D01*
X158790897Y-98605789D01*
X158790901Y-98605784D01*
X159153913Y-98242772D01*
X159188561Y-98228420D01*
X159223209Y-98242772D01*
X159237561Y-98277420D01*
X159237561Y-98538452D01*
X159223209Y-98573100D01*
X159215055Y-98579671D01*
X159196475Y-98591613D01*
X159194348Y-98592980D01*
X159194347Y-98592981D01*
X159100104Y-98701744D01*
X159100103Y-98701746D01*
X159040312Y-98832666D01*
X159019832Y-98975118D01*
X159019832Y-98975121D01*
X159040312Y-99117575D01*
X159072414Y-99187867D01*
X159100102Y-99248494D01*
X159100103Y-99248495D01*
X159100104Y-99248497D01*
X159194350Y-99357263D01*
X159194351Y-99357264D01*
X159315426Y-99435074D01*
X159384474Y-99455348D01*
X159453513Y-99475620D01*
X159453516Y-99475620D01*
X159453518Y-99475621D01*
X159453519Y-99475621D01*
X159597439Y-99475621D01*
X159597440Y-99475621D01*
X159597442Y-99475620D01*
X159597444Y-99475620D01*
X159637447Y-99463874D01*
X159735532Y-99435074D01*
X159856607Y-99357264D01*
X159950856Y-99248494D01*
X160010644Y-99117578D01*
X160010644Y-99117576D01*
X160010645Y-99117575D01*
X160031076Y-98975468D01*
X160050212Y-98943215D01*
X160079577Y-98933441D01*
X160130021Y-98933441D01*
X160130022Y-98933441D01*
X160130024Y-98933440D01*
X160130026Y-98933440D01*
X160152856Y-98926736D01*
X160268114Y-98892894D01*
X160389189Y-98815084D01*
X160483438Y-98706314D01*
X160543226Y-98575398D01*
X160543226Y-98575396D01*
X160543227Y-98575395D01*
X160563708Y-98432943D01*
X160563708Y-98432938D01*
X160543227Y-98290486D01*
X160537260Y-98277420D01*
X160483438Y-98159568D01*
X160481289Y-98157088D01*
X160389189Y-98050798D01*
X160340625Y-98019588D01*
X160268114Y-97972988D01*
X160268111Y-97972987D01*
X160256839Y-97969677D01*
X160227637Y-97946145D01*
X160223629Y-97908857D01*
X160235994Y-97888016D01*
X161329161Y-96794852D01*
X161363809Y-96780500D01*
X162136931Y-96780500D01*
X162172599Y-96770942D01*
X162208269Y-96761384D01*
X162237345Y-96744597D01*
X162272231Y-96724456D01*
X162324456Y-96672231D01*
X162324456Y-96672229D01*
X162328485Y-96668201D01*
X162328488Y-96668196D01*
X162535853Y-96460832D01*
X162570500Y-96446481D01*
X162605148Y-96460833D01*
G37*
G04 #@! TD.AperFunction*
G04 #@! TA.AperFunction,Conductor*
G36*
X154232923Y-105410210D02*
G01*
X154247275Y-105444858D01*
X154232923Y-105479506D01*
X153511316Y-106201112D01*
X153511311Y-106201118D01*
X153497260Y-106225458D01*
X153491104Y-106236121D01*
X153481451Y-106252840D01*
X153474385Y-106265078D01*
X153455348Y-106336127D01*
X153455326Y-106336211D01*
X153455270Y-106336418D01*
X153455270Y-106441323D01*
X153440918Y-106475971D01*
X153432762Y-106482544D01*
X153404642Y-106500616D01*
X153310395Y-106609383D01*
X153310394Y-106609385D01*
X153250603Y-106740305D01*
X153230123Y-106882757D01*
X153230123Y-106882762D01*
X153250603Y-107025214D01*
X153270072Y-107067843D01*
X153310393Y-107156133D01*
X153310394Y-107156134D01*
X153310395Y-107156136D01*
X153361736Y-107215387D01*
X153404642Y-107264903D01*
X153525717Y-107342713D01*
X153597714Y-107363853D01*
X153663804Y-107383259D01*
X153663807Y-107383259D01*
X153663809Y-107383260D01*
X153663810Y-107383260D01*
X153807730Y-107383260D01*
X153807731Y-107383260D01*
X153807733Y-107383259D01*
X153807735Y-107383259D01*
X153830565Y-107376555D01*
X153945823Y-107342713D01*
X154066898Y-107264903D01*
X154161147Y-107156133D01*
X154220935Y-107025217D01*
X154220935Y-107025215D01*
X154220936Y-107025214D01*
X154231325Y-106952948D01*
X154250461Y-106920694D01*
X154286798Y-106911419D01*
X154293623Y-106912903D01*
X154366909Y-106934422D01*
X154366914Y-106934422D01*
X154510830Y-106934422D01*
X154510831Y-106934422D01*
X154510833Y-106934421D01*
X154510835Y-106934421D01*
X154601985Y-106907657D01*
X154648923Y-106893875D01*
X154650328Y-106892971D01*
X154651279Y-106892799D01*
X154652111Y-106892420D01*
X154652207Y-106892631D01*
X154687231Y-106886303D01*
X154711477Y-106899538D01*
X155725148Y-107913209D01*
X155739500Y-107947857D01*
X155739500Y-108226477D01*
X155725148Y-108261125D01*
X155713272Y-108269864D01*
X155619156Y-108319261D01*
X155619151Y-108319264D01*
X155619148Y-108319266D01*
X155619146Y-108319268D01*
X155491816Y-108432071D01*
X155425326Y-108528398D01*
X155393832Y-108548760D01*
X155357165Y-108540889D01*
X155344674Y-108528398D01*
X155278183Y-108432071D01*
X155261091Y-108416929D01*
X155150852Y-108319266D01*
X155150844Y-108319262D01*
X155150843Y-108319261D01*
X155000224Y-108240209D01*
X154835056Y-108199500D01*
X154664944Y-108199500D01*
X154499775Y-108240209D01*
X154349156Y-108319261D01*
X154349151Y-108319264D01*
X154349148Y-108319266D01*
X154349146Y-108319268D01*
X154221817Y-108432070D01*
X154185506Y-108484675D01*
X154154012Y-108505037D01*
X154117344Y-108497165D01*
X154103691Y-108482909D01*
X154070085Y-108429425D01*
X153950577Y-108309917D01*
X153950573Y-108309914D01*
X153807473Y-108219998D01*
X153807471Y-108219997D01*
X153647950Y-108164178D01*
X153647941Y-108164176D01*
X153605000Y-108159337D01*
X153605000Y-108597029D01*
X153522787Y-108575000D01*
X153437213Y-108575000D01*
X153355000Y-108597029D01*
X153355000Y-108159337D01*
X153312058Y-108164176D01*
X153312049Y-108164178D01*
X153152528Y-108219997D01*
X153152526Y-108219998D01*
X153009426Y-108309914D01*
X153009422Y-108309917D01*
X152889917Y-108429422D01*
X152889914Y-108429426D01*
X152799998Y-108572526D01*
X152799997Y-108572528D01*
X152744178Y-108732049D01*
X152744176Y-108732058D01*
X152739337Y-108775000D01*
X153177030Y-108775000D01*
X153155000Y-108857213D01*
X153155000Y-108942787D01*
X153177030Y-109025000D01*
X152730492Y-109025000D01*
X152712229Y-109033793D01*
X152709040Y-109033675D01*
X152709040Y-109033812D01*
X152605638Y-109033812D01*
X152573702Y-109042369D01*
X152536520Y-109037472D01*
X152526374Y-109029686D01*
X152262281Y-108765594D01*
X152262280Y-108765593D01*
X152068757Y-108572070D01*
X151872623Y-108375937D01*
X151858272Y-108341290D01*
X151872624Y-108306642D01*
X151896891Y-108295015D01*
X151896545Y-108293499D01*
X151899226Y-108292886D01*
X151899228Y-108292887D01*
X152022382Y-108264781D01*
X152136192Y-108209972D01*
X152234951Y-108131209D01*
X152313704Y-108032443D01*
X152368501Y-107918627D01*
X152396594Y-107795470D01*
X152396584Y-107732310D01*
X152396584Y-107731799D01*
X152396584Y-107646283D01*
X152396592Y-107646186D01*
X152396591Y-107641771D01*
X152396592Y-107641770D01*
X152396587Y-107612669D01*
X152396647Y-107612522D01*
X152396644Y-107592310D01*
X152396645Y-107592310D01*
X152396635Y-107529156D01*
X152368511Y-107406018D01*
X152348865Y-107365236D01*
X152346758Y-107327792D01*
X152371744Y-107299825D01*
X152393010Y-107294970D01*
X152437491Y-107294970D01*
X152437492Y-107294970D01*
X152437494Y-107294969D01*
X152437496Y-107294969D01*
X152462017Y-107287769D01*
X152575584Y-107254423D01*
X152696659Y-107176613D01*
X152790908Y-107067843D01*
X152850696Y-106936927D01*
X152850696Y-106936925D01*
X152850697Y-106936924D01*
X152871178Y-106794472D01*
X152871178Y-106794468D01*
X152863390Y-106740303D01*
X152860971Y-106723481D01*
X152870245Y-106687145D01*
X152874817Y-106681868D01*
X154146478Y-105410210D01*
X154181126Y-105395858D01*
X154198275Y-105395858D01*
X154232923Y-105410210D01*
G37*
G04 #@! TD.AperFunction*
G04 #@! TA.AperFunction,Conductor*
G36*
X161039056Y-101232305D02*
G01*
X161080252Y-101240500D01*
X161414926Y-101240500D01*
X161449574Y-101254852D01*
X161463926Y-101289500D01*
X161459498Y-101309856D01*
X161437717Y-101357547D01*
X161417237Y-101499999D01*
X161417237Y-101500004D01*
X161437717Y-101642456D01*
X161458941Y-101688928D01*
X161497507Y-101773375D01*
X161497508Y-101773376D01*
X161497509Y-101773378D01*
X161591755Y-101882144D01*
X161591756Y-101882145D01*
X161712831Y-101959955D01*
X161789669Y-101982516D01*
X161850918Y-102000501D01*
X161850921Y-102000501D01*
X161850923Y-102000502D01*
X161910500Y-102000502D01*
X161945148Y-102014854D01*
X161959500Y-102049502D01*
X161959500Y-105927405D01*
X161945148Y-105962053D01*
X161071373Y-106835827D01*
X161036725Y-106850179D01*
X161029730Y-106849188D01*
X161029664Y-106849655D01*
X161026195Y-106849156D01*
X161026194Y-106849156D01*
X160882272Y-106849156D01*
X160882267Y-106849156D01*
X160744182Y-106889702D01*
X160744180Y-106889702D01*
X160744180Y-106889703D01*
X160727095Y-106900683D01*
X160623104Y-106967513D01*
X160528858Y-107076279D01*
X160528857Y-107076281D01*
X160469066Y-107207201D01*
X160448586Y-107349653D01*
X160448586Y-107349658D01*
X160469066Y-107492110D01*
X160492632Y-107543710D01*
X160528856Y-107623029D01*
X160528857Y-107623030D01*
X160528858Y-107623032D01*
X160622507Y-107731109D01*
X160623105Y-107731799D01*
X160744180Y-107809609D01*
X160856621Y-107842624D01*
X160878699Y-107849107D01*
X160907900Y-107872639D01*
X160913536Y-107902026D01*
X160907972Y-107947857D01*
X160894355Y-108060000D01*
X160900411Y-108109879D01*
X160890340Y-108146005D01*
X160857674Y-108164428D01*
X160821548Y-108154357D01*
X160817120Y-108150433D01*
X159994852Y-107328165D01*
X159980500Y-107293517D01*
X159980500Y-106225458D01*
X159994852Y-106190810D01*
X160029500Y-106176458D01*
X160043303Y-106178442D01*
X160053716Y-106181500D01*
X160174505Y-106216967D01*
X160174508Y-106216967D01*
X160174510Y-106216968D01*
X160174511Y-106216968D01*
X160318431Y-106216968D01*
X160318432Y-106216968D01*
X160318434Y-106216967D01*
X160318436Y-106216967D01*
X160344973Y-106209175D01*
X160456524Y-106176421D01*
X160577599Y-106098611D01*
X160671848Y-105989841D01*
X160731636Y-105858925D01*
X160731636Y-105858923D01*
X160731637Y-105858922D01*
X160752118Y-105716470D01*
X160752118Y-105716465D01*
X160731637Y-105574013D01*
X160727222Y-105564347D01*
X160671848Y-105443095D01*
X160671845Y-105443091D01*
X160603021Y-105363663D01*
X160591178Y-105328079D01*
X160607965Y-105294543D01*
X160626248Y-105284560D01*
X160636935Y-105281422D01*
X160710053Y-105259953D01*
X160831128Y-105182143D01*
X160925377Y-105073373D01*
X160985165Y-104942457D01*
X160985165Y-104942455D01*
X160985166Y-104942454D01*
X161005647Y-104800002D01*
X161005647Y-104799997D01*
X160985166Y-104657545D01*
X160962662Y-104608269D01*
X160925377Y-104526627D01*
X160915179Y-104514858D01*
X160837748Y-104425497D01*
X160825905Y-104389913D01*
X160837748Y-104361321D01*
X160875690Y-104317533D01*
X160931285Y-104253373D01*
X160991073Y-104122457D01*
X160991073Y-104122455D01*
X160991074Y-104122454D01*
X161000149Y-104059335D01*
X161019285Y-104027082D01*
X161048650Y-104017308D01*
X161180410Y-104017308D01*
X161180411Y-104017308D01*
X161180413Y-104017307D01*
X161180415Y-104017307D01*
X161209482Y-104008772D01*
X161318503Y-103976761D01*
X161439578Y-103898951D01*
X161533827Y-103790181D01*
X161593615Y-103659265D01*
X161593615Y-103659263D01*
X161593616Y-103659262D01*
X161614097Y-103516810D01*
X161614097Y-103516805D01*
X161593616Y-103374353D01*
X161577295Y-103338616D01*
X161533827Y-103243435D01*
X161439578Y-103134665D01*
X161318503Y-103056855D01*
X161314045Y-103055546D01*
X161180415Y-103016308D01*
X161180411Y-103016308D01*
X161036489Y-103016308D01*
X161036484Y-103016308D01*
X160898399Y-103056854D01*
X160777321Y-103134665D01*
X160683075Y-103243431D01*
X160683074Y-103243433D01*
X160623285Y-103374350D01*
X160614209Y-103437474D01*
X160595072Y-103469727D01*
X160565708Y-103479500D01*
X160433942Y-103479500D01*
X160295854Y-103520046D01*
X160255990Y-103545665D01*
X160219083Y-103552323D01*
X160188278Y-103530933D01*
X160180500Y-103504443D01*
X160180500Y-102692521D01*
X160194852Y-102657873D01*
X160229500Y-102643521D01*
X160264148Y-102657873D01*
X160274072Y-102672167D01*
X160274621Y-102673370D01*
X160274625Y-102673376D01*
X160359346Y-102771149D01*
X160368872Y-102782143D01*
X160489947Y-102859953D01*
X160566785Y-102882514D01*
X160628034Y-102900499D01*
X160628037Y-102900499D01*
X160628039Y-102900500D01*
X160628040Y-102900500D01*
X160771960Y-102900500D01*
X160771961Y-102900500D01*
X160771963Y-102900499D01*
X160771965Y-102900499D01*
X160794795Y-102893795D01*
X160910053Y-102859953D01*
X161031128Y-102782143D01*
X161125377Y-102673373D01*
X161185165Y-102542457D01*
X161185165Y-102542455D01*
X161185166Y-102542454D01*
X161205647Y-102400002D01*
X161205647Y-102399997D01*
X161185166Y-102257545D01*
X161146350Y-102172552D01*
X161125377Y-102126627D01*
X161090591Y-102086482D01*
X161031127Y-102017856D01*
X161003008Y-101999784D01*
X160981620Y-101968978D01*
X160980500Y-101958563D01*
X160980500Y-101280364D01*
X160994852Y-101245716D01*
X161029500Y-101231364D01*
X161039056Y-101232305D01*
G37*
G04 #@! TD.AperFunction*
G04 #@! TA.AperFunction,Conductor*
G36*
X158864148Y-102008286D02*
G01*
X159285148Y-102429286D01*
X159299500Y-102463934D01*
X159299500Y-105030231D01*
X159285148Y-105064879D01*
X159204974Y-105145052D01*
X159204975Y-105145053D01*
X159155543Y-105194485D01*
X159155539Y-105194490D01*
X159120534Y-105255123D01*
X159118617Y-105258442D01*
X159118613Y-105258451D01*
X159100224Y-105327084D01*
X159100223Y-105327089D01*
X159099501Y-105329782D01*
X159099500Y-105329790D01*
X159099500Y-105739946D01*
X159085148Y-105774594D01*
X159050500Y-105788946D01*
X159015852Y-105774594D01*
X158963127Y-105721869D01*
X158648096Y-105406839D01*
X158648094Y-105406836D01*
X158593078Y-105351820D01*
X158593076Y-105351818D01*
X158593073Y-105351816D01*
X158593069Y-105351813D01*
X158529116Y-105314890D01*
X158529113Y-105314889D01*
X158514507Y-105310976D01*
X158495596Y-105305908D01*
X158457776Y-105295774D01*
X158457774Y-105295774D01*
X158457773Y-105295774D01*
X158219208Y-105295774D01*
X158184560Y-105281422D01*
X158170208Y-105246774D01*
X158184560Y-105212126D01*
X158385958Y-105010728D01*
X158724456Y-104672231D01*
X158749203Y-104629367D01*
X158761383Y-104608271D01*
X158761383Y-104608270D01*
X158761384Y-104608269D01*
X158780500Y-104536929D01*
X158780500Y-104463071D01*
X158780500Y-102042934D01*
X158794852Y-102008286D01*
X158829500Y-101993934D01*
X158864148Y-102008286D01*
G37*
G04 #@! TD.AperFunction*
G04 #@! TA.AperFunction,Conductor*
G36*
X154706228Y-100742647D02*
G01*
X154706229Y-100742647D01*
X154879310Y-100742647D01*
X154913958Y-100756999D01*
X154928310Y-100791647D01*
X154923882Y-100812002D01*
X154902103Y-100859689D01*
X154902103Y-100859691D01*
X154881622Y-101002144D01*
X154881622Y-101002149D01*
X154902102Y-101144601D01*
X154915180Y-101173237D01*
X154961892Y-101275520D01*
X154961893Y-101275521D01*
X154961894Y-101275523D01*
X155032968Y-101357547D01*
X155056141Y-101384290D01*
X155177216Y-101462100D01*
X155254054Y-101484661D01*
X155315303Y-101502646D01*
X155315306Y-101502646D01*
X155315308Y-101502647D01*
X155315309Y-101502647D01*
X155459229Y-101502647D01*
X155459230Y-101502647D01*
X155459232Y-101502646D01*
X155459234Y-101502646D01*
X155482064Y-101495942D01*
X155597322Y-101462100D01*
X155718397Y-101384290D01*
X155812646Y-101275520D01*
X155819259Y-101261038D01*
X155846708Y-101235484D01*
X155863831Y-101232395D01*
X156108994Y-101232395D01*
X156143642Y-101246747D01*
X156157994Y-101281395D01*
X156143642Y-101316043D01*
X154926680Y-102533005D01*
X154892032Y-102547357D01*
X154857384Y-102533005D01*
X154843032Y-102498357D01*
X154847461Y-102478001D01*
X154857488Y-102456045D01*
X154857489Y-102456040D01*
X154858005Y-102452455D01*
X154867730Y-102384813D01*
X154877971Y-102313587D01*
X154877971Y-102313582D01*
X154857490Y-102171130D01*
X154843678Y-102140886D01*
X154797701Y-102040212D01*
X154794591Y-102036623D01*
X154703452Y-101931442D01*
X154683281Y-101918478D01*
X154661893Y-101887671D01*
X154660774Y-101877257D01*
X154660774Y-100843345D01*
X154657175Y-100829917D01*
X154657174Y-100829914D01*
X154650122Y-100803594D01*
X154655017Y-100766414D01*
X154684770Y-100743584D01*
X154703852Y-100742334D01*
X154706228Y-100742647D01*
G37*
G04 #@! TD.AperFunction*
G04 #@! TA.AperFunction,Conductor*
G36*
X151443862Y-99500648D02*
G01*
X151447214Y-99506785D01*
X151450205Y-99513336D01*
X151450207Y-99513338D01*
X151523506Y-99597930D01*
X151544454Y-99622105D01*
X151665529Y-99699915D01*
X151742367Y-99722476D01*
X151803616Y-99740461D01*
X151803619Y-99740461D01*
X151803621Y-99740462D01*
X151804788Y-99740462D01*
X151805407Y-99740718D01*
X151807087Y-99740960D01*
X151807025Y-99741388D01*
X151839436Y-99754814D01*
X151853788Y-99789462D01*
X151853289Y-99796436D01*
X151848399Y-99830444D01*
X151848399Y-99830447D01*
X151868879Y-99972900D01*
X151878803Y-99994630D01*
X151928669Y-100103819D01*
X151928670Y-100103820D01*
X151928671Y-100103822D01*
X152016293Y-100204943D01*
X152022918Y-100212589D01*
X152143993Y-100290399D01*
X152163577Y-100296149D01*
X152192778Y-100319679D01*
X152196789Y-100356967D01*
X152184421Y-100377812D01*
X150966101Y-101596133D01*
X150931453Y-101610485D01*
X150896805Y-101596133D01*
X150882453Y-101561485D01*
X150882453Y-99552375D01*
X150896805Y-99517727D01*
X150931453Y-99503375D01*
X150945256Y-99505359D01*
X150972428Y-99513338D01*
X151069987Y-99541984D01*
X151069990Y-99541984D01*
X151069992Y-99541985D01*
X151069993Y-99541985D01*
X151213913Y-99541985D01*
X151213914Y-99541985D01*
X151213916Y-99541984D01*
X151213918Y-99541984D01*
X151296530Y-99517727D01*
X151352006Y-99501438D01*
X151376151Y-99485920D01*
X151413056Y-99479260D01*
X151443862Y-99500648D01*
G37*
G04 #@! TD.AperFunction*
G04 #@! TA.AperFunction,Conductor*
G36*
X148958928Y-91548842D02*
G01*
X148969275Y-91561374D01*
X148975539Y-91572224D01*
X148975546Y-91572233D01*
X149030559Y-91627246D01*
X149030565Y-91627251D01*
X149644166Y-92240852D01*
X149658518Y-92275500D01*
X149644166Y-92310148D01*
X149609518Y-92324500D01*
X148680252Y-92324500D01*
X148621769Y-92336133D01*
X148555447Y-92380447D01*
X148515215Y-92440660D01*
X148511133Y-92446769D01*
X148499500Y-92505252D01*
X148499500Y-93544748D01*
X148511133Y-93603231D01*
X148515010Y-93609033D01*
X148555447Y-93669552D01*
X148593533Y-93695000D01*
X148621769Y-93713867D01*
X148670155Y-93723491D01*
X148701336Y-93744325D01*
X148708653Y-93781108D01*
X148693088Y-93808226D01*
X148671816Y-93827071D01*
X148575182Y-93967068D01*
X148575181Y-93967070D01*
X148523956Y-94102143D01*
X148514860Y-94126128D01*
X148494355Y-94295000D01*
X148514860Y-94463872D01*
X148514861Y-94463874D01*
X148575181Y-94622929D01*
X148575182Y-94622931D01*
X148670140Y-94760500D01*
X148671817Y-94762929D01*
X148799148Y-94875734D01*
X148805029Y-94878820D01*
X148819875Y-94886613D01*
X148843885Y-94915423D01*
X148840490Y-94952772D01*
X148819875Y-94973387D01*
X148799156Y-94984261D01*
X148799151Y-94984264D01*
X148799148Y-94984266D01*
X148799146Y-94984268D01*
X148671816Y-95097071D01*
X148575182Y-95237068D01*
X148575181Y-95237070D01*
X148522450Y-95376115D01*
X148514860Y-95396128D01*
X148494355Y-95565000D01*
X148514860Y-95733872D01*
X148514861Y-95733874D01*
X148575181Y-95892929D01*
X148575182Y-95892931D01*
X148659339Y-96014852D01*
X148671817Y-96032929D01*
X148799148Y-96145734D01*
X148949775Y-96224790D01*
X149114944Y-96265500D01*
X149285056Y-96265500D01*
X149450225Y-96224790D01*
X149587728Y-96152621D01*
X149625077Y-96149228D01*
X149653887Y-96173237D01*
X149659500Y-96196009D01*
X149659500Y-97275500D01*
X149645148Y-97310148D01*
X149610500Y-97324500D01*
X148680252Y-97324500D01*
X148621769Y-97336133D01*
X148555447Y-97380447D01*
X148521128Y-97431810D01*
X148511133Y-97446769D01*
X148499500Y-97505252D01*
X148499500Y-98544748D01*
X148511133Y-98603231D01*
X148517867Y-98613309D01*
X148555447Y-98669552D01*
X148599476Y-98698971D01*
X148621769Y-98713867D01*
X148670155Y-98723491D01*
X148701336Y-98744325D01*
X148708653Y-98781108D01*
X148693088Y-98808226D01*
X148671816Y-98827071D01*
X148575182Y-98967068D01*
X148575181Y-98967070D01*
X148514861Y-99126125D01*
X148514860Y-99126128D01*
X148494355Y-99295000D01*
X148514860Y-99463872D01*
X148528807Y-99500648D01*
X148575181Y-99622929D01*
X148575182Y-99622931D01*
X148671816Y-99762928D01*
X148671817Y-99762929D01*
X148799148Y-99875734D01*
X148799156Y-99875738D01*
X148819875Y-99886613D01*
X148843885Y-99915423D01*
X148840490Y-99952772D01*
X148819875Y-99973387D01*
X148799156Y-99984261D01*
X148799151Y-99984264D01*
X148799148Y-99984266D01*
X148773069Y-100007369D01*
X148671816Y-100097071D01*
X148575182Y-100237068D01*
X148575181Y-100237070D01*
X148521806Y-100377812D01*
X148514860Y-100396128D01*
X148505898Y-100469940D01*
X148494355Y-100565000D01*
X148513463Y-100722367D01*
X148503392Y-100758492D01*
X148478625Y-100775288D01*
X148339526Y-100816131D01*
X148255991Y-100869815D01*
X148219084Y-100876473D01*
X148188278Y-100855084D01*
X148180500Y-100828593D01*
X148180500Y-91754651D01*
X148194852Y-91720003D01*
X148229500Y-91705651D01*
X148255990Y-91713429D01*
X148269947Y-91722399D01*
X148323175Y-91738028D01*
X148408034Y-91762945D01*
X148408037Y-91762945D01*
X148408039Y-91762946D01*
X148408040Y-91762946D01*
X148551960Y-91762946D01*
X148551961Y-91762946D01*
X148551963Y-91762945D01*
X148551965Y-91762945D01*
X148577402Y-91755476D01*
X148690053Y-91722399D01*
X148811128Y-91644589D01*
X148889809Y-91553785D01*
X148923344Y-91536999D01*
X148958928Y-91548842D01*
G37*
G04 #@! TD.AperFunction*
G04 #@! TA.AperFunction,Conductor*
G36*
X157073178Y-97397162D02*
G01*
X157087530Y-97431810D01*
X157073178Y-97466458D01*
X156716900Y-97822736D01*
X156682252Y-97837088D01*
X156245481Y-97837088D01*
X156174142Y-97856204D01*
X156174140Y-97856204D01*
X156110187Y-97893127D01*
X156110178Y-97893134D01*
X155142068Y-98861246D01*
X155107420Y-98875598D01*
X154734027Y-98875598D01*
X154699379Y-98861246D01*
X154696995Y-98858686D01*
X154623576Y-98773955D01*
X154607451Y-98763592D01*
X154502501Y-98696145D01*
X154502498Y-98696144D01*
X154364413Y-98655598D01*
X154364409Y-98655598D01*
X154257711Y-98655598D01*
X154223063Y-98641246D01*
X154209210Y-98613571D01*
X154196337Y-98524030D01*
X154191922Y-98514364D01*
X154136548Y-98393112D01*
X154042299Y-98284342D01*
X153921224Y-98206532D01*
X153921221Y-98206531D01*
X153783136Y-98165985D01*
X153783132Y-98165985D01*
X153735618Y-98165985D01*
X153700970Y-98151633D01*
X153687117Y-98123958D01*
X153666325Y-97979341D01*
X153651286Y-97946411D01*
X153606536Y-97848423D01*
X153606529Y-97848415D01*
X153512287Y-97739653D01*
X153505613Y-97735364D01*
X153391212Y-97661843D01*
X153391209Y-97661842D01*
X153253124Y-97621296D01*
X153253120Y-97621296D01*
X153109198Y-97621296D01*
X153109193Y-97621296D01*
X152971107Y-97661842D01*
X152904813Y-97704446D01*
X152867906Y-97711104D01*
X152837100Y-97689715D01*
X152830442Y-97652808D01*
X152841290Y-97631135D01*
X152845226Y-97626594D01*
X152905014Y-97495678D01*
X152915199Y-97424836D01*
X152934335Y-97392584D01*
X152963700Y-97382810D01*
X157038530Y-97382810D01*
X157073178Y-97397162D01*
G37*
G04 #@! TD.AperFunction*
G04 #@! TA.AperFunction,Conductor*
G36*
X156061841Y-95694851D02*
G01*
X156539219Y-96172230D01*
X156539220Y-96172231D01*
X156591445Y-96224456D01*
X156591446Y-96224457D01*
X156591448Y-96224458D01*
X156615790Y-96238511D01*
X156654184Y-96260678D01*
X156654184Y-96260679D01*
X156654188Y-96260680D01*
X156655407Y-96261384D01*
X156670768Y-96265500D01*
X156726745Y-96280500D01*
X156726747Y-96280500D01*
X156726748Y-96280500D01*
X157620957Y-96280500D01*
X157655605Y-96294852D01*
X157669957Y-96329500D01*
X157655605Y-96364148D01*
X157212295Y-96807458D01*
X157177647Y-96821810D01*
X152633829Y-96821810D01*
X152588422Y-96833977D01*
X152551240Y-96829082D01*
X152528410Y-96799329D01*
X152527239Y-96779678D01*
X152538850Y-96698923D01*
X152535012Y-96672231D01*
X152518368Y-96556467D01*
X152518368Y-96556465D01*
X152484928Y-96483242D01*
X152480500Y-96462887D01*
X152480500Y-96450426D01*
X152494852Y-96415778D01*
X152529500Y-96401426D01*
X152562504Y-96415097D01*
X152562784Y-96414775D01*
X152563752Y-96415614D01*
X152564148Y-96415778D01*
X152565009Y-96416703D01*
X152565430Y-96417068D01*
X152581042Y-96427101D01*
X152686507Y-96494879D01*
X152763345Y-96517440D01*
X152824594Y-96535425D01*
X152824597Y-96535425D01*
X152824599Y-96535426D01*
X152824600Y-96535426D01*
X152968520Y-96535426D01*
X152968521Y-96535426D01*
X152968523Y-96535425D01*
X152968525Y-96535425D01*
X152991355Y-96528721D01*
X153106613Y-96494879D01*
X153227688Y-96417069D01*
X153321937Y-96308299D01*
X153381725Y-96177383D01*
X153381725Y-96177381D01*
X153381726Y-96177380D01*
X153402207Y-96034928D01*
X153402207Y-96034924D01*
X153395596Y-95988945D01*
X153384192Y-95909629D01*
X153393466Y-95873293D01*
X153418887Y-95855643D01*
X153490474Y-95834624D01*
X153611549Y-95756814D01*
X153663021Y-95697412D01*
X153696557Y-95680625D01*
X153700053Y-95680500D01*
X156027194Y-95680500D01*
X156061841Y-95694851D01*
G37*
G04 #@! TD.AperFunction*
G04 #@! TA.AperFunction,Conductor*
G36*
X162190855Y-91429121D02*
G01*
X162216411Y-91456569D01*
X162219500Y-91473693D01*
X162219500Y-92567120D01*
X162205148Y-92601768D01*
X162170500Y-92616120D01*
X162135852Y-92601768D01*
X162130174Y-92594956D01*
X162128183Y-92592071D01*
X162000852Y-92479266D01*
X162000844Y-92479262D01*
X162000843Y-92479261D01*
X161850224Y-92400209D01*
X161685056Y-92359500D01*
X161514944Y-92359500D01*
X161349773Y-92400210D01*
X161212271Y-92472377D01*
X161174922Y-92475771D01*
X161146113Y-92451761D01*
X161140500Y-92428990D01*
X161140500Y-92178075D01*
X161154851Y-92143428D01*
X161565692Y-91732586D01*
X161600339Y-91718235D01*
X161607327Y-91719274D01*
X161607401Y-91718761D01*
X161610873Y-91719260D01*
X161754794Y-91719260D01*
X161754795Y-91719260D01*
X161754797Y-91719259D01*
X161754799Y-91719259D01*
X161790337Y-91708824D01*
X161892887Y-91678713D01*
X162013962Y-91600903D01*
X162108211Y-91492133D01*
X162125928Y-91453337D01*
X162153376Y-91427782D01*
X162190855Y-91429121D01*
G37*
G04 #@! TD.AperFunction*
G04 #@! TA.AperFunction,Conductor*
G36*
X150436331Y-86689723D02*
G01*
X150455176Y-86695256D01*
X150484378Y-86718787D01*
X150488703Y-86754951D01*
X150483523Y-86774286D01*
X150483522Y-86774289D01*
X150479500Y-86789298D01*
X150479500Y-91259422D01*
X150465148Y-91294070D01*
X150430500Y-91308422D01*
X150395852Y-91294070D01*
X150134852Y-91033070D01*
X150120500Y-90998422D01*
X150120500Y-90916749D01*
X150120084Y-90915197D01*
X150119144Y-90911689D01*
X150108108Y-90870500D01*
X150101385Y-90845410D01*
X150101384Y-90845409D01*
X150101384Y-90845407D01*
X150095367Y-90834985D01*
X150064456Y-90781445D01*
X150012231Y-90729220D01*
X150012230Y-90729219D01*
X149754852Y-90471841D01*
X149740500Y-90437193D01*
X149740500Y-90262805D01*
X149754851Y-90228158D01*
X150148196Y-89834812D01*
X150148201Y-89834809D01*
X150152229Y-89830780D01*
X150152231Y-89830780D01*
X150204456Y-89778555D01*
X150241384Y-89714593D01*
X150255881Y-89660490D01*
X150260500Y-89643253D01*
X150260500Y-89569395D01*
X150260500Y-87084458D01*
X150272469Y-87052369D01*
X150295075Y-87026280D01*
X150295078Y-87026277D01*
X150354866Y-86895361D01*
X150354866Y-86895359D01*
X150354867Y-86895358D01*
X150375348Y-86752905D01*
X150375348Y-86752904D01*
X150374026Y-86743712D01*
X150383299Y-86707375D01*
X150415551Y-86688237D01*
X150436331Y-86689723D01*
G37*
G04 #@! TD.AperFunction*
G04 #@! TA.AperFunction,Conductor*
G36*
X151444148Y-89240834D02*
G01*
X152105148Y-89901834D01*
X152119500Y-89936482D01*
X152119500Y-90870500D01*
X152105148Y-90905148D01*
X152070500Y-90919500D01*
X151852563Y-90919500D01*
X151817915Y-90905148D01*
X151374852Y-90462085D01*
X151360500Y-90427437D01*
X151360500Y-89275482D01*
X151374852Y-89240834D01*
X151409500Y-89226482D01*
X151444148Y-89240834D01*
G37*
G04 #@! TD.AperFunction*
G04 #@! TA.AperFunction,Conductor*
G36*
X161404148Y-87800834D02*
G01*
X161885148Y-88281834D01*
X161899500Y-88316482D01*
X161899500Y-89821435D01*
X161885148Y-89856083D01*
X161404148Y-90337083D01*
X161369500Y-90351435D01*
X161334852Y-90337083D01*
X161320500Y-90302435D01*
X161320500Y-87835482D01*
X161334852Y-87800834D01*
X161369500Y-87786482D01*
X161404148Y-87800834D01*
G37*
G04 #@! TD.AperFunction*
G04 #@! TA.AperFunction,Conductor*
G36*
X149373614Y-86878885D02*
G01*
X149383538Y-86893177D01*
X149410942Y-86953182D01*
X149444324Y-87026277D01*
X149444325Y-87026278D01*
X149444326Y-87026280D01*
X149538572Y-87135046D01*
X149538573Y-87135047D01*
X149659648Y-87212857D01*
X149664302Y-87214223D01*
X149693505Y-87237753D01*
X149699500Y-87261239D01*
X149699500Y-89469842D01*
X149685148Y-89504490D01*
X149504148Y-89685490D01*
X149469500Y-89699842D01*
X149434852Y-89685490D01*
X149420500Y-89650842D01*
X149420500Y-88603072D01*
X149420048Y-88601388D01*
X149420044Y-88601372D01*
X149412127Y-88571824D01*
X149401384Y-88531731D01*
X149399680Y-88528779D01*
X149364456Y-88467769D01*
X149312231Y-88415544D01*
X149312230Y-88415543D01*
X149134851Y-88238164D01*
X149120499Y-88203516D01*
X149120499Y-87083001D01*
X149134850Y-87048354D01*
X149304320Y-86878884D01*
X149338966Y-86864533D01*
X149373614Y-86878885D01*
G37*
G04 #@! TD.AperFunction*
G04 #@! TA.AperFunction,Conductor*
G36*
X160121842Y-84654852D02*
G01*
X160505148Y-85038158D01*
X160519500Y-85072806D01*
X160519500Y-86836930D01*
X160535157Y-86895361D01*
X160538615Y-86908267D01*
X160538617Y-86908271D01*
X160543079Y-86916000D01*
X160547974Y-86953182D01*
X160525144Y-86982935D01*
X160500644Y-86989500D01*
X159471508Y-86989500D01*
X159436860Y-86975148D01*
X159434476Y-86972588D01*
X159367559Y-86895361D01*
X159361057Y-86887857D01*
X159361056Y-86887856D01*
X159332937Y-86869784D01*
X159311549Y-86838978D01*
X159310429Y-86828563D01*
X159310429Y-84689500D01*
X159324781Y-84654852D01*
X159359429Y-84640500D01*
X160087194Y-84640500D01*
X160121842Y-84654852D01*
G37*
G04 #@! TD.AperFunction*
G04 #@! TA.AperFunction,Conductor*
G36*
X153615000Y-85440660D02*
G01*
X153657944Y-85435823D01*
X153657947Y-85435822D01*
X153817471Y-85380002D01*
X153817473Y-85380001D01*
X153960573Y-85290085D01*
X153960577Y-85290082D01*
X154080083Y-85170576D01*
X154113690Y-85117090D01*
X154144276Y-85095388D01*
X154181249Y-85101669D01*
X154195506Y-85115324D01*
X154231815Y-85167927D01*
X154231817Y-85167929D01*
X154359148Y-85280734D01*
X154509775Y-85359790D01*
X154591777Y-85380001D01*
X154613732Y-85385412D01*
X154636654Y-85398340D01*
X155028165Y-85789852D01*
X155042517Y-85824500D01*
X155028165Y-85859148D01*
X154993517Y-85873500D01*
X154920831Y-85873500D01*
X154809817Y-85903245D01*
X154809815Y-85903246D01*
X154710281Y-85960713D01*
X154710281Y-85960714D01*
X154629014Y-86041981D01*
X154629013Y-86041981D01*
X154571546Y-86141515D01*
X154571545Y-86141517D01*
X154541800Y-86252530D01*
X154541800Y-86448678D01*
X154539740Y-86448678D01*
X154531691Y-86478691D01*
X154499208Y-86497435D01*
X154462985Y-86487721D01*
X154455791Y-86480941D01*
X154401128Y-86417857D01*
X154392599Y-86412376D01*
X154280053Y-86340047D01*
X154280050Y-86340046D01*
X154141965Y-86299500D01*
X154141961Y-86299500D01*
X153998039Y-86299500D01*
X153998034Y-86299500D01*
X153859946Y-86340047D01*
X153855987Y-86342591D01*
X153819080Y-86349246D01*
X153788276Y-86327854D01*
X153780500Y-86301367D01*
X153780500Y-86163070D01*
X153771001Y-86127622D01*
X153769155Y-86120734D01*
X153769155Y-86120732D01*
X153764807Y-86104508D01*
X153761384Y-86091731D01*
X153741646Y-86057543D01*
X153724456Y-86027769D01*
X153672231Y-85975544D01*
X153672230Y-85975543D01*
X153182289Y-85485602D01*
X153167937Y-85450954D01*
X153182289Y-85416306D01*
X153216937Y-85401954D01*
X153233121Y-85404704D01*
X153322052Y-85435822D01*
X153322055Y-85435823D01*
X153365000Y-85440660D01*
X153365000Y-85028852D01*
X153443922Y-85050000D01*
X153536078Y-85050000D01*
X153615000Y-85028852D01*
X153615000Y-85440660D01*
G37*
G04 #@! TD.AperFunction*
G04 #@! TA.AperFunction,Conductor*
G36*
X162605148Y-82094852D02*
G01*
X162619500Y-82129500D01*
X162619500Y-84027411D01*
X162605148Y-84062059D01*
X162570500Y-84076411D01*
X162535852Y-84062059D01*
X162504339Y-84030546D01*
X162504333Y-84030541D01*
X162469496Y-84010428D01*
X162440375Y-83993616D01*
X162440373Y-83993615D01*
X162440371Y-83993614D01*
X162425014Y-83989500D01*
X162369037Y-83974500D01*
X162369035Y-83974500D01*
X162369034Y-83974500D01*
X162276628Y-83974500D01*
X162241980Y-83960148D01*
X162230812Y-83942875D01*
X162224818Y-83927069D01*
X162224817Y-83927068D01*
X162128183Y-83787071D01*
X162112721Y-83773373D01*
X162000852Y-83674266D01*
X161980122Y-83663386D01*
X161956114Y-83634579D01*
X161959507Y-83597229D01*
X161980122Y-83576613D01*
X162000852Y-83565734D01*
X162128183Y-83452929D01*
X162224818Y-83312930D01*
X162285140Y-83153872D01*
X162305645Y-82985000D01*
X162285140Y-82816128D01*
X162224818Y-82657070D01*
X162128183Y-82517071D01*
X162000852Y-82404266D01*
X162000844Y-82404262D01*
X162000843Y-82404261D01*
X161850224Y-82325209D01*
X161685056Y-82284500D01*
X161514944Y-82284500D01*
X161349775Y-82325209D01*
X161199156Y-82404261D01*
X161199151Y-82404264D01*
X161199148Y-82404266D01*
X161199146Y-82404268D01*
X161071816Y-82517071D01*
X160975182Y-82657068D01*
X160975181Y-82657070D01*
X160915081Y-82815544D01*
X160914860Y-82816128D01*
X160894355Y-82985000D01*
X160914860Y-83153872D01*
X160914861Y-83153874D01*
X160975181Y-83312929D01*
X160975182Y-83312931D01*
X161071816Y-83452928D01*
X161071817Y-83452929D01*
X161199148Y-83565734D01*
X161199156Y-83565738D01*
X161219875Y-83576613D01*
X161243885Y-83605423D01*
X161240490Y-83642772D01*
X161219875Y-83663387D01*
X161199156Y-83674261D01*
X161199151Y-83674264D01*
X161199148Y-83674266D01*
X161199147Y-83674267D01*
X161199146Y-83674268D01*
X161071816Y-83787071D01*
X160975182Y-83927068D01*
X160975181Y-83927070D01*
X160915850Y-84083517D01*
X160914860Y-84086128D01*
X160894355Y-84255000D01*
X160914860Y-84423872D01*
X160914861Y-84423874D01*
X160974816Y-84581966D01*
X160973683Y-84619451D01*
X160946375Y-84645157D01*
X160908890Y-84644024D01*
X160894352Y-84633989D01*
X160450927Y-84190565D01*
X160450925Y-84190562D01*
X160395909Y-84135546D01*
X160395907Y-84135544D01*
X160395904Y-84135542D01*
X160395900Y-84135539D01*
X160331947Y-84098616D01*
X160331944Y-84098615D01*
X160285340Y-84086128D01*
X160260607Y-84079500D01*
X160260605Y-84079500D01*
X160260604Y-84079500D01*
X159643716Y-84079500D01*
X159609068Y-84065148D01*
X159594716Y-84030500D01*
X159609068Y-83995852D01*
X159629911Y-83983485D01*
X159660510Y-83974500D01*
X159710053Y-83959953D01*
X159831128Y-83882143D01*
X159925377Y-83773373D01*
X159985165Y-83642457D01*
X159985165Y-83642455D01*
X159985166Y-83642454D01*
X160005647Y-83500002D01*
X160005647Y-83499997D01*
X159985166Y-83357545D01*
X159970431Y-83325281D01*
X159925377Y-83226627D01*
X159831128Y-83117857D01*
X159710053Y-83040047D01*
X159710050Y-83040046D01*
X159571965Y-82999500D01*
X159571961Y-82999500D01*
X159428039Y-82999500D01*
X159428034Y-82999500D01*
X159289949Y-83040046D01*
X159168871Y-83117857D01*
X159074625Y-83226623D01*
X159074624Y-83226625D01*
X159014833Y-83357545D01*
X158996006Y-83488495D01*
X158976870Y-83520749D01*
X158940532Y-83530023D01*
X158912857Y-83516170D01*
X158267251Y-82870565D01*
X158267249Y-82870562D01*
X158212233Y-82815546D01*
X158212227Y-82815541D01*
X158177390Y-82795428D01*
X158148269Y-82778616D01*
X158148267Y-82778615D01*
X158148265Y-82778614D01*
X158124440Y-82772231D01*
X158076931Y-82759500D01*
X158076929Y-82759500D01*
X158076928Y-82759500D01*
X157842283Y-82759500D01*
X157807635Y-82745148D01*
X157793782Y-82717473D01*
X157785166Y-82657545D01*
X157758886Y-82600001D01*
X157725377Y-82526627D01*
X157631128Y-82417857D01*
X157510053Y-82340047D01*
X157510050Y-82340046D01*
X157371965Y-82299500D01*
X157371961Y-82299500D01*
X157228039Y-82299500D01*
X157228034Y-82299500D01*
X157089949Y-82340046D01*
X156968871Y-82417857D01*
X156874625Y-82526623D01*
X156874624Y-82526625D01*
X156814833Y-82657545D01*
X156794353Y-82799997D01*
X156794353Y-82800002D01*
X156814833Y-82942454D01*
X156834264Y-82985000D01*
X156874623Y-83073373D01*
X156874624Y-83073374D01*
X156874625Y-83073376D01*
X156934484Y-83142457D01*
X156968872Y-83182143D01*
X157038088Y-83226625D01*
X157042216Y-83229278D01*
X157063605Y-83260084D01*
X157056947Y-83296991D01*
X157026141Y-83318380D01*
X157015725Y-83319500D01*
X155735899Y-83319500D01*
X155701251Y-83305148D01*
X155686899Y-83270500D01*
X155691326Y-83250147D01*
X155748547Y-83124853D01*
X155748547Y-83124851D01*
X155748548Y-83124850D01*
X155769029Y-82982398D01*
X155769029Y-82982393D01*
X155748548Y-82839941D01*
X155717625Y-82772231D01*
X155688759Y-82709023D01*
X155644153Y-82657545D01*
X155594510Y-82600253D01*
X155594113Y-82599998D01*
X155473435Y-82522443D01*
X155473432Y-82522442D01*
X155335347Y-82481896D01*
X155335343Y-82481896D01*
X155191421Y-82481896D01*
X155191416Y-82481896D01*
X155053331Y-82522442D01*
X154932253Y-82600253D01*
X154838007Y-82709019D01*
X154838006Y-82709021D01*
X154838005Y-82709022D01*
X154838005Y-82709023D01*
X154829966Y-82726627D01*
X154822243Y-82743537D01*
X154794794Y-82769092D01*
X154757315Y-82767753D01*
X154733099Y-82743536D01*
X154725377Y-82726627D01*
X154725374Y-82726623D01*
X154631128Y-82617857D01*
X154510053Y-82540047D01*
X154510050Y-82540046D01*
X154371965Y-82499500D01*
X154371961Y-82499500D01*
X154228039Y-82499500D01*
X154228034Y-82499500D01*
X154089949Y-82540046D01*
X153968871Y-82617857D01*
X153874625Y-82726623D01*
X153874624Y-82726625D01*
X153814833Y-82857545D01*
X153794353Y-82999997D01*
X153794353Y-83000002D01*
X153814833Y-83142454D01*
X153820048Y-83153872D01*
X153854485Y-83229278D01*
X153864015Y-83250144D01*
X153865354Y-83287623D01*
X153839799Y-83315072D01*
X153819443Y-83319500D01*
X152763069Y-83319500D01*
X152731163Y-83328050D01*
X152731162Y-83328050D01*
X152691732Y-83338615D01*
X152691728Y-83338616D01*
X152627775Y-83375539D01*
X152627766Y-83375546D01*
X152205545Y-83797768D01*
X152205544Y-83797768D01*
X152176388Y-83848267D01*
X152176389Y-83848268D01*
X152168616Y-83861731D01*
X152168614Y-83861734D01*
X152150943Y-83927688D01*
X152150942Y-83927693D01*
X152149500Y-83933072D01*
X152149500Y-84034517D01*
X152135148Y-84069165D01*
X152100500Y-84083517D01*
X152065852Y-84069165D01*
X150709293Y-82712607D01*
X150694941Y-82677959D01*
X150695439Y-82670996D01*
X150705647Y-82600000D01*
X150705647Y-82599998D01*
X150685166Y-82457545D01*
X150667041Y-82417857D01*
X150625377Y-82326627D01*
X150624149Y-82325210D01*
X150531128Y-82217857D01*
X150457784Y-82170722D01*
X150436395Y-82139916D01*
X150443053Y-82103009D01*
X150473859Y-82081620D01*
X150484275Y-82080500D01*
X162570500Y-82080500D01*
X162605148Y-82094852D01*
G37*
G04 #@! TD.AperFunction*
G04 #@! TD*
M02*
